<?xml version="1.0" encoding="UTF-8"?><svg id="Layer_2" xmlns="http://www.w3.org/2000/svg" xmlns:xlink="http://www.w3.org/1999/xlink" viewBox="0 0 514.22 487.77"><defs><style>.cls-1{fill:url(#linear-gradient);}</style><linearGradient id="linear-gradient" x1="0" y1="243.89" x2="514.22" y2="243.89" gradientUnits="userSpaceOnUse"><stop offset="0" stop-color="#f0ff40"/><stop offset="1" stop-color="#9edcff"/></linearGradient></defs><g id="Layer_1-2"><path class="cls-1" d="m398.19,355.68c-5.22-.67-6.99-7.3-2.8-10.48,52.62-39.99,68.52-113.82,34.61-172.55L330.32,0h0c-58.69,33.88-81.83,105.68-56.35,166.59,2.03,4.85-2.82,9.7-7.67,7.67-60.91-25.49-132.73-2.35-166.62,56.34L0,403.25h0c58.62,33.84,132.26,18.06,172.3-34.3,3.19-4.17,9.8-2.4,10.47,2.81,8.43,65.45,64.35,116.02,132.09,116.02h199.36c0-67.74-50.58-123.67-116.03-132.09Zm-32.22-1.1h-168.6c-6.77,0-11-7.33-7.62-13.19l84.3-146.01c3.38-5.86,11.85-5.86,15.23,0l84.3,146.01c3.39,5.86-.85,13.19-7.62,13.19Z"/></g></svg>