<svg width="35" height="39" viewBox="0 0 35 39" fill="none" xmlns="http://www.w3.org/2000/svg">
<mask id="mask0_12098_18923" style="mask-type:luminance" maskUnits="userSpaceOnUse" x="0" y="0" width="35" height="39">
<path d="M35 0.313477H0V38.9342H35V0.313477Z" fill="white"/>
</mask>
<g mask="url(#mask0_12098_18923)">
<path d="M20.4328 22.558L18.5179 27.6848C18.4615 27.8269 18.4615 27.9849 18.5179 28.1271L21.8063 36.951L25.6117 34.8022L21.0469 22.558C20.9418 22.2736 20.5378 22.2736 20.4328 22.558Z" fill="white"/>
<path d="M24.2627 13.933C24.1577 13.6486 23.7537 13.6486 23.6487 13.933L21.7339 19.0598C21.6773 19.2021 21.6773 19.36 21.7339 19.5022L27.1228 33.9505L30.9282 31.8017L24.2627 13.933Z" fill="white"/>
<path d="M17.5 2.70703C17.5969 2.70703 17.6859 2.73072 17.7747 2.77813L32.2853 10.9699C32.455 11.0647 32.56 11.2385 32.56 11.4281V27.8116C32.56 28.0013 32.455 28.175 32.2853 28.2698L17.7747 36.4696C17.6939 36.5169 17.5969 36.5406 17.5 36.5406C17.4031 36.5406 17.3141 36.5169 17.2253 36.4696L2.72276 28.2778C2.55309 28.1829 2.44806 28.0091 2.44806 27.8196V11.4281C2.44806 11.2385 2.55309 11.0647 2.72276 10.9699L17.2334 2.77813C17.3141 2.73072 17.4112 2.70703 17.5 2.70703ZM17.5 0.313477C16.983 0.313477 16.4658 0.447768 16.0053 0.708452L1.49469 8.90024C0.573638 9.42161 0 10.3854 0 11.4281V27.8116C0 28.8544 0.573638 29.8261 1.49469 30.3475L16.0053 38.5392C16.4658 38.7998 16.983 38.9342 17.5 38.9342C18.017 38.9342 18.5342 38.7998 18.9947 38.5392L33.5053 30.3475C34.4344 29.8261 35 28.8623 35 27.8116V11.4281C35 10.3854 34.4264 9.41371 33.5053 8.89234L19.0028 0.708452C18.5342 0.447768 18.017 0.313477 17.5 0.313477Z" fill="white"/>
<path d="M7.91113 33.966L9.24423 30.3955L11.9266 32.5758L9.42197 34.8191L7.91113 33.966Z" fill="white"/>
<path d="M16.2792 10.2588H12.6031C12.3284 10.2588 12.0779 10.4247 11.989 10.6775L4.10352 31.8165L7.90892 33.9652L16.5943 10.6854C16.667 10.48 16.5134 10.2588 16.2792 10.2588Z" fill="white"/>
<path d="M22.7186 10.2588H19.0425C18.7678 10.2588 18.5173 10.4247 18.4285 10.6775L9.41992 34.8183L13.2253 36.9671L23.0256 10.6933C23.1064 10.48 22.9449 10.2588 22.7186 10.2588Z" fill="white"/>
</g>
</svg>
