<svg width="260" height="288" viewBox="0 0 260 288" fill="none" xmlns="http://www.w3.org/2000/svg">
<path fill-rule="evenodd" clip-rule="evenodd" d="M138.919 2.33667C133.398 -0.778893 126.602 -0.778887 121.081 2.33667L8.96603 65.5933C3.41912 68.723 0 74.5204 0 80.796V207.204C0 213.48 3.41913 219.277 8.96604 222.407L121.081 285.663C126.602 288.779 133.398 288.779 138.919 285.663L251.034 222.407C256.581 219.277 260 213.48 260 207.204V80.796C260 74.5204 256.581 68.723 251.034 65.5933L138.919 2.33667ZM130 32.7158L31.2996 88.404V199.596L39.3509 204.139L116.059 78.7667C122.224 68.6893 137.116 68.6911 143.281 78.7666L220.158 204.416L228.7 199.596V88.404L130 32.7158ZM193.024 219.725L129.67 116.178L66.4852 219.448L130 255.284L193.024 219.725Z" fill="#0B4FFF"/>
</svg>
