<svg width="70" height="70" viewBox="0 0 70 70" fill="none" xmlns="http://www.w3.org/2000/svg">
<path d="M54.9213 10.8621H15.0787C14.083 10.8621 13.2759 11.7078 13.2759 12.7511V52.4213C13.2759 53.4646 14.083 54.3103 15.0787 54.3103H54.9213C55.917 54.3103 56.7242 53.4646 56.7242 52.4213V12.7511C56.7242 11.7078 55.917 10.8621 54.9213 10.8621Z" fill="white"/>
<path fill-rule="evenodd" clip-rule="evenodd" d="M70 35C70 54.3302 54.3302 70 35 70C15.67 70 0 54.3302 0 35C0 15.67 15.67 0 35 0C54.3302 0 70 15.67 70 35ZM25.082 48.9282H18.2895C16.8622 48.9282 16.1571 48.9282 15.7273 48.6533C15.2629 48.3522 14.9792 47.8535 14.9448 47.3031C14.919 46.7961 15.2716 46.1768 15.9766 44.9387L32.7482 15.3765C33.4618 14.1211 33.8229 13.4935 34.2786 13.2613C34.7687 13.012 35.3534 13.012 35.8435 13.2613C36.2992 13.4935 36.6603 14.1211 37.3739 15.3765L40.8218 21.3952L40.8394 21.4259C41.6102 22.7726 42.0011 23.4555 42.1717 24.1723C42.3609 24.9548 42.3609 25.7802 42.1717 26.5626C41.9998 27.2849 41.6129 27.9727 40.8304 29.3398L32.0207 44.9129L31.9979 44.9528C31.2221 46.3106 30.8289 46.9988 30.2839 47.518C29.6906 48.0856 28.977 48.4981 28.1945 48.7306C27.4809 48.9282 26.6813 48.9282 25.082 48.9282ZM42.2354 48.9282H51.9682C53.4041 48.9282 54.1265 48.9282 54.5567 48.6449C55.0208 48.3438 55.3131 47.8363 55.3392 47.2864C55.3639 46.7956 55.019 46.2005 54.3432 45.0343C54.3199 44.9946 54.2966 44.9542 54.2728 44.9131L49.3975 36.5729L49.3421 36.479C48.657 35.3205 48.3112 34.7355 47.867 34.5093C47.3772 34.26 46.8007 34.26 46.3109 34.5093C45.864 34.7415 45.5028 35.352 44.7888 36.5815L39.931 44.9217L39.9144 44.9504C39.2033 46.178 38.8479 46.7914 38.8735 47.2947C38.9079 47.8451 39.1916 48.3522 39.6559 48.6533C40.0772 48.9282 40.7995 48.9282 42.2354 48.9282Z" fill="#E84142"/>
</svg>
