<svg xmlns="http://www.w3.org/2000/svg" width="45" height="45" viewBox="0 0 45 45" fill="none"><script xmlns="" type="text/javascript"/><script xmlns=""/>
<path fill-rule="evenodd" clip-rule="evenodd" d="M13.7642 18.9085L22.504 10.1722L31.2474 18.9156L36.33 13.8295L22.504 0L8.6781 13.8259L13.7642 18.9085ZM0 22.5008L5.08424 17.4166L10.1685 22.5008L5.08424 27.5851L0 22.5008ZM22.504 34.8313L13.7642 26.0914L8.67096 31.1704L8.67807 31.1775L22.504 44.9999L36.3299 31.1704L36.3335 31.1668L31.2474 26.0879L22.504 34.8313ZM34.83 22.5022L39.9142 17.418L44.9984 22.5022L39.9142 27.5864L34.83 22.5022ZM22.504 17.3375L27.6612 22.4983H27.6647L27.6612 22.5018L22.504 27.6625L17.3468 22.5089L17.3397 22.4983L17.3468 22.4911L18.2496 21.5884L18.6903 21.1512L22.504 17.3375Z" fill="#F3BA2F"/>
<script xmlns=""/></svg>
