<svg width="48" height="48" viewBox="0 0 48 48" fill="none" xmlns="http://www.w3.org/2000/svg">
<path d="M16.5781 16.8452V24.654C16.5781 28.9672 20.0662 32.4635 24.369 32.4635C28.6718 32.4635 32.1596 28.9672 32.1596 24.654C32.1596 20.341 28.6718 16.8447 24.369 16.8447C24.3594 16.8447 24.35 16.8455 24.3404 16.8455V16.8452H16.5781Z" fill="#FB8A60"/>
<path d="M25.5987 0H22.4586H16.5784V9.03542H24.3407V9.03616C24.3503 9.03616 24.3597 9.03542 24.3693 9.03542C32.9746 9.03542 39.951 16.0278 39.951 24.6542C39.951 33.2803 32.9746 40.2727 24.3693 40.2727C15.7637 40.2727 8.78732 33.2803 8.78732 24.6542V16.8452H0V23.9916H0.0573835C0.0679736 37.2531 10.7962 48 24.0287 48C37.2678 48 48.0007 37.2422 48.0007 23.9716C48.0007 11.23 38.1054 0.811438 25.5987 0V0Z" fill="#FB8A60"/>
<path d="M8.76221 0H0.0546875V9.10158H8.76221V0Z" fill="#FB8A60"/>
</svg>
