<svg xmlns="http://www.w3.org/2000/svg" width="156" height="171" viewBox="0 0 156 171" fill="none">
  <path d="M154.843 21.2663V7.75543M154.921 48.3176L143.067 41.5622V28.0513L154.921 21.2959M154.903 61.8578V48.347M154.981 88.9093L143.127 82.1538V68.643L154.981 61.8875M154.843 102.357L154.843 88.8462M154.921 129.408L143.067 122.653V109.142L154.921 102.387M154.903 142.949V129.438M153 169L143.127 163.245V149.734L154.981 142.978M95.4606 28.0217L83.6064 21.2663V7.75542L95.4606 1L107.315 7.75542V21.2663L95.4606 28.0217ZM71.8505 28.0217L59.9962 21.2663V7.75542L71.8505 1L83.7047 7.75542V21.2663L71.8505 28.0217ZM48.2397 28.0217L36.3854 21.2663V7.75542L48.2397 1L60.0939 7.75542V21.2663L48.2397 28.0217ZM24.6294 28.0217L12.7751 21.2663L12.7751 7.75542L24.6294 1L36.4836 7.75542V21.2663L24.6294 28.0217ZM83.6855 48.3176L71.8312 41.5622V28.0513L83.6855 21.2959L95.5397 28.0513V41.5622L83.6855 48.3176ZM60.0747 48.3176L48.2204 41.5622V28.0513L60.0747 21.2959L71.9289 28.0513V41.5622L60.0747 48.3176ZM36.4644 48.3176L24.6101 41.5622L24.6101 28.0513L36.4644 21.2959L48.3186 28.0513V41.5622L36.4644 48.3176ZM12.8542 48.3176L1 41.5622L1 28.0513L12.8542 21.2959L24.7085 28.0513L24.7085 41.5622L12.8542 48.3176ZM95.5205 68.6133L83.6662 61.8578V48.347L95.5205 41.5915L107.375 48.347V61.8578L95.5205 68.6133ZM71.9103 68.6133L60.0561 61.8578V48.347L71.9103 41.5915L83.7646 48.347V61.8578L71.9103 68.6133ZM48.2994 68.6133L36.4451 61.8578V48.347L48.2994 41.5915L60.1536 48.347V61.8578L48.2994 68.6133ZM24.6892 68.6133L12.835 61.8578L12.835 48.347L24.6892 41.5915L36.5435 48.347V61.8578L24.6892 68.6133ZM83.7453 88.9093L71.8911 82.1538V68.643L83.7453 61.8875L95.5996 68.643V82.1538L83.7453 88.9093ZM60.135 88.9093L48.2808 82.1538V68.643L60.135 61.8875L71.9893 68.643V82.1538L60.135 88.9093ZM36.5242 88.9093L24.67 82.1538L24.67 68.643L36.5242 61.8875L48.3785 68.643V82.1538L36.5242 88.9093ZM12.9134 88.9093L1.05921 82.1538L1.05921 68.643L12.9134 61.8875L24.7677 68.643L24.7677 82.1538L12.9134 88.9093ZM95.4606 109.112L83.6064 102.357V88.8462L95.4606 82.0907L107.315 88.8462V102.357L95.4606 109.112ZM71.8505 109.112L59.9962 102.357V88.8462L71.8505 82.0907L83.7047 88.8462V102.357L71.8505 109.112ZM48.2397 109.112L36.3854 102.357V88.8462L48.2397 82.0907L60.0939 88.8462V102.357L48.2397 109.112ZM24.6294 109.112L12.7751 102.357L12.7751 88.8462L24.6294 82.0907L36.4836 88.8462V102.357L24.6294 109.112ZM83.6855 129.408L71.8312 122.653V109.142L83.6855 102.387L95.5397 109.142V122.653L83.6855 129.408ZM60.0747 129.408L48.2204 122.653L48.2204 109.142L60.0747 102.387L71.9289 109.142V122.653L60.0747 129.408ZM36.4644 129.408L24.6101 122.653L24.6101 109.142L36.4644 102.387L48.3186 109.142L48.3186 122.653L36.4644 129.408ZM12.8542 129.408L1 122.653L1 109.142L12.8542 102.387L24.7085 109.142L24.7085 122.653L12.8542 129.408ZM95.5205 149.704L83.6662 142.949L83.6662 129.438L95.5205 122.682L107.375 129.438L107.375 142.949L95.5205 149.704ZM71.9103 149.704L60.0561 142.949V129.438L71.9103 122.682L83.7646 129.438L83.7646 142.949L71.9103 149.704ZM48.2994 149.704L36.4451 142.949V129.438L48.2994 122.682L60.1536 129.438V142.949L48.2994 149.704ZM24.6892 149.704L12.835 142.949L12.835 129.438L24.6892 122.682L36.5435 129.438V142.949L24.6892 149.704ZM83.7453 170L71.8911 163.245V149.734L83.7453 142.978L95.5996 149.734V163.245L83.7453 170ZM60.135 170L48.2808 163.245L48.2808 149.734L60.135 142.978L71.9893 149.734V163.245L60.135 170ZM36.5242 170L24.67 163.245V149.734L36.5242 142.978L48.3785 149.734L48.3785 163.245L36.5242 170ZM12.9134 170L1.05921 163.245L1.05921 149.734L12.9134 142.978L24.7677 149.734V163.245L12.9134 170ZM143.086 28.0217L131.232 21.2663V7.75543L143.086 1.00001L154.94 7.75543V21.2663L143.086 28.0217ZM119.476 28.0217L107.622 21.2663V7.75543L119.476 1.00001L131.33 7.75543V21.2663L119.476 28.0217ZM131.311 48.3176L119.457 41.5622V28.0513L131.311 21.2959L143.165 28.0513V41.5622L131.311 48.3176ZM107.701 48.3176L95.8464 41.5622V28.0513L107.701 21.2959L119.555 28.0513V41.5622L107.701 48.3176ZM143.146 68.6133L131.292 61.8578V48.347L143.146 41.5915L155 48.347V61.8578L143.146 68.6133ZM119.536 68.6133L107.681 61.8578V48.347L119.536 41.5915L131.39 48.347V61.8578L119.536 68.6133ZM131.371 88.9093L119.516 82.1538V68.643L131.371 61.8875L143.225 68.643V82.1538L131.371 88.9093ZM107.76 88.9093L95.9056 82.1538V68.643L107.76 61.8875L119.614 68.643V82.1538L107.76 88.9093ZM143.086 109.112L131.232 102.357L131.232 88.8462L143.086 82.0907L154.94 88.8462L154.94 102.357L143.086 109.112ZM119.476 109.112L107.622 102.357V88.8462L119.476 82.0907L131.33 88.8462L131.33 102.357L119.476 109.112ZM131.311 129.408L119.457 122.653V109.142L131.311 102.387L143.165 109.142V122.653L131.311 129.408ZM107.701 129.408L95.8464 122.653V109.142L107.701 102.387L119.555 109.142V122.653L107.701 129.408ZM143.146 149.704L131.292 142.949V129.438L143.146 122.682L155 129.438V142.949L143.146 149.704ZM119.536 149.704L107.681 142.949L107.681 129.438L119.536 122.682L131.39 129.438V142.949L119.536 149.704ZM131.371 170L119.516 163.245V149.734L131.371 142.978L143.225 149.734V163.245L131.371 170ZM107.76 170L95.9056 163.245V149.734L107.76 142.978L119.614 149.734V163.245L107.76 170Z" stroke="url(#paint0_radial_5374_140)"/>
  <defs>
    <radialGradient id="paint0_radial_5374_140" cx="0" cy="0" r="1" gradientUnits="userSpaceOnUse" gradientTransform="translate(121 138) rotate(-141.016) scale(225.199 112.377)">
      <stop stop-color="#6CB6AD"/>
      <stop offset="0.838492" stop-color="#010101" stop-opacity="0"/>
    </radialGradient>
  </defs>
</svg>