<svg xmlns="http://www.w3.org/2000/svg" width="156" height="173" fill="none" viewBox="0 0 156 173"><path stroke="url(#paint0_radial_5220_5531)" stroke-width="2" d="M154.843 22.2663V8.75543M154.921 49.3176L143.067 42.5622V29.0513L154.921 22.2959M154.903 62.8578V49.347M154.981 89.9093L143.127 83.1538V69.643L154.981 62.8875M154.843 103.357L154.843 89.8462M154.921 130.408L143.067 123.653V110.142L154.921 103.387M154.903 143.949V130.438M153 170L143.127 164.245V150.734L154.981 143.978M95.4606 29.0217L83.6064 22.2663V8.75542L95.4606 2L107.315 8.75542V22.2663L95.4606 29.0217ZM71.8505 29.0217L59.9962 22.2663V8.75542L71.8505 2L83.7047 8.75542V22.2663L71.8505 29.0217ZM48.2397 29.0217L36.3854 22.2663V8.75542L48.2397 2L60.0939 8.75542V22.2663L48.2397 29.0217ZM24.6294 29.0217L12.7751 22.2663L12.7751 8.75542L24.6294 2L36.4836 8.75542V22.2663L24.6294 29.0217ZM83.6855 49.3176L71.8312 42.5622V29.0513L83.6855 22.2959L95.5397 29.0513V42.5622L83.6855 49.3176ZM60.0747 49.3176L48.2204 42.5622V29.0513L60.0747 22.2959L71.9289 29.0513V42.5622L60.0747 49.3176ZM36.4644 49.3176L24.6101 42.5622L24.6101 29.0513L36.4644 22.2959L48.3186 29.0513V42.5622L36.4644 49.3176ZM12.8542 49.3176L1 42.5622L1 29.0513L12.8542 22.2959L24.7085 29.0513L24.7085 42.5622L12.8542 49.3176ZM95.5205 69.6133L83.6662 62.8578V49.347L95.5205 42.5915L107.375 49.347V62.8578L95.5205 69.6133ZM71.9103 69.6133L60.0561 62.8578V49.347L71.9103 42.5915L83.7646 49.347V62.8578L71.9103 69.6133ZM48.2994 69.6133L36.4451 62.8578V49.347L48.2994 42.5915L60.1536 49.347V62.8578L48.2994 69.6133ZM24.6892 69.6133L12.835 62.8578L12.835 49.347L24.6892 42.5915L36.5435 49.347V62.8578L24.6892 69.6133ZM83.7453 89.9093L71.8911 83.1538V69.643L83.7453 62.8875L95.5996 69.643V83.1538L83.7453 89.9093ZM60.135 89.9093L48.2808 83.1538V69.643L60.135 62.8875L71.9893 69.643V83.1538L60.135 89.9093ZM36.5242 89.9093L24.67 83.1538L24.67 69.643L36.5242 62.8875L48.3785 69.643V83.1538L36.5242 89.9093ZM12.9134 89.9093L1.05921 83.1538L1.05921 69.643L12.9134 62.8875L24.7677 69.643L24.7677 83.1538L12.9134 89.9093ZM95.4606 110.112L83.6064 103.357V89.8462L95.4606 83.0907L107.315 89.8462V103.357L95.4606 110.112ZM71.8505 110.112L59.9962 103.357V89.8462L71.8505 83.0907L83.7047 89.8462V103.357L71.8505 110.112ZM48.2397 110.112L36.3854 103.357V89.8462L48.2397 83.0907L60.0939 89.8462V103.357L48.2397 110.112ZM24.6294 110.112L12.7751 103.357L12.7751 89.8462L24.6294 83.0907L36.4836 89.8462V103.357L24.6294 110.112ZM83.6855 130.408L71.8312 123.653V110.142L83.6855 103.387L95.5397 110.142V123.653L83.6855 130.408ZM60.0747 130.408L48.2204 123.653L48.2204 110.142L60.0747 103.387L71.9289 110.142V123.653L60.0747 130.408ZM36.4644 130.408L24.6101 123.653L24.6101 110.142L36.4644 103.387L48.3186 110.142L48.3186 123.653L36.4644 130.408ZM12.8542 130.408L1 123.653L1 110.142L12.8542 103.387L24.7085 110.142L24.7085 123.653L12.8542 130.408ZM95.5205 150.704L83.6662 143.949L83.6662 130.438L95.5205 123.682L107.375 130.438L107.375 143.949L95.5205 150.704ZM71.9103 150.704L60.0561 143.949V130.438L71.9103 123.682L83.7646 130.438L83.7646 143.949L71.9103 150.704ZM48.2994 150.704L36.4451 143.949V130.438L48.2994 123.682L60.1536 130.438V143.949L48.2994 150.704ZM24.6892 150.704L12.835 143.949L12.835 130.438L24.6892 123.682L36.5435 130.438V143.949L24.6892 150.704ZM83.7453 171L71.8911 164.245V150.734L83.7453 143.978L95.5996 150.734V164.245L83.7453 171ZM60.135 171L48.2808 164.245L48.2808 150.734L60.135 143.978L71.9893 150.734V164.245L60.135 171ZM36.5242 171L24.67 164.245V150.734L36.5242 143.978L48.3785 150.734L48.3785 164.245L36.5242 171ZM12.9134 171L1.05921 164.245L1.05921 150.734L12.9134 143.978L24.7677 150.734V164.245L12.9134 171ZM143.086 29.0217L131.232 22.2663V8.75543L143.086 2.00001L154.94 8.75543V22.2663L143.086 29.0217ZM119.476 29.0217L107.622 22.2663V8.75543L119.476 2.00001L131.33 8.75543V22.2663L119.476 29.0217ZM131.311 49.3176L119.457 42.5622V29.0513L131.311 22.2959L143.165 29.0513V42.5622L131.311 49.3176ZM107.701 49.3176L95.8464 42.5622V29.0513L107.701 22.2959L119.555 29.0513V42.5622L107.701 49.3176ZM143.146 69.6133L131.292 62.8578V49.347L143.146 42.5915L155 49.347V62.8578L143.146 69.6133ZM119.536 69.6133L107.681 62.8578V49.347L119.536 42.5915L131.39 49.347V62.8578L119.536 69.6133ZM131.371 89.9093L119.516 83.1538V69.643L131.371 62.8875L143.225 69.643V83.1538L131.371 89.9093ZM107.76 89.9093L95.9056 83.1538V69.643L107.76 62.8875L119.614 69.643V83.1538L107.76 89.9093ZM143.086 110.112L131.232 103.357L131.232 89.8462L143.086 83.0907L154.94 89.8462L154.94 103.357L143.086 110.112ZM119.476 110.112L107.622 103.357V89.8462L119.476 83.0907L131.33 89.8462L131.33 103.357L119.476 110.112ZM131.311 130.408L119.457 123.653V110.142L131.311 103.387L143.165 110.142V123.653L131.311 130.408ZM107.701 130.408L95.8464 123.653V110.142L107.701 103.387L119.555 110.142V123.653L107.701 130.408ZM143.146 150.704L131.292 143.949V130.438L143.146 123.682L155 130.438V143.949L143.146 150.704ZM119.536 150.704L107.681 143.949L107.681 130.438L119.536 123.682L131.39 130.438V143.949L119.536 150.704ZM131.371 171L119.516 164.245V150.734L131.371 143.978L143.225 150.734V164.245L131.371 171ZM107.76 171L95.9056 164.245V150.734L107.76 143.978L119.614 150.734V164.245L107.76 171Z"/><defs><radialGradient id="paint0_radial_5220_5531" cx="0" cy="0" r="1" gradientTransform="translate(157.5 171) rotate(-134.526) scale(213.907 106.742)" gradientUnits="userSpaceOnUse"><stop/><stop offset=".922" stop-color="#010101" stop-opacity="0"/></radialGradient></defs></svg>