<svg width="25" height="24" viewBox="0 0 25 24" fill="none" xmlns="http://www.w3.org/2000/svg">
    <path
        fillRule="evenodd"
        clipRule="evenodd"
        d="M13.5685 0.303498C13.9415 0.513678 14.2501 0.821638 14.4611 1.19421C15.6497 3.29309 16.8707 4.96927 18.1242 6.22279C19.3717 7.47029 21.0431 8.6909 23.1385 9.88466L23.2021 9.92083C24.3328 10.5621 24.7295 11.9985 24.0883 13.1291C23.8777 13.5004 23.5701 13.8074 23.1985 14.0174C21.1275 15.187 19.462 16.3936 18.2018 17.637C16.9279 18.8939 15.6848 20.5935 14.4725 22.7358L14.4357 22.8008C14.0082 23.5597 13.2227 23.9902 12.4102 23.9995V5.50423e-06C12.8031 -0.000844899 13.2017 0.0968097 13.5685 0.303498Z"
        fill="#FF3600"
    />
    <path
        fillRule="evenodd"
        clipRule="evenodd"
        d="M15.2197 9.0627L15.2672 9.10941L15.2859 9.12804L15.3047 9.14663C16.8707 10.6905 16.8887 13.2115 15.3449 14.7776L15.3255 14.7971L15.306 14.8165L15.2815 14.8408L15.2571 14.8652C14.4725 15.6543 13.4415 16.0492 12.4102 16.0493V7.92774C13.4236 7.92668 14.4372 8.30511 15.2197 9.0627H15.2197Z"
        fill="#FFB08A"
    />
    <path
        fillRule="evenodd"
        clipRule="evenodd"
        d="M11.2601 0.303478C10.8871 0.513666 10.5785 0.821633 10.3675 1.19421C9.17892 3.29309 7.95788 4.96925 6.70436 6.22277C5.45686 7.47027 3.78546 8.6909 1.69013 9.88464L1.62649 9.9208C0.495857 10.562 0.0990834 11.9985 0.740328 13.1291C0.950901 13.5004 1.25848 13.8074 1.63013 14.0173C3.70109 15.187 5.36664 16.3936 6.62684 17.637C7.9007 18.8939 9.14379 20.5935 10.3562 22.7358L10.3929 22.8008C10.8204 23.5597 11.6059 23.9901 12.4185 23.9995V5.76826e-06C12.0255 -0.000864882 11.6269 0.0968099 11.2602 0.303478H11.2601Z"
        fill="#FFB08A"
    />
    <path
        fillRule="evenodd"
        clipRule="evenodd"
        d="M9.60341 9.0627L9.55593 9.10941L9.53725 9.12804L9.51846 9.14665C7.9524 10.6905 7.9344 13.2115 9.47822 14.7775L9.49762 14.7971L9.51716 14.8165L9.54162 14.8408L9.56604 14.8652C10.3506 15.6543 11.3817 16.0492 12.413 16.0493V7.92774C11.3996 7.9267 10.3859 8.30511 9.60341 9.0627Z"
        fill="#FF3600"
    />
</svg>