<svg width="48" height="48" viewBox="0 0 48 48" fill="none" xmlns="http://www.w3.org/2000/svg">
<rect width="48" height="48" rx="24" fill="#E6FFF9"/>
<path d="M20.9996 24.0001L22.9996 26.0001L26.9996 22.0001M19.8344 16.6972C20.5519 16.6399 21.2331 16.3578 21.781 15.8909C23.0594 14.8014 24.9398 14.8014 26.2183 15.8909C26.7662 16.3578 27.4474 16.6399 28.1649 16.6972C29.8393 16.8308 31.169 18.1604 31.3026 19.8349C31.3598 20.5524 31.642 21.2336 32.1089 21.7814C33.1984 23.0599 33.1984 24.9403 32.1089 26.2188C31.642 26.7667 31.3598 27.4479 31.3026 28.1654C31.169 29.8398 29.8393 31.1695 28.1649 31.3031C27.4474 31.3603 26.7662 31.6425 26.2183 32.1094C24.9398 33.1989 23.0594 33.1989 21.781 32.1094C21.2331 31.6425 20.5519 31.3603 19.8344 31.3031C18.1599 31.1695 16.8303 29.8398 16.6967 28.1654C16.6394 27.4478 16.3573 26.7667 15.8904 26.2188C14.8009 24.9403 14.8009 23.0599 15.8904 21.7814C16.3573 21.2336 16.6394 20.5524 16.6967 19.8349C16.8303 18.1604 18.1599 16.8308 19.8344 16.6972Z" stroke="#059669" stroke-width="2" stroke-linecap="round" stroke-linejoin="round"/>
</svg>
