<svg fill="none" height="219" viewBox="0 0 218 219" width="218" xmlns="http://www.w3.org/2000/svg"><g fill="#ff6b4e"><path d="m131.246 92.7977c0-12.1689-9.864-22.0331-22.033-22.0331-12.1678 0-22.0326 9.8641-22.0326 22.0331 0 8.5143 4.838 15.8873 11.9082 19.5553l-8.1658 35.311h36.5812l-8.165-35.311c7.069-3.668 11.907-11.041 11.907-19.5553z"/><path d="m195.392 136.983c-4.279 33.225-32.727 58.986-67.098 58.986h-38.1611c-37.3161 0-67.6751-30.359-67.6751-67.675v-38.1603c0-37.3162 30.359-67.6752 67.6751-67.6752h38.1611c34.371 0 62.818 25.7624 67.098 58.9872h22.608c-4.386-45.6383-42.938-81.4457-89.706-81.4457h-38.1611c-49.6995 0-90.1329 40.4342-90.1329 90.1337v38.1603c0 49.7 40.4335 90.134 90.1329 90.134h38.1611c46.768 0 85.32-35.808 89.706-81.445z"/></g></svg>