<?xml version="1.0" encoding="UTF-8" standalone="no"?>
<!DOCTYPE svg PUBLIC "-//W3C//DTD SVG 1.1//EN" "http://www.w3.org/Graphics/SVG/1.1/DTD/svg11.dtd">
<svg xmlns="http://www.w3.org/2000/svg" version="1.1" viewBox="0 0 512 512">
<path fill="#226699" d="M 54.81,0.00 Q 54.94,0.00 55.06,0.00 Q 55.14,0.25 55.75,0.25 Q 256.50,0.28 457.25,0.21 Q 472.68,0.75 484.94,8.56 Q 510.29,24.71 512.00,55.56 Q 512.00,256.06 512.00,456.56 Q 511.57,468.07 507.44,477.44 Q 497.03,501.06 472.00,509.50 Q 465.73,511.61 456.94,512.00 Q 256.06,512.00 55.19,512.00 Q 36.53,511.25 22.56,500.44 Q 1.77,484.35 0.00,457.19 Q 0.00,255.81 0.00,54.44 Q 1.96,27.65 22.31,11.81 Q 36.10,1.09 54.81,0.00 ZM 180.81,44.94 Q 175.84,41.71 169.74,43.43 Q 166.72,44.28 166.58,44.31 Q 127.29,53.45 88.08,62.97 Q 88.04,62.98 86.29,63.34 Q 82.81,64.05 80.05,66.56 Q 79.59,66.98 80.19,67.12 Q 118.01,75.84 155.25,84.50 Q 164.43,86.64 168.50,95.14 Q 169.81,97.88 170.31,101.54 Q 170.76,104.87 170.76,108.25 Q 170.70,146.47 170.81,184.68 A 0.36,0.36 80.3 0 0 171.29,185.02 Q 180.05,181.78 183.39,173.71 Q 184.74,170.45 184.80,164.58 Q 185.31,109.80 184.78,55.02 Q 184.74,51.10 184.25,49.54 Q 183.32,46.57 180.81,44.94 ZM 231.51,120.73 Q 233.84,122.94 236.06,123.94 Q 245.05,127.99 255.50,127.99 Q 346.42,128.00 437.34,128.00 Q 437.42,128.00 439.16,128.10 Q 442.55,128.28 444.44,125.69 Q 447.38,121.65 449.21,115.82 Q 452.72,104.68 454.33,93.15 Q 455.39,85.53 454.52,81.85 Q 452.99,75.36 446.75,72.56 Q 443.83,71.25 438.54,71.25 Q 355.39,71.25 272.25,71.25 Q 261.88,71.25 257.91,78.74 Q 256.01,82.33 256.35,88.05 Q 256.64,92.96 257.70,98.26 A 1.28,1.28 85.2 0 1 256.41,99.79 Q 245.33,99.44 236.40,103.79 Q 230.94,106.46 228.88,109.72 Q 225.52,115.04 231.51,120.73 ZM 134.56,109.94 Q 130.52,106.68 125.32,105.39 Q 121.81,104.51 121.71,104.49 Q 92.27,96.01 62.76,87.75 Q 54.98,85.57 53.30,85.47 Q 46.91,85.08 44.08,90.74 Q 42.75,93.41 42.75,98.51 Q 42.75,147.45 42.75,196.38 Q 42.75,211.52 43.58,214.54 Q 46.49,225.16 59.00,228.74 Q 90.28,237.69 121.52,246.76 Q 130.17,249.27 133.69,248.88 Q 142.25,247.93 142.25,237.00 Q 142.25,184.14 142.25,131.28 Q 142.25,122.87 141.33,119.81 Q 139.58,113.98 134.56,109.94 ZM 270.44,156.95 Q 270.81,190.37 293.31,214.69 Q 315.19,238.34 347.51,241.32 Q 357.70,242.26 367.47,240.93 Q 390.97,237.73 409.19,222.69 Q 439.24,197.88 440.80,157.33 A 0.80,0.80 -89.0 0 0 440.00,156.50 L 270.88,156.50 A 0.44,0.44 89.4 0 0 270.44,156.95 ZM 270.19,357.82 L 270.25,397.33 Q 270.25,398.37 270.99,397.63 L 397.69,270.93 Q 398.11,270.51 397.52,270.51 Q 347.63,270.22 299.25,270.28 Q 287.37,270.30 279.28,277.79 Q 279.11,277.95 272.72,285.66 Q 269.12,290.00 264.44,293.94 Q 247.58,308.10 226.23,311.61 Q 200.58,315.83 177.61,304.09 Q 160.81,295.51 151.44,282.56 Q 144.19,272.55 133.25,270.75 Q 119.54,268.50 109.76,277.04 Q 104.35,281.78 101.75,288.09 Q 99.02,294.72 99.87,302.04 Q 100.43,306.89 102.83,311.50 Q 105.04,315.76 108.44,319.81 Q 134.66,351.09 172.46,363.41 Q 181.97,366.51 191.89,368.07 Q 232.10,374.37 269.72,357.52 A 0.33,0.33 -12.2 0 1 270.19,357.82 ZM 279.24,475.76 Q 284.00,480.29 289.99,482.23 Q 293.90,483.50 302.15,483.50 Q 356.57,483.50 411.00,483.50 Q 417.01,483.50 420.83,482.26 Q 435.84,477.38 439.92,461.91 Q 440.76,458.72 440.94,453.99 Q 441.09,450.00 441.08,446.00 Q 441.00,382.13 441.00,318.25 Q 441.00,305.80 440.83,298.84 Q 440.76,295.63 440.23,293.21 Q 439.62,290.36 438.68,287.76 A 0.53,0.53 57.9 0 0 437.81,287.56 L 271.04,454.46 A 2.44,2.43 66.8 0 0 270.33,456.25 Q 270.63,467.58 279.24,475.76 Z"/>
<path fill="#1c6196" fill-opacity="0.992" d="M 55.06,0.00 Q 256.19,0.00 457.31,0.00 Q 457.28,0.10 457.25,0.21 Q 256.50,0.28 55.75,0.25 Q 55.14,0.25 55.06,0.00 Z"/>
<path fill="#f5f8fa" d="M 180.81,44.94 Q 183.32,46.57 184.25,49.54 Q 184.74,51.10 184.78,55.02 Q 185.31,109.80 184.80,164.58 Q 184.74,170.45 183.39,173.71 Q 180.05,181.78 171.29,185.02 A 0.36,0.36 80.3 0 1 170.81,184.68 Q 170.70,146.47 170.76,108.25 Q 170.76,104.87 170.31,101.54 Q 169.81,97.88 168.50,95.14 Q 164.43,86.64 155.25,84.50 Q 118.01,75.84 80.19,67.12 Q 79.59,66.98 80.05,66.56 Q 82.81,64.05 86.29,63.34 Q 88.04,62.98 88.08,62.97 Q 127.29,53.45 166.58,44.31 Q 166.72,44.28 169.74,43.43 Q 175.84,41.71 180.81,44.94 Z"/>
<path fill="#f5f8fa" d="M 231.51,120.73 Q 225.52,115.04 228.88,109.72 Q 230.94,106.46 236.40,103.79 Q 245.33,99.44 256.41,99.79 A 1.28,1.28 85.2 0 0 257.70,98.26 Q 256.64,92.96 256.35,88.05 Q 256.01,82.33 257.91,78.74 Q 261.88,71.25 272.25,71.25 Q 355.39,71.25 438.54,71.25 Q 443.83,71.25 446.75,72.56 Q 452.99,75.36 454.52,81.85 Q 455.39,85.53 454.33,93.15 Q 452.72,104.68 449.21,115.82 Q 447.38,121.65 444.44,125.69 Q 442.55,128.28 439.16,128.10 Q 437.42,128.00 437.34,128.00 Q 346.42,128.00 255.50,127.99 Q 245.05,127.99 236.06,123.94 Q 233.84,122.94 231.51,120.73 Z"/>
<path fill="#f5f8fa" d="M 134.56,109.94 Q 139.58,113.98 141.33,119.81 Q 142.25,122.87 142.25,131.28 Q 142.25,184.14 142.25,237.00 Q 142.25,247.93 133.69,248.88 Q 130.17,249.27 121.52,246.76 Q 90.28,237.69 59.00,228.74 Q 46.49,225.16 43.58,214.54 Q 42.75,211.52 42.75,196.38 Q 42.75,147.45 42.75,98.51 Q 42.75,93.41 44.08,90.74 Q 46.91,85.08 53.30,85.47 Q 54.98,85.57 62.76,87.75 Q 92.27,96.01 121.71,104.49 Q 121.81,104.51 125.32,105.39 Q 130.52,106.68 134.56,109.94 Z"/>
<path fill="#f5f8fa" d="M 270.44,156.95 A 0.44,0.44 89.4 0 1 270.88,156.50 L 440.00,156.50 A 0.80,0.80 -89.0 0 1 440.80,157.33 Q 439.24,197.88 409.19,222.69 Q 390.97,237.73 367.47,240.93 Q 357.70,242.26 347.51,241.32 Q 315.19,238.34 293.31,214.69 Q 270.81,190.37 270.44,156.95 Z"/>
<path fill="#f5f8fa" d="M 269.72,357.52 Q 232.10,374.37 191.89,368.07 Q 181.97,366.51 172.46,363.41 Q 134.66,351.09 108.44,319.81 Q 105.04,315.76 102.83,311.50 Q 100.43,306.89 99.87,302.04 Q 99.02,294.72 101.75,288.09 Q 104.35,281.78 109.76,277.04 Q 119.54,268.50 133.25,270.75 Q 144.19,272.55 151.44,282.56 Q 160.81,295.51 177.61,304.09 Q 200.58,315.83 226.23,311.61 Q 247.58,308.10 264.44,293.94 Q 269.12,290.00 272.72,285.66 Q 279.11,277.95 279.28,277.79 Q 287.37,270.30 299.25,270.28 Q 347.63,270.22 397.52,270.51 Q 398.11,270.51 397.69,270.93 L 270.99,397.63 Q 270.25,398.37 270.25,397.33 L 270.19,357.82 A 0.33,0.33 -12.2 0 0 269.72,357.52 Z"/>
<path fill="#f5f8fa" d="M 279.24,475.76 Q 270.63,467.58 270.33,456.25 A 2.44,2.43 66.8 0 1 271.04,454.46 L 437.81,287.56 A 0.53,0.53 57.9 0 1 438.68,287.76 Q 439.62,290.36 440.23,293.21 Q 440.76,295.63 440.83,298.84 Q 441.00,305.80 441.00,318.25 Q 441.00,382.13 441.08,446.00 Q 441.09,450.00 440.94,453.99 Q 440.76,458.72 439.92,461.91 Q 435.84,477.38 420.83,482.26 Q 417.01,483.50 411.00,483.50 Q 356.57,483.50 302.15,483.50 Q 293.90,483.50 289.99,482.23 Q 284.00,480.29 279.24,475.76 Z"/>
</svg>
