<?xml version="1.0" encoding="UTF-8" standalone="no"?>
<!DOCTYPE svg PUBLIC "-//W3C//DTD SVG 1.1//EN" "http://www.w3.org/Graphics/SVG/1.1/DTD/svg11.dtd">
<svg width="100%" height="100%" viewBox="0 0 900 900" version="1.1" xmlns="http://www.w3.org/2000/svg" xmlns:xlink="http://www.w3.org/1999/xlink" xml:space="preserve" xmlns:serif="http://www.serif.com/" style="fill-rule:evenodd;clip-rule:evenodd;stroke-linejoin:round;stroke-miterlimit:2;">
    <g transform="matrix(1.95228,0,0,1.95228,-330.521,-134.902)">
        <path d="M399.8,69.1C527.1,69.1 630.3,172.3 630.3,299.6C630.3,426.9 527.1,530.1 399.8,530.1C272.5,530.1 169.3,426.9 169.3,299.6C169.3,172.3 272.5,69.1 399.8,69.1Z" style="fill:rgb(0,82,255);fill-rule:nonzero;"/>
    </g>
    <g transform="matrix(1.95228,0,0,1.95228,-330.521,-134.902)">
        <path d="M399.9,380.6C355.1,380.6 318.9,344.3 318.9,299.6C318.9,254.9 355.2,218.6 399.9,218.6C440,218.6 473.3,247.8 479.7,286.1L561.3,286.1C554.4,202.9 484.8,137.5 399.8,137.5C310.3,137.5 237.7,210.1 237.7,299.6C237.7,389.1 310.3,461.7 399.8,461.7C484.8,461.7 554.4,396.3 561.3,313.1L479.6,313.1C473.2,351.4 440,380.6 399.9,380.6Z" style="fill:white;fill-rule:nonzero;"/>
    </g>
</svg>
