<svg width="16" height="16" viewBox="0 0 16 16" fill="none" xmlns="http://www.w3.org/2000/svg">
<path fill-rule="evenodd" clip-rule="evenodd" d="M1.15152 1.15128C1.62015 0.682647 2.37995 0.682647 2.84858 1.15128L8.00005 6.30275L13.1515 1.15128C13.6202 0.682647 14.3799 0.682647 14.8486 1.15128C15.3172 1.61991 15.3172 2.3797 14.8486 2.84833L9.6971 7.9998L14.8486 13.1513C15.3172 13.6199 15.3172 14.3797 14.8486 14.8483C14.3799 15.317 13.6202 15.317 13.1515 14.8483L8.00005 9.69686L2.84858 14.8483C2.37995 15.317 1.62015 15.317 1.15152 14.8483C0.682892 14.3797 0.682892 13.6199 1.15152 13.1513L6.30299 7.9998L1.15152 2.84833C0.682892 2.3797 0.682892 1.61991 1.15152 1.15128Z" fill="#757087"/>
</svg>
