<svg xmlns="http://www.w3.org/2000/svg" viewBox="0 0 99 99"><defs><style>.cls-1{fill:#fff;}</style></defs><title>Ресурс 1</title><g id="Слой_2" data-name="Слой 2"><g id="Layer_1" data-name="Layer 1"><path d="M49.5,99c-27.72,0-35.18-1.4-41.64-7.86S0,77.22,0,49.5,1.4,14.36,7.86,7.86,21.78,0,49.5,0,84.68,1.4,91.14,7.86,99,21.78,99,49.5s-1.36,35.14-7.86,41.64S77.22,99,49.5,99Z"/><path class="cls-1" d="M68.91,49.46a3.07,3.07,0,1,1,0-6.14h4.94v6.14ZM78,39.75H68.43c-4.05,0-6.82,2.65-6.82,6.46a6.08,6.08,0,0,0,4.46,6.1l-5.22,7.94h4.62L70.16,53h3.69v7.22H78ZM26.31,45.13V39h8V56.48H24.27C25.35,54.59,26.31,50.22,26.31,45.13ZM38.59,35H22.22V45.29c0,5.25-.92,9.34-2.16,11.19h-2v9.35h4.05V60.29H37.47v5.54h4.05V56.48H38.59ZM50.94,56.76l-.36-.24,4.78-16.77H45.69l-1,3.73,5.61,0-3.65,12.8a3.46,3.46,0,0,0,3.49,4.49A4.49,4.49,0,0,0,52.59,60l6.58-4.45-2-3ZM53.75,35.9c2,0,2.89-.76,2.89-2.57s-.88-2.64-2.89-2.64-2.89.76-2.89,2.64S51.71,35.9,53.75,35.9Z"/></g></g></svg>