<svg width="24" height="24" viewBox="0 0 24 24" fill="none" xmlns="http://www.w3.org/2000/svg">
<g clip-path="url(#clip0_2931_47520)">
<path d="M10.8001 17.7749C11.1751 17.7749 11.5126 18.0749 11.5126 18.4874C11.5126 18.8624 11.2126 19.1999 10.8001 19.1999C10.4251 19.1999 10.0876 18.8999 10.0876 18.4874C10.0876 18.0749 10.4251 17.7749 10.8001 17.7749ZM21.8251 13.4249C21.4501 13.4249 21.1126 13.1249 21.1126 12.7124C21.1126 12.3374 21.4126 11.9999 21.8251 11.9999C22.2001 11.9999 22.5376 12.2999 22.5376 12.7124C22.5376 13.0874 22.2001 13.4249 21.8251 13.4249ZM21.8251 10.5374C20.6251 10.5374 19.6501 11.5124 19.6501 12.7124C19.6501 12.9374 19.6876 13.1624 19.7626 13.3874L12.6001 17.2124C12.1876 16.6124 11.5126 16.2749 10.8001 16.2749C9.97505 16.2749 9.22505 16.7624 8.85005 17.4749L2.40005 14.0999C1.72505 13.7249 1.20005 12.6374 1.27505 11.5874C1.31255 11.0624 1.50005 10.6499 1.76255 10.4999C1.95005 10.3874 2.13755 10.4249 2.40005 10.5374L2.43755 10.5749C4.16255 11.4749 9.75005 14.3999 9.97505 14.5124C10.3501 14.6624 10.5376 14.7374 11.1751 14.4374L22.7251 8.43744C22.9126 8.36244 23.1001 8.21244 23.1001 7.94994C23.1001 7.61244 22.7626 7.46244 22.7626 7.46244C22.0876 7.16244 21.0751 6.67494 20.1001 6.22494C18.0001 5.24994 15.6001 4.12494 14.5501 3.56244C13.6501 3.07494 12.9001 3.48744 12.7876 3.56244L12.5251 3.67494C7.76255 6.07494 1.46255 9.18744 1.08755 9.41244C0.450053 9.78744 0.0375525 10.5749 5.2521e-05 11.5499C-0.0749475 13.0874 0.712552 14.6999 1.83755 15.2624L8.66255 18.7874C8.81255 19.8374 9.75005 20.6624 10.8001 20.6624C12.0001 20.6624 12.9376 19.7249 12.9751 18.5249L20.4751 14.4749C20.8501 14.7749 21.3376 14.9249 21.8251 14.9249C23.0251 14.9249 24.0001 13.9499 24.0001 12.7499C24.0001 11.5124 23.0251 10.5374 21.8251 10.5374Z" fill="white"/>
</g>
<defs>
<clipPath id="clip0_2931_47520">
<rect width="24" height="24" fill="white"/>
</clipPath>
</defs>
</svg>
