<svg width="41" height="74" viewBox="0 0 41 74" fill="none" xmlns="http://www.w3.org/2000/svg">
<path d="M29.709 9.69404C29.709 14.652 25.6013 18.6441 20.4999 18.6441C15.3984 18.6441 11.2908 14.652 11.2908 9.69404C11.2908 4.7361 15.3984 0.743981 20.4999 0.743981C25.6013 0.679592 29.709 4.7361 29.709 9.69404Z" fill="#FAD6BC"/>
<path d="M17.7837 28.8176H1.88308C1.22056 28.8176 0.624268 29.3327 0.624268 30.041V36.8662C0.624268 37.6388 0.756777 38.0252 1.68431 38.0252H17.6512C24.939 38.0252 30.4379 43.8202 29.7754 50.9029V50.9673C29.7754 58.1789 24.409 63.8451 17.0549 63.8451H10.7609H1.55182C0.756789 63.8451 0.624268 64.4246 0.624268 64.8109V71.9581C0.624268 72.6664 1.22056 73.2459 1.88308 73.2459H17.7175C30.3054 73.2459 40.6409 63.2656 40.6409 50.9673C40.7071 38.7978 30.3717 28.8176 17.7837 28.8176Z" fill="#1D1E1B"/>
</svg>
