<svg width="26" height="26" viewBox="0 0 26 26" fill="none" xmlns="http://www.w3.org/2000/svg">
<path d="M23.5183 19.0788C23.5506 19.0788 23.5824 19.0772 23.6139 19.0743C24.2341 19.1193 24.69 19.598 24.7146 20.0928L24.7148 20.0961C24.748 20.723 24.2513 21.2382 23.6376 21.2382H17.2116C16.7149 21.2382 16.2935 21.6027 16.222 22.0942C15.9823 23.7417 14.568 25 12.8613 25C11.1561 25 9.74021 23.7352 9.50044 22.0937C9.42868 21.6024 9.00739 21.2382 8.51094 21.2382H2.08488C1.41683 21.2382 0.897777 20.6452 1.0179 19.9618L1.01854 19.9581C1.09841 19.4933 1.57081 19.0788 2.19622 19.0788C3.09049 19.0788 3.81656 18.3527 3.81656 17.4584V10.0382C3.81656 4.9901 8.05079 0.915417 13.0269 1.00134C17.9656 1.08661 21.898 5.34621 21.898 10.3723V17.4584C21.898 18.3527 22.6241 19.0788 23.5183 19.0788Z" stroke="#C1F6FF" stroke-width="2" stroke-linecap="round" stroke-linejoin="round"/>
</svg>
