<?xml version="1.0" encoding="UTF-8"?>
<!DOCTYPE svg PUBLIC "-//W3C//DTD SVG 1.1//EN" "http://www.w3.org/Graphics/SVG/1.1/DTD/svg11.dtd">
<svg xmlns="http://www.w3.org/2000/svg" version="1.1" width="800px" height="800px" style="shape-rendering:geometricPrecision; text-rendering:geometricPrecision; image-rendering:optimizeQuality; fill-rule:evenodd; clip-rule:evenodd" xmlns:xlink="http://www.w3.org/1999/xlink">
<g><path style="opacity:0.984" fill="#fefffe" d="M 326.5,95.5 C 449.833,95.5 573.167,95.5 696.5,95.5C 696.984,209.523 696.484,323.523 695,437.5C 687.109,465.889 668.609,482.555 639.5,487.5C 639.5,375.833 639.5,264.167 639.5,152.5C 535.167,152.5 430.833,152.5 326.5,152.5C 326.5,133.5 326.5,114.5 326.5,95.5 Z"/></g>
<g><path style="opacity:0.971" fill="#fefffe" d="M 215.5,205.5 C 338.833,205.5 462.167,205.5 585.5,205.5C 585.667,316.834 585.5,428.167 585,539.5C 580.311,571.691 562.145,591.691 530.5,599.5C 529.558,599.392 528.725,599.059 528,598.5C 527.5,486.834 527.333,375.167 527.5,263.5C 423.5,263.5 319.5,263.5 215.5,263.5C 215.5,244.167 215.5,224.833 215.5,205.5 Z"/></g>
<g><path style="opacity:0.994" fill="#fefffe" d="M 103.5,318.5 C 226.833,318.5 350.167,318.5 473.5,318.5C 473.667,430.5 473.5,542.5 473,654.5C 469.076,677.518 456.909,694.685 436.5,706C 429.504,709.22 422.171,711.22 414.5,712C 310.834,712.5 207.167,712.667 103.5,712.5C 103.5,581.167 103.5,449.833 103.5,318.5 Z"/></g>
</svg>
