<svg xmlns="http://www.w3.org/2000/svg" xmlns:xlink="http://www.w3.org/1999/xlink" viewBox="0 0 800 800"><defs><style>.cls-1{fill:url(#Gradient);}.cls-2{fill:url(#Gradient-2);}</style><linearGradient id="Gradient" x1="250.16" y1="312.29" x2="637.33" y2="312.29" gradientUnits="userSpaceOnUse"><stop offset="0" stop-color="#4d4da5"/><stop offset="1" stop-color="#db6b3d"/></linearGradient><linearGradient id="Gradient-2" x1="162.67" y1="487.45" x2="549.79" y2="487.45" xlink:href="#Gradient"/></defs><g id="Logo"><path class="cls-1" d="M597.38,195.36s-99,27.32-136.48,37.91S400.23,324,400,324.75L290.11,355.57s-40,7.94-40,49.23c0,39.16,40,24.42,40,24.42s19.13-5,56.48-15.73,53.29-88,53.39-88.74l197.4-54.93s40-8.59,40-49.94C637.53,180.58,597.38,195.36,597.38,195.36Z"/><path class="cls-2" d="M202.62,604.66s106.57-30,143.92-40.65,53.24-88,53.43-88.74l109.87-30.82s39.95-7.94,39.95-49.23c0-39.21-40.25-25.27-40.25-25.27s-19.08,5-56.43,15.68-53,88.94-53.14,89.59L202.62,530.15s-40,8.54-40,49.94C162.47,619.39,202.62,604.66,202.62,604.66Z"/></g></svg>