<svg width="36" height="36" viewBox="0 0 36 36" fill="none" xmlns="http://www.w3.org/2000/svg">
<path d="M35.2 18.0004C35.2 8.28008 27.3203 0.400391 17.5997 0.400391C7.88051 0.400391 0 8.28015 0 18.0005C0 27.7209 7.88051 35.6004 17.5997 35.6004C27.3203 35.6004 35.2 27.7206 35.2 18.0005V18.0004ZM26.3818 9.6632L22.8175 13.2276C22.8175 13.2271 22.8166 13.2271 22.8166 13.2263L21.8896 14.1527C21.3563 13.6166 20.7219 13.1916 20.0232 12.9022C19.3245 12.6129 18.5753 12.465 17.8191 12.4671C16.293 12.4687 14.8298 13.0757 13.7507 14.1549C12.6716 15.234 12.0647 16.6972 12.063 18.2233C12.0645 19.7496 12.6714 21.2129 13.7505 22.2922C14.8296 23.3715 16.2929 23.9786 17.8191 23.9803C19.1219 23.9786 20.3857 23.5357 21.4046 22.7239C22.4236 21.9121 23.1376 20.7791 23.4303 19.5096H16.5327L19.1044 16.9377H26.0469C26.1133 17.3631 26.1466 17.7929 26.1467 18.2233C26.1443 20.4313 25.2662 22.5483 23.705 24.1096C22.1438 25.671 20.027 26.5493 17.8191 26.5519C16.7258 26.5526 15.6432 26.3373 14.6334 25.9184C13.6235 25.4995 12.7064 24.8852 11.9347 24.1108L10.7224 25.3231H7.08308L10.401 22.0073C9.80151 20.8363 9.48962 19.5393 9.49116 18.2237C9.49363 16.0157 10.3718 13.8988 11.9331 12.3375C13.4943 10.7762 15.6111 9.89801 17.8191 9.89552C19.1354 9.89272 20.4335 10.2035 21.6059 10.8023L22.745 9.6632H26.3818Z" fill="#0075FF"/>
</svg>
