<svg width="26" height="32" viewBox="0 0 26 32" fill="none" xmlns="http://www.w3.org/2000/svg">
<path fill-rule="evenodd" clip-rule="evenodd" d="M20.9761 12.5668C22.0114 14.018 22.5734 15.7801 22.5586 17.5571C22.5586 19.3044 21.9966 21.0518 20.9761 22.4733L23.1354 24.117C24.5108 22.2216 25.2651 19.9116 25.2651 17.5719C25.2799 15.099 24.4665 12.6705 22.9727 10.7158L21.7344 11.8321L20.9761 12.5668Z" fill="#02E2AC"/>
<path fill-rule="evenodd" clip-rule="evenodd" d="M25.0581 25.5733L17.7963 20.05C18.3139 19.3688 18.6097 18.5396 18.6541 17.6807C18.6837 16.8218 18.4618 15.9778 18.0034 15.2522L21.479 12.1129L25.1173 8.70708C25.3539 8.48496 25.3687 8.09995 25.1321 7.86303L24.6292 7.35956C22.041 4.73855 18.5506 3.21333 14.8827 3.09486L14.8975 1.09579C14.9123 0.962517 14.8975 0.829246 14.8679 0.695974C14.8235 0.562703 14.7644 0.444239 14.6756 0.340583C14.5869 0.236927 14.4834 0.162888 14.3503 0.103656C14.232 0.044424 14.0988 0.0148077 13.9657 0.0148077C13.8326 0.0148077 13.6995 0.044424 13.5812 0.103656C13.4629 0.162888 13.3446 0.236927 13.2558 0.340583C13.1671 0.444239 13.0931 0.562702 13.0636 0.681166C13.0192 0.814438 13.0044 0.947709 13.034 1.08098L13.0192 3.13929C12.1466 3.22814 11.274 3.39102 10.431 3.64276L10.4458 1.08098C10.4605 0.947709 10.4458 0.814438 10.4162 0.681166C10.3718 0.547894 10.3126 0.429431 10.2239 0.325775C10.1352 0.222119 10.0316 0.148079 9.89853 0.0888475C9.78021 0.0296157 9.6471 0 9.51399 0C9.38088 0 9.24777 0.0296157 9.12945 0.0888475C9.01114 0.148079 8.89282 0.222119 8.80408 0.325775C8.71534 0.429431 8.64139 0.547894 8.61181 0.666358C8.56744 0.79963 8.55265 0.932902 8.58223 1.06617L8.53786 4.33873C5.55031 5.67145 3.0952 7.9963 1.60142 10.9135C0.107648 13.8306 -0.365626 17.1772 0.285127 20.3906C0.93588 23.6039 2.66629 26.5062 5.18057 28.609C7.69484 30.7117 10.8599 31.8963 14.1284 31.9556L24.7032 32C25.0285 32 25.2948 31.7335 25.2948 31.4077V26.062C25.2948 25.8695 25.206 25.6918 25.0581 25.5733ZM14.3355 29.379C11.7325 29.3642 9.2034 28.4905 7.14762 26.9061C5.09183 25.3068 3.61284 23.0708 2.9473 20.5534C2.28176 18.0361 2.47402 15.3559 3.46494 12.957C4.47065 10.5581 6.23065 8.54419 8.49349 7.24109L8.4787 11.1356C8.46391 11.2689 8.4787 11.4021 8.50828 11.5354C8.55265 11.6687 8.61181 11.7871 8.70055 11.8908C8.78929 11.9944 8.89282 12.0685 9.02593 12.1277C9.14425 12.1869 9.27735 12.2166 9.41046 12.2166C9.54357 12.2166 9.67668 12.1869 9.795 12.1277C9.91332 12.0685 10.0316 11.9944 10.1204 11.8908C10.2091 11.7871 10.2831 11.6687 10.3126 11.5502C10.357 11.4169 10.3718 11.2837 10.3422 11.1504L10.357 6.36742C11.6585 5.89357 13.034 5.67145 14.4242 5.67145C16.9829 5.67145 19.4676 6.5155 21.4938 8.05553C21.6417 8.17399 21.6565 8.3813 21.5233 8.51458L15.9919 13.5937C15.4891 13.3864 14.9419 13.2679 14.3946 13.2679C13.7883 13.2679 13.1819 13.3864 12.6199 13.6381C12.0578 13.8899 11.5698 14.2601 11.1705 14.7191C10.7711 15.1782 10.4753 15.7261 10.2979 16.3036C10.1204 16.8959 10.076 17.503 10.1647 18.1101C10.2535 18.7173 10.4605 19.2948 10.7859 19.813C11.1113 20.3313 11.555 20.7608 12.0578 21.1013C12.5755 21.4271 13.1523 21.6492 13.7587 21.7381C14.3651 21.8269 14.9862 21.7825 15.563 21.6048L22.6326 26.9801C22.7065 27.0393 22.7509 27.1282 22.7509 27.217L22.7361 29.1124C22.7361 29.2753 22.603 29.4086 22.4403 29.4086L14.3355 29.379ZM16.0659 17.5326C16.0659 17.8584 15.9624 18.1842 15.7849 18.4655C15.5926 18.7469 15.3412 18.9542 15.0306 19.0875C14.72 19.2207 14.3799 19.2503 14.0693 19.1763C13.7587 19.1023 13.4481 18.9542 13.2115 18.7173C12.9748 18.4803 12.8121 18.1842 12.753 17.8584C12.6938 17.5326 12.7234 17.192 12.8565 16.8959C12.9896 16.5849 13.1967 16.3332 13.4777 16.1407C13.7587 15.963 14.0841 15.8593 14.4094 15.8593C14.8531 15.8593 15.282 16.037 15.5926 16.3628C15.8884 16.659 16.0659 17.0736 16.0659 17.5326Z" fill="white"/>
</svg>
