<svg xmlns="http://www.w3.org/2000/svg" width="68" height="12" fill="none" viewBox="0 0 68 12"><path fill="#ECE7D5" d="M20.7713 11.7998V2.84189H18.2363V0.214844H26.1492V2.84251H23.6142V11.8005H20.7719L20.7713 11.7998Z"/><path fill="#ECE7D5" d="M0 6.05408C0 2.45846 2.75022 0 6.22267 0C8.31224 0 10.2021 0.844785 11.4158 2.65815L8.9113 3.96389C8.2351 3.04197 7.35921 2.55053 6.25315 2.55053C4.30168 2.55053 2.93435 4.07151 2.93435 6.06901C2.93435 8.06651 4.42486 9.55702 6.16108 9.55702C7.59 9.55702 8.61954 8.69668 8.80368 7.55952V7.54396H6.37632V5.36233H11.9844V5.85377C11.9844 9.63353 9.7256 11.9999 6.1306 11.9999C2.73466 11.9999 0 9.55702 0 6.05408Z"/><path fill="#ECE7D5" d="M13.9336 11.7998V0.214844H16.7759V11.7998H13.9336Z"/><path fill="#ECE7D5" d="M51.2012 11.7998V0.214844H54.0435V11.7998H51.2012Z"/><path fill="#ECE7D5" d="M64.6215 0.214844H67.4028V11.7998H65.098L59.2903 4.5016L59.3363 11.7998H56.54V0.214844H58.9064L64.7142 7.46705L64.6221 0.214844H64.6215Z"/><path fill="#ECE7D5" d="M33.0359 9.37296C31.2692 9.37296 29.7787 7.99007 29.7787 6.00812C29.7787 4.1338 31.2076 2.64329 33.067 2.64329C33.9827 2.64329 34.7821 2.98979 35.3638 3.56335C35.6443 2.66755 36.081 1.82961 36.6614 1.08063C35.6449 0.401937 34.4082 0.015625 33.082 0.015625C29.6711 0.015625 26.8438 2.56615 26.8438 5.99257C26.8438 9.5882 29.686 12 33.0359 12C34.3734 12 35.6194 11.6255 36.6415 10.9599C36.068 10.2115 35.6356 9.3686 35.3588 8.46161C34.7684 9.03268 33.9572 9.37296 33.0359 9.37296Z"/><path fill="#ECE7D5" d="M43.2246 0.015625C41.084 0.015625 39.1736 1.02028 38.047 2.6153C37.3789 3.5621 36.9863 4.71669 36.9863 5.99257C36.9863 7.26846 37.3776 8.49644 38.0408 9.44201C39.1649 11.0451 41.0715 12 43.1785 12C46.6049 12 49.4323 9.54154 49.4323 6.02305C49.4323 2.50457 46.6205 0.015625 43.2246 0.015625ZM43.1785 9.37296C41.4118 9.37296 39.9213 7.99007 39.9213 6.00812C39.9213 4.1338 41.3502 2.64329 43.2096 2.64329C45.069 2.64329 46.4979 4.11824 46.4979 6.02368C46.4979 7.92911 45.069 9.37296 43.1791 9.37296H43.1785Z"/></svg>