<svg width="110" height="32" viewBox="0 0 110 32" fill="none" xmlns="http://www.w3.org/2000/svg">
<path d="M38.8907 17.1609H44.7103C44.7103 17.7563 44.6805 18.307 44.6358 18.7981C44.5912 19.2893 44.487 19.7358 44.3382 20.1525C44.1298 20.7479 43.847 21.2688 43.4898 21.7302C43.1326 22.1767 42.701 22.5637 42.2247 22.8614C41.7484 23.159 41.2126 23.3972 40.6321 23.546C40.0516 23.7097 39.4414 23.7842 38.8014 23.7842C37.9233 23.7842 37.1196 23.6353 36.3903 23.3525C35.6758 23.0697 35.0507 22.653 34.5298 22.147C34.0089 21.6111 33.607 20.986 33.3242 20.2567C33.0414 19.5125 32.8926 18.7088 32.8926 17.8158C32.8926 16.9377 33.0265 16.1339 33.3093 15.4046C33.5921 14.6604 34.0089 14.0353 34.5149 13.5144C35.0507 12.9935 35.6758 12.5916 36.42 12.3088C37.1642 12.026 37.9828 11.8772 38.8907 11.8772C40.0665 11.8772 41.0935 12.1302 41.9865 12.6363C42.8796 13.1423 43.5791 13.9311 44.1 15.0028L41.3168 16.1488C41.0637 15.5237 40.7214 15.0921 40.3047 14.8242C39.9028 14.5563 39.4265 14.4223 38.9056 14.4223C38.474 14.4223 38.0721 14.5116 37.7149 14.6753C37.3577 14.8391 37.0451 15.0623 36.7921 15.3749C36.5391 15.6725 36.3456 16.0446 36.1968 16.4614C36.0628 16.893 35.9884 17.3693 35.9884 17.8902C35.9884 18.3665 36.0479 18.813 36.167 19.2149C36.301 19.6167 36.4796 19.9739 36.7326 20.2716C36.9856 20.5693 37.2982 20.8074 37.6554 20.9711C38.0275 21.1349 38.4591 21.2093 38.9354 21.2093C39.2182 21.2093 39.501 21.1795 39.7689 21.12C40.0368 21.0456 40.2749 20.9414 40.4833 20.8074C40.7065 20.6586 40.8851 20.4651 41.0191 20.2418C41.153 20.0186 41.2572 19.7358 41.3019 19.4084H38.8907V17.1609ZM59.1772 14.5563V23.7842H56.0516V14.5563H53.5214V11.8772H61.7075V14.5563H59.1772ZM72.5726 15.9553C71.8879 15.1218 71.0544 14.7051 70.0572 14.7051C69.6107 14.7051 69.2089 14.7795 68.8219 14.9432C68.4498 15.107 68.1372 15.3302 67.8544 15.5981C67.5865 15.866 67.3633 16.1935 67.2144 16.5804C67.0656 16.9674 66.9912 17.3693 66.9912 17.8158C66.9912 18.2623 67.0656 18.6791 67.2144 19.066C67.3782 19.453 67.5865 19.7804 67.8544 20.0632C68.1372 20.346 68.4647 20.5693 68.8368 20.7181C69.2089 20.8818 69.6107 20.9563 70.0423 20.9563C70.98 20.9563 71.8284 20.5544 72.5726 19.7507V23.2335L72.2749 23.3377C71.8284 23.5014 71.4116 23.6056 71.0098 23.68C70.6228 23.7544 70.2358 23.799 69.8489 23.799C69.0749 23.799 68.3158 23.6502 67.6014 23.3674C66.887 23.0697 66.2619 22.653 65.7112 22.1172C65.1754 21.5814 64.7289 20.9414 64.4014 20.2121C64.074 19.4679 63.9103 18.6642 63.9103 17.8009C63.9103 16.9377 64.074 16.1339 64.3865 15.4195C64.714 14.6902 65.1456 14.0651 65.6963 13.5442C66.247 13.0084 66.887 12.6065 67.6014 12.3088C68.3158 12.0111 69.0749 11.8623 69.8637 11.8623C70.3103 11.8623 70.7568 11.907 71.1884 12.0111C71.6349 12.1004 72.0963 12.2493 72.5726 12.4428V15.9553ZM78.7047 17.8307C78.7047 18.2772 78.794 18.6939 78.9577 19.0809C79.1214 19.4679 79.3596 19.7953 79.6423 20.0781C79.9251 20.3609 80.2675 20.5842 80.6544 20.733C81.0414 20.8818 81.4582 20.9563 81.8898 20.9563C82.3214 20.9563 82.7233 20.8818 83.1103 20.733C83.4972 20.5693 83.8396 20.346 84.1372 20.0781C84.4349 19.7953 84.673 19.4679 84.8368 19.0809C85.0005 18.6939 85.0898 18.2921 85.0898 17.8307C85.0898 17.3693 85.0005 16.9674 84.8368 16.5804C84.673 16.1935 84.4349 15.866 84.1372 15.5832C83.8544 15.3004 83.5121 15.0921 83.1103 14.9432C82.7233 14.7795 82.3214 14.7051 81.8898 14.7051C81.4582 14.7051 81.0563 14.7795 80.6544 14.9432C80.2675 15.0921 79.94 15.3153 79.6423 15.5832C79.3596 15.866 79.1214 16.1935 78.9577 16.5804C78.794 16.9674 78.7047 17.3842 78.7047 17.8307ZM75.6386 17.8307C75.6386 16.9972 75.7875 16.2084 76.1 15.4939C76.4126 14.7646 76.8442 14.1246 77.3949 13.5888C77.9456 13.053 78.6005 12.6214 79.3596 12.3237C80.1335 12.0111 80.9819 11.8623 81.8898 11.8623C82.7977 11.8623 83.6461 12.0111 84.4051 12.3237C85.1791 12.6214 85.834 13.0381 86.3847 13.5888C86.9503 14.1246 87.3819 14.7646 87.6944 15.4939C88.007 16.2084 88.1558 16.9972 88.1558 17.8307C88.1558 18.6642 88.007 19.453 87.6944 20.1823C87.3819 20.8967 86.9503 21.5367 86.3847 22.0725C85.834 22.6084 85.1791 23.04 84.4051 23.3525C83.6312 23.6502 82.7977 23.799 81.8898 23.799C80.967 23.799 80.1186 23.6502 79.3596 23.3525C78.6005 23.04 77.9456 22.6232 77.3949 22.0725C76.8442 21.5367 76.4126 20.8967 76.1 20.1823C75.7875 19.453 75.6386 18.679 75.6386 17.8307ZM94.3028 11.8772V23.7842H91.1772V11.8772H94.3028ZM50.5447 11.8772V23.7842H47.4191V11.8772H50.5447ZM97.5772 23.7842V11.8772H100.554L106.359 19.1553V11.8772H109.484V23.7842H106.478L100.703 16.506V23.7842H97.5772Z" fill="white"/>
<path fill-rule="evenodd" clip-rule="evenodd" d="M20.9766 12.5673C22.0119 14.0185 22.5739 15.7806 22.5591 17.5576C22.5591 19.3049 21.9971 21.0523 20.9766 22.4738L23.1359 24.1175C24.5113 22.2221 25.2656 19.9121 25.2656 17.5724C25.2804 15.0995 24.467 12.671 22.9732 10.7163L21.7348 11.8326L20.9766 12.5673Z" fill="#02E2AC"/>
<path fill-rule="evenodd" clip-rule="evenodd" d="M25.0581 25.5733L17.7963 20.05C18.3139 19.3688 18.6097 18.5396 18.6541 17.6807C18.6837 16.8218 18.4618 15.9778 18.0034 15.2522L21.479 12.1129L25.1173 8.70708C25.3539 8.48496 25.3687 8.09995 25.1321 7.86303L24.6292 7.35956C22.041 4.73855 18.5506 3.21333 14.8827 3.09486L14.8975 1.09579C14.9123 0.962517 14.8975 0.829246 14.8679 0.695974C14.8235 0.562703 14.7644 0.444239 14.6756 0.340583C14.5869 0.236927 14.4834 0.162888 14.3503 0.103656C14.232 0.044424 14.0988 0.0148077 13.9657 0.0148077C13.8326 0.0148077 13.6995 0.044424 13.5812 0.103656C13.4629 0.162888 13.3446 0.236927 13.2558 0.340583C13.1671 0.444239 13.0931 0.562702 13.0636 0.681166C13.0192 0.814438 13.0044 0.947709 13.034 1.08098L13.0192 3.13929C12.1466 3.22814 11.274 3.39102 10.431 3.64276L10.4458 1.08098C10.4605 0.947709 10.4458 0.814438 10.4162 0.681166C10.3718 0.547894 10.3126 0.429431 10.2239 0.325775C10.1352 0.222119 10.0316 0.148079 9.89853 0.0888475C9.78021 0.0296157 9.6471 0 9.51399 0C9.38088 0 9.24777 0.0296157 9.12945 0.0888475C9.01114 0.148079 8.89282 0.222119 8.80408 0.325775C8.71534 0.429431 8.64139 0.547894 8.61181 0.666358C8.56744 0.79963 8.55265 0.932902 8.58223 1.06617L8.53786 4.33873C5.55031 5.67145 3.0952 7.9963 1.60142 10.9135C0.107648 13.8306 -0.365626 17.1772 0.285127 20.3906C0.93588 23.6039 2.66629 26.5062 5.18057 28.609C7.69484 30.7117 10.8599 31.8963 14.1284 31.9556L24.7032 32C25.0285 32 25.2948 31.7335 25.2948 31.4077V26.062C25.2948 25.8695 25.206 25.6918 25.0581 25.5733ZM14.3355 29.379C11.7325 29.3642 9.2034 28.4905 7.14762 26.9061C5.09183 25.3068 3.61284 23.0708 2.9473 20.5534C2.28176 18.0361 2.47402 15.3559 3.46494 12.957C4.47065 10.5581 6.23065 8.54419 8.49349 7.24109L8.4787 11.1356C8.46391 11.2689 8.4787 11.4021 8.50828 11.5354C8.55265 11.6687 8.61181 11.7871 8.70055 11.8908C8.78929 11.9944 8.89282 12.0685 9.02593 12.1277C9.14425 12.1869 9.27735 12.2166 9.41046 12.2166C9.54357 12.2166 9.67668 12.1869 9.795 12.1277C9.91332 12.0685 10.0316 11.9944 10.1204 11.8908C10.2091 11.7871 10.2831 11.6687 10.3126 11.5502C10.357 11.4169 10.3718 11.2837 10.3422 11.1504L10.357 6.36742C11.6585 5.89357 13.034 5.67145 14.4242 5.67145C16.9829 5.67145 19.4676 6.5155 21.4938 8.05553C21.6417 8.17399 21.6565 8.3813 21.5233 8.51458L15.9919 13.5937C15.4891 13.3864 14.9419 13.2679 14.3946 13.2679C13.7883 13.2679 13.1819 13.3864 12.6199 13.6381C12.0578 13.8899 11.5698 14.2601 11.1705 14.7191C10.7711 15.1782 10.4753 15.7261 10.2979 16.3036C10.1204 16.8959 10.076 17.503 10.1647 18.1101C10.2535 18.7173 10.4605 19.2948 10.7859 19.813C11.1113 20.3313 11.555 20.7608 12.0578 21.1013C12.5755 21.4271 13.1523 21.6492 13.7587 21.7381C14.3651 21.8269 14.9862 21.7825 15.563 21.6048L22.6326 26.9801C22.7065 27.0393 22.7509 27.1282 22.7509 27.217L22.7361 29.1124C22.7361 29.2753 22.603 29.4086 22.4403 29.4086L14.3355 29.379ZM16.0659 17.5326C16.0659 17.8584 15.9624 18.1842 15.7849 18.4655C15.5926 18.7469 15.3412 18.9542 15.0306 19.0875C14.72 19.2207 14.3799 19.2503 14.0693 19.1763C13.7587 19.1023 13.4481 18.9542 13.2115 18.7173C12.9748 18.4803 12.8121 18.1842 12.753 17.8584C12.6938 17.5326 12.7234 17.192 12.8565 16.8959C12.9896 16.5849 13.1967 16.3332 13.4777 16.1407C13.7587 15.963 14.0841 15.8593 14.4094 15.8593C14.8531 15.8593 15.282 16.037 15.5926 16.3628C15.8884 16.659 16.0659 17.0736 16.0659 17.5326Z" fill="white"/>
</svg>
