<svg width="130" height="40" viewBox="0 0 130 40" fill="none" xmlns="http://www.w3.org/2000/svg">
<g clip-path="url(#clip0_2471_46631)">
<path d="M5.51724 0.5H124.138C126.909 0.5 129.155 2.74629 129.155 5.51724V34.4828C129.155 37.2537 126.909 39.5 124.138 39.5H5.51724C2.7463 39.5 0.5 37.2537 0.5 34.4828V5.51724C0.5 2.7463 2.7463 0.5 5.51724 0.5Z" stroke="#A7A2B6"/>
<path d="M34.2524 26.0124C34.2524 25.1682 34.4469 24.411 34.8359 23.7406C35.2331 23.0703 35.7669 22.5489 36.4373 22.1765C37.1159 21.7958 37.8566 21.6055 38.6593 21.6055C39.578 21.6055 40.3931 21.8331 41.1049 22.2882C41.8249 22.7351 42.3462 23.3724 42.669 24.2H40.9683C40.7449 23.7448 40.4345 23.4055 40.0373 23.182C39.64 22.9586 39.1807 22.8468 38.6593 22.8468C38.0883 22.8468 37.5793 22.9751 37.1324 23.2317C36.6855 23.4882 36.3338 23.8565 36.0773 24.3365C35.829 24.8165 35.7049 25.3751 35.7049 26.0124C35.7049 26.6496 35.829 27.2082 36.0773 27.6882C36.3338 28.1682 36.6855 28.5406 37.1324 28.8055C37.5793 29.062 38.0883 29.1903 38.6593 29.1903C39.1807 29.1903 39.64 29.0786 40.0373 28.8551C40.4345 28.6317 40.7449 28.2924 40.9683 27.8372H42.669C42.3462 28.6648 41.8249 29.302 41.1049 29.7489C40.3931 30.1958 39.578 30.4193 38.6593 30.4193C37.8483 30.4193 37.1076 30.2331 36.4373 29.8606C35.7669 29.48 35.2331 28.9544 34.8359 28.2841C34.4469 27.6137 34.2524 26.8565 34.2524 26.0124ZM49.5641 30.4317C48.7613 30.4317 48.0206 30.2455 47.342 29.8731C46.6717 29.4924 46.1379 28.9668 45.7406 28.2965C45.3517 27.6179 45.1572 26.8565 45.1572 26.0124C45.1572 25.1682 45.3517 24.411 45.7406 23.7406C46.1379 23.0703 46.6717 22.5489 47.342 22.1765C48.0206 21.7958 48.7613 21.6055 49.5641 21.6055C50.3751 21.6055 51.1158 21.7958 51.7862 22.1765C52.4648 22.5489 52.9986 23.0703 53.3875 23.7406C53.7765 24.411 53.971 25.1682 53.971 26.0124C53.971 26.8565 53.7765 27.6179 53.3875 28.2965C52.9986 28.9668 52.4648 29.4924 51.7862 29.8731C51.1158 30.2455 50.3751 30.4317 49.5641 30.4317ZM49.5641 29.2027C50.1351 29.2027 50.6441 29.0744 51.091 28.8179C51.5379 28.5531 51.8855 28.1806 52.1338 27.7006C52.3903 27.2124 52.5186 26.6496 52.5186 26.0124C52.5186 25.3751 52.3903 24.8165 52.1338 24.3365C51.8855 23.8565 51.5379 23.4882 51.091 23.2317C50.6441 22.9751 50.1351 22.8468 49.5641 22.8468C48.9931 22.8468 48.4841 22.9751 48.0372 23.2317C47.5903 23.4882 47.2386 23.8565 46.982 24.3365C46.7338 24.8165 46.6096 25.3751 46.6096 26.0124C46.6096 26.6496 46.7338 27.2124 46.982 27.7006C47.2386 28.1806 47.5903 28.5531 48.0372 28.8179C48.4841 29.0744 48.9931 29.2027 49.5641 29.2027ZM65.7539 21.7172V30.3448H64.3387V24.4358L61.707 30.3448H60.7263L58.0822 24.4358V30.3448H56.667V21.7172H58.1939L61.2229 28.4827L64.2394 21.7172H65.7539ZM78.0042 21.7172V30.3448H76.589V24.4358L73.9573 30.3448H72.9766L70.3324 24.4358V30.3448H68.9174V21.7172H70.4442L73.4731 28.4827L76.4897 21.7172H78.0042ZM82.5704 21.7172V27.2165C82.5704 27.8703 82.74 28.3627 83.0793 28.6937C83.4269 29.0248 83.9069 29.1903 84.5193 29.1903C85.14 29.1903 85.62 29.0248 85.9593 28.6937C86.3069 28.3627 86.4807 27.8703 86.4807 27.2165V21.7172H87.8959V27.1917C87.8959 27.8951 87.7428 28.491 87.4366 28.9793C87.1304 29.4675 86.7207 29.8317 86.2076 30.0717C85.6945 30.3117 85.1276 30.4317 84.5069 30.4317C83.8862 30.4317 83.3193 30.3117 82.8062 30.0717C82.3014 29.8317 81.9 29.4675 81.6021 28.9793C81.3042 28.491 81.1552 27.8951 81.1552 27.1917V21.7172H82.5704ZM98.1304 30.3448H96.7152L92.4573 23.902V30.3448H91.0421V21.7048H92.4573L96.7152 28.1351V21.7048H98.1304V30.3448ZM102.708 21.7172V30.3448H101.292V21.7172H102.708ZM111.443 21.7172V22.8717H109.146V30.3448H107.731V22.8717H105.422V21.7172H111.443ZM120.572 21.7172L117.717 27.2165V30.3448H116.302V27.2165L113.435 21.7172H115.011L117.01 25.9503L119.008 21.7172H120.572Z" fill="#A7A2B6"/>
<path d="M37.3185 13.5807C37.5281 13.6138 37.7185 13.6993 37.8895 13.8373C38.066 13.9752 38.204 14.1462 38.3033 14.3504C38.4081 14.5545 38.4605 14.7724 38.4605 15.0042C38.4605 15.2966 38.386 15.5614 38.2371 15.7986C38.0881 16.0304 37.8702 16.2152 37.5833 16.3531C37.3019 16.4855 36.9681 16.5517 36.5819 16.5517H34.4302V10.7835H36.4991C36.8909 10.7835 37.2247 10.8497 37.5005 10.9821C37.7764 11.109 37.9833 11.2828 38.1212 11.5035C38.2591 11.7242 38.3281 11.9724 38.3281 12.2483C38.3281 12.5904 38.2343 12.8745 38.0467 13.1007C37.8647 13.3214 37.6219 13.4814 37.3185 13.5807ZM35.1833 13.2745H36.4495C36.8026 13.2745 37.0757 13.1917 37.2688 13.0262C37.4619 12.8607 37.5585 12.6317 37.5585 12.3393C37.5585 12.0469 37.4619 11.8179 37.2688 11.6524C37.0757 11.4869 36.7971 11.4042 36.4329 11.4042H35.1833V13.2745ZM36.5157 15.9311C36.8909 15.9311 37.1833 15.8428 37.3929 15.6662C37.6026 15.4897 37.7074 15.2442 37.7074 14.9297C37.7074 14.6097 37.5971 14.3586 37.3764 14.1766C37.1557 13.989 36.8605 13.8952 36.4909 13.8952H35.1833V15.9311H36.5157ZM40.2836 10.7835V14.4331C40.2836 14.9462 40.4077 15.3269 40.656 15.5752C40.9098 15.8235 41.2601 15.9476 41.707 15.9476C42.1484 15.9476 42.4932 15.8235 42.7415 15.5752C42.9953 15.3269 43.1222 14.9462 43.1222 14.4331V10.7835H43.8753V14.4248C43.8753 14.9048 43.7787 15.3104 43.5856 15.6414C43.3925 15.9669 43.1305 16.2097 42.7994 16.3697C42.4739 16.5297 42.107 16.6097 41.6987 16.6097C41.2905 16.6097 40.9208 16.5297 40.5898 16.3697C40.2642 16.2097 40.0049 15.9669 39.8118 15.6414C39.6242 15.3104 39.5305 14.9048 39.5305 14.4248V10.7835H40.2836ZM45.926 10.7835V16.5517H45.1729V10.7835H45.926ZM48.2524 15.9393H50.2717V16.5517H47.4993V10.7835H48.2524V15.9393ZM54.9114 10.7835V11.3959H53.339V16.5517H52.5859V11.3959H51.0052V10.7835H54.9114ZM61.0159 13.5807C61.2256 13.6138 61.4159 13.6993 61.5869 13.8373C61.7635 13.9752 61.9014 14.1462 62.0007 14.3504C62.1056 14.5545 62.158 14.7724 62.158 15.0042C62.158 15.2966 62.0835 15.5614 61.9345 15.7986C61.7856 16.0304 61.5676 16.2152 61.2807 16.3531C60.9994 16.4855 60.6656 16.5517 60.2793 16.5517H58.1276V10.7835H60.1966C60.5883 10.7835 60.9221 10.8497 61.198 10.9821C61.4738 11.109 61.6807 11.2828 61.8187 11.5035C61.9566 11.7242 62.0256 11.9724 62.0256 12.2483C62.0256 12.5904 61.9318 12.8745 61.7442 13.1007C61.5621 13.3214 61.3193 13.4814 61.0159 13.5807ZM58.8807 13.2745H60.1469C60.5 13.2745 60.7731 13.1917 60.9662 13.0262C61.1593 12.8607 61.2559 12.6317 61.2559 12.3393C61.2559 12.0469 61.1593 11.8179 60.9662 11.6524C60.7731 11.4869 60.4945 11.4042 60.1304 11.4042H58.8807V13.2745ZM60.2131 15.9311C60.5883 15.9311 60.8807 15.8428 61.0904 15.6662C61.3 15.4897 61.4049 15.2442 61.4049 14.9297C61.4049 14.6097 61.2945 14.3586 61.0738 14.1766C60.8531 13.989 60.558 13.8952 60.1883 13.8952H58.8807V15.9311H60.2131ZM67.2002 10.7835L65.3216 14.3752V16.5517H64.5685V14.3752L62.6816 10.7835H63.5175L64.9409 13.7048L66.3644 10.7835H67.2002ZM73.5033 10.7835V11.3959H71.9309V16.5517H71.1778V11.3959H69.5971V10.7835H73.5033ZM78.8329 10.7835V16.5517H78.0798V13.9366H75.1419V16.5517H74.3888V10.7835H75.1419V13.3159H78.0798V10.7835H78.8329ZM80.8302 11.3959V13.3242H82.9323V13.9448H80.8302V15.9311H83.1805V16.5517H80.0771V10.7752H83.1805V11.3959H80.8302ZM90.6481 12.4552C90.4881 12.1186 90.2564 11.8593 89.9529 11.6773C89.6495 11.4897 89.2964 11.3959 88.8936 11.3959C88.4909 11.3959 88.1267 11.4897 87.8012 11.6773C87.4812 11.8593 87.2274 12.1242 87.0398 12.4717C86.8578 12.8138 86.7667 13.2111 86.7667 13.6635C86.7667 14.1159 86.8578 14.5131 87.0398 14.8552C87.2274 15.1973 87.4812 15.4621 87.8012 15.6497C88.1267 15.8317 88.4909 15.9228 88.8936 15.9228C89.4564 15.9228 89.9198 15.7545 90.284 15.4179C90.6481 15.0814 90.8605 14.6262 90.9212 14.0524H88.6205V13.44H91.724V14.0193C91.6798 14.4938 91.5309 14.9297 91.2771 15.3269C91.0233 15.7186 90.6895 16.0304 90.2757 16.2621C89.8619 16.4883 89.4012 16.6014 88.8936 16.6014C88.3585 16.6014 87.8702 16.4773 87.4288 16.229C86.9874 15.9752 86.6371 15.6248 86.3778 15.1779C86.124 14.7311 85.9971 14.2262 85.9971 13.6635C85.9971 13.1007 86.124 12.5959 86.3778 12.149C86.6371 11.6966 86.9874 11.3462 87.4288 11.0979C87.8702 10.8442 88.3585 10.7173 88.8936 10.7173C89.506 10.7173 90.0467 10.869 90.5157 11.1724C90.9902 11.4759 91.335 11.9035 91.5502 12.4552H90.6481ZM93.8454 10.7835V16.5517H93.0923V10.7835H93.8454ZM99.0516 10.7835V11.3959H97.4792V16.5517H96.7261V11.3959H95.1454V10.7835H99.0516ZM99.7385 13.6635C99.7385 13.1007 99.8654 12.5959 100.119 12.149C100.373 11.6966 100.718 11.3435 101.154 11.0897C101.595 10.8359 102.083 10.709 102.618 10.709C103.247 10.709 103.796 10.8607 104.265 11.1642C104.734 11.4676 105.076 11.8979 105.292 12.4552H104.39C104.229 12.1076 103.998 11.84 103.694 11.6524C103.396 11.4648 103.038 11.3711 102.618 11.3711C102.216 11.3711 101.854 11.4648 101.534 11.6524C101.214 11.84 100.963 12.1076 100.781 12.4552C100.599 12.7973 100.508 13.2 100.508 13.6635C100.508 14.1214 100.599 14.5242 100.781 14.8717C100.963 15.2138 101.214 15.4786 101.534 15.6662C101.854 15.8538 102.216 15.9476 102.618 15.9476C103.038 15.9476 103.396 15.8566 103.694 15.6745C103.998 15.4869 104.229 15.2193 104.39 14.8717H105.292C105.076 15.4235 104.734 15.8511 104.265 16.1545C103.796 16.4524 103.247 16.6014 102.618 16.6014C102.083 16.6014 101.595 16.4773 101.154 16.229C100.718 15.9752 100.373 15.6248 100.119 15.1779C99.8654 14.7311 99.7385 14.2262 99.7385 13.6635ZM109.069 16.6097C108.534 16.6097 108.046 16.4855 107.605 16.2373C107.163 15.9835 106.813 15.6331 106.554 15.1862C106.3 14.7338 106.173 14.2262 106.173 13.6635C106.173 13.1007 106.3 12.5959 106.554 12.149C106.813 11.6966 107.163 11.3462 107.605 11.0979C108.046 10.8442 108.534 10.7173 109.069 10.7173C109.61 10.7173 110.101 10.8442 110.543 11.0979C110.984 11.3462 111.332 11.6938 111.585 12.1407C111.839 12.5876 111.966 13.0952 111.966 13.6635C111.966 14.2317 111.839 14.7393 111.585 15.1862C111.332 15.6331 110.984 15.9835 110.543 16.2373C110.101 16.4855 109.61 16.6097 109.069 16.6097ZM109.069 15.9559C109.472 15.9559 109.834 15.8621 110.154 15.6745C110.479 15.4869 110.733 15.2193 110.915 14.8717C111.103 14.5242 111.196 14.1214 111.196 13.6635C111.196 13.2 111.103 12.7973 110.915 12.4552C110.733 12.1076 110.482 11.84 110.162 11.6524C109.842 11.4648 109.478 11.3711 109.069 11.3711C108.661 11.3711 108.297 11.4648 107.977 11.6524C107.657 11.84 107.403 12.1076 107.216 12.4552C107.034 12.7973 106.943 13.2 106.943 13.6635C106.943 14.1214 107.034 14.5242 107.216 14.8717C107.403 15.2193 107.657 15.4869 107.977 15.6745C108.303 15.8621 108.667 15.9559 109.069 15.9559ZM114.003 10.7835V16.5517H113.25V10.7835H114.003ZM120.111 16.5517H119.358L116.329 11.9586V16.5517H115.576V10.7752H116.329L119.358 15.36V10.7752H120.111V16.5517Z" fill="#A7A2B6"/>
<path fill-rule="evenodd" clip-rule="evenodd" d="M25.1138 24.8811C25.5907 25.2616 25.999 25.5893 26.2506 25.7949C26.3375 25.8661 26.4073 25.9554 26.4552 26.0564C26.5031 26.1574 26.5277 26.2677 26.5273 26.3793L26.5196 29.8146C26.4971 29.9469 26.4279 30.0669 26.3244 30.1535C26.2209 30.2401 26.0898 30.2876 25.9542 30.2877H18.52C12.9511 30.2877 8.31038 25.7818 8.35431 20.2751C8.38293 16.7311 10.2888 13.63 13.1372 11.8949V8.53196C13.1372 8.40244 13.1641 8.27431 13.2162 8.15548C13.2684 8.03665 13.3446 7.92969 13.4402 7.84113C13.5359 7.75265 13.6489 7.68451 13.7722 7.641C13.8956 7.59748 14.0267 7.57941 14.1573 7.58803C14.6658 7.62065 15.0502 8.06051 15.0502 8.56424V10.9907C15.8227 10.7205 16.6258 10.5453 17.4415 10.4691V8.53196C17.4415 8.40244 17.4684 8.27424 17.5205 8.15548C17.5727 8.03665 17.6489 7.92962 17.7446 7.84113C17.8402 7.75265 17.9533 7.68451 18.0766 7.641C18.2 7.59748 18.3311 7.57948 18.4618 7.58803C18.9702 7.62065 19.3546 8.06051 19.3546 8.56424V10.4682C21.7753 10.6946 23.9465 11.7702 25.558 13.3909C25.8598 13.6943 26.1418 14.0164 26.402 14.3554C26.6019 14.6156 26.5569 14.8164 26.2819 14.9976L25.168 15.892C26.0544 17.2155 26.5275 18.768 26.528 20.3559C26.5313 21.9718 26.0378 23.5499 25.1138 24.8811ZM23.643 23.7118C24.2943 22.7115 24.641 21.5465 24.641 20.3559C24.641 19.1382 24.268 17.982 23.6524 17.0258L21.3323 18.7612C21.5993 19.2419 21.7414 19.7807 21.7458 20.3291C21.7501 20.8775 21.6166 21.4184 21.3572 21.9032L21.4316 21.962C21.7572 22.2191 22.675 22.9442 23.643 23.7118ZM24.6151 28.3958L24.6252 27.0072L19.9066 23.3106C19.4389 23.5449 18.9219 23.6668 18.3976 23.6664C16.5487 23.6664 15.0498 22.1842 15.0498 20.3558C15.0498 18.5272 16.5487 17.0451 18.3976 17.0451C18.9138 17.0445 19.4231 17.1625 19.8853 17.3899L23.7904 14.3522C22.3387 13.0171 20.5366 12.3155 18.3976 12.3155C17.2429 12.3147 16.1015 12.558 15.0498 13.0291V16.0991C15.0498 16.2287 15.0228 16.3568 14.9707 16.4756C14.9186 16.5944 14.8423 16.7014 14.7467 16.7899C14.6511 16.8784 14.538 16.9465 14.4147 16.99C14.2913 17.0336 14.1603 17.0516 14.0296 17.0431C13.5212 17.0104 13.1368 16.5706 13.1368 16.0667V14.2279C11.3914 15.6945 10.2793 17.8758 10.2673 20.3153C10.2451 24.7593 14.0038 28.3958 18.4981 28.3958H24.6151ZM19.5907 21.144C19.7483 20.9107 19.8325 20.6364 19.8325 20.3558C19.8325 19.9794 19.6813 19.6185 19.4122 19.3524C19.1431 19.0863 18.7782 18.9368 18.3976 18.9368C18.1138 18.9368 17.8364 19.02 17.6004 19.1759C17.3645 19.3318 17.1805 19.5535 17.0719 19.8127C16.9633 20.072 16.9349 20.3573 16.9902 20.6326C17.0456 20.9078 17.1823 21.1607 17.3829 21.3591C17.5836 21.5575 17.8393 21.6927 18.1176 21.7474C18.396 21.8022 18.6845 21.7741 18.9467 21.6667C19.2089 21.5593 19.433 21.3774 19.5907 21.144Z" fill="#A7A2B6"/>
</g>
<defs>
<clipPath id="clip0_2471_46631">
<rect width="129.655" height="40" fill="white"/>
</clipPath>
</defs>
</svg>
