<svg width="24" height="24" viewBox="0 0 24 24" fill="none" xmlns="http://www.w3.org/2000/svg">
<path fill-rule="evenodd" clip-rule="evenodd" d="M11.9957 0.599609C9.16469 0.601078 6.4265 1.60377 4.27075 3.4284C2.11501 5.25302 0.682284 7.7806 0.228769 10.5592C-0.224746 13.3377 0.330513 16.1861 1.79527 18.595C3.26003 21.0038 5.53877 22.8161 8.22402 23.7077C8.81643 23.8177 9.03958 23.4505 9.03958 23.1383C9.03958 22.8261 9.02773 21.9209 9.02378 20.9314C5.70628 21.648 5.00526 19.5314 5.00526 19.5314C4.46419 18.157 3.68221 17.7957 3.68221 17.7957C2.60007 17.0613 3.76318 17.0751 3.76318 17.0751C4.96182 17.1595 5.59175 18.2983 5.59175 18.2983C6.65414 20.1106 8.382 19.5864 9.0613 19.2801C9.16793 18.5124 9.47796 17.9901 9.81959 17.6936C7.16954 17.3951 4.3852 16.3781 4.3852 11.8346C4.36878 10.6563 4.80853 9.51675 5.61347 8.6518C5.49104 8.35336 5.08227 7.14779 5.72997 5.51025C5.72997 5.51025 6.73116 5.19217 9.00996 6.72564C10.9646 6.19416 13.0268 6.19416 14.9815 6.72564C17.2583 5.19217 18.2575 5.51025 18.2575 5.51025C18.9072 7.14386 18.4984 8.34943 18.376 8.6518C19.1835 9.51689 19.6241 10.6584 19.6062 11.8385C19.6062 16.3918 16.816 17.3951 14.162 17.6877C14.5885 18.0568 14.9696 18.7774 14.9696 19.8848C14.9696 21.4713 14.9558 22.7476 14.9558 23.1383C14.9558 23.4544 15.171 23.8235 15.7753 23.7077C18.4609 22.816 20.7398 21.0034 22.2046 18.5941C23.6693 16.1849 24.2243 13.3361 23.7702 10.5572C23.3162 7.7784 21.8828 5.2508 19.7263 3.42649C17.5698 1.60218 14.831 0.600147 11.9997 0.599609H11.9957Z" fill="white"/>
<path d="M4.58655 17.6245C4.56088 17.6834 4.4661 17.7011 4.38908 17.6599C4.31207 17.6186 4.25481 17.542 4.28245 17.4812C4.3101 17.4203 4.40291 17.4046 4.47992 17.4458C4.55694 17.4871 4.61617 17.5656 4.58655 17.6245Z" fill="white"/>
<path d="M5.07027 18.1613C5.02938 18.1818 4.98259 18.1875 4.93792 18.1774C4.89326 18.1674 4.85349 18.1423 4.82541 18.1063C4.7484 18.0238 4.73259 17.9099 4.79183 17.8589C4.85107 17.8078 4.95772 17.8314 5.03473 17.9139C5.11174 17.9963 5.12951 18.1102 5.07027 18.1613Z" fill="white"/>
<path d="M5.53991 18.8425C5.46685 18.8936 5.34244 18.8425 5.27332 18.7404C5.25421 18.7221 5.23901 18.7002 5.22863 18.6759C5.21825 18.6516 5.21289 18.6255 5.21289 18.5991C5.21289 18.5727 5.21825 18.5465 5.22863 18.5223C5.23901 18.498 5.25421 18.476 5.27332 18.4577C5.34639 18.4086 5.4708 18.4577 5.53991 18.5578C5.60903 18.658 5.611 18.7915 5.53991 18.8425Z" fill="white"/>
<path d="M6.17821 19.5022C6.11304 19.5748 5.98074 19.5552 5.87213 19.457C5.76352 19.3589 5.73785 19.2253 5.80301 19.1547C5.86818 19.084 6.00048 19.1036 6.11304 19.1998C6.2256 19.296 6.24732 19.4315 6.17821 19.5022Z" fill="white"/>
<path d="M7.07234 19.8872C7.04271 19.9795 6.90843 20.0207 6.77415 19.9815C6.63987 19.9422 6.55101 19.8322 6.57668 19.738C6.60235 19.6438 6.73861 19.6006 6.87487 19.6438C7.01112 19.6869 7.09801 19.791 7.07234 19.8872Z" fill="white"/>
<path d="M8.04806 19.9531C8.04806 20.0493 7.93749 20.1318 7.79531 20.1337C7.65313 20.1357 7.53662 20.0572 7.53662 19.9609C7.53662 19.8647 7.6472 19.7823 7.78938 19.7803C7.93156 19.7783 8.04806 19.8549 8.04806 19.9531Z" fill="white"/>
<path d="M8.95628 19.8025C8.97405 19.8987 8.87532 19.9989 8.73314 20.0224C8.59096 20.046 8.46655 19.9891 8.44878 19.8948C8.43101 19.8006 8.53369 19.6985 8.67192 19.673C8.81015 19.6474 8.93851 19.7063 8.95628 19.8025Z" fill="white"/>
</svg>
