<svg xmlns="http://www.w3.org/2000/svg" width="24" height="24" fill="none" viewBox="0 0 24 24"><path fill="#0E0333" fill-rule="evenodd" d="M11.9958 0.600006C9.16477 0.601475 6.42657 1.60417 4.27083 3.42879C2.11508 5.25342 0.682361 7.78099 0.228845 10.5596C-0.22467 13.3381 0.33059 16.1865 1.79535 18.5954C3.26011 21.0042 5.53885 22.8165 8.2241 23.7081C8.81651 23.8181 9.03965 23.4509 9.03965 23.1387C9.03965 22.8265 9.0278 21.9213 9.02385 20.9317C5.70635 21.6484 5.00534 19.5318 5.00534 19.5318C4.46427 18.1574 3.68228 17.7961 3.68228 17.7961C2.60015 17.0617 3.76325 17.0755 3.76325 17.0755C4.9619 17.1599 5.59183 18.2987 5.59183 18.2987C6.65422 20.111 8.38207 19.5868 9.06137 19.2805C9.16801 18.5128 9.47804 17.9905 9.81966 17.694C7.16961 17.3955 4.38528 16.3785 4.38528 11.835C4.36885 10.6567 4.80861 9.51715 5.61355 8.6522C5.49112 8.35375 5.08235 7.14818 5.73005 5.51065C5.73005 5.51065 6.73123 5.19257 9.01004 6.72604C10.9647 6.19455 13.0269 6.19455 14.9815 6.72604C17.2584 5.19257 18.2576 5.51065 18.2576 5.51065C18.9072 7.14426 18.4985 8.34983 18.3761 8.6522C19.1835 9.51729 19.6242 10.6588 19.6063 11.8389C19.6063 16.3922 16.816 17.3955 14.162 17.6881C14.5886 18.0572 14.9697 18.7778 14.9697 19.8852C14.9697 21.4717 14.9559 22.748 14.9559 23.1387C14.9559 23.4548 15.1711 23.8239 15.7754 23.7081C18.4609 22.8164 20.7399 21.0038 22.2046 18.5945C23.6694 16.1853 24.2243 13.3364 23.7703 10.5576C23.3163 7.7788 21.8828 5.2512 19.7264 3.42689C17.5699 1.60258 14.8311 0.600544 11.9997 0.600006H11.9958Z" clip-rule="evenodd"/><path fill="#0E0333" d="M4.58643 17.6252C4.56076 17.6842 4.46597 17.7018 4.38896 17.6606C4.31195 17.6194 4.25469 17.5428 4.28233 17.4819C4.30998 17.421 4.40279 17.4053 4.4798 17.4466C4.55681 17.4878 4.61605 17.5663 4.58643 17.6252Z"/><path fill="#0E0333" d="M5.07026 18.1613C5.02936 18.1818 4.98258 18.1875 4.93791 18.1774C4.89324 18.1674 4.85347 18.1423 4.8254 18.1063C4.74838 18.0238 4.73258 17.9099 4.79182 17.8589C4.85106 17.8078 4.9577 17.8314 5.03471 17.9139C5.11173 17.9963 5.1295 18.1102 5.07026 18.1613Z"/><path fill="#0E0333" d="M5.5402 18.8426C5.46714 18.8936 5.34273 18.8426 5.27361 18.7405C5.2545 18.7222 5.2393 18.7002 5.22892 18.6759C5.21854 18.6516 5.21318 18.6255 5.21318 18.5991C5.21318 18.5727 5.21854 18.5466 5.22892 18.5223C5.2393 18.498 5.2545 18.4761 5.27361 18.4578C5.34668 18.4087 5.47109 18.4578 5.5402 18.5579C5.60932 18.658 5.61129 18.7915 5.5402 18.8426Z"/><path fill="#0E0333" d="M6.17806 19.5023C6.11289 19.575 5.98059 19.5554 5.87198 19.4572C5.76337 19.359 5.73769 19.2255 5.80286 19.1548C5.86802 19.0841 6.00033 19.1038 6.11289 19.2C6.22545 19.2962 6.24717 19.4317 6.17806 19.5023Z"/><path fill="#0E0333" d="M7.07256 19.8872C7.04294 19.9794 6.90866 20.0207 6.77438 19.9814C6.6401 19.9421 6.55124 19.8322 6.57691 19.7379C6.60258 19.6437 6.73884 19.6005 6.87509 19.6437C7.01135 19.6869 7.09824 19.791 7.07256 19.8872Z"/><path fill="#0E0333" d="M8.04817 19.9539C8.04817 20.0501 7.93759 20.1326 7.79541 20.1346C7.65324 20.1365 7.53673 20.058 7.53673 19.9618C7.53673 19.8656 7.64731 19.7831 7.78948 19.7811C7.93166 19.7792 8.04817 19.8557 8.04817 19.9539Z"/><path fill="#0E0333" d="M8.95643 19.8028C8.9742 19.899 8.87547 19.9991 8.73329 20.0227C8.59111 20.0462 8.4667 19.9893 8.44893 19.895C8.43116 19.8008 8.53385 19.6987 8.67207 19.6732C8.8103 19.6476 8.93866 19.7065 8.95643 19.8028Z"/></svg>