<svg width="131" height="158" viewBox="0 0 131 158" fill="none" xmlns="http://www.w3.org/2000/svg">
<path d="M126.717 87.9802C126.717 96.677 124.754 104.913 121.244 112.278L113.609 107.515L110.031 105.284C112.333 99.9792 113.609 94.1268 113.609 87.9802C113.609 81.8336 112.333 75.9812 110.031 70.6764L113.609 68.445L121.244 63.6825C124.754 71.047 126.717 79.2834 126.717 87.9802Z" fill="#00433B"/>
<path d="M113.609 107.515L110.031 105.284L96.3083 96.7288C95.5081 96.2302 95.1176 95.2712 95.347 94.3584C95.8577 92.3177 96.1308 90.1817 96.1308 87.9829C96.1308 85.7842 95.8604 83.6481 95.347 81.6074C95.1176 80.692 95.5081 79.7357 96.3083 79.2371L110.031 70.6819L121.244 63.6879L128.943 58.8872C130.934 57.6448 131.597 55.0483 130.418 53.0212C130.024 52.3428 129.617 51.6753 129.202 51.0132C128.039 49.1605 126.791 47.365 125.464 45.6349C112.893 29.2466 93.1978 18.5827 70.9954 18.2448C70.3946 18.2366 69.9112 17.7544 69.9112 17.155V7.33292C69.9112 3.72286 66.9755 0.793945 63.357 0.793945C59.7385 0.793945 56.8028 3.72286 56.8028 7.33292V18.5663C56.8028 19.0867 56.4341 19.5308 55.9234 19.6344C52.2258 20.3836 48.6319 21.4244 45.1718 22.7322C44.459 23.0019 43.6944 22.4761 43.6944 21.7132V7.33292C43.6944 3.72286 40.7586 0.793945 37.1401 0.793945C33.5217 0.793945 30.5859 3.72286 30.5859 7.33292V29.1676C30.5859 29.8815 30.2309 30.5463 29.6465 30.9577C11.7753 43.5425 0.081535 64.2792 0.00233823 87.7432C-0.126015 126.236 31.8476 157.729 70.4301 157.729H122.348C124.762 157.729 126.717 155.778 126.717 153.37V118.711C126.717 116.831 125.748 115.084 124.15 114.09L121.244 112.278L113.609 107.515ZM111.424 144.651H70.4192C39.1446 144.651 13.0835 119.125 13.1135 87.9257C13.1271 72.3466 19.4438 58.2415 29.6547 48.0053C29.9988 47.6593 30.5914 47.9018 30.5914 48.3895V55.2854C30.5914 58.8954 33.5271 61.8243 37.1456 61.8243C40.7641 61.8243 43.6998 58.8954 43.6998 55.2854V39.0387C43.6998 38.2078 44.175 37.4449 44.9233 37.0798C52.4661 33.3853 60.9483 31.3091 69.9167 31.3091C86.9522 31.3091 102.237 38.7908 112.647 50.64C113.535 51.6508 113.303 53.2147 112.161 53.9285L103.078 59.5929L90.6689 67.3307C89.1314 68.2897 87.1624 68.1971 85.715 67.1073C81.2882 63.7642 75.7636 61.7944 69.7747 61.8271C55.5711 61.9033 43.9101 73.4228 43.7025 87.5933C43.4895 102.216 55.309 114.139 69.9167 114.139C75.8619 114.139 81.3428 112.166 85.7396 108.837C87.1761 107.75 89.1396 107.679 90.6689 108.632L103.078 116.37L112.328 122.138C113.125 122.637 113.611 123.509 113.611 124.449V142.474C113.611 143.679 112.634 144.654 111.427 144.654L111.424 144.651ZM83.0142 87.5225V88.4379C82.9322 90.811 82.2167 93.0234 81.0315 94.9115C79.8163 96.8514 78.1012 98.4507 76.0694 99.5297C74.2343 100.505 72.1396 101.058 69.9139 101.058C62.6743 101.058 56.8055 95.2031 56.8055 87.9802C56.8055 80.7574 62.6743 74.9023 69.9139 74.9023C72.1396 74.9023 74.2343 75.4554 76.0694 76.4308C78.1012 77.5097 79.8163 79.109 81.0315 81.0489C82.2167 82.937 82.9322 85.1494 83.0142 87.5225Z" fill="black"/>
</svg>
