<?xml version="1.0" encoding="UTF-8"?><svg id="Layer_2" xmlns="http://www.w3.org/2000/svg" viewBox="0 0 478.22 574.5"><defs><style>.cls-1{fill:none;}.cls-2{fill:#ebebeb;}.cls-3{fill:#73e2e2;}</style></defs><g id="Layer_1-2"><g><path class="cls-1" d="m342.9,129.74c-27.55-12.76-57.04-19.24-87.65-19.24-32.22,0-63.12,7.15-91.85,21.25-2.98,1.46-4.9,4.55-4.9,7.86v59.63c0,12.82-10.43,23.25-23.25,23.25s-23.25-10.43-23.25-23.25v-25.31c0-1.52-1.24-2.76-2.77-2.76-.73,0-1.42.29-1.94.82-19.04,19.13-34,41.39-44.45,66.14-10.82,25.63-16.32,52.85-16.35,80.91-.03,28.06,5.59,55.36,16.7,81.14,10.7,24.83,25.99,47.19,45.46,66.44,19.43,19.21,41.98,34.32,67.03,44.89,25.92,10.94,53.31,16.49,81.41,16.49h150.15c4.82,0,8.75-3.93,8.75-8.75v-66.16c0-3.73-1.89-7.14-5.05-9.12l-33.87-21.17-45.44-28.4c-2.68-1.67-5.76-2.56-8.91-2.56-3.65,0-7.1,1.16-9.99,3.35-16.65,12.63-36.53,19.3-57.49,19.3-25.7,0-49.8-10.08-67.84-28.39-18.04-18.3-27.77-42.55-27.4-68.27.36-24.95,10.41-48.45,28.29-66.16,17.88-17.71,41.47-27.54,66.43-27.67h.52c20.92,0,40.77,6.65,57.4,19.23,2.9,2.19,6.5,3.4,10.13,3.4,3.14,0,6.2-.88,8.86-2.54l45.44-28.4,33.26-20.79c2.18-1.36,3.65-3.61,4.02-6.15.37-2.54-.38-5.11-2.08-7.05-19.42-22.15-42.76-39.64-69.39-51.97Z"/><path class="cls-1" d="m278.14,276.2c-7-3.73-14.91-5.7-22.89-5.7-26.88,0-48.75,21.87-48.75,48.75s21.87,48.75,48.75,48.75c7.98,0,15.89-1.97,22.89-5.7,7.54-4.02,13.92-9.97,18.45-17.21,4.53-7.23,7.08-15.58,7.37-24.16v-3.39c-.3-8.55-2.85-16.9-7.37-24.13-4.53-7.25-10.91-13.2-18.45-17.21Z"/><path class="cls-1" d="m416,319.25c0-22.17-4.43-43.64-13.16-63.81l-.35-.8-.74.46-50.25,31.4c-3.22,2.01-4.77,5.84-3.85,9.52,1.89,7.55,2.85,15.36,2.85,23.22s-.96,15.68-2.85,23.22c-.92,3.68.63,7.51,3.85,9.52l50.25,31.4.74.46.35-.8c8.73-20.17,13.16-41.64,13.16-63.81Z"/><path class="cls-2" d="m476.16,191.3c-1.43-2.46-2.92-4.93-4.43-7.35-4.23-6.76-8.82-13.38-13.65-19.68-22.94-29.98-52.77-54.93-86.25-72.15-35.07-18.03-72.96-27.49-112.62-28.09-2.59-.04-4.71-2.17-4.71-4.75V23.25c0-12.82-10.43-23.25-23.25-23.25s-23.25,10.43-23.25,23.25v41.23c0,2.25-1.61,4.2-3.82,4.65-13.34,2.71-26.54,6.52-39.25,11.33-.55.21-1.11.31-1.68.31-2.61,0-4.74-2.13-4.74-4.75V23.25c0-12.82-10.43-23.25-23.25-23.25s-23.25,10.43-23.25,23.25v80.14c0,2.84-1.4,5.52-3.76,7.19-32.63,23.03-59.77,53.8-78.49,88.98C10.43,235.88.14,276.97,0,318.39c-.11,34.16,6.59,67.41,19.91,98.83,12.84,30.28,31.26,57.57,54.73,81.12,23.75,23.83,51.41,42.57,82.22,55.69,31.88,13.58,65.62,20.47,100.28,20.47h190.11c8.41,0,15.25-6.84,15.25-15.25v-127.21c0-6.68-3.38-12.78-9.05-16.33l-10.64-6.65-.57-.35-39.75-24.85-.74-.46-50.25-31.4c-3.22-2.01-4.77-5.84-3.85-9.52,1.89-7.55,2.85-15.36,2.85-23.22s-.96-15.68-2.85-23.22c-.92-3.68.63-7.51,3.85-9.52l50.25-31.4.74-.46,39.75-24.85.57-.35,28.19-17.62c7.02-4.39,9.28-13.4,5.15-20.52Zm-61.8-2.55c-.37,2.55-1.84,4.79-4.02,6.15l-33.26,20.79-45.44,28.4c-2.66,1.66-5.73,2.54-8.86,2.54-3.63,0-7.23-1.21-10.13-3.4-16.63-12.58-36.48-19.23-57.4-19.23h-.52c-24.96.13-48.55,9.96-66.43,27.67-17.88,17.71-27.93,41.21-28.29,66.16-.37,25.72,9.36,49.97,27.4,68.27,18.04,18.31,42.14,28.39,67.84,28.39,20.96,0,40.84-6.68,57.49-19.3,2.89-2.19,6.34-3.35,9.99-3.35,3.15,0,6.23.88,8.91,2.56l45.44,28.4,33.87,21.17c3.16,1.98,5.05,5.39,5.05,9.12v66.16c0,4.82-3.93,8.75-8.75,8.75h-150.15c-28.1,0-55.49-5.55-81.41-16.49-25.05-10.57-47.6-25.67-67.03-44.89-19.47-19.25-34.76-41.6-45.46-66.44-11.11-25.78-16.73-53.08-16.7-81.14.03-28.05,5.53-55.28,16.35-80.91,10.45-24.76,25.4-47.01,44.45-66.14.52-.53,1.21-.82,1.94-.82,1.53,0,2.77,1.24,2.77,2.76v25.31c0,12.82,10.43,23.25,23.25,23.25s23.25-10.43,23.25-23.25v-59.63c0-3.32,1.92-6.4,4.9-7.86,28.73-14.1,59.64-21.25,91.85-21.25s60.09,6.47,87.65,19.24c26.63,12.33,49.97,29.82,69.39,51.97,1.69,1.93,2.45,4.5,2.08,7.05Zm-110.39,132.18c-.3,8.58-2.85,16.93-7.37,24.16-4.53,7.25-10.91,13.2-18.45,17.21-7,3.73-14.91,5.7-22.89,5.7-26.88,0-48.75-21.87-48.75-48.75s21.87-48.75,48.75-48.75c7.98,0,15.89,1.97,22.89,5.7,7.54,4.02,13.92,9.97,18.45,17.21,4.53,7.23,7.08,15.58,7.37,24.13v3.39Z"/><path class="cls-3" d="m402.84,255.44c8.73,20.17,13.16,41.64,13.16,63.81s-4.43,43.64-13.16,63.81l-.35.8,39.75,24.85.29-.6c13.25-27.87,19.97-57.77,19.97-88.86s-6.72-60.99-19.97-88.86l-.29-.6-39.75,24.85.35.8Z"/></g></g></svg>