<?xml version="1.0" encoding="UTF-8"?><svg id="Layer_1" xmlns="http://www.w3.org/2000/svg" viewBox="0 0 150 150"><defs><style>.cls-1{fill:#00e6a8;}.cls-2{fill:#0e0333;}</style></defs><circle class="cls-1" cx="75" cy="75" r="75"/><path class="cls-2" d="M105.94305419921875,98.789794921875c-1.016845703125-.82501220703125-2.628662109375-2.14892578125-4.52813720703125-3.68389892578125,3.62640380859375-5.23822021484375,5.58343505859375-11.45489501953125,5.6026611328125-17.78668212890625,.03839111328125-6.3509521484375-1.842041015625-12.567626953125-5.41082763671875-17.86334228515625l.0191650390625-.0191650390625,4.4130859375-3.56884765625c1.09368896484375-.7291259765625,1.26641845703125-1.5157470703125,.47967529296875-2.57110595703125-1.03607177734375-1.343017578125-2.14898681640625-2.628662109375-3.33856201171875-3.81829833984375-6.5045166015625-6.63873291015625-15.15802001953125-10.74481201171875-24.4254150390625-11.62744140625v-7.57904052734375c.01922607421875-.9593505859375-.32623291015625-1.8995361328125-.97857666015625-2.628662109375-.65240478515625-.70989990234375-1.55413818359375-1.17034912109375-2.53271484375-1.2470703125-.51806640625-.03839111328125-1.03607177734375,.03826904296875-1.5157470703125,.21099853515625-.47967529296875,.17266845703125-.940185546875,.4412841796875-1.30474853515625,.78668212890625-.38372802734375,.36456298828125-.6907958984375,.7867431640625-.88262939453125,1.26641845703125-.2110595703125,.46044921875-.30706787109375,.97857666015625-.30706787109375,1.49652099609375v7.69415283203125c-3.22344970703125,.3070068359375-6.3892822265625,.99774169921875-9.4208984375,2.07220458984375v-9.6512451171875c0-.9593505859375-.3453369140625-1.8995361328125-.997802734375-2.628662109375-.65228271484375-.70989990234375-1.55413818359375-1.17034912109375-2.53271484375-1.2470703125-.5179443359375-.03839111328125-1.03607177734375,.03826904296875-1.5157470703125,.21099853515625-.47967529296875,.17266845703125-.92095947265625,.4412841796875-1.3046875,.78668212890625-.3837890625,.36456298828125-.6715087890625,.7867431640625-.8826904296875,1.26641845703125-.21099853515625,.46044921875-.30694580078125,.97857666015625-.30694580078125,1.49652099609375v13.3543701171875c-5.7177734375,3.5113525390625-10.4378662109375,8.404052734375-13.7381591796875,14.2369384765625-3.3001708984375,5.8330078125-5.06536865234375,12.39501953125-5.103759765625,19.09136962890625-.1727294921875,21.89263916015625,18.11279296875,39.8135986328125,40.0438232421875,39.8135986328125h29.29901123046875c.5372314453125,0,1.0552978515625-.1917724609375,1.458251953125-.53717041015625,.40289306640625-.345458984375,.6715087890625-.82513427734375,.7674560546875-1.3431396484375l.01922607421875-13.66131591796875c.0191650390625-.44140625-.095947265625-.88262939453125-.2686767578125-1.28564453125-.19183349609375-.40283203125-.46044921875-.76739501953125-.80584716796875-1.03607177734375Zm-19.37908935546875-27.97509765625l9.0179443359375-6.81146240234375c2.53271484375,3.93341064453125,3.8758544921875,8.48077392578125,3.8758544921875,13.14324951171875,0,4.68170166015625-1.36236572265625,9.26751708984375-3.933349609375,13.2200927734375-4.10614013671875-3.28094482421875-7.9627685546875-6.331787109375-8.86456298828125-7.0609130859375,1.01690673828125-1.91876220703125,1.53497314453125-4.06768798828125,1.53497314453125-6.25506591796875-.01922607421875-2.187255859375-.5755615234375-4.317138671875-1.630859375-6.23590087890625Zm12.93218994140625,38.31707763671875h-24.09918212890625c-17.7099609375,0-32.5224609375-14.46728515625-32.42657470703125-32.138671875,.01922607421875-4.60504150390625,1.03619384765625-9.15240478515625,2.99322509765625-13.335205078125,1.9571533203125-4.18280029296875,4.777587890625-7.88592529296875,8.30810546875-10.85992431640625v7.310302734375c-.01922607421875,.97845458984375,.3453369140625,1.91876220703125,.997802734375,2.628662109375,.65228271484375,.7291259765625,1.534912109375,1.17041015625,2.51348876953125,1.26629638671875,.51800537109375,.01922607421875,1.03607177734375-.03839111328125,1.5157470703125-.21099853515625,.4989013671875-.1727294921875,.940185546875-.4412841796875,1.30474853515625-.80584716796875,.3837890625-.345458984375,.69073486328125-.76751708984375,.88262939453125-1.2471923828125,.2110595703125-.47967529296875,.326171875-.97857666015625,.326171875-1.4967041015625v-12.20306396484375c4.1444091796875-1.88031005859375,8.63427734375-2.85888671875,13.181640625-2.83966064453125,8.42327880859375,0,15.5225830078125,2.78216552734375,21.2403564453125,8.09698486328125l-15.3690185546875,12.06884765625c-2.03387451171875-.997802734375-4.259521484375-1.458251953125-6.5045166015625-1.3431396484375-2.244873046875,.095947265625-4.4322509765625,.78662109375-6.331787109375,1.9571533203125-1.91876220703125,1.1895751953125-3.49212646484375,2.83966064453125-4.5858154296875,4.81591796875-1.074462890625,1.95709228515625-1.65008544921875,4.1636962890625-1.65008544921875,6.4085693359375,.01922607421875,2.244873046875,.5948486328125,4.45147705078125,1.70770263671875,6.40863037109375,1.09368896484375,1.95703125,2.686279296875,3.60711669921875,4.60504150390625,4.777587890625,1.918701171875,1.17041015625,4.10595703125,1.82281494140625,6.3509521484375,1.91876220703125,2.244873046875,.09588623046875,4.4705810546875-.3837890625,6.48529052734375-1.4007568359375l-.19189453125,.1727294921875,18.7459716796875,14.40966796875v5.64105224609375Zm-18.8419189453125-31.966064453125c0,1.1129150390625-.3453369140625,2.20660400390625-.9593505859375,3.12750244140625-.614013671875,.92108154296875-1.49664306640625,1.65008544921875-2.53271484375,2.072265625-1.03607177734375,.42205810546875-2.168212890625,.5372314453125-3.26190185546875,.326171875-1.11279296875-.2110595703125-2.11053466796875-.74835205078125-2.89727783203125-1.53497314453125-.78662109375-.80584716796875-1.343017578125-1.8035888671875-1.55419921875-2.89727783203125-.21099853515625-1.09368896484375-.09588623046875-2.22564697265625,.3262939453125-3.2618408203125,.42205810546875-1.03607177734375,1.15118408203125-1.8995361328125,2.0721435546875-2.53265380859375,.94024658203125-.614013671875,2.03387451171875-.94024658203125,3.146728515625-.94024658203125,1.4967041015625,0,2.93572998046875,.59478759765625,3.99102783203125,1.65020751953125,1.074462890625,1.05523681640625,1.66925048828125,2.49432373046875,1.66925048828125,3.9908447265625Z"/></svg>