<svg xmlns="http://www.w3.org/2000/svg" xmlns:xlink="http://www.w3.org/1999/xlink" width="140" height="140" preserveAspectRatio="xMidYMid meet" viewBox="0 0 140 140" style="width:100%;height:100%;transform:translate3d(0,0,0);content-visibility:visible"><defs><clipPath id="__lottie_element_292"><rect width="140" height="140" x="0" y="0"/></clipPath></defs><g clip-path="url(#__lottie_element_292)"><g style="display:block" opacity="1"><g opacity="1"><path fill="#FBFBFB" fill-opacity="1" d="M5,-5 C5,-5 5,5 5,5 C5,5 -5,5 -5,5 C-5,5 -5,-5 -5,-5 C-5,-5 5,-5 5,-5z" transform="matrix(1,0,0,1,130,70) matrix(1,0,0,1,-65,-65)"/></g></g><g opacity="1" style="display:block"><g opacity="1"><path fill="#FBFBFB" fill-opacity="1" d="M5,-5 C5,-5 5,5 5,5 C5,5 -5,5 -5,5 C-5,5 -5,-5 -5,-5 C-5,-5 5,-5 5,-5z" transform="matrix(1,0,0,1,140,70) matrix(1,0,0,1,-65,-65)"/></g></g><g style="display:block" opacity="1"><g opacity="1"><path fill="#FBFBFB" fill-opacity="1" d="M5,-5 C5,-5 5,5 5,5 C5,5 -5,5 -5,5 C-5,5 -5,-5 -5,-5 C-5,-5 5,-5 5,-5z" transform="matrix(1,0,0,1,130,100) matrix(1,0,0,1,-65,-65)"/></g></g><g opacity="1" style="display:block"><g opacity="1"><path fill="#FBFBFB" fill-opacity="1" d="M5,-5 C5,-5 5,5 5,5 C5,5 -5,5 -5,5 C-5,5 -5,-5 -5,-5 C-5,-5 5,-5 5,-5z" transform="matrix(1,0,0,1,120,80) matrix(1,0,0,1,-65,-65)"/></g></g><g opacity="1" style="display:block"><g opacity="1"><path fill="#FBFBFB" fill-opacity="1" d="M5,-5 C5,-5 5,5 5,5 C5,5 -5,5 -5,5 C-5,5 -5,-5 -5,-5 C-5,-5 5,-5 5,-5z" transform="matrix(1,0,0,1,130,70) matrix(1,0,0,1,-65,-65)"/></g></g><g style="display:block" opacity="1"><g opacity="1"><path fill="#FBFBFB" fill-opacity="1" d="M5,-5 C5,-5 5,5 5,5 C5,5 -5,5 -5,5 C-5,5 -5,-5 -5,-5 C-5,-5 5,-5 5,-5z" transform="matrix(1,0,0,1,140,110) matrix(1,0,0,1,-65,-65)"/></g></g><g opacity="1" style="display:block"><g opacity="1"><path fill="#FBFBFB" fill-opacity="1" d="M5,-5 C5,-5 5,5 5,5 C5,5 -5,5 -5,5 C-5,5 -5,-5 -5,-5 C-5,-5 5,-5 5,-5z" transform="matrix(1,0,0,1,140,90) matrix(1,0,0,1,-65,-65)"/></g></g><g opacity="1" style="display:block"><g opacity="1"><path fill="#FBFBFB" fill-opacity="1" d="M5,-5 C5,-5 5,5 5,5 C5,5 -5,5 -5,5 C-5,5 -5,-5 -5,-5 C-5,-5 5,-5 5,-5z" transform="matrix(1,0,0,1,150,80) matrix(1,0,0,1,-65,-65)"/></g></g><g style="display:block" opacity="1"><g opacity="1"><path fill="#FBFBFB" fill-opacity="1" d="M5,-5 C5,-5 5,5 5,5 C5,5 -5,5 -5,5 C-5,5 -5,-5 -5,-5 C-5,-5 5,-5 5,-5z" transform="matrix(1,0,0,1,130,130) matrix(1,0,0,1,-65,-65)"/></g></g><g opacity="1" style="display:block"><g opacity="1"><path fill="#FBFBFB" fill-opacity="1" d="M5,-5 C5,-5 5,5 5,5 C5,5 -5,5 -5,5 C-5,5 -5,-5 -5,-5 C-5,-5 5,-5 5,-5z" transform="matrix(1,0,0,1,140,120) matrix(1,0,0,1,-65,-65)"/></g></g><g opacity="1" style="display:block"><g opacity="1"><path fill="#FBFBFB" fill-opacity="1" d="M5,-5 C5,-5 5,5 5,5 C5,5 -5,5 -5,5 C-5,5 -5,-5 -5,-5 C-5,-5 5,-5 5,-5z" transform="matrix(1,0,0,1,120,100) matrix(1,0,0,1,-65,-65)"/></g></g><g opacity="1" style="display:block"><g opacity="1"><path fill="#FBFBFB" fill-opacity="1" d="M5,-5 C5,-5 5,5 5,5 C5,5 -5,5 -5,5 C-5,5 -5,-5 -5,-5 C-5,-5 5,-5 5,-5z" transform="matrix(1,0,0,1,130,90) matrix(1,0,0,1,-65,-65)"/></g></g><g opacity="1" style="display:block"><g opacity="1"><path fill="#FBFBFB" fill-opacity="1" d="M5,-5 C5,-5 5,5 5,5 C5,5 -5,5 -5,5 C-5,5 -5,-5 -5,-5 C-5,-5 5,-5 5,-5z" transform="matrix(1,0,0,1,150,100) matrix(1,0,0,1,-65,-65)"/></g></g><g opacity="1" style="display:block"><g opacity="1"><path fill="#FBFBFB" fill-opacity="1" d="M5,-5 C5,-5 5,5 5,5 C5,5 -5,5 -5,5 C-5,5 -5,-5 -5,-5 C-5,-5 5,-5 5,-5z" transform="matrix(1,0,0,1,120,110) matrix(1,0,0,1,-65,-65)"/></g></g><g style="display:block" opacity="1"><g opacity="1"><path fill="#FBFBFB" fill-opacity="1" d="M5,-5 C5,-5 5,5 5,5 C5,5 -5,5 -5,5 C-5,5 -5,-5 -5,-5 C-5,-5 5,-5 5,-5z" transform="matrix(1,0,0,1,160,140) matrix(1,0,0,1,-65,-65)"/></g></g><g opacity="1" style="display:block"><g opacity="1"><path fill="#FBFBFB" fill-opacity="1" d="M5,-5 C5,-5 5,5 5,5 C5,5 -5,5 -5,5 C-5,5 -5,-5 -5,-5 C-5,-5 5,-5 5,-5z" transform="matrix(1,0,0,1,140,140) matrix(1,0,0,1,-65,-65)"/></g></g><g opacity="1" style="display:block"><g opacity="1"><path fill="#FBFBFB" fill-opacity="1" d="M5,-5 C5,-5 5,5 5,5 C5,5 -5,5 -5,5 C-5,5 -5,-5 -5,-5 C-5,-5 5,-5 5,-5z" transform="matrix(1,0,0,1,140,100) matrix(1,0,0,1,-65,-65)"/></g></g><g opacity="1" style="display:block"><g opacity="1"><path fill="#FBFBFB" fill-opacity="1" d="M5,-5 C5,-5 5,5 5,5 C5,5 -5,5 -5,5 C-5,5 -5,-5 -5,-5 C-5,-5 5,-5 5,-5z" transform="matrix(1,0,0,1,120,120) matrix(1,0,0,1,-65,-65)"/></g></g><g opacity="1" style="display:block"><g opacity="1"><path fill="#FBFBFB" fill-opacity="1" d="M5,-5 C5,-5 5,5 5,5 C5,5 -5,5 -5,5 C-5,5 -5,-5 -5,-5 C-5,-5 5,-5 5,-5z" transform="matrix(1,0,0,1,130,110) matrix(1,0,0,1,-65,-65)"/></g></g><g opacity="1" style="display:block"><g opacity="1"><path fill="#FBFBFB" fill-opacity="1" d="M5,-5 C5,-5 5,5 5,5 C5,5 -5,5 -5,5 C-5,5 -5,-5 -5,-5 C-5,-5 5,-5 5,-5z" transform="matrix(1,0,0,1,150,110) matrix(1,0,0,1,-65,-65)"/></g></g><g opacity="1" style="display:block"><g opacity="1"><path fill="#FBFBFB" fill-opacity="1" d="M5,-5 C5,-5 5,5 5,5 C5,5 -5,5 -5,5 C-5,5 -5,-5 -5,-5 C-5,-5 5,-5 5,-5z" transform="matrix(1,0,0,1,150,120) matrix(1,0,0,1,-65,-65)"/></g></g><g style="display:block" opacity="1"><g opacity="1"><path fill="#FBFBFB" fill-opacity="1" d="M5,-5 C5,-5 5,5 5,5 C5,5 -5,5 -5,5 C-5,5 -5,-5 -5,-5 C-5,-5 5,-5 5,-5z" transform="matrix(1,0,0,1,110,150) matrix(1,0,0,1,-65,-65)"/></g></g><g opacity="1" style="display:block"><g opacity="1"><path fill="#FBFBFB" fill-opacity="1" d="M5,-5 C5,-5 5,5 5,5 C5,5 -5,5 -5,5 C-5,5 -5,-5 -5,-5 C-5,-5 5,-5 5,-5z" transform="matrix(1,0,0,1,130,140) matrix(1,0,0,1,-65,-65)"/></g></g><g opacity="1" style="display:block"><g opacity="1"><path fill="#FBFBFB" fill-opacity="1" d="M5,-5 C5,-5 5,5 5,5 C5,5 -5,5 -5,5 C-5,5 -5,-5 -5,-5 C-5,-5 5,-5 5,-5z" transform="matrix(1,0,0,1,120,130) matrix(1,0,0,1,-65,-65)"/></g></g><g opacity="1" style="display:block"><g opacity="1"><path fill="#FBFBFB" fill-opacity="1" d="M5,-5 C5,-5 5,5 5,5 C5,5 -5,5 -5,5 C-5,5 -5,-5 -5,-5 C-5,-5 5,-5 5,-5z" transform="matrix(1,0,0,1,110,130) matrix(1,0,0,1,-65,-65)"/></g></g><g opacity="1" style="display:block"><g opacity="1"><path fill="#FBFBFB" fill-opacity="1" d="M5,-5 C5,-5 5,5 5,5 C5,5 -5,5 -5,5 C-5,5 -5,-5 -5,-5 C-5,-5 5,-5 5,-5z" transform="matrix(1,0,0,1,130,120) matrix(1,0,0,1,-65,-65)"/></g></g><g opacity="1" style="display:block"><g opacity="1"><path fill="#FBFBFB" fill-opacity="1" d="M5,-5 C5,-5 5,5 5,5 C5,5 -5,5 -5,5 C-5,5 -5,-5 -5,-5 C-5,-5 5,-5 5,-5z" transform="matrix(1,0,0,1,120,140) matrix(1,0,0,1,-65,-65)"/></g></g><g opacity="1" style="display:block"><g opacity="1"><path fill="#FBFBFB" fill-opacity="1" d="M5,-5 C5,-5 5,5 5,5 C5,5 -5,5 -5,5 C-5,5 -5,-5 -5,-5 C-5,-5 5,-5 5,-5z" transform="matrix(1,0,0,1,70,140) matrix(1,0,0,1,-65,-65)"/></g></g><g opacity="1" style="display:block"><g opacity="1"><path fill="#FBFBFB" fill-opacity="1" d="M5,-5 C5,-5 5,5 5,5 C5,5 -5,5 -5,5 C-5,5 -5,-5 -5,-5 C-5,-5 5,-5 5,-5z" transform="matrix(1,0,0,1,170,150) matrix(1,0,0,1,-65,-65)"/></g></g><g opacity="1" style="display:block"><g opacity="1"><path fill="#FBFBFB" fill-opacity="1" d="M5,-5 C5,-5 5,5 5,5 C5,5 -5,5 -5,5 C-5,5 -5,-5 -5,-5 C-5,-5 5,-5 5,-5z" transform="matrix(1,0,0,1,140,130) matrix(1,0,0,1,-65,-65)"/></g></g><g opacity="1" style="display:block"><g opacity="1"><path fill="#FBFBFB" fill-opacity="1" d="M5,-5 C5,-5 5,5 5,5 C5,5 -5,5 -5,5 C-5,5 -5,-5 -5,-5 C-5,-5 5,-5 5,-5z" transform="matrix(1,0,0,1,150,130) matrix(1,0,0,1,-65,-65)"/></g></g><g style="display:block" opacity="1"><g opacity="1"><path fill="#FBFBFB" fill-opacity="1" d="M5,-5 C5,-5 5,5 5,5 C5,5 -5,5 -5,5 C-5,5 -5,-5 -5,-5 C-5,-5 5,-5 5,-5z" transform="matrix(1,0,0,1,100,160) matrix(1,0,0,1,-65,-65)"/></g></g><g opacity="1" style="display:block"><g opacity="1"><path fill="#FBFBFB" fill-opacity="1" d="M5,-5 C5,-5 5,5 5,5 C5,5 -5,5 -5,5 C-5,5 -5,-5 -5,-5 C-5,-5 5,-5 5,-5z" transform="matrix(1,0,0,1,100,140) matrix(1,0,0,1,-65,-65)"/></g></g><g opacity="1" style="display:block"><g opacity="1"><path fill="#FBFBFB" fill-opacity="1" d="M5,-5 C5,-5 5,5 5,5 C5,5 -5,5 -5,5 C-5,5 -5,-5 -5,-5 C-5,-5 5,-5 5,-5z" transform="matrix(1,0,0,1,110,140) matrix(1,0,0,1,-65,-65)"/></g></g><g opacity="1" style="display:block"><g opacity="1"><path fill="#FBFBFB" fill-opacity="1" d="M5,-5 C5,-5 5,5 5,5 C5,5 -5,5 -5,5 C-5,5 -5,-5 -5,-5 C-5,-5 5,-5 5,-5z" transform="matrix(1,0,0,1,180,160) matrix(1,0,0,1,-65,-65)"/></g></g><g opacity="1" style="display:block"><g opacity="1"><path fill="#FBFBFB" fill-opacity="1" d="M5,-5 C5,-5 5,5 5,5 C5,5 -5,5 -5,5 C-5,5 -5,-5 -5,-5 C-5,-5 5,-5 5,-5z" transform="matrix(1,0,0,1,200,140) matrix(1,0,0,1,-65,-65)"/></g></g><g opacity="1" style="display:block"><g opacity="1"><path fill="#FBFBFB" fill-opacity="1" d="M5,-5 C5,-5 5,5 5,5 C5,5 -5,5 -5,5 C-5,5 -5,-5 -5,-5 C-5,-5 5,-5 5,-5z" transform="matrix(1,0,0,1,150,140) matrix(1,0,0,1,-65,-65)"/></g></g><g opacity="1" style="display:block"><g opacity="1"><path fill="#FBFBFB" fill-opacity="1" d="M5,-5 C5,-5 5,5 5,5 C5,5 -5,5 -5,5 C-5,5 -5,-5 -5,-5 C-5,-5 5,-5 5,-5z" transform="matrix(1,0,0,1,160,130) matrix(1,0,0,1,-65,-65)"/></g></g><g style="display:block" opacity="1"><g opacity="1"><path fill="#FBFBFB" fill-opacity="1" d="M5,-5 C5,-5 5,5 5,5 C5,5 -5,5 -5,5 C-5,5 -5,-5 -5,-5 C-5,-5 5,-5 5,-5z" transform="matrix(1,0,0,1,160,170) matrix(1,0,0,1,-65,-65)"/></g></g><g opacity="1" style="display:block"><g opacity="1"><path fill="#FBFBFB" fill-opacity="1" d="M5,-5 C5,-5 5,5 5,5 C5,5 -5,5 -5,5 C-5,5 -5,-5 -5,-5 C-5,-5 5,-5 5,-5z" transform="matrix(1,0,0,1,200,150) matrix(1,0,0,1,-65,-65)"/></g></g><g opacity="1" style="display:block"><g opacity="1"><path fill="#FBFBFB" fill-opacity="1" d="M5,-5 C5,-5 5,5 5,5 C5,5 -5,5 -5,5 C-5,5 -5,-5 -5,-5 C-5,-5 5,-5 5,-5z" transform="matrix(1,0,0,1,150,150) matrix(1,0,0,1,-65,-65)"/></g></g><g opacity="1" style="display:block"><g opacity="1"><path fill="#FBFBFB" fill-opacity="1" d="M5,-5 C5,-5 5,5 5,5 C5,5 -5,5 -5,5 C-5,5 -5,-5 -5,-5 C-5,-5 5,-5 5,-5z" transform="matrix(1,0,0,1,160,150) matrix(1,0,0,1,-65,-65)"/></g></g><g opacity="1" style="display:block"><g opacity="1"><path fill="#FBFBFB" fill-opacity="1" d="M5,-5 C5,-5 5,5 5,5 C5,5 -5,5 -5,5 C-5,5 -5,-5 -5,-5 C-5,-5 5,-5 5,-5z" transform="matrix(1,0,0,1,120,150) matrix(1,0,0,1,-65,-65)"/></g></g><g opacity="1" style="display:block"><g opacity="1"><path fill="#FBFBFB" fill-opacity="1" d="M5,-5 C5,-5 5,5 5,5 C5,5 -5,5 -5,5 C-5,5 -5,-5 -5,-5 C-5,-5 5,-5 5,-5z" transform="matrix(1,0,0,1,100,150) matrix(1,0,0,1,-65,-65)"/></g></g><g opacity="1" style="display:block"><g opacity="1"><path fill="#FBFBFB" fill-opacity="1" d="M5,-5 C5,-5 5,5 5,5 C5,5 -5,5 -5,5 C-5,5 -5,-5 -5,-5 C-5,-5 5,-5 5,-5z" transform="matrix(1,0,0,1,80,170) matrix(1,0,0,1,-65,-65)"/></g></g><g opacity="1" style="display:block"><g opacity="1"><path fill="#FBFBFB" fill-opacity="1" d="M5,-5 C5,-5 5,5 5,5 C5,5 -5,5 -5,5 C-5,5 -5,-5 -5,-5 C-5,-5 5,-5 5,-5z" transform="matrix(1,0,0,1,90,160) matrix(1,0,0,1,-65,-65)"/></g></g><g opacity="1" style="display:block"><g opacity="1"><path fill="#FBFBFB" fill-opacity="1" d="M5,-5 C5,-5 5,5 5,5 C5,5 -5,5 -5,5 C-5,5 -5,-5 -5,-5 C-5,-5 5,-5 5,-5z" transform="matrix(1,0,0,1,70,150) matrix(1,0,0,1,-65,-65)"/></g></g><g opacity="1" style="display:block"><g opacity="1"><path fill="#FBFBFB" fill-opacity="1" d="M5,-5 C5,-5 5,5 5,5 C5,5 -5,5 -5,5 C-5,5 -5,-5 -5,-5 C-5,-5 5,-5 5,-5z" transform="matrix(1,0,0,1,170,140) matrix(1,0,0,1,-65,-65)"/></g></g><g opacity="1" style="display:block"><g opacity="1"><path fill="#FBFBFB" fill-opacity="1" d="M5,-5 C5,-5 5,5 5,5 C5,5 -5,5 -5,5 C-5,5 -5,-5 -5,-5 C-5,-5 5,-5 5,-5z" transform="matrix(1,0,0,1,180,150) matrix(1,0,0,1,-65,-65)"/></g></g><g style="display:block" opacity="1"><g opacity="1"><path fill="#FBFBFB" fill-opacity="1" d="M5,-5 C5,-5 5,5 5,5 C5,5 -5,5 -5,5 C-5,5 -5,-5 -5,-5 C-5,-5 5,-5 5,-5z" transform="matrix(1,0,0,1,190,170) matrix(1,0,0,1,-65,-65)"/></g></g><g opacity="1" style="display:block"><g opacity="1"><path fill="#FBFBFB" fill-opacity="1" d="M5,-5 C5,-5 5,5 5,5 C5,5 -5,5 -5,5 C-5,5 -5,-5 -5,-5 C-5,-5 5,-5 5,-5z" transform="matrix(1,0,0,1,160,160) matrix(1,0,0,1,-65,-65)"/></g></g><g opacity="1" style="display:block"><g opacity="1"><path fill="#FBFBFB" fill-opacity="1" d="M5,-5 C5,-5 5,5 5,5 C5,5 -5,5 -5,5 C-5,5 -5,-5 -5,-5 C-5,-5 5,-5 5,-5z" transform="matrix(1,0,0,1,170,160) matrix(1,0,0,1,-65,-65)"/></g></g><g opacity="1" style="display:block"><g opacity="1"><path fill="#FBFBFB" fill-opacity="1" d="M5,-5 C5,-5 5,5 5,5 C5,5 -5,5 -5,5 C-5,5 -5,-5 -5,-5 C-5,-5 5,-5 5,-5z" transform="matrix(1,0,0,1,200,160) matrix(1,0,0,1,-65,-65)"/></g></g><g opacity="1" style="display:block"><g opacity="1"><path fill="#FBFBFB" fill-opacity="1" d="M5,-5 C5,-5 5,5 5,5 C5,5 -5,5 -5,5 C-5,5 -5,-5 -5,-5 C-5,-5 5,-5 5,-5z" transform="matrix(1,0,0,1,80,160) matrix(1,0,0,1,-65,-65)"/></g></g><g opacity="1" style="display:block"><g opacity="1"><path fill="#FBFBFB" fill-opacity="1" d="M5,-5 C5,-5 5,5 5,5 C5,5 -5,5 -5,5 C-5,5 -5,-5 -5,-5 C-5,-5 5,-5 5,-5z" transform="matrix(1,0,0,1,110,170) matrix(1,0,0,1,-65,-65)"/></g></g><g opacity="1" style="display:block"><g opacity="1"><path fill="#FBFBFB" fill-opacity="1" d="M5,-5 C5,-5 5,5 5,5 C5,5 -5,5 -5,5 C-5,5 -5,-5 -5,-5 C-5,-5 5,-5 5,-5z" transform="matrix(1,0,0,1,90,150) matrix(1,0,0,1,-65,-65)"/></g></g><g opacity="1" style="display:block"><g opacity="1"><path fill="#FBFBFB" fill-opacity="1" d="M5,-5 C5,-5 5,5 5,5 C5,5 -5,5 -5,5 C-5,5 -5,-5 -5,-5 C-5,-5 5,-5 5,-5z" transform="matrix(1,0,0,1,70,160) matrix(1,0,0,1,-65,-65)"/></g></g><g style="display:block" opacity="1"><g opacity="1"><path fill="#FBFBFB" fill-opacity="1" d="M5,-5 C5,-5 5,5 5,5 C5,5 -5,5 -5,5 C-5,5 -5,-5 -5,-5 C-5,-5 5,-5 5,-5z" transform="matrix(1,0,0,1,70,180) matrix(1,0,0,1,-65,-65)"/></g></g><g opacity="1" style="display:block"><g opacity="1"><path fill="#FBFBFB" fill-opacity="1" d="M5,-5 C5,-5 5,5 5,5 C5,5 -5,5 -5,5 C-5,5 -5,-5 -5,-5 C-5,-5 5,-5 5,-5z" transform="matrix(1,0,0,1,90,170) matrix(1,0,0,1,-65,-65)"/></g></g><g opacity="1" style="display:block"><g opacity="1"><path fill="#FBFBFB" fill-opacity="1" d="M5,-5 C5,-5 5,5 5,5 C5,5 -5,5 -5,5 C-5,5 -5,-5 -5,-5 C-5,-5 5,-5 5,-5z" transform="matrix(1,0,0,1,100,170) matrix(1,0,0,1,-65,-65)"/></g></g><g opacity="1" style="display:block"><g opacity="1"><path fill="#FBFBFB" fill-opacity="1" d="M5,-5 C5,-5 5,5 5,5 C5,5 -5,5 -5,5 C-5,5 -5,-5 -5,-5 C-5,-5 5,-5 5,-5z" transform="matrix(1,0,0,1,160,180) matrix(1,0,0,1,-65,-65)"/></g></g><g opacity="1" style="display:block"><g opacity="1"><path fill="#FBFBFB" fill-opacity="1" d="M5,-5 C5,-5 5,5 5,5 C5,5 -5,5 -5,5 C-5,5 -5,-5 -5,-5 C-5,-5 5,-5 5,-5z" transform="matrix(1,0,0,1,170,170) matrix(1,0,0,1,-65,-65)"/></g></g><g opacity="1" style="display:block"><g opacity="1"><path fill="#FBFBFB" fill-opacity="1" d="M5,-5 C5,-5 5,5 5,5 C5,5 -5,5 -5,5 C-5,5 -5,-5 -5,-5 C-5,-5 5,-5 5,-5z" transform="matrix(1,0,0,1,190,160) matrix(1,0,0,1,-65,-65)"/></g></g><g opacity="1" style="display:block"><g opacity="1"><path fill="#FBFBFB" fill-opacity="1" d="M5,-5 C5,-5 5,5 5,5 C5,5 -5,5 -5,5 C-5,5 -5,-5 -5,-5 C-5,-5 5,-5 5,-5z" transform="matrix(1,0,0,1,190,180) matrix(1,0,0,1,-65,-65)"/></g></g><g opacity="1" style="display:block"><g opacity="1"><path fill="#FBFBFB" fill-opacity="1" d="M5,-5 C5,-5 5,5 5,5 C5,5 -5,5 -5,5 C-5,5 -5,-5 -5,-5 C-5,-5 5,-5 5,-5z" transform="matrix(1,0,0,1,110,190) matrix(1,0,0,1,-65,-65)"/></g></g><g opacity="1" style="display:block"><g opacity="1"><path fill="#FBFBFB" fill-opacity="1" d="M5,-5 C5,-5 5,5 5,5 C5,5 -5,5 -5,5 C-5,5 -5,-5 -5,-5 C-5,-5 5,-5 5,-5z" transform="matrix(1,0,0,1,170,190) matrix(1,0,0,1,-65,-65)"/></g></g><g opacity="1" style="display:block"><g opacity="1"><path fill="#FBFBFB" fill-opacity="1" d="M5,-5 C5,-5 5,5 5,5 C5,5 -5,5 -5,5 C-5,5 -5,-5 -5,-5 C-5,-5 5,-5 5,-5z" transform="matrix(1,0,0,1,200,170) matrix(1,0,0,1,-65,-65)"/></g></g><g opacity="1" style="display:block"><g opacity="1"><path fill="#FBFBFB" fill-opacity="1" d="M5,-5 C5,-5 5,5 5,5 C5,5 -5,5 -5,5 C-5,5 -5,-5 -5,-5 C-5,-5 5,-5 5,-5z" transform="matrix(1,0,0,1,200,190) matrix(1,0,0,1,-65,-65)"/></g></g><g opacity="1" style="display:block"><g opacity="1"><path fill="#FBFBFB" fill-opacity="1" d="M5,-5 C5,-5 5,5 5,5 C5,5 -5,5 -5,5 C-5,5 -5,-5 -5,-5 C-5,-5 5,-5 5,-5z" transform="matrix(1,0,0,1,100,170) matrix(1,0,0,1,-65,-65)"/></g></g><g opacity="1" style="display:block"><g opacity="1"><path fill="#FBFBFB" fill-opacity="1" d="M5,-5 C5,-5 5,5 5,5 C5,5 -5,5 -5,5 C-5,5 -5,-5 -5,-5 C-5,-5 5,-5 5,-5z" transform="matrix(1,0,0,1,100,200) matrix(1,0,0,1,-65,-65)"/></g></g><g opacity="1" style="display:block"><g opacity="1"><path fill="#FBFBFB" fill-opacity="1" d="M5,-5 C5,-5 5,5 5,5 C5,5 -5,5 -5,5 C-5,5 -5,-5 -5,-5 C-5,-5 5,-5 5,-5z" transform="matrix(1,0,0,1,110,160) matrix(1,0,0,1,-65,-65)"/></g></g><g style="display:block" opacity="1"><g opacity="1"><path fill="#FBFBFB" fill-opacity="1" d="M5,-5 C5,-5 5,5 5,5 C5,5 -5,5 -5,5 C-5,5 -5,-5 -5,-5 C-5,-5 5,-5 5,-5z" transform="matrix(1,0,0,1,70,200) matrix(1,0,0,1,-65,-65)"/></g></g><g opacity="1" style="display:block"><g opacity="1"><path fill="#FBFBFB" fill-opacity="1" d="M5,-5 C5,-5 5,5 5,5 C5,5 -5,5 -5,5 C-5,5 -5,-5 -5,-5 C-5,-5 5,-5 5,-5z" transform="matrix(1,0,0,1,90,190) matrix(1,0,0,1,-65,-65)"/></g></g><g opacity="1" style="display:block"><g opacity="1"><path fill="#FBFBFB" fill-opacity="1" d="M5,-5 C5,-5 5,5 5,5 C5,5 -5,5 -5,5 C-5,5 -5,-5 -5,-5 C-5,-5 5,-5 5,-5z" transform="matrix(1,0,0,1,80,180) matrix(1,0,0,1,-65,-65)"/></g></g><g opacity="1" style="display:block"><g opacity="1"><path fill="#FBFBFB" fill-opacity="1" d="M5,-5 C5,-5 5,5 5,5 C5,5 -5,5 -5,5 C-5,5 -5,-5 -5,-5 C-5,-5 5,-5 5,-5z" transform="matrix(1,0,0,1,110,180) matrix(1,0,0,1,-65,-65)"/></g></g><g opacity="1" style="display:block"><g opacity="1"><path fill="#FBFBFB" fill-opacity="1" d="M5,-5 C5,-5 5,5 5,5 C5,5 -5,5 -5,5 C-5,5 -5,-5 -5,-5 C-5,-5 5,-5 5,-5z" transform="matrix(1,0,0,1,180,170) matrix(1,0,0,1,-65,-65)"/></g></g><g opacity="1" style="display:block"><g opacity="1"><path fill="#FBFBFB" fill-opacity="1" d="M5,-5 C5,-5 5,5 5,5 C5,5 -5,5 -5,5 C-5,5 -5,-5 -5,-5 C-5,-5 5,-5 5,-5z" transform="matrix(1,0,0,1,170,180) matrix(1,0,0,1,-65,-65)"/></g></g><g opacity="1" style="display:block"><g opacity="1"><path fill="#FBFBFB" fill-opacity="1" d="M5,-5 C5,-5 5,5 5,5 C5,5 -5,5 -5,5 C-5,5 -5,-5 -5,-5 C-5,-5 5,-5 5,-5z" transform="matrix(1,0,0,1,70,170) matrix(1,0,0,1,-65,-65)"/></g></g><g opacity="1" style="display:block"><g opacity="1"><path fill="#FBFBFB" fill-opacity="1" d="M5,-5 C5,-5 5,5 5,5 C5,5 -5,5 -5,5 C-5,5 -5,-5 -5,-5 C-5,-5 5,-5 5,-5z" transform="matrix(1,0,0,1,160,200) matrix(1,0,0,1,-65,-65)"/></g></g><g opacity="1" style="display:block"><g opacity="1"><path fill="#FBFBFB" fill-opacity="1" d="M5,-5 C5,-5 5,5 5,5 C5,5 -5,5 -5,5 C-5,5 -5,-5 -5,-5 C-5,-5 5,-5 5,-5z" transform="matrix(1,0,0,1,200,180) matrix(1,0,0,1,-65,-65)"/></g></g><g opacity="1" style="display:block"><g opacity="1"><path fill="#FBFBFB" fill-opacity="1" d="M5,-5 C5,-5 5,5 5,5 C5,5 -5,5 -5,5 C-5,5 -5,-5 -5,-5 C-5,-5 5,-5 5,-5z" transform="matrix(1,0,0,1,190,200) matrix(1,0,0,1,-65,-65)"/></g></g><g opacity="1" style="display:block"><g opacity="1"><path fill="#FBFBFB" fill-opacity="1" d="M5,-5 C5,-5 5,5 5,5 C5,5 -5,5 -5,5 C-5,5 -5,-5 -5,-5 C-5,-5 5,-5 5,-5z" transform="matrix(1,0,0,1,100,180) matrix(1,0,0,1,-65,-65)"/></g></g><g style="display:block" opacity="1"><g opacity="1"><path fill="#FBFBFB" fill-opacity="1" d="M5,-5 C5,-5 5,5 5,5 C5,5 -5,5 -5,5 C-5,5 -5,-5 -5,-5 C-5,-5 5,-5 5,-5z" transform="matrix(1,0,0,1,90,200) matrix(1,0,0,1,-65,-65)"/></g></g><g opacity="1" style="display:block"><g opacity="1"><path fill="#FBFBFB" fill-opacity="1" d="M5,-5 C5,-5 5,5 5,5 C5,5 -5,5 -5,5 C-5,5 -5,-5 -5,-5 C-5,-5 5,-5 5,-5z" transform="matrix(1,0,0,1,100,190) matrix(1,0,0,1,-65,-65)"/></g></g><g opacity="1" style="display:block"><g opacity="1"><path fill="#FBFBFB" fill-opacity="1" d="M5,-5 C5,-5 5,5 5,5 C5,5 -5,5 -5,5 C-5,5 -5,-5 -5,-5 C-5,-5 5,-5 5,-5z" transform="matrix(1,0,0,1,80,190) matrix(1,0,0,1,-65,-65)"/></g></g><g opacity="1" style="display:block"><g opacity="1"><path fill="#FBFBFB" fill-opacity="1" d="M5,-5 C5,-5 5,5 5,5 C5,5 -5,5 -5,5 C-5,5 -5,-5 -5,-5 C-5,-5 5,-5 5,-5z" transform="matrix(1,0,0,1,190,190) matrix(1,0,0,1,-65,-65)"/></g></g><g opacity="1" style="display:block"><g opacity="1"><path fill="#FBFBFB" fill-opacity="1" d="M5,-5 C5,-5 5,5 5,5 C5,5 -5,5 -5,5 C-5,5 -5,-5 -5,-5 C-5,-5 5,-5 5,-5z" transform="matrix(1,0,0,1,110,180) matrix(1,0,0,1,-65,-65)"/></g></g><g opacity="1" style="display:block"><g opacity="1"><path fill="#FBFBFB" fill-opacity="1" d="M5,-5 C5,-5 5,5 5,5 C5,5 -5,5 -5,5 C-5,5 -5,-5 -5,-5 C-5,-5 5,-5 5,-5z" transform="matrix(1,0,0,1,200,180) matrix(1,0,0,1,-65,-65)"/></g></g><g opacity="1" style="display:block"><g opacity="1"><path fill="#FBFBFB" fill-opacity="1" d="M5,-5 C5,-5 5,5 5,5 C5,5 -5,5 -5,5 C-5,5 -5,-5 -5,-5 C-5,-5 5,-5 5,-5z" transform="matrix(1,0,0,1,70,190) matrix(1,0,0,1,-65,-65)"/></g></g><g opacity="1" style="display:block"><g opacity="1"><path fill="#FBFBFB" fill-opacity="1" d="M5,-5 C5,-5 5,5 5,5 C5,5 -5,5 -5,5 C-5,5 -5,-5 -5,-5 C-5,-5 5,-5 5,-5z" transform="matrix(1,0,0,1,180,190) matrix(1,0,0,1,-65,-65)"/></g></g><g opacity="1" style="display:block"><g opacity="1"><path fill="#FBFBFB" fill-opacity="1" d="M5,-5 C5,-5 5,5 5,5 C5,5 -5,5 -5,5 C-5,5 -5,-5 -5,-5 C-5,-5 5,-5 5,-5z" transform="matrix(1,0,0,1,160,190) matrix(1,0,0,1,-65,-65)"/></g></g><g opacity="1" style="display:block"><g opacity="1"><path fill="#FBFBFB" fill-opacity="1" d="M5,-5 C5,-5 5,5 5,5 C5,5 -5,5 -5,5 C-5,5 -5,-5 -5,-5 C-5,-5 5,-5 5,-5z" transform="matrix(1,0,0,1,80,200) matrix(1,0,0,1,-65,-65)"/></g></g><g opacity="1" style="display:block"><g opacity="1"><path fill="#FBFBFB" fill-opacity="1" d="M5,-5 C5,-5 5,5 5,5 C5,5 -5,5 -5,5 C-5,5 -5,-5 -5,-5 C-5,-5 5,-5 5,-5z" transform="matrix(1,0,0,1,110,200) matrix(1,0,0,1,-65,-65)"/></g></g><g opacity="1" style="display:block"><g opacity="1"><path fill="#FBFBFB" fill-opacity="1" d="M5,-5 C5,-5 5,5 5,5 C5,5 -5,5 -5,5 C-5,5 -5,-5 -5,-5 C-5,-5 5,-5 5,-5z" transform="matrix(1,0,0,1,170,200) matrix(1,0,0,1,-65,-65)"/></g></g><g opacity="1" style="display:block"><g opacity="1"><path fill="#FBFBFB" fill-opacity="1" d="M5,-5 C5,-5 5,5 5,5 C5,5 -5,5 -5,5 C-5,5 -5,-5 -5,-5 C-5,-5 5,-5 5,-5z" transform="matrix(1,0,0,1,200,200) matrix(1,0,0,1,-65,-65)"/></g></g><g opacity="1" style="display:block"><g opacity="1"><path fill="#FBFBFB" fill-opacity="1" d="M5,-5 C5,-5 5,5 5,5 C5,5 -5,5 -5,5 C-5,5 -5,-5 -5,-5 C-5,-5 5,-5 5,-5z" transform="matrix(1,0,0,1,180,200) matrix(1,0,0,1,-65,-65)"/></g></g></g></svg>