<svg xmlns="http://www.w3.org/2000/svg" xmlns:xlink="http://www.w3.org/1999/xlink" viewBox="0 0 140 140" width="140" height="140" preserveAspectRatio="xMidYMid meet" style="width: 100%; height: 100%; transform: translate3d(0px, 0px, 0px); content-visibility: visible;"><defs><clipPath id="__lottie_element_292"><rect width="140" height="140" x="0" y="0"></rect></clipPath></defs><g clip-path="url(#__lottie_element_292)"><g style="display: block;" transform="matrix(1,0,0,1,130,70)" opacity="1"><g opacity="1" transform="matrix(1,0,0,1,-65,-65)"><path fill="rgb(251,251,251)" fill-opacity="1" d=" M5,-5 C5,-5 5,5 5,5 C5,5 -5,5 -5,5 C-5,5 -5,-5 -5,-5 C-5,-5 5,-5 5,-5z"></path></g></g><g transform="matrix(1,0,0,1,140,70)" opacity="1" style="display: block;"><g opacity="1" transform="matrix(1,0,0,1,-65,-65)"><path fill="rgb(251,251,251)" fill-opacity="1" d=" M5,-5 C5,-5 5,5 5,5 C5,5 -5,5 -5,5 C-5,5 -5,-5 -5,-5 C-5,-5 5,-5 5,-5z"></path></g></g><g style="display: block;" transform="matrix(1,0,0,1,130,100)" opacity="1"><g opacity="1" transform="matrix(1,0,0,1,-65,-65)"><path fill="rgb(251,251,251)" fill-opacity="1" d=" M5,-5 C5,-5 5,5 5,5 C5,5 -5,5 -5,5 C-5,5 -5,-5 -5,-5 C-5,-5 5,-5 5,-5z"></path></g></g><g transform="matrix(1,0,0,1,120,80)" opacity="1" style="display: block;"><g opacity="1" transform="matrix(1,0,0,1,-65,-65)"><path fill="rgb(251,251,251)" fill-opacity="1" d=" M5,-5 C5,-5 5,5 5,5 C5,5 -5,5 -5,5 C-5,5 -5,-5 -5,-5 C-5,-5 5,-5 5,-5z"></path></g></g><g transform="matrix(1,0,0,1,130,70)" opacity="1" style="display: block;"><g opacity="1" transform="matrix(1,0,0,1,-65,-65)"><path fill="rgb(251,251,251)" fill-opacity="1" d=" M5,-5 C5,-5 5,5 5,5 C5,5 -5,5 -5,5 C-5,5 -5,-5 -5,-5 C-5,-5 5,-5 5,-5z"></path></g></g><g style="display: block;" transform="matrix(1,0,0,1,140,110)" opacity="1"><g opacity="1" transform="matrix(1,0,0,1,-65,-65)"><path fill="rgb(251,251,251)" fill-opacity="1" d=" M5,-5 C5,-5 5,5 5,5 C5,5 -5,5 -5,5 C-5,5 -5,-5 -5,-5 C-5,-5 5,-5 5,-5z"></path></g></g><g transform="matrix(1,0,0,1,140,90)" opacity="1" style="display: block;"><g opacity="1" transform="matrix(1,0,0,1,-65,-65)"><path fill="rgb(251,251,251)" fill-opacity="1" d=" M5,-5 C5,-5 5,5 5,5 C5,5 -5,5 -5,5 C-5,5 -5,-5 -5,-5 C-5,-5 5,-5 5,-5z"></path></g></g><g transform="matrix(1,0,0,1,150,80)" opacity="1" style="display: block;"><g opacity="1" transform="matrix(1,0,0,1,-65,-65)"><path fill="rgb(251,251,251)" fill-opacity="1" d=" M5,-5 C5,-5 5,5 5,5 C5,5 -5,5 -5,5 C-5,5 -5,-5 -5,-5 C-5,-5 5,-5 5,-5z"></path></g></g><g style="display: block;" transform="matrix(1,0,0,1,130,130)" opacity="1"><g opacity="1" transform="matrix(1,0,0,1,-65,-65)"><path fill="rgb(251,251,251)" fill-opacity="1" d=" M5,-5 C5,-5 5,5 5,5 C5,5 -5,5 -5,5 C-5,5 -5,-5 -5,-5 C-5,-5 5,-5 5,-5z"></path></g></g><g transform="matrix(1,0,0,1,140,120)" opacity="1" style="display: block;"><g opacity="1" transform="matrix(1,0,0,1,-65,-65)"><path fill="rgb(251,251,251)" fill-opacity="1" d=" M5,-5 C5,-5 5,5 5,5 C5,5 -5,5 -5,5 C-5,5 -5,-5 -5,-5 C-5,-5 5,-5 5,-5z"></path></g></g><g transform="matrix(1,0,0,1,120,100)" opacity="1" style="display: block;"><g opacity="1" transform="matrix(1,0,0,1,-65,-65)"><path fill="rgb(251,251,251)" fill-opacity="1" d=" M5,-5 C5,-5 5,5 5,5 C5,5 -5,5 -5,5 C-5,5 -5,-5 -5,-5 C-5,-5 5,-5 5,-5z"></path></g></g><g transform="matrix(1,0,0,1,130,90)" opacity="1" style="display: block;"><g opacity="1" transform="matrix(1,0,0,1,-65,-65)"><path fill="rgb(251,251,251)" fill-opacity="1" d=" M5,-5 C5,-5 5,5 5,5 C5,5 -5,5 -5,5 C-5,5 -5,-5 -5,-5 C-5,-5 5,-5 5,-5z"></path></g></g><g transform="matrix(1,0,0,1,150,100)" opacity="1" style="display: block;"><g opacity="1" transform="matrix(1,0,0,1,-65,-65)"><path fill="rgb(251,251,251)" fill-opacity="1" d=" M5,-5 C5,-5 5,5 5,5 C5,5 -5,5 -5,5 C-5,5 -5,-5 -5,-5 C-5,-5 5,-5 5,-5z"></path></g></g><g transform="matrix(1,0,0,1,120,110)" opacity="1" style="display: block;"><g opacity="1" transform="matrix(1,0,0,1,-65,-65)"><path fill="rgb(251,251,251)" fill-opacity="1" d=" M5,-5 C5,-5 5,5 5,5 C5,5 -5,5 -5,5 C-5,5 -5,-5 -5,-5 C-5,-5 5,-5 5,-5z"></path></g></g><g style="display: block;" transform="matrix(1,0,0,1,160,140)" opacity="1"><g opacity="1" transform="matrix(1,0,0,1,-65,-65)"><path fill="rgb(251,251,251)" fill-opacity="1" d=" M5,-5 C5,-5 5,5 5,5 C5,5 -5,5 -5,5 C-5,5 -5,-5 -5,-5 C-5,-5 5,-5 5,-5z"></path></g></g><g transform="matrix(1,0,0,1,140,140)" opacity="1" style="display: block;"><g opacity="1" transform="matrix(1,0,0,1,-65,-65)"><path fill="rgb(251,251,251)" fill-opacity="1" d=" M5,-5 C5,-5 5,5 5,5 C5,5 -5,5 -5,5 C-5,5 -5,-5 -5,-5 C-5,-5 5,-5 5,-5z"></path></g></g><g transform="matrix(1,0,0,1,140,100)" opacity="1" style="display: block;"><g opacity="1" transform="matrix(1,0,0,1,-65,-65)"><path fill="rgb(251,251,251)" fill-opacity="1" d=" M5,-5 C5,-5 5,5 5,5 C5,5 -5,5 -5,5 C-5,5 -5,-5 -5,-5 C-5,-5 5,-5 5,-5z"></path></g></g><g transform="matrix(1,0,0,1,120,120)" opacity="1" style="display: block;"><g opacity="1" transform="matrix(1,0,0,1,-65,-65)"><path fill="rgb(251,251,251)" fill-opacity="1" d=" M5,-5 C5,-5 5,5 5,5 C5,5 -5,5 -5,5 C-5,5 -5,-5 -5,-5 C-5,-5 5,-5 5,-5z"></path></g></g><g transform="matrix(1,0,0,1,130,110)" opacity="1" style="display: block;"><g opacity="1" transform="matrix(1,0,0,1,-65,-65)"><path fill="rgb(251,251,251)" fill-opacity="1" d=" M5,-5 C5,-5 5,5 5,5 C5,5 -5,5 -5,5 C-5,5 -5,-5 -5,-5 C-5,-5 5,-5 5,-5z"></path></g></g><g transform="matrix(1,0,0,1,150,110)" opacity="1" style="display: block;"><g opacity="1" transform="matrix(1,0,0,1,-65,-65)"><path fill="rgb(251,251,251)" fill-opacity="1" d=" M5,-5 C5,-5 5,5 5,5 C5,5 -5,5 -5,5 C-5,5 -5,-5 -5,-5 C-5,-5 5,-5 5,-5z"></path></g></g><g transform="matrix(1,0,0,1,150,120)" opacity="1" style="display: block;"><g opacity="1" transform="matrix(1,0,0,1,-65,-65)"><path fill="rgb(251,251,251)" fill-opacity="1" d=" M5,-5 C5,-5 5,5 5,5 C5,5 -5,5 -5,5 C-5,5 -5,-5 -5,-5 C-5,-5 5,-5 5,-5z"></path></g></g><g style="display: block;" transform="matrix(1,0,0,1,110,150)" opacity="1"><g opacity="1" transform="matrix(1,0,0,1,-65,-65)"><path fill="rgb(251,251,251)" fill-opacity="1" d=" M5,-5 C5,-5 5,5 5,5 C5,5 -5,5 -5,5 C-5,5 -5,-5 -5,-5 C-5,-5 5,-5 5,-5z"></path></g></g><g transform="matrix(1,0,0,1,130,140)" opacity="1" style="display: block;"><g opacity="1" transform="matrix(1,0,0,1,-65,-65)"><path fill="rgb(251,251,251)" fill-opacity="1" d=" M5,-5 C5,-5 5,5 5,5 C5,5 -5,5 -5,5 C-5,5 -5,-5 -5,-5 C-5,-5 5,-5 5,-5z"></path></g></g><g transform="matrix(1,0,0,1,120,130)" opacity="1" style="display: block;"><g opacity="1" transform="matrix(1,0,0,1,-65,-65)"><path fill="rgb(251,251,251)" fill-opacity="1" d=" M5,-5 C5,-5 5,5 5,5 C5,5 -5,5 -5,5 C-5,5 -5,-5 -5,-5 C-5,-5 5,-5 5,-5z"></path></g></g><g transform="matrix(1,0,0,1,110,130)" opacity="1" style="display: block;"><g opacity="1" transform="matrix(1,0,0,1,-65,-65)"><path fill="rgb(251,251,251)" fill-opacity="1" d=" M5,-5 C5,-5 5,5 5,5 C5,5 -5,5 -5,5 C-5,5 -5,-5 -5,-5 C-5,-5 5,-5 5,-5z"></path></g></g><g transform="matrix(1,0,0,1,130,120)" opacity="1" style="display: block;"><g opacity="1" transform="matrix(1,0,0,1,-65,-65)"><path fill="rgb(251,251,251)" fill-opacity="1" d=" M5,-5 C5,-5 5,5 5,5 C5,5 -5,5 -5,5 C-5,5 -5,-5 -5,-5 C-5,-5 5,-5 5,-5z"></path></g></g><g transform="matrix(1,0,0,1,120,140)" opacity="1" style="display: block;"><g opacity="1" transform="matrix(1,0,0,1,-65,-65)"><path fill="rgb(251,251,251)" fill-opacity="1" d=" M5,-5 C5,-5 5,5 5,5 C5,5 -5,5 -5,5 C-5,5 -5,-5 -5,-5 C-5,-5 5,-5 5,-5z"></path></g></g><g transform="matrix(1,0,0,1,70,140)" opacity="1" style="display: block;"><g opacity="1" transform="matrix(1,0,0,1,-65,-65)"><path fill="rgb(251,251,251)" fill-opacity="1" d=" M5,-5 C5,-5 5,5 5,5 C5,5 -5,5 -5,5 C-5,5 -5,-5 -5,-5 C-5,-5 5,-5 5,-5z"></path></g></g><g transform="matrix(1,0,0,1,170,150)" opacity="1" style="display: block;"><g opacity="1" transform="matrix(1,0,0,1,-65,-65)"><path fill="rgb(251,251,251)" fill-opacity="1" d=" M5,-5 C5,-5 5,5 5,5 C5,5 -5,5 -5,5 C-5,5 -5,-5 -5,-5 C-5,-5 5,-5 5,-5z"></path></g></g><g transform="matrix(1,0,0,1,140,130)" opacity="1" style="display: block;"><g opacity="1" transform="matrix(1,0,0,1,-65,-65)"><path fill="rgb(251,251,251)" fill-opacity="1" d=" M5,-5 C5,-5 5,5 5,5 C5,5 -5,5 -5,5 C-5,5 -5,-5 -5,-5 C-5,-5 5,-5 5,-5z"></path></g></g><g transform="matrix(1,0,0,1,150,130)" opacity="1" style="display: block;"><g opacity="1" transform="matrix(1,0,0,1,-65,-65)"><path fill="rgb(251,251,251)" fill-opacity="1" d=" M5,-5 C5,-5 5,5 5,5 C5,5 -5,5 -5,5 C-5,5 -5,-5 -5,-5 C-5,-5 5,-5 5,-5z"></path></g></g><g style="display: block;" transform="matrix(1,0,0,1,100,160)" opacity="1"><g opacity="1" transform="matrix(1,0,0,1,-65,-65)"><path fill="rgb(251,251,251)" fill-opacity="1" d=" M5,-5 C5,-5 5,5 5,5 C5,5 -5,5 -5,5 C-5,5 -5,-5 -5,-5 C-5,-5 5,-5 5,-5z"></path></g></g><g transform="matrix(1,0,0,1,100,140)" opacity="1" style="display: block;"><g opacity="1" transform="matrix(1,0,0,1,-65,-65)"><path fill="rgb(251,251,251)" fill-opacity="1" d=" M5,-5 C5,-5 5,5 5,5 C5,5 -5,5 -5,5 C-5,5 -5,-5 -5,-5 C-5,-5 5,-5 5,-5z"></path></g></g><g transform="matrix(1,0,0,1,110,140)" opacity="1" style="display: block;"><g opacity="1" transform="matrix(1,0,0,1,-65,-65)"><path fill="rgb(251,251,251)" fill-opacity="1" d=" M5,-5 C5,-5 5,5 5,5 C5,5 -5,5 -5,5 C-5,5 -5,-5 -5,-5 C-5,-5 5,-5 5,-5z"></path></g></g><g transform="matrix(1,0,0,1,180,160)" opacity="1" style="display: block;"><g opacity="1" transform="matrix(1,0,0,1,-65,-65)"><path fill="rgb(251,251,251)" fill-opacity="1" d=" M5,-5 C5,-5 5,5 5,5 C5,5 -5,5 -5,5 C-5,5 -5,-5 -5,-5 C-5,-5 5,-5 5,-5z"></path></g></g><g transform="matrix(1,0,0,1,200,140)" opacity="1" style="display: block;"><g opacity="1" transform="matrix(1,0,0,1,-65,-65)"><path fill="rgb(251,251,251)" fill-opacity="1" d=" M5,-5 C5,-5 5,5 5,5 C5,5 -5,5 -5,5 C-5,5 -5,-5 -5,-5 C-5,-5 5,-5 5,-5z"></path></g></g><g transform="matrix(1,0,0,1,150,140)" opacity="1" style="display: block;"><g opacity="1" transform="matrix(1,0,0,1,-65,-65)"><path fill="rgb(251,251,251)" fill-opacity="1" d=" M5,-5 C5,-5 5,5 5,5 C5,5 -5,5 -5,5 C-5,5 -5,-5 -5,-5 C-5,-5 5,-5 5,-5z"></path></g></g><g transform="matrix(1,0,0,1,160,130)" opacity="1" style="display: block;"><g opacity="1" transform="matrix(1,0,0,1,-65,-65)"><path fill="rgb(251,251,251)" fill-opacity="1" d=" M5,-5 C5,-5 5,5 5,5 C5,5 -5,5 -5,5 C-5,5 -5,-5 -5,-5 C-5,-5 5,-5 5,-5z"></path></g></g><g style="display: block;" transform="matrix(1,0,0,1,160,170)" opacity="1"><g opacity="1" transform="matrix(1,0,0,1,-65,-65)"><path fill="rgb(251,251,251)" fill-opacity="1" d=" M5,-5 C5,-5 5,5 5,5 C5,5 -5,5 -5,5 C-5,5 -5,-5 -5,-5 C-5,-5 5,-5 5,-5z"></path></g></g><g transform="matrix(1,0,0,1,200,150)" opacity="1" style="display: block;"><g opacity="1" transform="matrix(1,0,0,1,-65,-65)"><path fill="rgb(251,251,251)" fill-opacity="1" d=" M5,-5 C5,-5 5,5 5,5 C5,5 -5,5 -5,5 C-5,5 -5,-5 -5,-5 C-5,-5 5,-5 5,-5z"></path></g></g><g transform="matrix(1,0,0,1,150,150)" opacity="1" style="display: block;"><g opacity="1" transform="matrix(1,0,0,1,-65,-65)"><path fill="rgb(251,251,251)" fill-opacity="1" d=" M5,-5 C5,-5 5,5 5,5 C5,5 -5,5 -5,5 C-5,5 -5,-5 -5,-5 C-5,-5 5,-5 5,-5z"></path></g></g><g transform="matrix(1,0,0,1,160,150)" opacity="1" style="display: block;"><g opacity="1" transform="matrix(1,0,0,1,-65,-65)"><path fill="rgb(251,251,251)" fill-opacity="1" d=" M5,-5 C5,-5 5,5 5,5 C5,5 -5,5 -5,5 C-5,5 -5,-5 -5,-5 C-5,-5 5,-5 5,-5z"></path></g></g><g transform="matrix(1,0,0,1,120,150)" opacity="1" style="display: block;"><g opacity="1" transform="matrix(1,0,0,1,-65,-65)"><path fill="rgb(251,251,251)" fill-opacity="1" d=" M5,-5 C5,-5 5,5 5,5 C5,5 -5,5 -5,5 C-5,5 -5,-5 -5,-5 C-5,-5 5,-5 5,-5z"></path></g></g><g transform="matrix(1,0,0,1,100,150)" opacity="1" style="display: block;"><g opacity="1" transform="matrix(1,0,0,1,-65,-65)"><path fill="rgb(251,251,251)" fill-opacity="1" d=" M5,-5 C5,-5 5,5 5,5 C5,5 -5,5 -5,5 C-5,5 -5,-5 -5,-5 C-5,-5 5,-5 5,-5z"></path></g></g><g transform="matrix(1,0,0,1,80,170)" opacity="1" style="display: block;"><g opacity="1" transform="matrix(1,0,0,1,-65,-65)"><path fill="rgb(251,251,251)" fill-opacity="1" d=" M5,-5 C5,-5 5,5 5,5 C5,5 -5,5 -5,5 C-5,5 -5,-5 -5,-5 C-5,-5 5,-5 5,-5z"></path></g></g><g transform="matrix(1,0,0,1,90,160)" opacity="1" style="display: block;"><g opacity="1" transform="matrix(1,0,0,1,-65,-65)"><path fill="rgb(251,251,251)" fill-opacity="1" d=" M5,-5 C5,-5 5,5 5,5 C5,5 -5,5 -5,5 C-5,5 -5,-5 -5,-5 C-5,-5 5,-5 5,-5z"></path></g></g><g transform="matrix(1,0,0,1,70,150)" opacity="1" style="display: block;"><g opacity="1" transform="matrix(1,0,0,1,-65,-65)"><path fill="rgb(251,251,251)" fill-opacity="1" d=" M5,-5 C5,-5 5,5 5,5 C5,5 -5,5 -5,5 C-5,5 -5,-5 -5,-5 C-5,-5 5,-5 5,-5z"></path></g></g><g transform="matrix(1,0,0,1,170,140)" opacity="1" style="display: block;"><g opacity="1" transform="matrix(1,0,0,1,-65,-65)"><path fill="rgb(251,251,251)" fill-opacity="1" d=" M5,-5 C5,-5 5,5 5,5 C5,5 -5,5 -5,5 C-5,5 -5,-5 -5,-5 C-5,-5 5,-5 5,-5z"></path></g></g><g transform="matrix(1,0,0,1,180,150)" opacity="1" style="display: block;"><g opacity="1" transform="matrix(1,0,0,1,-65,-65)"><path fill="rgb(251,251,251)" fill-opacity="1" d=" M5,-5 C5,-5 5,5 5,5 C5,5 -5,5 -5,5 C-5,5 -5,-5 -5,-5 C-5,-5 5,-5 5,-5z"></path></g></g><g style="display: block;" transform="matrix(1,0,0,1,190,170)" opacity="1"><g opacity="1" transform="matrix(1,0,0,1,-65,-65)"><path fill="rgb(251,251,251)" fill-opacity="1" d=" M5,-5 C5,-5 5,5 5,5 C5,5 -5,5 -5,5 C-5,5 -5,-5 -5,-5 C-5,-5 5,-5 5,-5z"></path></g></g><g transform="matrix(1,0,0,1,160,160)" opacity="1" style="display: block;"><g opacity="1" transform="matrix(1,0,0,1,-65,-65)"><path fill="rgb(251,251,251)" fill-opacity="1" d=" M5,-5 C5,-5 5,5 5,5 C5,5 -5,5 -5,5 C-5,5 -5,-5 -5,-5 C-5,-5 5,-5 5,-5z"></path></g></g><g transform="matrix(1,0,0,1,170,160)" opacity="1" style="display: block;"><g opacity="1" transform="matrix(1,0,0,1,-65,-65)"><path fill="rgb(251,251,251)" fill-opacity="1" d=" M5,-5 C5,-5 5,5 5,5 C5,5 -5,5 -5,5 C-5,5 -5,-5 -5,-5 C-5,-5 5,-5 5,-5z"></path></g></g><g transform="matrix(1,0,0,1,200,160)" opacity="1" style="display: block;"><g opacity="1" transform="matrix(1,0,0,1,-65,-65)"><path fill="rgb(251,251,251)" fill-opacity="1" d=" M5,-5 C5,-5 5,5 5,5 C5,5 -5,5 -5,5 C-5,5 -5,-5 -5,-5 C-5,-5 5,-5 5,-5z"></path></g></g><g transform="matrix(1,0,0,1,80,160)" opacity="1" style="display: block;"><g opacity="1" transform="matrix(1,0,0,1,-65,-65)"><path fill="rgb(251,251,251)" fill-opacity="1" d=" M5,-5 C5,-5 5,5 5,5 C5,5 -5,5 -5,5 C-5,5 -5,-5 -5,-5 C-5,-5 5,-5 5,-5z"></path></g></g><g transform="matrix(1,0,0,1,110,170)" opacity="1" style="display: block;"><g opacity="1" transform="matrix(1,0,0,1,-65,-65)"><path fill="rgb(251,251,251)" fill-opacity="1" d=" M5,-5 C5,-5 5,5 5,5 C5,5 -5,5 -5,5 C-5,5 -5,-5 -5,-5 C-5,-5 5,-5 5,-5z"></path></g></g><g transform="matrix(1,0,0,1,90,150)" opacity="1" style="display: block;"><g opacity="1" transform="matrix(1,0,0,1,-65,-65)"><path fill="rgb(251,251,251)" fill-opacity="1" d=" M5,-5 C5,-5 5,5 5,5 C5,5 -5,5 -5,5 C-5,5 -5,-5 -5,-5 C-5,-5 5,-5 5,-5z"></path></g></g><g transform="matrix(1,0,0,1,70,160)" opacity="1" style="display: block;"><g opacity="1" transform="matrix(1,0,0,1,-65,-65)"><path fill="rgb(251,251,251)" fill-opacity="1" d=" M5,-5 C5,-5 5,5 5,5 C5,5 -5,5 -5,5 C-5,5 -5,-5 -5,-5 C-5,-5 5,-5 5,-5z"></path></g></g><g style="display: block;" transform="matrix(1,0,0,1,70,180)" opacity="1"><g opacity="1" transform="matrix(1,0,0,1,-65,-65)"><path fill="rgb(251,251,251)" fill-opacity="1" d=" M5,-5 C5,-5 5,5 5,5 C5,5 -5,5 -5,5 C-5,5 -5,-5 -5,-5 C-5,-5 5,-5 5,-5z"></path></g></g><g transform="matrix(1,0,0,1,90,170)" opacity="1" style="display: block;"><g opacity="1" transform="matrix(1,0,0,1,-65,-65)"><path fill="rgb(251,251,251)" fill-opacity="1" d=" M5,-5 C5,-5 5,5 5,5 C5,5 -5,5 -5,5 C-5,5 -5,-5 -5,-5 C-5,-5 5,-5 5,-5z"></path></g></g><g transform="matrix(1,0,0,1,100,170)" opacity="1" style="display: block;"><g opacity="1" transform="matrix(1,0,0,1,-65,-65)"><path fill="rgb(251,251,251)" fill-opacity="1" d=" M5,-5 C5,-5 5,5 5,5 C5,5 -5,5 -5,5 C-5,5 -5,-5 -5,-5 C-5,-5 5,-5 5,-5z"></path></g></g><g transform="matrix(1,0,0,1,160,180)" opacity="1" style="display: block;"><g opacity="1" transform="matrix(1,0,0,1,-65,-65)"><path fill="rgb(251,251,251)" fill-opacity="1" d=" M5,-5 C5,-5 5,5 5,5 C5,5 -5,5 -5,5 C-5,5 -5,-5 -5,-5 C-5,-5 5,-5 5,-5z"></path></g></g><g transform="matrix(1,0,0,1,170,170)" opacity="1" style="display: block;"><g opacity="1" transform="matrix(1,0,0,1,-65,-65)"><path fill="rgb(251,251,251)" fill-opacity="1" d=" M5,-5 C5,-5 5,5 5,5 C5,5 -5,5 -5,5 C-5,5 -5,-5 -5,-5 C-5,-5 5,-5 5,-5z"></path></g></g><g transform="matrix(1,0,0,1,190,160)" opacity="1" style="display: block;"><g opacity="1" transform="matrix(1,0,0,1,-65,-65)"><path fill="rgb(251,251,251)" fill-opacity="1" d=" M5,-5 C5,-5 5,5 5,5 C5,5 -5,5 -5,5 C-5,5 -5,-5 -5,-5 C-5,-5 5,-5 5,-5z"></path></g></g><g transform="matrix(1,0,0,1,190,180)" opacity="1" style="display: block;"><g opacity="1" transform="matrix(1,0,0,1,-65,-65)"><path fill="rgb(251,251,251)" fill-opacity="1" d=" M5,-5 C5,-5 5,5 5,5 C5,5 -5,5 -5,5 C-5,5 -5,-5 -5,-5 C-5,-5 5,-5 5,-5z"></path></g></g><g transform="matrix(1,0,0,1,110,190)" opacity="1" style="display: block;"><g opacity="1" transform="matrix(1,0,0,1,-65,-65)"><path fill="rgb(251,251,251)" fill-opacity="1" d=" M5,-5 C5,-5 5,5 5,5 C5,5 -5,5 -5,5 C-5,5 -5,-5 -5,-5 C-5,-5 5,-5 5,-5z"></path></g></g><g transform="matrix(1,0,0,1,170,190)" opacity="1" style="display: block;"><g opacity="1" transform="matrix(1,0,0,1,-65,-65)"><path fill="rgb(251,251,251)" fill-opacity="1" d=" M5,-5 C5,-5 5,5 5,5 C5,5 -5,5 -5,5 C-5,5 -5,-5 -5,-5 C-5,-5 5,-5 5,-5z"></path></g></g><g transform="matrix(1,0,0,1,200,170)" opacity="1" style="display: block;"><g opacity="1" transform="matrix(1,0,0,1,-65,-65)"><path fill="rgb(251,251,251)" fill-opacity="1" d=" M5,-5 C5,-5 5,5 5,5 C5,5 -5,5 -5,5 C-5,5 -5,-5 -5,-5 C-5,-5 5,-5 5,-5z"></path></g></g><g transform="matrix(1,0,0,1,200,190)" opacity="1" style="display: block;"><g opacity="1" transform="matrix(1,0,0,1,-65,-65)"><path fill="rgb(251,251,251)" fill-opacity="1" d=" M5,-5 C5,-5 5,5 5,5 C5,5 -5,5 -5,5 C-5,5 -5,-5 -5,-5 C-5,-5 5,-5 5,-5z"></path></g></g><g transform="matrix(1,0,0,1,100,170)" opacity="1" style="display: block;"><g opacity="1" transform="matrix(1,0,0,1,-65,-65)"><path fill="rgb(251,251,251)" fill-opacity="1" d=" M5,-5 C5,-5 5,5 5,5 C5,5 -5,5 -5,5 C-5,5 -5,-5 -5,-5 C-5,-5 5,-5 5,-5z"></path></g></g><g transform="matrix(1,0,0,1,100,200)" opacity="1" style="display: block;"><g opacity="1" transform="matrix(1,0,0,1,-65,-65)"><path fill="rgb(251,251,251)" fill-opacity="1" d=" M5,-5 C5,-5 5,5 5,5 C5,5 -5,5 -5,5 C-5,5 -5,-5 -5,-5 C-5,-5 5,-5 5,-5z"></path></g></g><g transform="matrix(1,0,0,1,110,160)" opacity="1" style="display: block;"><g opacity="1" transform="matrix(1,0,0,1,-65,-65)"><path fill="rgb(251,251,251)" fill-opacity="1" d=" M5,-5 C5,-5 5,5 5,5 C5,5 -5,5 -5,5 C-5,5 -5,-5 -5,-5 C-5,-5 5,-5 5,-5z"></path></g></g><g style="display: block;" transform="matrix(1,0,0,1,70,200)" opacity="1"><g opacity="1" transform="matrix(1,0,0,1,-65,-65)"><path fill="rgb(251,251,251)" fill-opacity="1" d=" M5,-5 C5,-5 5,5 5,5 C5,5 -5,5 -5,5 C-5,5 -5,-5 -5,-5 C-5,-5 5,-5 5,-5z"></path></g></g><g transform="matrix(1,0,0,1,90,190)" opacity="1" style="display: block;"><g opacity="1" transform="matrix(1,0,0,1,-65,-65)"><path fill="rgb(251,251,251)" fill-opacity="1" d=" M5,-5 C5,-5 5,5 5,5 C5,5 -5,5 -5,5 C-5,5 -5,-5 -5,-5 C-5,-5 5,-5 5,-5z"></path></g></g><g transform="matrix(1,0,0,1,80,180)" opacity="1" style="display: block;"><g opacity="1" transform="matrix(1,0,0,1,-65,-65)"><path fill="rgb(251,251,251)" fill-opacity="1" d=" M5,-5 C5,-5 5,5 5,5 C5,5 -5,5 -5,5 C-5,5 -5,-5 -5,-5 C-5,-5 5,-5 5,-5z"></path></g></g><g transform="matrix(1,0,0,1,110,180)" opacity="1" style="display: block;"><g opacity="1" transform="matrix(1,0,0,1,-65,-65)"><path fill="rgb(251,251,251)" fill-opacity="1" d=" M5,-5 C5,-5 5,5 5,5 C5,5 -5,5 -5,5 C-5,5 -5,-5 -5,-5 C-5,-5 5,-5 5,-5z"></path></g></g><g transform="matrix(1,0,0,1,180,170)" opacity="1" style="display: block;"><g opacity="1" transform="matrix(1,0,0,1,-65,-65)"><path fill="rgb(251,251,251)" fill-opacity="1" d=" M5,-5 C5,-5 5,5 5,5 C5,5 -5,5 -5,5 C-5,5 -5,-5 -5,-5 C-5,-5 5,-5 5,-5z"></path></g></g><g transform="matrix(1,0,0,1,170,180)" opacity="1" style="display: block;"><g opacity="1" transform="matrix(1,0,0,1,-65,-65)"><path fill="rgb(251,251,251)" fill-opacity="1" d=" M5,-5 C5,-5 5,5 5,5 C5,5 -5,5 -5,5 C-5,5 -5,-5 -5,-5 C-5,-5 5,-5 5,-5z"></path></g></g><g transform="matrix(1,0,0,1,70,170)" opacity="1" style="display: block;"><g opacity="1" transform="matrix(1,0,0,1,-65,-65)"><path fill="rgb(251,251,251)" fill-opacity="1" d=" M5,-5 C5,-5 5,5 5,5 C5,5 -5,5 -5,5 C-5,5 -5,-5 -5,-5 C-5,-5 5,-5 5,-5z"></path></g></g><g transform="matrix(1,0,0,1,160,200)" opacity="1" style="display: block;"><g opacity="1" transform="matrix(1,0,0,1,-65,-65)"><path fill="rgb(251,251,251)" fill-opacity="1" d=" M5,-5 C5,-5 5,5 5,5 C5,5 -5,5 -5,5 C-5,5 -5,-5 -5,-5 C-5,-5 5,-5 5,-5z"></path></g></g><g transform="matrix(1,0,0,1,200,180)" opacity="1" style="display: block;"><g opacity="1" transform="matrix(1,0,0,1,-65,-65)"><path fill="rgb(251,251,251)" fill-opacity="1" d=" M5,-5 C5,-5 5,5 5,5 C5,5 -5,5 -5,5 C-5,5 -5,-5 -5,-5 C-5,-5 5,-5 5,-5z"></path></g></g><g transform="matrix(1,0,0,1,190,200)" opacity="1" style="display: block;"><g opacity="1" transform="matrix(1,0,0,1,-65,-65)"><path fill="rgb(251,251,251)" fill-opacity="1" d=" M5,-5 C5,-5 5,5 5,5 C5,5 -5,5 -5,5 C-5,5 -5,-5 -5,-5 C-5,-5 5,-5 5,-5z"></path></g></g><g transform="matrix(1,0,0,1,100,180)" opacity="1" style="display: block;"><g opacity="1" transform="matrix(1,0,0,1,-65,-65)"><path fill="rgb(251,251,251)" fill-opacity="1" d=" M5,-5 C5,-5 5,5 5,5 C5,5 -5,5 -5,5 C-5,5 -5,-5 -5,-5 C-5,-5 5,-5 5,-5z"></path></g></g><g style="display: block;" transform="matrix(1,0,0,1,90,200)" opacity="1"><g opacity="1" transform="matrix(1,0,0,1,-65,-65)"><path fill="rgb(251,251,251)" fill-opacity="1" d=" M5,-5 C5,-5 5,5 5,5 C5,5 -5,5 -5,5 C-5,5 -5,-5 -5,-5 C-5,-5 5,-5 5,-5z"></path></g></g><g transform="matrix(1,0,0,1,100,190)" opacity="1" style="display: block;"><g opacity="1" transform="matrix(1,0,0,1,-65,-65)"><path fill="rgb(251,251,251)" fill-opacity="1" d=" M5,-5 C5,-5 5,5 5,5 C5,5 -5,5 -5,5 C-5,5 -5,-5 -5,-5 C-5,-5 5,-5 5,-5z"></path></g></g><g transform="matrix(1,0,0,1,80,190)" opacity="1" style="display: block;"><g opacity="1" transform="matrix(1,0,0,1,-65,-65)"><path fill="rgb(251,251,251)" fill-opacity="1" d=" M5,-5 C5,-5 5,5 5,5 C5,5 -5,5 -5,5 C-5,5 -5,-5 -5,-5 C-5,-5 5,-5 5,-5z"></path></g></g><g transform="matrix(1,0,0,1,190,190)" opacity="1" style="display: block;"><g opacity="1" transform="matrix(1,0,0,1,-65,-65)"><path fill="rgb(251,251,251)" fill-opacity="1" d=" M5,-5 C5,-5 5,5 5,5 C5,5 -5,5 -5,5 C-5,5 -5,-5 -5,-5 C-5,-5 5,-5 5,-5z"></path></g></g><g transform="matrix(1,0,0,1,110,180)" opacity="1" style="display: block;"><g opacity="1" transform="matrix(1,0,0,1,-65,-65)"><path fill="rgb(251,251,251)" fill-opacity="1" d=" M5,-5 C5,-5 5,5 5,5 C5,5 -5,5 -5,5 C-5,5 -5,-5 -5,-5 C-5,-5 5,-5 5,-5z"></path></g></g><g transform="matrix(1,0,0,1,200,180)" opacity="1" style="display: block;"><g opacity="1" transform="matrix(1,0,0,1,-65,-65)"><path fill="rgb(251,251,251)" fill-opacity="1" d=" M5,-5 C5,-5 5,5 5,5 C5,5 -5,5 -5,5 C-5,5 -5,-5 -5,-5 C-5,-5 5,-5 5,-5z"></path></g></g><g transform="matrix(1,0,0,1,70,190)" opacity="1" style="display: block;"><g opacity="1" transform="matrix(1,0,0,1,-65,-65)"><path fill="rgb(251,251,251)" fill-opacity="1" d=" M5,-5 C5,-5 5,5 5,5 C5,5 -5,5 -5,5 C-5,5 -5,-5 -5,-5 C-5,-5 5,-5 5,-5z"></path></g></g><g transform="matrix(1,0,0,1,180,190)" opacity="1" style="display: block;"><g opacity="1" transform="matrix(1,0,0,1,-65,-65)"><path fill="rgb(251,251,251)" fill-opacity="1" d=" M5,-5 C5,-5 5,5 5,5 C5,5 -5,5 -5,5 C-5,5 -5,-5 -5,-5 C-5,-5 5,-5 5,-5z"></path></g></g><g transform="matrix(1,0,0,1,160,190)" opacity="1" style="display: block;"><g opacity="1" transform="matrix(1,0,0,1,-65,-65)"><path fill="rgb(251,251,251)" fill-opacity="1" d=" M5,-5 C5,-5 5,5 5,5 C5,5 -5,5 -5,5 C-5,5 -5,-5 -5,-5 C-5,-5 5,-5 5,-5z"></path></g></g><g transform="matrix(1,0,0,1,80,200)" opacity="1" style="display: block;"><g opacity="1" transform="matrix(1,0,0,1,-65,-65)"><path fill="rgb(251,251,251)" fill-opacity="1" d=" M5,-5 C5,-5 5,5 5,5 C5,5 -5,5 -5,5 C-5,5 -5,-5 -5,-5 C-5,-5 5,-5 5,-5z"></path></g></g><g transform="matrix(1,0,0,1,110,200)" opacity="1" style="display: block;"><g opacity="1" transform="matrix(1,0,0,1,-65,-65)"><path fill="rgb(251,251,251)" fill-opacity="1" d=" M5,-5 C5,-5 5,5 5,5 C5,5 -5,5 -5,5 C-5,5 -5,-5 -5,-5 C-5,-5 5,-5 5,-5z"></path></g></g><g transform="matrix(1,0,0,1,170,200)" opacity="1" style="display: block;"><g opacity="1" transform="matrix(1,0,0,1,-65,-65)"><path fill="rgb(251,251,251)" fill-opacity="1" d=" M5,-5 C5,-5 5,5 5,5 C5,5 -5,5 -5,5 C-5,5 -5,-5 -5,-5 C-5,-5 5,-5 5,-5z"></path></g></g><g transform="matrix(1,0,0,1,200,200)" opacity="1" style="display: block;"><g opacity="1" transform="matrix(1,0,0,1,-65,-65)"><path fill="rgb(251,251,251)" fill-opacity="1" d=" M5,-5 C5,-5 5,5 5,5 C5,5 -5,5 -5,5 C-5,5 -5,-5 -5,-5 C-5,-5 5,-5 5,-5z"></path></g></g><g transform="matrix(1,0,0,1,180,200)" opacity="1" style="display: block;"><g opacity="1" transform="matrix(1,0,0,1,-65,-65)"><path fill="rgb(251,251,251)" fill-opacity="1" d=" M5,-5 C5,-5 5,5 5,5 C5,5 -5,5 -5,5 C-5,5 -5,-5 -5,-5 C-5,-5 5,-5 5,-5z"></path></g></g></g></svg>