<svg xmlns="http://www.w3.org/2000/svg" width="27" height="30" fill="none" viewBox="0 0 27 30"><path fill="#6CB6AD" d="M13.3274 29.9981C12.893 29.9981 12.4586 29.8861 12.0725 29.6621L1.25494 23.4164C0.480737 22.9704 0 22.1364 0 21.2425V8.75295C0 7.85905 0.480737 7.02693 1.25494 6.57901L12.0725 0.335213C12.8467 -0.112703 13.8082 -0.110772 14.5824 0.335213L25.3999 6.58094C26.1741 7.02693 26.6549 7.86098 26.6549 8.75488V21.2444C26.6549 22.1383 26.1741 22.9704 25.3999 23.4183L14.5824 29.6641C14.1962 29.888 13.7618 30 13.3274 30V29.9981ZM13.3274 1.54381C13.1614 1.54381 12.9934 1.58629 12.8448 1.67317L2.02721 7.91697C1.72988 8.08879 1.54454 8.40929 1.54454 8.75295V21.2425C1.54454 21.5861 1.72988 21.9066 2.02721 22.0785L12.8448 28.3242C13.1421 28.496 13.5128 28.496 13.8101 28.3242L24.6277 22.0785C24.925 21.9066 25.1103 21.5861 25.1103 21.2425V8.75295C25.1103 8.40929 24.925 8.08879 24.6277 7.91697L13.8101 1.67124C13.6614 1.58629 13.4935 1.54188 13.3274 1.54188V1.54381Z"/><path fill="#6CB6AD" d="M12.3618 4.44832C12.9583 4.1008 13.6939 4.1008 14.2905 4.44832L21.9186 8.88308C22.5171 9.2306 22.882 9.87158 22.882 10.5647V19.4361C22.882 20.1312 22.5152 20.7722 21.9186 21.1178L14.2905 25.5525C13.6939 25.9 12.9583 25.9 12.3618 25.5525L4.73367 21.1178C4.13709 20.7702 3.77026 20.1292 3.77026 19.4361V10.5647C3.77026 9.86965 4.13902 9.22867 4.73367 8.88308L12.3618 4.44832Z"/></svg>