<svg version="1.1" id="Layer_1" xmlns="http://www.w3.org/2000/svg" xmlns:xlink="http://www.w3.org/1999/xlink" x="0px" y="0px"
	 width="100%" viewBox="0 0 1081 1080" enable-background="new 0 0 1081 1080" xml:space="preserve">
<path fill="#01010C" opacity="1.000000" stroke="none" 
	d="
M692.000000,1081.000000 
	C461.359894,1081.000000 231.219757,1081.000000 1.039819,1081.000000 
	C1.039819,721.068054 1.039819,361.136139 1.039819,1.102100 
	C361.223694,1.102100 721.447388,1.102100 1081.835571,1.102100 
	C1081.835571,360.999939 1081.835571,720.999939 1081.835571,1081.000000 
	C952.135681,1081.000000 822.317810,1081.000000 692.000000,1081.000000 
M568.609741,269.002747 
	C563.412476,270.660461 558.261230,272.492157 552.994263,273.886627 
	C551.004028,274.413513 548.565613,274.466461 546.640747,273.817719 
	C536.454529,270.384644 526.509521,266.174622 516.213379,263.142242 
	C498.155151,257.823761 479.608093,254.547562 460.855591,253.154343 
	C449.576874,252.316391 438.177765,252.749771 426.846558,253.082413 
	C418.333832,253.332306 409.834808,254.240585 401.344299,255.015823 
	C384.375732,256.565186 367.947723,260.703125 351.726257,265.722778 
	C331.055664,272.119141 311.461548,281.004761 292.896332,292.059906 
	C275.981934,302.132080 259.925476,313.535645 245.647217,327.092590 
	C235.836578,336.407623 226.853470,346.625031 217.840302,356.741821 
	C205.172348,370.960907 195.079834,387.043182 186.131653,403.746674 
	C175.869659,422.902527 167.968552,443.103516 162.419205,464.153412 
	C156.624115,486.135498 152.885910,508.494049 153.155869,531.244629 
	C153.340881,546.838562 154.108749,562.538696 156.252701,577.963928 
	C158.330307,592.911865 161.926590,607.724487 165.886047,622.317017 
	C171.597672,643.367126 181.171432,662.860779 191.955856,681.774536 
	C201.247055,698.069580 212.187546,713.216614 224.766418,727.037292 
	C233.603271,736.746643 243.464371,745.543335 253.084351,754.515686 
	C267.297424,767.771851 283.490906,778.399231 300.453003,787.620605 
	C327.622314,802.391235 356.192200,813.719849 387.081116,817.958313 
	C402.274994,820.043152 417.545898,821.797974 432.840790,822.828125 
	C441.862640,823.435791 451.008972,822.489014 460.082092,821.950867 
	C467.429413,821.515076 474.917328,821.396912 482.050385,819.817139 
	C498.372711,816.202332 514.511658,811.761536 530.741699,807.723083 
	C531.860107,807.444763 533.223083,807.411011 534.290955,807.783447 
	C543.831726,811.112183 553.237793,814.854004 562.863525,817.906494 
	C582.088501,824.003235 601.930725,827.272827 621.968018,828.843628 
	C633.071533,829.714111 644.329163,829.513672 655.463257,828.866211 
	C668.497803,828.108215 681.526550,826.720703 694.463440,824.926208 
	C719.202759,821.494385 742.565918,813.204590 765.127563,802.859009 
	C789.830200,791.531555 812.439453,776.606567 832.675171,758.537842 
	C850.496948,742.624451 866.593445,724.954346 879.977844,704.991394 
	C896.039795,681.034790 908.545166,655.400879 917.009949,627.793823 
	C923.401733,606.947754 927.753906,585.614807 928.740479,563.930725 
	C929.676086,543.364258 929.563477,522.724487 926.224854,502.148560 
	C923.654236,486.305634 920.018005,470.844849 915.203186,455.603790 
	C909.517517,437.605865 901.809814,420.507233 892.589233,404.031525 
	C883.118408,387.108612 872.113525,371.230988 859.146423,356.917175 
	C849.179565,345.915283 838.148376,335.834808 827.180725,325.792053 
	C810.691528,310.693237 791.692627,299.146332 771.853638,289.114197 
	C755.942322,281.068207 739.283020,274.779938 722.058289,269.873199 
	C699.573669,263.468079 676.684692,259.535400 653.412048,259.234314 
	C637.002930,259.022064 620.499023,260.397156 604.163025,262.200653 
	C592.487000,263.489685 581.019104,266.664337 568.609741,269.002747 
z"/>
<path fill="#FFFFFF" opacity="1.000000" stroke="none" 
	d="
M569.034058,269.000183 
	C581.019104,266.664337 592.487000,263.489685 604.163025,262.200653 
	C620.499023,260.397156 637.002930,259.022064 653.412048,259.234314 
	C676.684692,259.535400 699.573669,263.468079 722.058289,269.873199 
	C739.283020,274.779938 755.942322,281.068207 771.853638,289.114197 
	C791.692627,299.146332 810.691528,310.693237 827.180725,325.792053 
	C838.148376,335.834808 849.179565,345.915283 859.146423,356.917175 
	C872.113525,371.230988 883.118408,387.108612 892.589233,404.031525 
	C901.809814,420.507233 909.517517,437.605865 915.203186,455.603790 
	C920.018005,470.844849 923.654236,486.305634 926.224854,502.148560 
	C929.563477,522.724487 929.676086,543.364258 928.740479,563.930725 
	C927.753906,585.614807 923.401733,606.947754 917.009949,627.793823 
	C908.545166,655.400879 896.039795,681.034790 879.977844,704.991394 
	C866.593445,724.954346 850.496948,742.624451 832.675171,758.537842 
	C812.439453,776.606567 789.830200,791.531555 765.127563,802.859009 
	C742.565918,813.204590 719.202759,821.494385 694.463440,824.926208 
	C681.526550,826.720703 668.497803,828.108215 655.463257,828.866211 
	C644.329163,829.513672 633.071533,829.714111 621.968018,828.843628 
	C601.930725,827.272827 582.088501,824.003235 562.863525,817.906494 
	C553.237793,814.854004 543.831726,811.112183 534.290955,807.783447 
	C533.223083,807.411011 531.860107,807.444763 530.741699,807.723083 
	C514.511658,811.761536 498.372711,816.202332 482.050385,819.817139 
	C474.917328,821.396912 467.429413,821.515076 460.082092,821.950867 
	C451.008972,822.489014 441.862640,823.435791 432.840790,822.828125 
	C417.545898,821.797974 402.274994,820.043152 387.081116,817.958313 
	C356.192200,813.719849 327.622314,802.391235 300.453003,787.620605 
	C283.490906,778.399231 267.297424,767.771851 253.084351,754.515686 
	C243.464371,745.543335 233.603271,736.746643 224.766418,727.037292 
	C212.187546,713.216614 201.247055,698.069580 191.955856,681.774536 
	C181.171432,662.860779 171.597672,643.367126 165.886047,622.317017 
	C161.926590,607.724487 158.330307,592.911865 156.252701,577.963928 
	C154.108749,562.538696 153.340881,546.838562 153.155869,531.244629 
	C152.885910,508.494049 156.624115,486.135498 162.419205,464.153412 
	C167.968552,443.103516 175.869659,422.902527 186.131653,403.746674 
	C195.079834,387.043182 205.172348,370.960907 217.840302,356.741821 
	C226.853470,346.625031 235.836578,336.407623 245.647217,327.092590 
	C259.925476,313.535645 275.981934,302.132080 292.896332,292.059906 
	C311.461548,281.004761 331.055664,272.119141 351.726257,265.722778 
	C367.947723,260.703125 384.375732,256.565186 401.344299,255.015823 
	C409.834808,254.240585 418.333832,253.332306 426.846558,253.082413 
	C438.177765,252.749771 449.576874,252.316391 460.855591,253.154343 
	C479.608093,254.547562 498.155151,257.823761 516.213379,263.142242 
	C526.509521,266.174622 536.454529,270.384644 546.640747,273.817719 
	C548.565613,274.466461 551.004028,274.413513 552.994263,273.886627 
	C558.261230,272.492157 563.412476,270.660461 569.034058,269.000183 
M437.999969,741.499268 
	C432.875397,735.708130 427.218842,730.298584 422.734924,724.047852 
	C412.849518,710.267273 402.680511,696.567810 394.218903,681.916016 
	C380.480255,658.126831 370.720245,632.494324 365.407043,605.506775 
	C362.301727,589.733582 360.026306,573.638367 359.298676,557.600891 
	C358.590637,541.995728 359.531036,526.191589 361.234619,510.637634 
	C362.795410,496.387238 365.535553,482.142273 369.183105,468.270172 
	C376.510284,440.403870 388.183899,414.303314 404.001678,390.137299 
	C417.211731,369.955292 431.816559,350.884369 450.357819,335.275238 
	C462.444122,325.100281 475.097260,315.595337 487.574188,305.890198 
	C490.537201,303.585449 493.811798,301.681305 497.327667,299.336426 
	C430.439514,281.004578 320.992310,291.042755 245.490326,385.129272 
	C184.599747,461.007874 170.762985,572.690002 229.268417,667.347351 
	C284.227081,756.266296 387.931549,798.094177 480.218750,779.577881 
	C466.718689,767.417664 452.609222,754.708557 437.999969,741.499268 
M646.394714,298.000183 
	C631.043457,299.150238 615.692261,300.300323 599.641174,301.502838 
	C681.862488,363.480438 725.990356,443.544525 722.770874,546.417175 
	C719.545532,649.475525 670.542542,726.884827 584.544739,783.525330 
	C671.218811,801.200745 747.574036,783.064209 812.652344,722.836731 
	C884.494263,656.349670 915.234314,544.585754 866.739258,439.692596 
	C847.824463,398.780487 818.960449,365.493195 781.503845,340.296539 
	C741.061157,313.091095 696.045715,299.489014 646.394714,298.000183 
M510.511261,337.990479 
	C488.581757,352.149780 469.034058,369.108002 453.062439,389.723145 
	C443.881958,401.572693 435.710999,414.313446 428.119202,427.259186 
	C416.827576,446.514008 408.789917,467.293610 404.541656,489.209473 
	C401.514679,504.824982 399.330475,520.701782 398.216949,536.563538 
	C397.043304,553.281372 399.136475,569.954895 401.868805,586.558044 
	C405.292847,607.364502 411.519196,627.277710 420.188110,646.333801 
	C434.578156,677.966064 455.300293,705.112183 480.987244,728.479736 
	C483.412598,730.686096 485.800140,733.003784 488.507935,734.818115 
	C502.045166,743.888306 515.607910,752.926697 529.367188,761.652344 
	C531.441528,762.967773 535.271423,763.806274 537.148499,762.779663 
	C552.412659,754.431091 567.946716,746.389954 582.346191,736.692505 
	C601.266052,723.950684 617.508545,707.874207 631.472107,689.852722 
	C650.459534,665.347412 664.939148,638.328064 673.883911,608.487183 
	C679.304871,590.402405 682.809998,571.891785 683.796082,553.131042 
	C684.840637,533.257507 683.892578,513.398376 680.174622,493.642456 
	C675.915283,471.010132 668.954224,449.339325 658.822449,428.808868 
	C651.098450,413.157410 641.541016,398.562073 630.590881,384.787964 
	C617.919739,368.848969 603.665039,354.624359 587.556580,342.404785 
	C577.181580,334.534485 565.507080,328.399414 554.724548,321.033508 
	C550.417847,318.091431 546.720154,317.792877 542.353943,320.223999 
	C531.942322,326.021240 521.476440,331.720978 510.511261,337.990479 
z"/>
<path fill="#01010C" opacity="1.000000" stroke="none" 
	d="
M438.249878,741.749390 
	C452.609222,754.708557 466.718689,767.417664 480.218750,779.577881 
	C387.931549,798.094177 284.227081,756.266296 229.268417,667.347351 
	C170.762985,572.690002 184.599747,461.007874 245.490326,385.129272 
	C320.992310,291.042755 430.439514,281.004578 497.327667,299.336426 
	C493.811798,301.681305 490.537201,303.585449 487.574188,305.890198 
	C475.097260,315.595337 462.444122,325.100281 450.357819,335.275238 
	C431.816559,350.884369 417.211731,369.955292 404.001678,390.137299 
	C388.183899,414.303314 376.510284,440.403870 369.183105,468.270172 
	C365.535553,482.142273 362.795410,496.387238 361.234619,510.637634 
	C359.531036,526.191589 358.590637,541.995728 359.298676,557.600891 
	C360.026306,573.638367 362.301727,589.733582 365.407043,605.506775 
	C370.720245,632.494324 380.480255,658.126831 394.218903,681.916016 
	C402.680511,696.567810 412.849518,710.267273 422.734924,724.047852 
	C427.218842,730.298584 432.875397,735.708130 438.249878,741.749390 
z"/>
<path fill="#01010C" opacity="1.000000" stroke="none" 
	d="
M646.873413,298.000183 
	C696.045715,299.489014 741.061157,313.091095 781.503845,340.296539 
	C818.960449,365.493195 847.824463,398.780487 866.739258,439.692596 
	C915.234314,544.585754 884.494263,656.349670 812.652344,722.836731 
	C747.574036,783.064209 671.218811,801.200745 584.544739,783.525330 
	C670.542542,726.884827 719.545532,649.475525 722.770874,546.417175 
	C725.990356,443.544525 681.862488,363.480438 599.641174,301.502838 
	C615.692261,300.300323 631.043457,299.150238 646.873413,298.000183 
z"/>
<path fill="#01010C" opacity="1.000000" stroke="none" 
	d="
M510.771851,337.725281 
	C521.476440,331.720978 531.942322,326.021240 542.353943,320.223999 
	C546.720154,317.792877 550.417847,318.091431 554.724548,321.033508 
	C565.507080,328.399414 577.181580,334.534485 587.556580,342.404785 
	C603.665039,354.624359 617.919739,368.848969 630.590881,384.787964 
	C641.541016,398.562073 651.098450,413.157410 658.822449,428.808868 
	C668.954224,449.339325 675.915283,471.010132 680.174622,493.642456 
	C683.892578,513.398376 684.840637,533.257507 683.796082,553.131042 
	C682.809998,571.891785 679.304871,590.402405 673.883911,608.487183 
	C664.939148,638.328064 650.459534,665.347412 631.472107,689.852722 
	C617.508545,707.874207 601.266052,723.950684 582.346191,736.692505 
	C567.946716,746.389954 552.412659,754.431091 537.148499,762.779663 
	C535.271423,763.806274 531.441528,762.967773 529.367188,761.652344 
	C515.607910,752.926697 502.045166,743.888306 488.507935,734.818115 
	C485.800140,733.003784 483.412598,730.686096 480.987244,728.479736 
	C455.300293,705.112183 434.578156,677.966064 420.188110,646.333801 
	C411.519196,627.277710 405.292847,607.364502 401.868805,586.558044 
	C399.136475,569.954895 397.043304,553.281372 398.216949,536.563538 
	C399.330475,520.701782 401.514679,504.824982 404.541656,489.209473 
	C408.789917,467.293610 416.827576,446.514008 428.119202,427.259186 
	C435.710999,414.313446 443.881958,401.572693 453.062439,389.723145 
	C469.034058,369.108002 488.581757,352.149780 510.771851,337.725281 
M566.500000,518.000000 
	C533.025940,518.000000 499.550293,517.842224 466.079773,518.185242 
	C461.528534,518.231873 456.560242,520.025269 452.570435,522.354919 
	C446.753754,525.751282 443.484863,535.770813 445.647400,542.210693 
	C448.725708,551.377686 455.166626,556.992676 463.278015,556.994263 
	C519.734192,557.005005 576.190430,557.001404 632.646606,556.991699 
	C633.972290,556.991516 635.448364,557.226929 636.600159,556.744995 
	C647.384033,552.232727 651.423889,545.456421 649.867798,533.483337 
	C648.655334,524.153931 639.215759,517.967224 630.451172,517.985657 
	C609.467529,518.029907 588.483704,518.000000 566.500000,518.000000 
M538.500000,397.999847 
	C528.442627,398.332062 518.329956,398.119476 508.341553,399.131897 
	C495.318420,400.451904 489.286987,412.432678 492.822021,424.265869 
	C495.394562,432.877197 502.884216,437.986877 512.409668,437.994171 
	C535.544250,438.011963 558.679443,438.087494 581.812683,437.909454 
	C585.440674,437.881561 589.259705,437.167114 592.640808,435.863525 
	C599.649292,433.161377 603.125610,427.237274 603.878540,420.131348 
	C604.612122,413.207672 601.893799,407.378296 596.417786,402.737366 
	C591.690247,398.730682 586.050720,398.196777 580.441467,398.086884 
	C566.799011,397.819672 553.147705,397.999878 538.500000,397.999847 
M496.984314,670.474426 
	C501.179352,675.091370 506.393097,677.060974 512.625671,677.036377 
	C535.757935,676.945129 558.890869,677.028748 582.023315,676.956848 
	C584.419495,676.949402 586.819336,676.378174 589.208130,676.008545 
	C598.598633,674.555786 605.289856,664.036865 603.964478,655.036011 
	C602.729187,646.647095 595.063904,637.676514 584.714539,637.858887 
	C559.925354,638.295593 535.123352,637.999512 510.326477,638.000488 
	C501.616821,638.000854 495.701294,642.340576 493.030701,650.362610 
	C490.735107,657.258240 490.958557,664.189026 496.984314,670.474426 
z"/>
<path fill="#FFFFFF" opacity="1.000000" stroke="none" 
	d="
M567.000000,518.000000 
	C588.483704,518.000000 609.467529,518.029907 630.451172,517.985657 
	C639.215759,517.967224 648.655334,524.153931 649.867798,533.483337 
	C651.423889,545.456421 647.384033,552.232727 636.600159,556.744995 
	C635.448364,557.226929 633.972290,556.991516 632.646606,556.991699 
	C576.190430,557.001404 519.734192,557.005005 463.278015,556.994263 
	C455.166626,556.992676 448.725708,551.377686 445.647400,542.210693 
	C443.484863,535.770813 446.753754,525.751282 452.570435,522.354919 
	C456.560242,520.025269 461.528534,518.231873 466.079773,518.185242 
	C499.550293,517.842224 533.025940,518.000000 567.000000,518.000000 
z"/>
<path fill="#FFFFFF" opacity="1.000000" stroke="none" 
	d="
M539.000000,397.999878 
	C553.147705,397.999878 566.799011,397.819672 580.441467,398.086884 
	C586.050720,398.196777 591.690247,398.730682 596.417786,402.737366 
	C601.893799,407.378296 604.612122,413.207672 603.878540,420.131348 
	C603.125610,427.237274 599.649292,433.161377 592.640808,435.863525 
	C589.259705,437.167114 585.440674,437.881561 581.812683,437.909454 
	C558.679443,438.087494 535.544250,438.011963 512.409668,437.994171 
	C502.884216,437.986877 495.394562,432.877197 492.822021,424.265869 
	C489.286987,412.432678 495.318420,400.451904 508.341553,399.131897 
	C518.329956,398.119476 528.442627,398.332062 539.000000,397.999878 
z"/>
<path fill="#FFFFFF" opacity="1.000000" stroke="none" 
	d="
M496.712952,670.217957 
	C490.958557,664.189026 490.735107,657.258240 493.030701,650.362610 
	C495.701294,642.340576 501.616821,638.000854 510.326477,638.000488 
	C535.123352,637.999512 559.925354,638.295593 584.714539,637.858887 
	C595.063904,637.676514 602.729187,646.647095 603.964478,655.036011 
	C605.289856,664.036865 598.598633,674.555786 589.208130,676.008545 
	C586.819336,676.378174 584.419495,676.949402 582.023315,676.956848 
	C558.890869,677.028748 535.757935,676.945129 512.625671,677.036377 
	C506.393097,677.060974 501.179352,675.091370 496.712952,670.217957 
z"/>
</svg>