<svg width="150" height="150" viewBox="0 0 150 150" fill="none" xmlns="http://www.w3.org/2000/svg">
<path d="M113.717 71.9906C120.623 69.2264 125 65.5 125 60.8491C125 55.3019 118.774 51.0755 109.472 48.2264C107.557 47.6321 105.5 47.1038 103.349 46.6509C102.896 44.5 102.368 42.4434 101.774 40.5283C98.9245 31.2264 94.6981 25 89.1509 25C84.5 25 80.7736 29.3774 78.0094 36.283C77.7641 36.9057 77.5189 37.5566 77.283 38.2264C76.6698 39.9811 76.1038 41.8774 75.6038 43.8774C75.4057 43.8679 75.1981 43.8679 75 43.8679C74.8019 43.8679 74.5943 43.8679 74.3962 43.8774C73.9057 41.8774 73.3396 39.9811 72.717 38.2264C72.4811 37.566 72.2453 36.9245 72 36.3019C69.2358 29.3868 65.5 25 60.8491 25C55.3019 25 51.0755 31.2264 48.2264 40.5377C47.6415 42.4528 47.1132 44.5 46.6415 46.6509C44.4906 47.1132 42.4434 47.6415 40.5377 48.2264C31.2264 51.0755 25 55.3019 25 60.8491C25 65.5 29.3774 69.2264 36.2925 71.9906C36.9151 72.2359 37.5566 72.4811 38.2264 72.7075C39.9811 73.3302 41.8679 73.8962 43.8774 74.3962C43.8774 74.5943 43.8774 74.8019 43.8774 75C43.8774 75.1981 43.8774 75.4057 43.8774 75.6038C41.8679 76.1038 39.9811 76.6698 38.2264 77.2925C37.566 77.5189 36.9245 77.7547 36.3113 78C29.3868 80.7641 25 84.4906 25 89.1509C25 94.6981 31.2264 98.9245 40.5377 101.774C42.4434 102.358 44.4906 102.887 46.6415 103.349C47.1038 105.491 47.6321 107.538 48.2264 109.453C51.066 118.764 55.3019 125 60.8491 125C65.5 125 69.2358 120.613 72 113.698C72.2453 113.075 72.4811 112.434 72.717 111.774C73.3396 110.019 73.9057 108.123 74.3962 106.123C74.5943 106.132 74.8019 106.132 75 106.132C75.1981 106.132 75.4057 106.132 75.6038 106.123C76.1038 108.123 76.6698 110.019 77.283 111.774C77.5189 112.443 77.7641 113.094 78.0094 113.717C80.7736 120.623 84.5 125 89.1509 125C94.6981 125 98.9245 118.774 101.774 109.462C102.368 107.547 102.896 105.5 103.349 103.349C105.5 102.896 107.557 102.368 109.472 101.774C118.774 98.9245 125 94.6981 125 89.1509C125 84.5 120.613 80.7641 113.698 78C113.075 77.7547 112.434 77.5189 111.774 77.283C110.019 76.6604 108.123 76.0943 106.123 75.6038C106.132 75.4057 106.132 75.1981 106.132 75C106.132 74.8019 106.132 74.5943 106.123 74.3962C108.123 73.9057 110.019 73.3396 111.774 72.717C112.443 72.4811 113.094 72.2359 113.717 71.9906ZM70.8962 94.7547C70.6132 96.7642 70.2925 98.6509 69.934 100.396C69.4811 100.387 69.0283 100.368 68.5849 100.349C67.066 100.292 65.6132 100.217 64.1981 100.113C61.7736 99.9528 59.5 99.7358 57.3585 99.4717C57.8113 101.679 58.3019 103.613 58.8113 105.292C60.1226 105.425 61.4434 105.547 62.783 105.651C64.6981 105.811 66.6415 105.925 68.5943 106C68 108.132 67.3585 109.991 66.7075 111.585C64.5377 116.887 62.2453 119.34 60.8491 119.34C59.3679 119.34 56.8491 116.547 54.566 110.481C53.9151 108.755 53.2736 106.755 52.6981 104.481C52.2358 102.689 51.8019 100.726 51.4151 98.5849C51.0849 96.7358 50.783 94.7547 50.5283 92.6415C50.2642 90.5 50.0472 88.2264 49.8868 85.8019C47.7925 86.2453 45.9528 86.7358 44.3491 87.2264C44.4528 88.566 44.5755 89.8868 44.7075 91.1887C44.934 93.2736 45.2075 95.3208 45.5189 97.3019C43.2453 96.7264 41.2453 96.0849 39.5189 95.434C33.4528 93.1509 30.6604 90.6321 30.6604 89.1509C30.6604 87.7547 33.1132 85.4623 38.4151 83.2925C40.0094 82.6415 41.8679 82 44 81.4057C44.7547 81.1887 45.5377 80.9811 46.3585 80.783C47.3868 80.5377 48.4623 80.2924 49.6038 80.066C51.3491 79.7075 53.2358 79.3868 55.2453 79.1038C58.2359 78.6792 61.5283 78.3491 65.1038 78.1321C66.1226 81.3396 68.6509 83.8774 71.8679 84.8962C71.6509 88.4811 71.3208 91.7736 70.8962 94.7547ZM65.1038 71.8679C61.5189 71.6509 58.2264 71.3208 55.2453 70.8962C53.2358 70.6132 51.3491 70.2925 49.6038 69.934C49.6132 69.4811 49.6321 69.0283 49.6509 68.5849C49.7075 67.066 49.783 65.6132 49.8868 64.1981C50.0472 61.7736 50.2642 59.5 50.5283 57.3585C48.3208 57.8208 46.3868 58.3113 44.7075 58.8113C44.5755 60.1132 44.4528 61.434 44.3491 62.7736C44.1887 64.6887 44.0755 66.6321 44 68.5943C41.8679 68 40.0094 67.3585 38.4151 66.7075C33.1132 64.5377 30.6604 62.2453 30.6604 60.8491C30.6604 59.3679 33.4528 56.8491 39.5189 54.566C41.2453 53.9057 43.2453 53.2736 45.5189 52.6981C47.3113 52.2358 49.2736 51.8019 51.4151 51.4151C53.2642 51.0849 55.2453 50.783 57.3585 50.5283C59.5 50.2642 61.7736 50.0472 64.1981 49.8868C63.7547 47.7925 63.2736 45.9528 62.783 44.3491C61.4434 44.4528 60.1226 44.5755 58.8113 44.7075C56.7264 44.934 54.6792 45.2075 52.6981 45.5189C53.2736 43.2453 53.9151 41.2453 54.566 39.5189C56.8491 33.4528 59.3679 30.6604 60.8491 30.6604C62.2453 30.6604 64.5377 33.1132 66.7075 38.4151C67.3585 40.0094 68 41.8679 68.5943 44C68.8113 44.7547 69.0094 45.5283 69.217 46.3491L69.934 49.6038C70.2925 51.3491 70.6132 53.2358 70.8962 55.2453C71.3208 58.2264 71.6415 61.5189 71.8679 65.1038C68.6604 66.1226 66.1226 68.6509 65.1038 71.8679ZM111.585 83.2925C116.887 85.4623 119.34 87.7547 119.34 89.1509C119.34 90.6321 116.547 93.1509 110.481 95.434C108.755 96.0849 106.755 96.7264 104.481 97.3019C102.689 97.7642 100.726 98.1981 98.5849 98.5849C96.7358 98.9151 94.7547 99.217 92.6415 99.4717C90.5 99.7358 88.2264 99.9528 85.8019 100.113C86.2453 102.208 86.7264 104.047 87.217 105.651C88.5566 105.547 89.8774 105.425 91.1887 105.292C93.2736 105.066 95.3208 104.792 97.3019 104.481C96.7264 106.755 96.0943 108.755 95.434 110.481C93.1509 116.547 90.6321 119.34 89.1509 119.34C87.7547 119.34 85.4623 116.887 83.2925 111.585C82.6415 109.991 82 108.132 81.4057 106C81.1887 105.245 80.9906 104.472 80.783 103.651C80.5377 102.623 80.2924 101.538 80.066 100.396C79.7075 98.6509 79.3868 96.7642 79.1038 94.7547C78.6792 91.7736 78.3585 88.4811 78.1321 84.8962C81.3396 83.8774 83.8774 81.3491 84.8962 78.1321C88.4811 78.3491 91.7736 78.6792 94.7547 79.1038C96.7642 79.3868 98.6509 79.7075 100.396 80.066C100.387 80.5189 100.368 80.9717 100.349 81.4151C100.292 82.934 100.217 84.3868 100.113 85.8019C99.9528 88.2264 99.7358 90.5 99.4717 92.6415C101.679 92.1887 103.613 91.6981 105.292 91.1887C105.425 89.8774 105.547 88.5566 105.651 87.217C105.811 85.3019 105.925 83.3585 106 81.4057C108.132 82 109.991 82.6415 111.585 83.2925ZM106 68.5943C105.245 68.8113 104.472 69.0094 103.651 69.217L100.396 69.934C98.6509 70.2925 96.7642 70.6132 94.7547 70.8962C91.7736 71.3208 88.4811 71.6509 84.8962 71.8679C83.8774 68.6604 81.3491 66.1226 78.1321 65.1038C78.3491 61.5189 78.6792 58.2264 79.1038 55.2453C79.3868 53.2358 79.7075 51.3491 80.066 49.6038C80.5189 49.6132 80.9717 49.6321 81.4151 49.6509C82.934 49.7075 84.3868 49.783 85.8019 49.8868C88.2264 50.0472 90.5 50.2642 92.6415 50.5283C92.1887 48.3208 91.6981 46.3868 91.1887 44.7075C89.8774 44.5755 88.5566 44.4528 87.217 44.3491C85.3019 44.1887 83.3585 44.0755 81.4057 44C82 41.8679 82.6415 40.0094 83.2925 38.4151C85.4623 33.1132 87.7547 30.6604 89.1509 30.6604C90.6321 30.6604 93.1509 33.4528 95.434 39.5189C96.0943 41.2453 96.7264 43.2453 97.3019 45.5189C97.7642 47.3113 98.1981 49.2736 98.5849 51.4151C98.9151 53.2642 99.217 55.2453 99.4717 57.3585C99.7358 59.5 99.9528 61.7736 100.113 64.1981C102.208 63.7547 104.047 63.2736 105.651 62.783C105.547 61.4434 105.425 60.1226 105.292 58.8113C105.066 56.7264 104.792 54.6792 104.481 52.6981C106.755 53.2736 108.755 53.9057 110.481 54.566C116.547 56.8491 119.34 59.3679 119.34 60.8491C119.34 62.2453 116.887 64.5377 111.585 66.7075C109.991 67.3585 108.132 68 106 68.5943Z" fill="black"/>
</svg>
