<svg width="36" height="36" viewBox="0 0 36 36" xmlns="http://www.w3.org/2000/svg">
  <path
    d="M 31.938 16.916 C 34.424 15.922 36 14.58 36 12.906 C 36 10.909 33.759 9.387 30.41 8.361 C 29.684 8.138 28.949 7.949 28.206 7.794 C 28.051 7.051 27.862 6.316 27.639 5.59 C 26.613 2.241 25.091 0 23.094 0 C 21.42 0 20.079 1.576 19.083 4.062 C 18.995 4.286 18.907 4.521 18.822 4.761 C 18.59 5.43 18.388 6.109 18.217 6.796 C 18.146 6.792 18.071 6.792 18 6.792 C 17.929 6.792 17.854 6.792 17.783 6.796 C 17.557 5.868 17.269 4.957 16.92 4.069 C 15.925 1.579 14.58 0 12.906 0 C 10.909 0 9.387 2.241 8.361 5.594 C 8.142 6.319 7.952 7.053 7.791 7.794 C 7.017 7.961 6.279 8.151 5.594 8.361 C 2.241 9.387 0 10.909 0 12.906 C 0 14.58 1.576 15.922 4.065 16.917 C 4.289 17.005 4.521 17.094 4.761 17.175 C 5.429 17.411 6.108 17.613 6.796 17.783 L 6.796 18.218 C 6.072 18.398 5.393 18.602 4.762 18.825 C 4.53 18.905 4.299 18.989 4.072 19.08 C 1.579 20.075 0 21.416 0 23.094 C 0 25.091 2.241 26.613 5.594 27.639 C 6.318 27.859 7.051 28.048 7.791 28.206 C 7.957 28.977 8.148 29.714 8.361 30.403 C 9.384 33.755 10.909 36 12.906 36 C 14.58 36 15.925 34.421 16.92 31.931 C 17.269 31.043 17.557 30.132 17.783 29.204 C 17.854 29.208 17.929 29.208 18 29.208 C 18.071 29.208 18.146 29.208 18.217 29.204 C 18.397 29.924 18.601 30.607 18.822 31.238 C 18.907 31.479 18.995 31.714 19.083 31.938 C 20.079 34.424 21.42 36 23.094 36 C 25.091 36 26.613 33.759 27.639 30.406 C 27.862 29.682 28.051 28.948 28.206 28.206 C 28.949 28.051 29.684 27.862 30.41 27.639 C 33.759 26.613 36 25.091 36 23.094 C 36 21.42 34.421 20.075 31.931 19.08 C 31.043 18.731 30.132 18.443 29.204 18.217 C 29.208 18.146 29.208 18.071 29.208 18 C 29.208 17.929 29.208 17.854 29.204 17.783 C 30.134 17.556 31.048 17.267 31.938 16.917 Z M 16.523 25.112 C 16.428 25.792 16.313 26.469 16.176 27.143 C 16.013 27.139 15.85 27.132 15.69 27.126 C 15.163 27.107 14.637 27.078 14.111 27.041 C 13.239 26.983 12.42 26.905 11.649 26.81 C 11.791 27.516 11.966 28.215 12.172 28.905 C 12.644 28.953 13.119 28.997 13.602 29.034 C 14.291 29.092 14.991 29.133 15.694 29.16 C 15.506 29.843 15.28 30.514 15.015 31.171 C 14.234 33.079 13.408 33.962 12.906 33.962 C 12.372 33.962 11.466 32.957 10.644 30.773 C 10.379 30.066 10.155 29.345 9.971 28.613 C 9.791 27.912 9.637 27.204 9.509 26.491 C 9.391 25.825 9.282 25.112 9.19 24.351 C 9.09 23.532 9.013 22.711 8.959 21.888 C 8.288 22.03 7.622 22.201 6.966 22.401 C 7.003 22.884 7.047 23.359 7.095 23.828 C 7.176 24.579 7.275 25.316 7.387 26.029 C 6.655 25.845 5.934 25.621 5.227 25.356 C 3.043 24.534 2.038 23.628 2.038 23.094 C 2.038 22.592 2.921 21.766 4.829 20.985 C 5.486 20.72 6.157 20.494 6.84 20.306 C 7.121 20.225 7.404 20.15 7.689 20.082 C 8.077 19.988 8.466 19.902 8.857 19.823 C 9.531 19.687 10.208 19.571 10.888 19.477 C 11.965 19.324 13.15 19.205 14.437 19.127 C 14.806 20.286 15.714 21.193 16.872 21.562 C 16.794 22.853 16.676 24.038 16.523 25.111 Z M 14.437 16.872 C 13.147 16.794 11.961 16.676 10.888 16.523 C 10.208 16.428 9.531 16.313 8.857 16.176 C 8.861 16.013 8.868 15.85 8.874 15.69 C 8.895 15.144 8.922 14.621 8.959 14.111 C 9.017 13.239 9.095 12.42 9.19 11.649 C 8.485 11.794 7.786 11.969 7.095 12.172 C 7.046 12.647 7.003 13.123 6.966 13.599 C 6.908 14.288 6.867 14.988 6.84 15.694 C 6.157 15.506 5.486 15.28 4.829 15.015 C 2.921 14.234 2.038 13.408 2.038 12.906 C 2.038 12.372 3.043 11.466 5.227 10.644 C 5.848 10.406 6.568 10.179 7.387 9.971 C 8.088 9.791 8.796 9.637 9.509 9.509 C 10.175 9.391 10.888 9.282 11.649 9.19 C 12.42 9.095 13.239 9.017 14.112 8.959 C 13.971 8.288 13.801 7.622 13.602 6.966 C 13.119 7.003 12.644 7.047 12.172 7.095 C 11.421 7.176 10.684 7.275 9.971 7.387 C 10.155 6.655 10.379 5.934 10.644 5.227 C 11.466 3.043 12.372 2.038 12.906 2.038 C 13.408 2.038 14.234 2.921 15.015 4.829 C 15.28 5.486 15.506 6.157 15.694 6.84 C 15.772 7.112 15.843 7.39 15.918 7.686 L 16.176 8.857 C 16.305 9.486 16.421 10.165 16.523 10.888 C 16.676 11.961 16.791 13.147 16.872 14.437 C 15.714 14.806 14.806 15.714 14.437 16.872 Z M 31.17 20.985 C 33.079 21.766 33.962 22.592 33.962 23.094 C 33.962 23.628 32.957 24.534 30.773 25.356 C 30.066 25.621 29.345 25.845 28.613 26.029 C 27.912 26.209 27.204 26.363 26.491 26.491 C 25.825 26.609 25.112 26.718 24.351 26.81 C 23.58 26.905 22.761 26.983 21.888 27.041 C 22.029 27.712 22.199 28.378 22.398 29.034 C 22.881 28.997 23.356 28.953 23.828 28.905 C 24.579 28.824 25.316 28.725 26.029 28.614 C 25.821 29.432 25.594 30.152 25.356 30.774 C 24.534 32.957 23.628 33.962 23.094 33.962 C 22.592 33.962 21.766 33.079 20.985 31.171 C 20.72 30.514 20.494 29.843 20.306 29.16 C 20.227 28.879 20.152 28.597 20.082 28.314 C 19.988 27.925 19.902 27.535 19.823 27.143 C 19.687 26.469 19.571 25.792 19.477 25.112 C 19.324 24.039 19.209 22.853 19.127 21.563 C 20.286 21.194 21.193 20.286 21.562 19.128 C 22.853 19.206 24.038 19.324 25.111 19.477 C 25.835 19.579 26.514 19.695 27.142 19.824 C 27.139 19.987 27.132 20.15 27.125 20.31 C 27.106 20.837 27.078 21.363 27.04 21.889 C 26.983 22.761 26.905 23.58 26.81 24.351 C 27.516 24.209 28.215 24.034 28.905 23.828 C 28.952 23.356 28.997 22.881 29.034 22.398 C 29.092 21.709 29.132 21.009 29.16 20.306 C 29.842 20.494 30.514 20.72 31.17 20.985 Z M 29.16 15.694 C 28.888 15.772 28.61 15.843 28.314 15.918 L 27.143 16.176 C 26.514 16.305 25.835 16.421 25.112 16.523 C 24.039 16.676 22.853 16.794 21.563 16.872 C 21.194 15.714 20.286 14.806 19.128 14.437 C 19.206 13.147 19.324 11.961 19.477 10.888 C 19.579 10.165 19.695 9.486 19.824 8.857 C 19.987 8.861 20.15 8.868 20.31 8.874 C 20.856 8.895 21.379 8.922 21.889 8.959 C 22.761 9.017 23.58 9.095 24.351 9.19 C 24.209 8.484 24.034 7.785 23.828 7.095 C 23.352 7.046 22.875 7.003 22.398 6.966 C 21.702 6.908 21.004 6.866 20.306 6.84 C 20.494 6.157 20.72 5.486 20.985 4.829 C 21.766 2.921 22.592 2.038 23.094 2.038 C 23.628 2.038 24.534 3.043 25.356 5.227 C 25.594 5.848 25.821 6.568 26.029 7.387 C 26.209 8.088 26.363 8.796 26.491 9.509 C 26.609 10.175 26.718 10.888 26.81 11.649 C 26.905 12.42 26.983 13.239 27.041 14.112 C 27.712 13.971 28.378 13.801 29.034 13.602 C 28.997 13.119 28.953 12.644 28.905 12.172 C 28.824 11.421 28.725 10.684 28.614 9.971 C 29.432 10.179 30.152 10.406 30.774 10.644 C 32.957 11.466 33.962 12.372 33.962 12.906 C 33.962 13.408 33.079 14.234 31.171 15.015 C 30.514 15.28 29.843 15.506 29.16 15.694 Z"
    fill="currentColor">
  </path>
</svg>
