<svg xmlns="http://www.w3.org/2000/svg" fill="none" viewBox="0 0 42 42">
  <path d="M40.997 20.998c0 2.285-6.527 3.25-7.352 5.237-.853 2.06 3.047 7.353 1.494 8.906-1.55 1.55-6.845-2.35-8.904-1.493C24.25 34.471 23.282 41 20.998 41c-2.283 0-3.249-6.528-5.236-7.352-1.987-.826-7.351 3.046-8.904 1.493-1.553-1.553 2.35-6.846 1.493-8.905C7.527 24.25 1 23.282 1 20.997c0-2.284 6.527-3.25 7.351-5.237.825-1.987-3.046-7.352-1.493-8.905 1.553-1.553 6.845 2.35 8.904 1.493C17.752 7.528 18.718 1 21.002 1c2.283 0 3.249 6.528 5.236 7.353 1.987.824 7.351-3.047 8.904-1.494 1.553 1.553-2.35 6.846-1.493 8.905C34.473 17.75 41 18.718 41 21.003l-.003-.004z" stroke="#304849" stroke-width="1.5"/>
  <path d="M33.43 20.998c0 1.528-2.559 2.535-3.109 3.86-.572 1.374.506 3.893-.531 4.93-1.037 1.038-3.552-.04-4.93.532-1.378.571-2.334 3.109-3.858 3.109-1.525 0-2.534-2.56-3.859-3.11-1.325-.55-3.893.507-4.93-.53-1.037-1.038.04-3.554-.531-4.931-.572-1.378-3.109-2.335-3.109-3.86 0-1.524 2.559-2.534 3.109-3.859.55-1.324-.506-3.893.53-4.93 1.038-1.038 3.553.04 4.931-.532 1.378-.572 2.334-3.109 3.858-3.109 1.525 0 2.534 2.56 3.859 3.11 1.325.55 3.893-.507 4.93.53 1.037 1.038-.04 3.553.531 4.931.572 1.378 3.109 2.335 3.109 3.86v0z" stroke="#304849" stroke-width="1.5"/>
  <path d="M27.953 20.998a6.93 6.93 0 01-2.037 4.919 6.975 6.975 0 01-2.256 1.51 6.801 6.801 0 01-2.662.527 6.926 6.926 0 01-4.917-2.037 6.98 6.98 0 01-1.51-2.256 6.805 6.805 0 01-.527-2.663 6.93 6.93 0 012.037-4.918 6.977 6.977 0 012.256-1.51 6.8 6.8 0 012.661-.527 6.926 6.926 0 014.918 2.037 6.978 6.978 0 011.51 2.256c.352.85.527 1.719.527 2.662z" stroke="#304849" stroke-width="1.5"/>
</svg>
