<?xml version="1.0" encoding="iso-8859-1"?>
<!-- Generator: Adobe Illustrator 19.0.0, SVG Export Plug-In . SVG Version: 6.00 Build 0)  -->
<svg version="1.1" id="Layer_1" xmlns="http://www.w3.org/2000/svg" xmlns:xlink="http://www.w3.org/1999/xlink" x="0px" y="0px"
	 viewBox="0 0 330 330" style="enable-background:new 0 0 330 330;" xml:space="preserve">
<g>
	<path style="fill:#C0C0C0;" d="M231.666,64.444h-1.044C207.291,29.969,168.018,8.889,126.111,8.889C56.573,8.889,0,65.462,0,135v60
		c0,69.538,56.573,126.111,126.111,126.111h105.555c54.222,0,98.334-44.112,98.334-98.334v-60
		C330,108.557,285.888,64.444,231.666,64.444z"/>
	<path style="fill:#FFFFFF;" d="M126.111,90c-24.813,0-45,20.188-45,45c0,2.091,0.155,4.145,0.433,6.161
		C84.558,163.068,103.389,180,126.111,180c19.837,0,36.705-12.907,42.678-30.761c1.498-4.479,2.322-9.263,2.322-14.239
		C171.111,110.188,150.925,90,126.111,90z M126.111,150c-4.806,0-9.08-2.281-11.827-5.807c-1.98-2.543-3.173-5.729-3.173-9.193
		c0-8.271,6.729-15,15-15s15,6.729,15,15c0,4.459-1.966,8.458-5.065,11.208C133.398,148.559,129.924,150,126.111,150z"/>
	<path style="fill:#D7143A;" d="M126.111,120c-8.271,0-15,6.729-15,15c0,3.465,1.192,6.65,3.173,9.193
		c2.747,3.525,7.021,5.807,11.827,5.807c3.813,0,7.286-1.441,9.935-3.792c3.1-2.75,5.065-6.749,5.065-11.208
		C141.111,126.729,134.383,120,126.111,120z"/>
	<path style="fill:#D7143A;" d="M231.666,94.444h-9.336c-5.354,0-10.303-2.854-12.983-7.488
		c-17.153-29.65-49.048-48.067-83.235-48.067C73.115,38.889,30,82.004,30,135c0,0.465,0.011,0.928,0.018,1.391
		c0.747,52.357,43.563,94.721,96.094,94.721h105.555c37.68,0,68.334-30.654,68.334-68.334c0-0.467-0.026-0.928-0.035-1.393
		C299.218,124.349,268.879,94.444,231.666,94.444z M126.111,180c-22.723,0-41.554-16.932-44.567-38.839
		c-0.277-2.016-0.433-4.07-0.433-6.161c0-24.813,20.187-45,45-45c24.814,0,45,20.188,45,45c0,4.977-0.824,9.761-2.322,14.239
		C162.816,167.093,145.948,180,126.111,180z"/>
</g>
<g>
</g>
<g>
</g>
<g>
</g>
<g>
</g>
<g>
</g>
<g>
</g>
<g>
</g>
<g>
</g>
<g>
</g>
<g>
</g>
<g>
</g>
<g>
</g>
<g>
</g>
<g>
</g>
<g>
</g>
</svg>
