<svg width="197" height="197" viewBox="0 0 197 197" fill="none" xmlns="http://www.w3.org/2000/svg">
<path d="M93.9375 2.59808C96.7221 0.99038 100.153 0.990381 102.938 2.59808L179.187 46.6207C181.971 48.2284 183.687 51.1995 183.687 54.4149V142.46C183.687 145.675 181.971 148.647 179.187 150.254L102.938 194.277C100.153 195.885 96.7221 195.885 93.9375 194.277L17.6881 150.254C14.9035 148.647 13.1881 145.675 13.1881 142.46V54.4149C13.1881 51.1995 14.9035 48.2284 17.6881 46.6207L93.9375 2.59808Z" fill="#93FBED"/>
<path d="M93.9375 16.6606C96.7221 15.0529 100.153 15.0529 102.938 16.6606L167.008 53.6519C169.793 55.2596 171.508 58.2308 171.508 61.4462V135.429C171.508 138.644 169.793 141.615 167.008 143.223L102.938 180.214C100.153 181.822 96.7221 181.822 93.9375 180.214L29.8666 143.223C27.082 141.615 25.3666 138.644 25.3666 135.429V61.4461C25.3666 58.2308 27.082 55.2596 29.8666 53.6519L93.9375 16.6606Z" fill="#FFDEB5" stroke="black" stroke-width="1.40625"/>
<rect x="37.9602" y="98.4375" width="85.5218" height="85.5218" rx="42.7609" transform="rotate(-45 37.9602 98.4375)" fill="#FFDEB5" stroke="black" stroke-width="1.40625"/>
<path fill-rule="evenodd" clip-rule="evenodd" d="M108.206 73.125C108.206 71.261 106.695 69.75 104.831 69.75H92.3251C90.4611 69.75 88.9501 71.261 88.9501 73.125V85.575C88.9501 87.439 87.439 88.95 85.5751 88.95H73.125C71.261 88.95 69.75 90.4611 69.75 92.3251V104.831C69.75 106.695 71.261 108.206 73.125 108.206H85.5751C87.4391 108.206 88.9501 109.717 88.9501 111.581V124.031C88.9501 125.895 90.4611 127.406 92.3251 127.406H104.831C106.695 127.406 108.206 125.895 108.206 124.031V111.581C108.206 109.717 109.717 108.206 111.581 108.206H124.031C125.895 108.206 127.406 106.695 127.406 104.831V92.3251C127.406 90.4611 125.895 88.9501 124.031 88.9501H111.581C109.717 88.9501 108.206 87.439 108.206 85.5751V73.125Z" fill="#FF684B"/>
<path d="M92.3251 70.4531H104.831V69.0469H92.3251V70.4531ZM89.6532 85.575V73.125H88.247V85.575H89.6532ZM73.125 89.6532H85.5751V88.2469H73.125V89.6532ZM70.4531 104.831V92.3251H69.0469V104.831H70.4531ZM85.5751 107.503H73.125V108.909H85.5751V107.503ZM89.6532 124.031V111.581H88.247V124.031H89.6532ZM104.831 126.703H92.3251V128.109H104.831V126.703ZM107.503 111.581V124.031H108.909V111.581H107.503ZM124.031 107.503H111.581V108.909H124.031V107.503ZM126.703 92.3251V104.831H128.109V92.3251H126.703ZM111.581 89.6532H124.031V88.2469H111.581V89.6532ZM107.503 73.125V85.5751H108.909V73.125H107.503ZM111.581 88.2469C110.106 88.2469 108.909 87.0507 108.909 85.5751H107.503C107.503 87.8273 109.329 89.6532 111.581 89.6532V88.2469ZM128.109 92.3251C128.109 90.0728 126.284 88.2469 124.031 88.2469V89.6532C125.507 89.6532 126.703 90.8494 126.703 92.3251H128.109ZM124.031 108.909C126.284 108.909 128.109 107.083 128.109 104.831H126.703C126.703 106.307 125.507 107.503 124.031 107.503V108.909ZM108.909 111.581C108.909 110.105 110.106 108.909 111.581 108.909V107.503C109.329 107.503 107.503 109.329 107.503 111.581H108.909ZM104.831 128.109C107.083 128.109 108.909 126.284 108.909 124.031H107.503C107.503 125.507 106.307 126.703 104.831 126.703V128.109ZM88.247 124.031C88.247 126.284 90.0728 128.109 92.3251 128.109V126.703C90.8495 126.703 89.6532 125.507 89.6532 124.031H88.247ZM85.5751 108.909C87.0507 108.909 88.247 110.105 88.247 111.581H89.6532C89.6532 109.329 87.8274 107.503 85.5751 107.503V108.909ZM69.0469 104.831C69.0469 107.083 70.8727 108.909 73.125 108.909V107.503C71.6494 107.503 70.4531 106.307 70.4531 104.831H69.0469ZM73.125 88.2469C70.8727 88.2469 69.0469 90.0728 69.0469 92.3251H70.4531C70.4531 90.8494 71.6494 89.6532 73.125 89.6532V88.2469ZM88.247 85.575C88.247 87.0507 87.0507 88.2469 85.5751 88.2469V89.6532C87.8274 89.6532 89.6532 87.8273 89.6532 85.575H88.247ZM104.831 70.4531C106.307 70.4531 107.503 71.6494 107.503 73.125H108.909C108.909 70.8727 107.083 69.0469 104.831 69.0469V70.4531ZM92.3251 69.0469C90.0728 69.0469 88.247 70.8727 88.247 73.125H89.6532C89.6532 71.6494 90.8495 70.4531 92.3251 70.4531V69.0469Z" fill="black"/>
<path d="M97.7206 74.7056C98.1536 73.9556 99.2362 73.9556 99.6692 74.7056L103.583 81.4846C104.016 82.2346 103.475 83.1721 102.609 83.1721H94.781C93.915 83.1721 93.3737 82.2346 93.8067 81.4846L97.7206 74.7056Z" fill="#FFDEB5" stroke="black" stroke-width="1.40625"/>
<path d="M99.6648 122.954C99.23 123.694 98.1597 123.694 97.7248 122.954L93.8281 116.321C93.3875 115.571 93.9283 114.626 94.7981 114.626L102.592 114.626C103.461 114.626 104.002 115.571 103.562 116.321L99.6648 122.954Z" fill="#FFDEB5" stroke="black" stroke-width="1.40625"/>
<path d="M122.918 97.9538C123.668 98.3868 123.668 99.4693 122.918 99.9023L116.139 103.816C115.389 104.249 114.451 103.708 114.451 102.842L114.451 95.0142C114.451 94.1481 115.389 93.6069 116.139 94.0399L122.918 97.9538Z" fill="#FFDEB5" stroke="black" stroke-width="1.40625"/>
<path d="M74.6691 99.8984C73.9289 99.4635 73.9289 98.3932 74.6691 97.9584L81.3021 94.0617C82.052 93.6211 82.9969 94.1618 82.9969 95.0316L82.9969 102.825C82.9969 103.695 82.052 104.236 81.3021 103.795L74.6691 99.8984Z" fill="#FFDEB5" stroke="black" stroke-width="1.40625"/>
<path d="M98.2969 40.2188V61.6991" stroke="black" stroke-width="1.6875"/>
<path d="M98.297 135.457V156.937" stroke="black" stroke-width="1.6875"/>
<path d="M156.656 98.5781L135.176 98.5781" stroke="black" stroke-width="1.6875"/>
<path d="M61.4178 98.5781L39.9375 98.5781" stroke="black" stroke-width="1.6875"/>
<rect x="25.304" y="98.4375" width="103.42" height="103.42" rx="51.7102" transform="rotate(-45 25.304 98.4375)" stroke="black" stroke-width="1.40625"/>
<path d="M98.4375 90V107.156" stroke="black" stroke-width="1.6875"/>
<path d="M107.016 98.5781L89.8594 98.5781" stroke="black" stroke-width="1.6875"/>
</svg>
