<svg width="198" height="197" viewBox="0 0 198 197" fill="none" xmlns="http://www.w3.org/2000/svg">
<path d="M94.8125 2.59808C97.5971 0.99038 101.028 0.990381 103.812 2.59808L180.062 46.6207C182.846 48.2284 184.562 51.1995 184.562 54.4149V142.46C184.562 145.675 182.846 148.647 180.062 150.254L103.812 194.277C101.028 195.885 97.5971 195.885 94.8125 194.277L18.5631 150.254C15.7785 148.647 14.0631 145.675 14.0631 142.46V54.4149C14.0631 51.1995 15.7785 48.2284 18.5631 46.6207L94.8125 2.59808Z" fill="#93FBED"/>
<path d="M94.8125 16.6606C97.5971 15.0529 101.028 15.0529 103.812 16.6606L167.883 53.6519C170.668 55.2596 172.383 58.2308 172.383 61.4462V135.429C172.383 138.644 170.668 141.615 167.883 143.223L103.812 180.214C101.028 181.822 97.5971 181.822 94.8125 180.214L30.7416 143.223C27.957 141.615 26.2416 138.644 26.2416 135.429V61.4461C26.2416 58.2308 27.957 55.2596 30.7416 53.6519L94.8125 16.6606Z" fill="#FFDEB5" stroke="black" stroke-width="1.40625"/>
<path d="M142.344 100.282V75.8131C142.344 72.565 140.614 69.5667 137.808 67.95L103.947 48.4515C101.165 46.8495 97.7438 46.8495 94.9621 48.4515L61.0986 67.9524C58.2925 69.5692 56.5625 72.5674 56.5625 75.8155V100.284C56.5625 120.192 66.7108 138.713 83.4596 149.371L98.4075 158.883C99.0444 159.289 99.8594 159.289 100.499 158.883L115.447 149.371C132.195 138.713 142.344 120.192 142.344 100.284V100.282Z" fill="#FF684B" stroke="black" stroke-width="1.40625" stroke-miterlimit="10"/>
<path d="M132.466 65.1701C132.728 64.9639 133.067 65.3034 132.861 65.5651L107.099 98.2634C107.019 98.3655 107.019 98.5095 107.099 98.6116L132.861 131.31C133.067 131.572 132.728 131.911 132.466 131.705L99.7678 105.943C99.6657 105.862 99.5218 105.862 99.4197 105.943L66.7213 131.705C66.4596 131.911 66.1202 131.572 66.3263 131.31L92.0883 98.6116C92.1688 98.5095 92.1688 98.3655 92.0883 98.2634L66.3263 65.5651C66.1202 65.3034 66.4596 64.9639 66.7213 65.1701L99.4197 90.9321C99.5218 91.0125 99.6657 91.0125 99.7678 90.9321L132.466 65.1701Z" fill="#FFEEDA" stroke="black" stroke-width="1.40625"/>
<path d="M98.1486 25.3049C98.2531 23.9175 100.288 23.9176 100.392 25.3049L104.87 84.7675C105.197 89.1126 108.59 92.5992 112.924 93.0446L154.515 97.3184C155.862 97.4568 155.862 99.4182 154.515 99.5566L135.421 101.519L112.924 103.83C108.59 104.276 105.197 107.762 104.87 112.108L100.392 171.57C100.288 172.957 98.2531 172.957 98.1486 171.57L93.6709 112.103C93.3439 107.76 89.954 104.274 85.6219 103.826L44.3237 99.5565C42.978 99.4174 42.978 97.4576 44.3237 97.3185L85.6219 93.0488C89.954 92.6009 93.3439 89.1152 93.6709 84.7722L98.1486 25.3049Z" fill="#FFEEDA" stroke="black" stroke-width="1.40625"/>
</svg>
