<svg width="922" height="542" viewBox="0 0 922 542" fill="none" xmlns="http://www.w3.org/2000/svg">
<rect width="922" height="542" fill="#0E0333"/>
<g clip-path="url(#clip0_2_35)">
<path opacity="0.4" d="M854.39 0.442749L723.005 127.772" stroke="#5932C4" stroke-width="24" stroke-miterlimit="10" stroke-linecap="round"/>
<path opacity="0.4" d="M737.211 398.908L665.548 466.658" stroke="#5932C4" stroke-width="24" stroke-miterlimit="10" stroke-linecap="round"/>
<path d="M775.558 216.378L798.741 193.912" stroke="#02E2AC" stroke-width="3" stroke-linecap="round" stroke-linejoin="round"/>
<path d="M527.018 331.042L510.742 346.821" stroke="#02E2AC" stroke-width="3" stroke-linecap="round" stroke-linejoin="round"/>
<path d="M540.434 320.561C541.11 320.561 541.657 320.031 541.657 319.376C541.657 318.721 541.11 318.19 540.434 318.19C539.758 318.19 539.21 318.721 539.21 319.376C539.21 320.031 539.758 320.561 540.434 320.561Z" fill="#02E2AC"/>
<path d="M559.226 61.6231L530.579 89.2821" stroke="#F3587D" stroke-width="3" stroke-linecap="round" stroke-linejoin="round"/>
<path d="M621.917 128.169C623.074 129.291 624.448 130.181 625.96 130.788C627.472 131.395 629.093 131.707 630.729 131.707C632.366 131.707 633.987 131.395 635.498 130.788C637.011 130.181 638.385 129.291 639.542 128.169C640.699 127.048 641.617 125.717 642.244 124.251C642.87 122.786 643.192 121.215 643.192 119.63C643.192 118.044 642.87 116.473 642.244 115.008C641.617 113.542 640.699 112.211 639.542 111.09" stroke="#02E2AC" stroke-width="3" stroke-linecap="round" stroke-linejoin="round"/>
<path d="M642.305 124.125C646.967 127.91 649.654 131.536 648.599 133.044C647.247 134.981 640.23 132.671 632.921 127.882C625.612 123.092 620.786 117.635 622.138 115.698" stroke="#02E2AC" stroke-width="3" stroke-linecap="round" stroke-linejoin="round"/>
<path d="M613.562 21.454L608.782 26.0866L613.562 30.7191L618.343 26.0866L613.562 21.454Z" fill="#02E2AC"/>
<path d="M606.085 31.0518L603.771 33.2939L606.085 35.5359L608.398 33.2939L606.085 31.0518Z" fill="#02E2AC"/>
<path d="M751.006 167.844L748.692 170.086L751.006 172.328L753.319 170.086L751.006 167.844Z" fill="#02E2AC"/>
<path d="M711.052 44.7407L706.849 48.8128L711.052 52.8848L715.253 48.8128L711.052 44.7407Z" fill="#F3587D"/>
<path d="M837.458 211.581C838.133 211.581 838.681 211.05 838.681 210.395C838.681 209.74 838.133 209.21 837.458 209.21C836.782 209.21 836.234 209.74 836.234 210.395C836.234 211.05 836.782 211.581 837.458 211.581Z" fill="#F3587D"/>
<path d="M882.613 101.426C883.289 101.426 883.837 100.896 883.837 100.241C883.837 99.5857 883.289 99.055 882.613 99.055C881.938 99.055 881.39 99.5857 881.39 100.241C881.39 100.896 881.938 101.426 882.613 101.426Z" fill="#F3587D"/>
<path d="M774.53 162.686C775.206 162.686 775.754 162.155 775.754 161.5C775.754 160.845 775.206 160.315 774.53 160.315C773.854 160.315 773.307 160.845 773.307 161.5C773.307 162.155 773.854 162.686 774.53 162.686Z" fill="#F3587D"/>
<path d="M876.855 314.295L869.605 321.328" stroke="#02E2AC" stroke-width="3" stroke-linecap="round" stroke-linejoin="round"/>
<path d="M815.191 115.498H749.124C747.946 115.499 746.779 115.275 745.69 114.838C744.601 114.402 743.611 113.762 742.778 112.954C741.944 112.147 741.283 111.188 740.832 110.134C740.38 109.079 740.148 107.948 740.148 106.806C740.148 104.499 741.094 102.286 742.777 100.654C744.461 99.0228 746.744 98.1065 749.124 98.1065H845.763C848.144 98.1065 850.427 97.1902 852.11 95.5585C853.794 93.9275 854.74 91.7143 854.74 89.4074C854.733 87.105 853.784 84.8992 852.101 83.2738C850.418 81.6483 848.139 80.7354 845.763 80.7354H794.336" stroke="#02E2AC" stroke-width="3" stroke-linecap="round" stroke-linejoin="round"/>
<path d="M544.789 86.3813L521.276 109.168" stroke="#F3587D" stroke-width="3" stroke-linecap="round" stroke-linejoin="round"/>
<path d="M546.456 402.157H552.783L525 429.074" stroke="#F3587D" stroke-width="3" stroke-linecap="round" stroke-linejoin="round"/>
<path d="M569.89 369L535.675 402.157H541.024" stroke="#F3587D" stroke-width="3" stroke-linecap="round" stroke-linejoin="round"/>
<path d="M696.063 496.833L648.049 542" stroke="#F3587D" stroke-width="3" stroke-linecap="round" stroke-linejoin="round"/>
<path d="M623.808 210.477C624.484 210.477 625.031 209.945 625.031 209.291C625.031 208.636 624.484 208.105 623.808 208.105C623.132 208.105 622.585 208.636 622.585 209.291C622.585 209.945 623.132 210.477 623.808 210.477Z" fill="#02E2AC"/>
<path d="M490.335 218.042C490.335 216.129 491.119 214.295 492.515 212.942C493.911 211.59 495.804 210.83 497.778 210.83L499.145 210.945C499.346 209.11 500.264 207.42 501.711 206.221C503.158 205.023 505.025 204.407 506.926 204.502C508.827 204.595 510.619 205.392 511.932 206.727C513.246 208.063 513.982 209.834 513.988 211.679L515.173 210.147C516.219 209.148 517.548 208.472 518.991 208.203C520.434 207.934 521.927 208.086 523.281 208.638C524.635 209.191 525.791 210.119 526.601 211.306C527.412 212.494 527.842 213.887 527.837 215.311" stroke="#F3587D" stroke-width="3" stroke-linejoin="round"/>
<path d="M776.029 440.559C776.029 438.654 776.809 436.828 778.199 435.481C779.59 434.134 781.474 433.377 783.44 433.377L784.802 433.491C784.988 431.653 785.897 429.955 787.341 428.75C788.785 427.544 790.652 426.924 792.556 427.019C794.459 427.112 796.252 427.914 797.561 429.255C798.872 430.597 799.598 432.376 799.589 434.223L800.769 432.697C801.811 431.702 803.134 431.028 804.571 430.761C806.008 430.494 807.495 430.644 808.843 431.194C810.192 431.744 811.343 432.668 812.15 433.851C812.957 435.033 813.385 436.421 813.38 437.839" stroke="#02E2AC" stroke-width="3" stroke-linejoin="round"/>
<path d="M598.528 414.969C598.528 413.693 599.051 412.471 599.981 411.569C600.912 410.667 602.174 410.161 603.489 410.161L604.405 410.237C604.539 409.014 605.151 407.887 606.116 407.088C607.081 406.289 608.325 405.879 609.592 405.942C610.86 406.004 612.054 406.536 612.93 407.425C613.806 408.316 614.297 409.497 614.301 410.727L615.09 409.706C615.788 409.04 616.674 408.588 617.636 408.409C618.598 408.23 619.593 408.332 620.496 408.7C621.398 409.068 622.169 409.687 622.709 410.478C623.25 411.27 623.537 412.199 623.533 413.148" stroke="#F3587D" stroke-width="3" stroke-linejoin="round"/>
<path d="M852.23 223.728L868.761 207.709" stroke="#F3587D" stroke-width="3" stroke-linejoin="round"/>
<path d="M587.847 488.78C588.523 488.78 589.07 488.249 589.07 487.594C589.07 486.94 588.523 486.409 587.847 486.409C587.171 486.409 586.623 486.94 586.623 487.594C586.623 488.249 587.171 488.78 587.847 488.78Z" fill="#02E2AC"/>
<path d="M569.757 481.68L567.854 483.524L569.757 485.369L571.66 483.524L569.757 481.68Z" fill="#02E2AC"/>
<path d="M560.574 473.748L559.664 474.629L560.574 475.51L561.484 474.629L560.574 473.748Z" fill="#02E2AC"/>
<path d="M569.572 468.211C570.329 468.211 570.942 467.617 570.942 466.883C570.942 466.15 570.329 465.555 569.572 465.555C568.815 465.555 568.202 466.15 568.202 466.883C568.202 467.617 568.815 468.211 569.572 468.211Z" fill="#02E2AC"/>
<path d="M622.905 417.566C623.581 417.566 624.128 417.035 624.128 416.38C624.128 415.726 623.581 415.195 622.905 415.195C622.229 415.195 621.682 415.726 621.682 416.38C621.682 417.035 622.229 417.566 622.905 417.566Z" fill="#F3587D"/>
</g>
<defs>
<clipPath id="clip0_2_35">
<rect width="395" height="542" fill="white" transform="translate(489)"/>
</clipPath>
</defs>
</svg>
