<svg id="Layer_1" data-name="Layer 1" xmlns="http://www.w3.org/2000/svg" viewBox="0 0 381.55 486.4"><defs><style>.cls-1{fill:#00501e}.cls-3{fill:none;stroke:#00501e;stroke-linejoin:round;stroke-width:8px}</style></defs><path class="cls-1" d="M43.92 442.48v-92.67H55v82.61h48.38v10.06zM114.72 442.48v-92.67h57.06v10.06h-45.94v31h37.23v10.06h-37.23v31.51h46.6v10.06zM183.73 442.48v-92.67h23.58l32.3 85.66h3.72v-85.66h11v92.67h-23.59l-32.17-85.78h-3.85v85.78zM300.92 444.33a43.49 43.49 0 01-18-3.57A28.05 28.05 0 01270.41 430q-4.56-7.22-4.57-18.07v-2.78h11v2.78q0 11.52 6.75 17.14t17.34 5.63q10.86 0 16.55-4.9a15.55 15.55 0 005.7-12.31 12.24 12.24 0 00-2.59-8.21 18.5 18.5 0 00-7.21-5 70.43 70.43 0 00-10.86-3.38l-6.88-1.72a77 77 0 01-14.3-5.16 25.13 25.13 0 01-9.73-8q-3.51-5-3.51-12.78a23.25 23.25 0 013.91-13.5A24.8 24.8 0 01283 351a41.08 41.08 0 0116.35-3 42.1 42.1 0 0116.88 3.24 27 27 0 0111.77 9.49q4.29 6.3 4.3 15.82v5.56h-11v-5.56q0-6.75-2.84-10.85a16.85 16.85 0 00-7.82-6.09 30.1 30.1 0 00-11.31-2q-9.13 0-14.7 4t-5.56 11.45a12.53 12.53 0 002.38 7.94 17 17 0 006.76 5 61 61 0 0010.45 3.37l6.89 1.73a67.5 67.5 0 0114.49 4.7 26.45 26.45 0 0110.26 8.07q3.84 5.1 3.84 13.31a25 25 0 01-4.1 14.29 27 27 0 01-11.57 9.53 42.37 42.37 0 01-17.55 3.33z"/><path d="M241.5 101.77c-1.06 1.06-2.06 2.14-3.08 3.21 0-1.48.09-3 .09-4.45s0-3.08-.07-4.6c-1.74-63.12-96.88-63.12-98.62 0 0 1.52-.06 3-.06 4.6s.05 3 .09 4.45c-1-1.07-2-2.15-3.09-3.21s-2.19-2.16-3.29-3.21C87.6 55.16 20.33 122.43 63.73 168.3q1.58 1.65 3.21 3.29C119.31 224 189.13 224 189.13 224s69.83 0 122.2-52.37q1.64-1.64 3.21-3.29c43.4-45.87-23.87-113.14-69.74-69.74q-1.66 1.54-3.3 3.17z" stroke-miterlimit="10" stroke-width="11" fill="none" stroke="#00501e"/><path class="cls-3" d="M118.4 171.2c0-14.14 13.36-25.61 29.84-25.61s29.84 11.47 29.84 25.61"/><circle class="cls-1" cx="157.44" cy="159.86" r="11.51"/><path class="cls-3" d="M200.46 171.2c0-14.14 13.36-25.61 29.84-25.61s29.84 11.47 29.84 25.61"/><circle class="cls-1" cx="239.51" cy="159.86" r="11.51"/><path class="cls-3" d="M207.84 186.35c-3.3 6.05-10.44 10.26-18.74 10.26s-15.44-4.21-18.74-10.26"/><path class="cls-1" d="M332.1 310.44a99.88 99.88 0 01-63.39 6.61 98.15 98.15 0 01-52.59-31.15c1.36 1 2.76 1.85 4.19 2.72a74.1 74.1 0 0038.28 10.76 73.21 73.21 0 0034.29-8.57c.76-.4 1.53-.82 2.29-1.25l-5.44-9.56-2 1.09a62.31 62.31 0 01-61.75-1.9A64 64 0 01194.73 224v-4.24h-11.1V224a63.94 63.94 0 01-31.25 55.17 62.31 62.31 0 01-61.75 1.9l-2-1.09-5.44 9.56c.76.43 1.52.85 2.29 1.25a73.21 73.21 0 0034.29 8.57 74 74 0 0038.27-10.76c1.44-.87 2.84-1.77 4.2-2.72a98.19 98.19 0 01-52.59 31.15 99.87 99.87 0 01-63.39-6.61L40.74 320a111 111 0 0071.34 7.78A109.26 109.26 0 00174 289.06a93.38 93.38 0 009.66-14.78v56.2h11v-56.39a94.47 94.47 0 009.76 15 109.28 109.28 0 0061.9 38.73 111 111 0 0071.31-7.82z"/></svg>