<?xml version="1.0" encoding="utf-8"?>
<!-- Generator: Adobe Illustrator 26.0.2, SVG Export Plug-In . SVG Version: 6.00 Build 0)  -->
<svg version="1.1" id="Layer_1" xmlns="http://www.w3.org/2000/svg" xmlns:xlink="http://www.w3.org/1999/xlink" x="0px" y="0px"
	 viewBox="0 0 381.55 486.4" style="enable-background:new 0 0 381.55 486.4;" xml:space="preserve">
<style type="text/css">
	.st0{fill:#ABFE2C;}
	.st1{fill:#00501E;}
	.st2{fill:none;stroke:#231F20;stroke-linecap:round;stroke-linejoin:round;stroke-miterlimit:10;}
	.st3{fill:#FFFFFF;}
</style>
<g>
	<path class="st3" d="M43.92,442.48v-92.67h11.12v82.61h48.39v10.06H43.92z"/>
	<path class="st3" d="M114.72,442.48v-92.67h57.06v10.06h-45.94v30.98h37.23v10.06h-37.23v31.51h46.6v10.06H114.72z"/>
	<path class="st3" d="M183.73,442.48v-92.67h23.58l32.3,85.65h3.72v-85.65h10.99v92.67h-23.58l-32.17-85.79h-3.85v85.79H183.73z"/>
	<path class="st3" d="M300.92,444.33c-6.71,0-12.71-1.19-18-3.57c-5.3-2.38-9.47-5.98-12.51-10.79c-3.04-4.81-4.57-10.83-4.57-18.07
		v-2.78h10.99v2.78c0,7.68,2.25,13.39,6.75,17.14c4.5,3.75,10.28,5.63,17.34,5.63c7.24,0,12.75-1.63,16.55-4.9
		c3.79-3.26,5.69-7.37,5.69-12.31c0-3.44-0.86-6.18-2.58-8.21c-1.72-2.03-4.13-3.68-7.22-4.96c-3.09-1.28-6.71-2.4-10.86-3.38
		l-6.88-1.72c-5.38-1.41-10.15-3.13-14.3-5.16c-4.15-2.03-7.39-4.7-9.73-8.01c-2.34-3.31-3.51-7.57-3.51-12.77
		c0-5.21,1.3-9.71,3.91-13.5c2.6-3.79,6.27-6.71,10.99-8.74c4.72-2.03,10.17-3.05,16.35-3.05c6.27,0,11.89,1.08,16.88,3.24
		c4.99,2.16,8.91,5.34,11.78,9.53c2.87,4.19,4.3,9.47,4.3,15.82v5.56h-10.99v-5.56c0-4.5-0.95-8.12-2.85-10.86
		c-1.9-2.73-4.5-4.77-7.81-6.09c-3.31-1.32-7.08-1.99-11.32-1.99c-6.09,0-10.99,1.35-14.69,4.04c-3.71,2.69-5.56,6.51-5.56,11.45
		c0,3.27,0.79,5.91,2.38,7.94c1.59,2.03,3.84,3.69,6.75,4.96c2.91,1.28,6.4,2.41,10.46,3.38l6.88,1.72
		c5.38,1.15,10.21,2.71,14.5,4.7c4.28,1.99,7.7,4.68,10.26,8.08c2.56,3.4,3.84,7.83,3.84,13.3c0,5.47-1.37,10.24-4.1,14.3
		c-2.74,4.06-6.6,7.22-11.58,9.47C313.48,443.21,307.63,444.33,300.92,444.33z"/>
</g>
<path class="st3" d="M189.23,229.46c-2.94,0-72.72-0.61-126.08-53.98c-1.13-1.13-2.23-2.26-3.31-3.41
	c-11.17-11.8-16.48-25.82-15.35-40.55c0.99-12.99,6.97-25.59,16.85-35.47c9.88-9.88,22.47-15.86,35.47-16.85
	c13.61-1.04,26.62,3.42,37.83,12.92c1.21-14.64,7.26-26.99,17.61-35.88c9.89-8.49,23.03-13.16,36.99-13.16s27.11,4.67,36.99,13.16
	c10.36,8.89,16.4,21.24,17.62,35.88c11.21-9.5,24.22-13.96,37.83-12.92c12.99,0.99,25.59,6.97,35.46,16.85
	c9.88,9.88,15.86,22.47,16.85,35.47c1.12,14.73-4.19,28.75-15.35,40.55c-1.08,1.14-2.19,2.28-3.31,3.41
	C261.95,228.85,192.18,229.46,189.23,229.46z M100.65,90.15c-12.1,0-23.46,5.62-31.54,13.7c-14.53,14.53-21.12,39.71-1.28,60.68
	c1.01,1.07,2.04,2.13,3.1,3.19c50.18,50.18,117.63,50.76,118.31,50.76c0.67,0,68.25-0.71,118.31-50.76c1.06-1.06,2.09-2.12,3.1-3.19
	c19.84-20.96,13.24-46.15-1.29-60.67c-14.53-14.53-39.71-21.12-60.67-1.29c-1.07,1.01-2.13,2.04-3.19,3.1
	c-0.82,0.82-1.6,1.65-2.38,2.48l-10.48,11.05l0.41-15.18c0.03-1.15,0.07-2.31,0.07-3.48c0-1.49-0.02-2.97-0.06-4.45
	c-0.8-28.85-23.27-42-43.81-42s-43.02,13.14-43.81,42c-0.04,1.47-0.06,2.95-0.06,4.45c0,1.14,0.03,2.27,0.06,3.39l0.4,15.27
	l-10.44-11.02c-0.79-0.84-1.59-1.68-2.41-2.51c-1.06-1.06-2.12-2.09-3.19-3.1C120.47,93.74,110.32,90.15,100.65,90.15z"/>
<path class="st3" d="M332.15,310.44c-19.67,9.04-42.14,11.4-63.4,6.62c-20.62-4.64-38.7-15.38-52.59-31.15
	c1.36,0.94,2.76,1.85,4.2,2.72c11.88,7.16,25.08,10.76,38.28,10.76c11.73,0,23.47-2.84,34.29-8.56c0.77-0.4,1.53-0.82,2.29-1.25
	l-5.44-9.56c-0.66,0.38-1.32,0.74-1.99,1.09c-19.55,10.33-42.63,9.63-61.75-1.89c-19.57-11.79-31.26-32.42-31.26-55.18v-4.24h-0.1
	h-10.9h-0.1v4.24c0,22.76-11.69,43.39-31.26,55.18c-19.12,11.52-42.2,12.23-61.75,1.89c-0.67-0.35-1.33-0.71-1.99-1.09l-5.44,9.56
	c0.76,0.43,1.52,0.85,2.29,1.25c10.82,5.72,22.55,8.56,34.29,8.56c13.2,0,26.39-3.6,38.28-10.76c1.44-0.86,2.84-1.77,4.2-2.72
	c-13.89,15.77-31.97,26.51-52.59,31.15c-21.26,4.79-43.73,2.43-63.4-6.62l-5.53,9.58c14.7,6.92,30.84,10.46,47.05,10.46
	c8.14,0,16.29-0.89,24.29-2.69c24.66-5.55,46.07-18.95,61.89-38.73c3.7-4.62,6.92-9.58,9.66-14.77v56.19h11v-56.38
	c2.77,5.26,6.02,10.29,9.76,14.96c15.83,19.78,37.23,33.17,61.89,38.73c8,1.8,16.15,2.69,24.29,2.69c16.21,0,32.35-3.54,47.05-10.46
	L332.15,310.44z"/>
<path class="st3" d="M182.08,171.2h-8c0-11.91-11.59-21.61-25.84-21.61c-14.25,0-25.84,9.69-25.84,21.61h-8
	c0-16.32,15.18-29.61,33.84-29.61C166.9,141.59,182.08,154.87,182.08,171.2z"/>
<circle class="st3" cx="157.44" cy="159.86" r="11.51"/>
<path class="st3" d="M264.14,171.2h-8c0-11.91-11.59-21.61-25.84-21.61c-14.25,0-25.84,9.69-25.84,21.61h-8
	c0-16.32,15.18-29.61,33.84-29.61C248.96,141.59,264.14,154.87,264.14,171.2z"/>
<circle class="st3" cx="239.51" cy="159.86" r="11.51"/>
<path class="st3" d="M189.1,200.61c-9.43,0-18.17-4.85-22.25-12.34l7.03-3.83c2.71,4.96,8.68,8.17,15.23,8.17
	c6.55,0,12.52-3.21,15.23-8.17l7.02,3.83C207.27,195.76,198.53,200.61,189.1,200.61z"/>
</svg>