<svg width="19" height="24" viewBox="0 0 19 24" fill="none" xmlns="http://www.w3.org/2000/svg">
<mask id="mask0_5409_1433" style="mask-type:alpha" maskUnits="userSpaceOnUse" x="0" y="0" width="19" height="24">
<path d="M16.7718 8.87731H15.7651V6.37065C15.7651 4.68105 15.0802 3.06065 13.8612 1.86592C12.6422 0.671192 10.9888 0 9.26478 0H9.01445C7.29046 0 5.63709 0.671192 4.41804 1.86592C3.199 3.06065 2.51414 4.68105 2.51414 6.37065V8.87731H1.6761C1.23157 8.87731 0.805246 9.05038 0.490917 9.35844C0.176588 9.6665 0 10.0843 0 10.52V22.3573C0 22.7929 0.176588 23.2108 0.490917 23.5188C0.805246 23.8269 1.23157 23.9999 1.6761 23.9999H16.7718C16.9931 24.0017 17.2125 23.9605 17.4174 23.8788C17.6224 23.797 17.8087 23.6763 17.9658 23.5236C18.1229 23.3708 18.2476 23.1892 18.3327 22.989C18.4177 22.7888 18.4615 22.5741 18.4615 22.3573V10.52C18.4615 10.3031 18.4177 10.0884 18.3327 9.88826C18.2476 9.68809 18.1229 9.50641 17.9658 9.3537C17.8087 9.20099 17.6224 9.08027 17.4174 8.99851C17.2125 8.91674 16.9931 8.87555 16.7718 8.87731ZM4.94666 7.06665C4.94666 5.97679 5.38842 4.93157 6.17475 4.16092C6.96108 3.39027 8.02758 2.95733 9.13962 2.95733C10.2517 2.95733 11.3182 3.39027 12.1045 4.16092C12.8908 4.93157 13.3326 5.97679 13.3326 7.06665V8.87731H4.94666V7.06665Z" fill="#6CB6AD"/>
</mask>
<g mask="url(#mask0_5409_1433)">
<rect width="18.2857" height="24" fill="#6CB6AD"/>
</g>
</svg>
