<svg xmlns:inkscape="http://www.inkscape.org/namespaces/inkscape" xmlns:sodipodi="http://sodipodi.sourceforge.net/DTD/sodipodi-0.dtd" xmlns="http://www.w3.org/2000/svg" xmlns:svg="http://www.w3.org/2000/svg" version="1.1" id="svg2" xml:space="preserve" sodipodi:docname="Merit Protocol icone.eps" viewBox="322 312.15 149.69 171.34"><defs id="defs6"/><sodipodi:namedview id="namedview4" pagecolor="#ffffff" bordercolor="#666666" borderopacity="1.0" inkscape:pageshadow="2" inkscape:pageopacity="0.0" inkscape:pagecheckerboard="0"/><g id="g8" inkscape:groupmode="layer" inkscape:label="ink_ext_XXXXXX" transform="matrix(1.3333333,0,0,-1.3333333,0,794.66667)"><g id="g10" transform="scale(0.1)"><path d="m 2976.38,3618.89 -561.36,-322.37 v -644.8 l 118.08,-67.8 v 644.77 l 440.76,256.02 80.38,-46.15 -5.83,-3.35 c -52.25,-30.01 -104.52,-60.02 -156.78,-90.03 -93.56,-53.73 -187.11,-107.46 -280.67,-161.19 0,-107.46 0,-214.93 0,-322.39 0,-60.03 0,-120.06 0,-180.1 0,-47.43 0,-94.87 0,-142.3 39.29,-22.54 78.77,-44.74 118.07,-67.27 0,214.01 0,428.02 0,642.02 v 2.21 l 1.93,1.13 c 145.63,84.59 291.26,169.17 436.89,253.78 l 1.94,1.13 80.38,-46.16 -443.28,-254.57 v -644.79 l 118.07,-67.8 v 644.76 l 558.17,324.23 -190.14,109.19 c -40.87,23.48 -81.75,46.95 -122.62,70.42 l -193.99,111.41" style="fill:#2491e6;fill-opacity:1;fill-rule:evenodd;stroke:none" id="path12"/><path d="m 3181.02,2858.21 v -186.65 l 159.94,91.84 v 187.72 l -159.94,-92.91" style="fill:#192b3c;fill-opacity:1;fill-rule:evenodd;stroke:none" id="path14"/><path d="m 2984.25,2333.87 118.07,67.81 v 500.69 l 317.34,184.33 v -367.17 l -238.64,-137.04 v -135.61 l 356.71,204.84 v 639.58 l -553.48,-321.51 v -635.92" style="fill:#192b3c;fill-opacity:1;fill-rule:evenodd;stroke:none" id="path16"/></g></g></svg>