<svg width="119" height="119" viewBox="0 0 119 119" fill="none" xmlns="http://www.w3.org/2000/svg">
<path d="M112.707 102.159L102.001 112.783C98.0519 116.696 92.7117 118.883 87.1519 118.865C81.592 118.847 76.2661 116.626 72.3418 112.687L57.3208 97.666C55.3756 95.7124 53.8379 93.3918 52.7971 90.839C51.7562 88.2861 51.233 85.5519 51.2578 82.7952C51.2712 79.9651 51.848 77.1661 52.9546 74.5613C54.0613 71.9566 55.6755 69.5983 57.7031 67.624L51.2578 61.1786C49.3141 63.1875 46.9906 64.7901 44.4222 65.8934C41.8539 66.9966 39.0919 67.5785 36.2967 67.6052C33.5016 67.6318 30.729 67.1028 28.14 66.0488C25.5511 64.9948 23.1974 63.4368 21.2157 61.4654L6.19473 46.3214C4.24715 44.3782 2.70199 42.0699 1.64772 39.5287C0.593451 36.9875 0.0507812 34.2633 0.0507812 31.5121C0.0507812 28.7609 0.593451 26.0367 1.64772 23.4955C2.70199 20.9543 4.24715 18.646 6.19473 16.7027L16.9006 6.0788C20.8563 2.18112 26.1946 0.00874136 31.7478 0.0368913C37.301 0.0650412 42.617 2.29143 46.533 6.22901L61.554 21.25C63.4976 23.1949 65.0365 25.5056 66.0818 28.0486C67.1272 30.5917 67.6582 33.3167 67.6443 36.0662C67.6309 38.8962 67.054 41.6953 65.9474 44.3C64.8408 46.9048 63.2266 49.2631 61.1989 51.2374L67.6443 57.6828C69.588 55.6739 71.9115 54.0713 74.4799 52.968C77.0482 51.8648 79.8102 51.2829 82.6053 51.2562C85.4005 51.2295 88.1731 51.7586 90.762 52.8126C93.351 53.8666 95.7047 55.4246 97.6863 57.396L112.707 72.5399C114.655 74.4832 116.2 76.7915 117.254 79.3327C118.309 81.8739 118.851 84.5981 118.851 87.3493C118.851 90.1005 118.309 92.8247 117.254 95.3659C116.2 97.9071 114.655 100.215 112.707 102.159ZM51.7084 31.1502L36.6874 16.1292C35.37 14.8293 33.5949 14.0986 31.7441 14.0946C29.9033 14.1034 28.1334 14.8055 26.7872 16.0609L16.0676 26.6576C15.4202 27.3021 14.9065 28.0682 14.556 28.9118C14.2055 29.7555 14.025 30.66 14.025 31.5735C14.025 32.4871 14.2055 33.3916 14.556 34.2353C14.9065 35.0789 15.4202 35.845 16.0676 36.4895L31.2115 51.5651C32.5358 52.8464 34.3123 53.5531 36.1548 53.5315C37.1428 53.5514 38.1233 53.3565 39.0287 52.9605C39.934 52.5644 40.7426 51.9765 41.3985 51.2374C38.9952 48.834 36.1548 46.7994 36.1548 43.0441C36.1548 41.1898 36.8914 39.4115 38.2026 38.1003C39.5138 36.7892 41.2921 36.0525 43.1464 36.0525C46.8607 36.0525 48.8954 38.8929 51.3397 41.2962C52.0632 40.6618 52.6494 39.8861 53.0623 39.0168C53.4751 38.1476 53.7059 37.2031 53.7405 36.2414C53.775 35.2797 53.6125 34.321 53.2631 33.4244C52.9136 32.5278 52.3846 31.712 51.7084 31.0273V31.1502ZM102.834 82.4401L87.6905 67.2962C86.3698 65.993 84.5891 65.262 82.7336 65.2616C81.7435 65.2576 80.7641 65.4665 79.8617 65.8741C78.9594 66.2817 78.1552 66.8785 77.5036 67.624C79.9069 70.0273 82.7472 72.062 82.7472 75.8172C82.7472 77.6715 82.0106 79.4499 80.6995 80.761C79.3883 82.0722 77.6099 82.8088 75.7557 82.8088C72.0414 82.8088 70.0067 79.9685 67.5624 77.5651C66.8388 78.1996 66.2526 78.9753 65.8398 79.8445C65.4269 80.7138 65.1961 81.6583 65.1616 82.62C65.1271 83.5817 65.2895 84.5403 65.639 85.437C65.9884 86.3336 66.5175 87.1493 67.1937 87.8341L82.2147 102.855C83.5423 104.14 85.3244 104.847 87.1716 104.821C88.9997 104.835 90.7653 104.157 92.1149 102.923L102.834 92.2038C103.482 91.5593 103.996 90.7932 104.346 89.9496C104.697 89.1059 104.877 88.2014 104.877 87.2878C104.877 86.3743 104.697 85.4697 104.346 84.6261C103.996 83.7825 103.482 83.0164 102.834 82.3719V82.4401Z" fill="white"/>
</svg>
