<svg width="34" height="35" viewBox="0 0 34 35" fill="none" xmlns="http://www.w3.org/2000/svg">
<path d="M17 34.3135C26.3888 34.3135 34 26.7023 34 17.3135C34 7.92464 26.3888 0.313477 17 0.313477C7.61116 0.313477 0 7.92464 0 17.3135C0 26.7023 7.61116 34.3135 17 34.3135Z" fill="white"/>
<path d="M12.0056 21.8241C10.9246 21.8241 10.039 21.5902 9.34862 21.1225C8.66731 20.6464 8.32666 19.9699 8.32666 19.0929C8.32666 18.9092 8.34939 18.6836 8.39478 18.4164C8.51293 17.815 8.68096 17.0925 8.89896 16.249C9.51665 13.9521 11.1109 12.8037 13.6817 12.8037C14.3811 12.8037 15.0079 12.9123 15.562 13.1294C16.1162 13.3382 16.5522 13.6556 16.8701 14.0816C17.188 14.4992 17.3471 15.0003 17.3471 15.585C17.3471 15.7604 17.3243 15.9817 17.2789 16.249C17.1426 16.9923 16.9791 17.7148 16.7883 18.4164C16.4704 19.5607 15.9208 20.4168 15.1396 20.9847C14.3584 21.5443 13.3138 21.8241 12.0056 21.8241ZM12.1964 20.02C12.7052 20.02 13.1366 19.8822 13.4909 19.6066C13.8543 19.331 14.1132 18.9092 14.2676 18.3413C14.4765 17.5561 14.6355 16.8712 14.7445 16.2866C14.7808 16.1112 14.799 15.9316 14.799 15.7478C14.799 14.9878 14.3675 14.6077 13.5046 14.6077C12.9958 14.6077 12.5598 14.7455 12.1964 15.0212C11.8422 15.2969 11.5878 15.7186 11.4334 16.2866C11.2699 16.8462 11.1063 17.5311 10.9429 18.3413C10.9065 18.5082 10.8883 18.6836 10.8883 18.8674C10.8883 19.6358 11.3244 20.02 12.1964 20.02Z" fill="black"/>
<path d="M17.6198 21.8241C17.5226 21.8241 17.4475 21.794 17.3945 21.7339C17.3503 21.6651 17.3371 21.5879 17.3547 21.502L19.1838 13.1259C19.2015 13.0314 19.2501 12.954 19.3296 12.8939C19.4091 12.8338 19.4931 12.8037 19.5814 12.8037H23.107C24.0878 12.8037 24.8742 13.0013 25.4662 13.3965C26.0672 13.7917 26.3676 14.3629 26.3676 15.1103C26.3676 15.3251 26.3411 15.5485 26.288 15.7804C26.0672 16.7684 25.6209 17.4986 24.9494 17.9711C24.2867 18.4436 23.3765 18.6798 22.219 18.6798H20.4297L19.82 21.502C19.8023 21.5965 19.7537 21.6737 19.6742 21.7339C19.5947 21.794 19.5107 21.8241 19.4224 21.8241H17.6198ZM22.3118 16.9015C22.6829 16.9015 23.0054 16.8027 23.2793 16.6051C23.5621 16.4076 23.7477 16.1241 23.836 15.7547C23.8625 15.6086 23.8758 15.4797 23.8758 15.3681C23.8758 15.1189 23.8007 14.9299 23.6505 14.8011C23.5002 14.6636 23.244 14.5949 22.8817 14.5949H21.2912L20.7876 16.9015H22.3118Z" fill="black"/>
</svg>
