<svg xmlns="http://www.w3.org/2000/svg" xmlns:xlink="http://www.w3.org/1999/xlink" viewBox="0 0 1080 1080"><defs><style>.a{fill:none;}.b{clip-path:url(#a);}.c{clip-path:url(#b);}.d{fill:#fff;}</style><clipPath id="a"><rect class="a" x="-1214.4917" y="-156.4739" width="1290.0579" height="709.2579"/></clipPath><clipPath id="b"><rect class="a" x="-125.4093" y="-156.4739" width="1290.0579" height="709.2579"/></clipPath></defs><g class="b"><circle class="a" cx="-551.0728" cy="397.1173" r="559.5279"/></g><g class="c"><path class="d" d="M1061.362,542.4544c0-291.0693-236.81-527.8575-527.8792-527.8575S5.6253,251.3851,5.6253,542.4544c0,148.5782,63.3539,291.1743,173.84,391.2435A19.6165,19.6165,0,1,0,205.7925,904.61C103.4951,811.9757,44.83,679.9923,44.83,542.4544c0-269.4489,219.2223-488.6531,488.6531-488.6531,269.4525,0,488.6748,219.2042,488.6748,488.6531s-219.2223,488.653-488.6748,488.653A488.4405,488.4405,0,0,1,303.9847,973.75a19.6224,19.6224,0,0,0-18.5079,34.6065,527.8353,527.8353,0,0,0,248.006,61.9589C824.5521,1070.3155,1061.362,833.5237,1061.362,542.4544Z"/><path class="d" d="M823.5267,803.8015a19.6043,19.6043,0,0,0,29.1207,26.2546,429.0569,429.0569,0,0,0,3.6632-571.0983,19.6054,19.6054,0,0,0-29.44,25.9,389.8316,389.8316,0,0,1-3.3443,518.9441Z"/><path class="d" d="M763.1077,179.2373a428.1294,428.1294,0,0,0-229.6249-66.5931c-237.002,0-429.81,192.8082-429.81,429.81s192.8082,429.81,429.81,429.81A428.1721,428.1721,0,0,0,758.81,908.3273a19.6,19.6,0,1,0-20.6276-33.3346,389.1367,389.1367,0,0,1-204.7,58.0674c-215.3816,0-390.6022-175.2242-390.6022-390.6057S318.1012,151.8486,533.4828,151.8486a388.696,388.696,0,0,1,208.61,60.51,19.6127,19.6127,0,0,0,21.0153-33.1209Z"/><path class="d" d="M533.4828,210.6951A332.41,332.41,0,0,0,326.9458,283.02a19.6009,19.6009,0,1,0,24.45,30.6425A289.15,289.15,0,0,1,533.4828,249.9c161.3179,0,292.5585,131.2406,292.5585,292.5549,0,161.2816-131.2406,292.5222-292.5585,292.5222-161.3142,0-292.5549-131.2406-292.5549-292.5222a290.7439,290.7439,0,0,1,50.618-164.289,19.6077,19.6077,0,0,0-32.4107-22.077,329.7874,329.7874,0,0,0-57.4117,186.366c0,182.9346,148.8246,331.7266,331.7593,331.7266,182.9383,0,331.7629-148.792,331.7629-331.7266S716.4211,210.6951,533.4828,210.6951Z"/><path class="d" d="M621.9971,758.7563A233.12,233.12,0,0,0,767.1948,542.4544c0-128.8674-104.841-233.712-233.712-233.712-128.8673,0-233.6939,104.8446-233.6939,233.712,0,117.548,87.8766,217.2584,204.4319,231.8713a18.8527,18.8527,0,0,0,2.46.1413,19.6075,19.6075,0,0,0,2.424-39.0631c-96.9711-12.1708-170.108-95.1124-170.108-192.95,0-107.2506,87.257-194.5076,194.4858-194.5076,107.2506,0,194.5076,87.257,194.5076,194.5076a194.0179,194.0179,0,0,1-120.8888,180,19.62,19.62,0,0,0,14.8955,36.3022Z"/><path class="d" d="M669.1294,542.4544c0-74.8-60.843-135.6611-135.6466-135.6611-74.7819,0-135.6248,60.8611-135.6248,135.6611,0,74.8036,60.8429,135.6284,135.6248,135.6284C608.2864,678.0828,669.1294,617.258,669.1294,542.4544Zm-135.6466,96.42a96.4386,96.4386,0,1,1,96.4422-96.42A96.5452,96.5452,0,0,1,533.4828,638.8748Z"/><circle class="d" cx="533.49" cy="542.4471" r="28.5989"/><circle class="a" cx="538.0096" cy="397.1173" r="559.5279"/></g><path class="d" d="M1063.0463,582.69c-29.6486,266.1678-255.3936,473.1417-529.4817,473.1417S33.7314,848.858,4.0832,582.69Z"/></svg>