<svg width="539" height="611" viewBox="0 0 539 611" fill="none" xmlns="http://www.w3.org/2000/svg">
<path d="M260.527 607.579L10.1142 464.361C4.47479 461.133 1 455.174 1 448.718V162.282C1 155.826 4.47479 149.867 10.1142 146.639L260.527 3.42083C266.166 0.193056 273.116 0.193056 278.755 3.42083L529.167 146.639C534.807 149.867 538.281 155.826 538.281 162.282V448.718C538.281 455.174 534.807 461.133 529.167 464.361L278.755 607.579C273.116 610.807 266.166 610.807 260.527 607.579ZM55.6851 438.301L260.527 555.461C266.166 558.688 273.116 558.688 278.755 555.461L483.596 438.301C489.236 435.074 492.711 429.115 492.711 422.659V188.352C492.711 181.896 489.236 175.938 483.596 172.71L278.755 55.5506C273.116 52.3228 266.166 52.3228 260.527 55.5506L55.6851 172.71C50.0457 175.938 46.5709 181.896 46.5709 188.352V422.659C46.5709 429.115 50.0457 435.074 55.6851 438.301Z" fill="url(#paint0_linear_8876_7975)"/>
<path d="M260.521 96.9933L91.9081 193.432C86.2687 196.659 82.794 202.618 82.794 209.074V391.522C82.794 404.422 89.7435 416.351 101.022 422.795L121.529 434.522C124.571 436.26 128.365 434.093 128.365 430.617V235.144C128.365 228.689 131.84 222.73 137.479 219.502L260.521 149.134C266.16 145.907 273.11 145.907 278.749 149.134L401.791 219.502C407.43 222.73 410.905 228.689 410.905 235.144V375.891C410.905 382.347 407.43 388.306 401.791 391.533L278.749 461.901C273.11 465.129 266.16 465.129 260.521 461.901L219.507 438.449C213.867 435.221 210.393 429.262 210.393 422.807V282.06C210.393 275.604 213.867 269.645 219.507 266.418L260.521 242.966C266.16 239.738 273.11 239.738 278.749 242.966L319.763 266.418C325.402 269.645 328.877 275.604 328.877 282.06V328.976C328.877 335.431 325.402 341.39 319.763 344.618L299.256 356.344C296.214 358.082 292.42 355.915 292.42 352.439V303.232C292.42 296.777 288.946 290.818 283.306 287.59L274.192 282.376C271.367 280.762 267.903 280.762 265.078 282.376L253.685 288.888C249.458 291.303 246.849 295.784 246.849 300.614V402.142C246.849 408.62 250.358 414.602 256.032 417.818L260.43 420.301C266.058 423.484 272.973 423.473 278.59 420.256L365.334 370.643C370.973 367.415 374.448 361.457 374.448 355.001V255.956C374.448 249.5 370.973 243.541 365.334 240.313L278.749 190.791C273.11 187.563 266.16 187.563 260.521 190.791L173.936 240.313C168.296 243.541 164.822 249.5 164.822 255.956V448.821C164.822 455.276 168.296 461.235 173.936 464.463L260.521 513.986C266.16 517.214 273.11 517.214 278.749 513.986L447.362 417.548C453.001 414.32 456.476 408.361 456.476 401.905V209.04C456.476 202.585 453.001 196.625 447.362 193.398L278.749 96.9595C273.11 93.7317 266.16 93.7317 260.521 96.9595V96.9933Z" fill="url(#paint1_linear_8876_7975)"/>
<path d="M260.527 607.579L260.775 607.145L260.775 607.145L260.527 607.579ZM10.1142 464.361L9.86582 464.795L9.86596 464.795L10.1142 464.361ZM10.1142 146.639L9.86596 146.205L9.86582 146.205L10.1142 146.639ZM260.527 3.42083L260.775 3.85486L260.775 3.85478L260.527 3.42083ZM278.755 3.42083L278.507 3.85478L278.507 3.85486L278.755 3.42083ZM529.167 146.639L529.416 146.205L529.416 146.205L529.167 146.639ZM529.167 464.361L529.416 464.795L529.416 464.795L529.167 464.361ZM278.755 607.579L278.507 607.145L278.507 607.145L278.755 607.579ZM55.6851 438.301L55.4368 438.735L55.4369 438.735L55.6851 438.301ZM260.527 555.461L260.775 555.027L260.775 555.027L260.527 555.461ZM278.755 555.461L278.507 555.027L278.507 555.027L278.755 555.461ZM483.596 438.301L483.845 438.735L483.845 438.735L483.596 438.301ZM483.596 172.71L483.845 172.276L483.845 172.276L483.596 172.71ZM278.755 55.5506L278.507 55.9845L278.507 55.9846L278.755 55.5506ZM260.527 55.5506L260.775 55.9846L260.775 55.9845L260.527 55.5506ZM55.6851 172.71L55.4369 172.276L55.4368 172.276L55.6851 172.71ZM260.521 96.9933L260.769 97.4274L261.021 97.2834V96.9933H260.521ZM91.9081 193.432L91.6599 192.998L91.6598 192.998L91.9081 193.432ZM101.022 422.795L101.271 422.361L101.27 422.361L101.022 422.795ZM121.529 434.522L121.281 434.956L121.281 434.956L121.529 434.522ZM137.479 219.502L137.231 219.068L137.231 219.068L137.479 219.502ZM260.521 149.134L260.769 149.568L260.769 149.568L260.521 149.134ZM278.749 149.134L278.501 149.568L278.501 149.568L278.749 149.134ZM401.791 219.502L402.039 219.068L402.039 219.068L401.791 219.502ZM401.791 391.533L402.039 391.967L402.039 391.967L401.791 391.533ZM278.749 461.901L278.501 461.467L278.501 461.467L278.749 461.901ZM260.521 461.901L260.769 461.467L260.769 461.467L260.521 461.901ZM219.507 438.449L219.258 438.883L219.259 438.883L219.507 438.449ZM219.507 266.418L219.259 265.984L219.258 265.984L219.507 266.418ZM260.521 242.966L260.769 243.4L260.769 243.399L260.521 242.966ZM278.749 242.966L278.501 243.399L278.501 243.4L278.749 242.966ZM319.763 266.418L320.011 265.984L320.011 265.984L319.763 266.418ZM319.763 344.618L320.011 345.052L320.011 345.052L319.763 344.618ZM299.256 356.344L299.504 356.778L299.504 356.778L299.256 356.344ZM283.306 287.59L283.555 287.156L283.554 287.156L283.306 287.59ZM274.192 282.376L274.44 281.942L274.44 281.942L274.192 282.376ZM265.078 282.376L264.83 281.942L264.83 281.942L265.078 282.376ZM253.685 288.888L253.933 289.322L253.933 289.322L253.685 288.888ZM256.032 417.818L255.785 418.253L255.786 418.254L256.032 417.818ZM260.43 420.301L260.676 419.866L260.675 419.866L260.43 420.301ZM278.59 420.256L278.341 419.822L278.341 419.822L278.59 420.256ZM365.334 370.643L365.582 371.077L365.582 371.077L365.334 370.643ZM365.334 240.313L365.582 239.879L365.582 239.879L365.334 240.313ZM278.749 190.791L278.501 191.225L278.501 191.225L278.749 190.791ZM260.521 190.791L260.769 191.225L260.769 191.225L260.521 190.791ZM173.936 240.313L173.688 239.879L173.687 239.879L173.936 240.313ZM173.936 464.463L173.687 464.897L173.688 464.897L173.936 464.463ZM260.521 513.986L260.769 513.552L260.769 513.552L260.521 513.986ZM278.749 513.986L278.501 513.552L278.501 513.552L278.749 513.986ZM447.362 417.548L447.61 417.982L447.61 417.982L447.362 417.548ZM447.362 193.398L447.61 192.964L447.61 192.964L447.362 193.398ZM278.749 96.9595L278.501 97.3934L278.501 97.3935L278.749 96.9595ZM260.521 96.9595L260.272 96.5255L260.021 96.6695V96.9595H260.521ZM260.775 607.145L10.3624 463.927L9.86596 464.795L260.278 608.013L260.775 607.145ZM10.3626 463.927C4.87731 460.787 1.5 454.993 1.5 448.718H0.5C0.5 455.355 4.07226 461.479 9.86582 464.795L10.3626 463.927ZM1.5 448.718V162.282H0.5V448.718H1.5ZM1.5 162.282C1.5 156.007 4.8773 150.213 10.3626 147.073L9.86582 146.205C4.07227 149.521 0.5 155.645 0.5 162.282H1.5ZM10.3624 147.073L260.775 3.85486L260.278 2.9868L9.86596 146.205L10.3624 147.073ZM260.775 3.85478C266.26 0.715074 273.021 0.715074 278.507 3.85478L279.003 2.98688C273.21 -0.328961 266.071 -0.328961 260.278 2.98688L260.775 3.85478ZM278.507 3.85486L528.919 147.073L529.416 146.205L279.003 2.9868L278.507 3.85486ZM528.919 147.073C534.404 150.213 537.781 156.007 537.781 162.282H538.781C538.781 155.645 535.209 149.521 529.416 146.205L528.919 147.073ZM537.781 162.282V448.718H538.781V162.282H537.781ZM537.781 448.718C537.781 454.993 534.404 460.787 528.919 463.927L529.416 464.795C535.209 461.479 538.781 455.355 538.781 448.718H537.781ZM528.919 463.927L278.507 607.145L279.003 608.013L529.416 464.795L528.919 463.927ZM278.507 607.145C273.021 610.285 266.26 610.285 260.775 607.145L260.278 608.013C266.071 611.329 273.21 611.329 279.003 608.013L278.507 607.145ZM55.4369 438.735L260.278 555.895L260.775 555.027L55.9334 437.867L55.4369 438.735ZM260.278 555.895C266.071 559.21 273.21 559.21 279.003 555.895L278.507 555.027C273.021 558.166 266.26 558.166 260.775 555.027L260.278 555.895ZM279.003 555.895L483.845 438.735L483.348 437.867L278.507 555.027L279.003 555.895ZM483.845 438.735C489.638 435.419 493.211 429.296 493.211 422.659H492.211C492.211 428.934 488.833 434.728 483.348 437.867L483.845 438.735ZM493.211 422.659V188.352H492.211V422.659H493.211ZM493.211 188.352C493.211 181.715 489.638 175.592 483.845 172.276L483.348 173.144C488.833 176.283 492.211 182.077 492.211 188.352H493.211ZM483.845 172.276L279.003 55.1166L278.507 55.9846L483.348 173.144L483.845 172.276ZM279.003 55.1166C273.21 51.8008 266.071 51.8008 260.278 55.1166L260.775 55.9845C266.26 52.8448 273.021 52.8448 278.507 55.9845L279.003 55.1166ZM260.278 55.1166L55.4369 172.276L55.9334 173.144L260.775 55.9846L260.278 55.1166ZM55.4368 172.276C49.6432 175.592 46.0709 181.715 46.0709 188.352H47.0709C47.0709 182.077 50.4482 176.283 55.9335 173.144L55.4368 172.276ZM46.0709 188.352V422.659H47.0709V188.352H46.0709ZM46.0709 422.659C46.0709 429.296 49.6432 435.419 55.4368 438.735L55.9335 437.867C50.4482 434.728 47.0709 428.934 47.0709 422.659H46.0709ZM260.272 96.5593L91.6599 192.998L92.1564 193.866L260.769 97.4274L260.272 96.5593ZM91.6598 192.998C85.8662 196.314 82.294 202.437 82.294 209.074H83.294C83.294 202.799 86.6713 197.005 92.1565 193.865L91.6598 192.998ZM82.294 209.074V391.522H83.294V209.074H82.294ZM82.294 391.522C82.294 404.603 89.3409 416.697 100.774 423.23L101.27 422.361C90.1462 416.005 83.294 404.241 83.294 391.522H82.294ZM100.774 423.229L121.281 434.956L121.777 434.087L101.271 422.361L100.774 423.229ZM121.281 434.956C124.648 436.88 128.865 434.486 128.865 430.617H127.865C127.865 433.7 124.494 435.64 121.777 434.087L121.281 434.956ZM128.865 430.617V235.144H127.865V430.617H128.865ZM128.865 235.144C128.865 228.87 132.242 223.076 137.727 219.936L137.231 219.068C131.437 222.384 127.865 228.508 127.865 235.144H128.865ZM137.727 219.936L260.769 149.568L260.272 148.7L137.231 219.068L137.727 219.936ZM260.769 149.568C266.255 146.429 273.015 146.429 278.501 149.568L278.997 148.7C273.204 145.384 266.066 145.384 260.272 148.7L260.769 149.568ZM278.501 149.568L401.542 219.936L402.039 219.068L278.997 148.7L278.501 149.568ZM401.542 219.936C407.027 223.076 410.405 228.87 410.405 235.144H411.405C411.405 228.508 407.833 222.384 402.039 219.068L401.542 219.936ZM410.405 235.144V375.891H411.405V235.144H410.405ZM410.405 375.891C410.405 382.166 407.027 387.96 401.542 391.1L402.039 391.967C407.833 388.651 411.405 382.528 411.405 375.891H410.405ZM401.542 391.099L278.501 461.467L278.997 462.335L402.039 391.967L401.542 391.099ZM278.501 461.467C273.015 464.607 266.255 464.607 260.769 461.467L260.272 462.335C266.066 465.651 273.204 465.651 278.997 462.335L278.501 461.467ZM260.769 461.467L219.755 438.015L219.259 438.883L260.272 462.335L260.769 461.467ZM219.755 438.015C214.27 434.876 210.893 429.081 210.893 422.807H209.893C209.893 429.443 213.465 435.567 219.258 438.883L219.755 438.015ZM210.893 422.807V282.06H209.893V422.807H210.893ZM210.893 282.06C210.893 275.785 214.27 269.991 219.755 266.852L219.258 265.984C213.465 269.3 209.893 275.423 209.893 282.06H210.893ZM219.755 266.852L260.769 243.4L260.272 242.531L219.259 265.984L219.755 266.852ZM260.769 243.399C266.255 240.26 273.015 240.26 278.501 243.399L278.997 242.532C273.204 239.216 266.066 239.216 260.272 242.532L260.769 243.399ZM278.501 243.4L319.515 266.852L320.011 265.984L278.997 242.531L278.501 243.4ZM319.515 266.852C325 269.991 328.377 275.785 328.377 282.06H329.377C329.377 275.423 325.805 269.3 320.011 265.984L319.515 266.852ZM328.377 282.06V328.976H329.377V282.06H328.377ZM328.377 328.976C328.377 335.25 325 341.044 319.515 344.184L320.011 345.052C325.805 341.736 329.377 335.612 329.377 328.976H328.377ZM319.515 344.184L299.008 355.91L299.504 356.778L320.011 345.052L319.515 344.184ZM299.008 355.91C296.291 357.462 292.92 355.522 292.92 352.439H291.92C291.92 356.308 296.137 358.702 299.504 356.778L299.008 355.91ZM292.92 303.232C292.92 296.596 289.348 290.472 283.555 287.156L283.058 288.024C288.543 291.164 291.92 296.958 291.92 303.232H292.92ZM283.554 287.156L274.44 281.942L273.944 282.81L283.058 288.024L283.554 287.156ZM274.44 281.942C271.461 280.24 267.809 280.24 264.83 281.942L265.326 282.81C267.997 281.284 271.272 281.284 273.944 282.81L274.44 281.942ZM264.83 281.942L253.437 288.454L253.933 289.322L265.326 282.81L264.83 281.942ZM253.437 288.454C249.056 290.957 246.349 295.603 246.349 300.614H247.349C247.349 295.964 249.861 291.649 253.933 289.322L253.437 288.454ZM246.349 402.142C246.349 408.802 249.957 414.949 255.785 418.253L256.279 417.383C250.76 414.255 247.349 408.438 247.349 402.142H246.349ZM255.786 418.254L260.184 420.737L260.675 419.866L256.278 417.383L255.786 418.254ZM260.183 420.737C265.965 424.006 273.068 423.994 278.838 420.69L278.341 419.822C272.878 422.951 266.15 422.962 260.676 419.866L260.183 420.737ZM278.838 420.69L365.582 371.077L365.086 370.209L278.341 419.822L278.838 420.69ZM365.582 371.077C371.376 367.761 374.948 361.637 374.948 355.001H373.948C373.948 361.276 370.571 367.07 365.085 370.209L365.582 371.077ZM374.948 355.001V255.956H373.948V355.001H374.948ZM374.948 255.956C374.948 249.319 371.376 243.195 365.582 239.879L365.085 240.747C370.571 243.887 373.948 249.681 373.948 255.956H374.948ZM365.582 239.879L278.997 190.357L278.501 191.225L365.086 240.747L365.582 239.879ZM278.997 190.357C273.204 187.041 266.066 187.041 260.272 190.357L260.769 191.225C266.255 188.085 273.015 188.085 278.501 191.225L278.997 190.357ZM260.272 190.357L173.688 239.879L174.184 240.747L260.769 191.225L260.272 190.357ZM173.687 239.879C167.894 243.195 164.322 249.319 164.322 255.956H165.322C165.322 249.681 168.699 243.887 174.184 240.747L173.687 239.879ZM164.322 255.956V448.821H165.322V255.956H164.322ZM164.322 448.821C164.322 455.457 167.894 461.581 173.687 464.897L174.184 464.029C168.699 460.89 165.322 455.095 165.322 448.821H164.322ZM173.688 464.897L260.272 514.42L260.769 513.552L174.184 464.029L173.688 464.897ZM260.272 514.42C266.066 517.736 273.204 517.736 278.997 514.42L278.501 513.552C273.015 516.692 266.255 516.692 260.769 513.552L260.272 514.42ZM278.997 514.42L447.61 417.982L447.113 417.114L278.501 513.552L278.997 514.42ZM447.61 417.982C453.404 414.666 456.976 408.542 456.976 401.905H455.976C455.976 408.18 452.598 413.974 447.113 417.114L447.61 417.982ZM456.976 401.905V209.04H455.976V401.905H456.976ZM456.976 209.04C456.976 202.404 453.404 196.28 447.61 192.964L447.113 193.832C452.598 196.971 455.976 202.766 455.976 209.04H456.976ZM447.61 192.964L278.997 96.5254L278.501 97.3935L447.113 193.832L447.61 192.964ZM278.997 96.5255C273.204 93.2097 266.066 93.2097 260.272 96.5255L260.769 97.3934C266.255 94.2537 273.015 94.2537 278.501 97.3934L278.997 96.5255ZM260.021 96.9595V96.9933H261.021V96.9595H260.021ZM292.92 352.439V303.232H291.92V352.439H292.92ZM246.349 300.614V402.142H247.349V300.614H246.349Z" fill="url(#paint2_radial_8876_7975)" fill-opacity="0.5"/>
<path d="M260.527 607.579L10.1142 464.361C4.47479 461.133 1 455.174 1 448.718V162.282C1 155.826 4.47479 149.867 10.1142 146.639L260.527 3.42083C266.166 0.193056 273.116 0.193056 278.755 3.42083L529.167 146.639C534.807 149.867 538.281 155.826 538.281 162.282V448.718C538.281 455.174 534.807 461.133 529.167 464.361L278.755 607.579C273.116 610.807 266.166 610.807 260.527 607.579ZM55.6851 438.301L260.527 555.461C266.166 558.688 273.116 558.688 278.755 555.461L483.596 438.301C489.236 435.074 492.711 429.115 492.711 422.659V188.352C492.711 181.896 489.236 175.938 483.596 172.71L278.755 55.5506C273.116 52.3228 266.166 52.3228 260.527 55.5506L55.6851 172.71C50.0457 175.938 46.5709 181.896 46.5709 188.352V422.659C46.5709 429.115 50.0457 435.074 55.6851 438.301Z" fill="url(#paint3_radial_8876_7975)" fill-opacity="0.5"/>
<path d="M260.521 96.9933L91.9081 193.432C86.2687 196.659 82.794 202.618 82.794 209.074V391.522C82.794 404.422 89.7435 416.351 101.022 422.795L121.529 434.522C124.571 436.26 128.365 434.093 128.365 430.617V235.144C128.365 228.689 131.84 222.73 137.479 219.502L260.521 149.134C266.16 145.907 273.11 145.907 278.749 149.134L401.791 219.502C407.43 222.73 410.905 228.689 410.905 235.144V375.891C410.905 382.347 407.43 388.306 401.791 391.533L278.749 461.901C273.11 465.129 266.16 465.129 260.521 461.901L219.507 438.449C213.867 435.221 210.393 429.262 210.393 422.807V282.06C210.393 275.604 213.867 269.645 219.507 266.418L260.521 242.966C266.16 239.738 273.11 239.738 278.749 242.966L319.763 266.418C325.402 269.645 328.877 275.604 328.877 282.06V328.976C328.877 335.431 325.402 341.39 319.763 344.618L299.256 356.344C296.214 358.082 292.42 355.915 292.42 352.439V303.232C292.42 296.777 288.946 290.818 283.306 287.59L274.192 282.376C271.367 280.762 267.903 280.762 265.078 282.376L253.685 288.888C249.458 291.303 246.849 295.784 246.849 300.614V402.142C246.849 408.62 250.358 414.602 256.032 417.818L260.43 420.301C266.058 423.484 272.973 423.473 278.59 420.256L365.334 370.643C370.973 367.415 374.448 361.457 374.448 355.001V255.956C374.448 249.5 370.973 243.541 365.334 240.313L278.749 190.791C273.11 187.563 266.16 187.563 260.521 190.791L173.936 240.313C168.296 243.541 164.822 249.5 164.822 255.956V448.821C164.822 455.276 168.296 461.235 173.936 464.463L260.521 513.986C266.16 517.214 273.11 517.214 278.749 513.986L447.362 417.548C453.001 414.32 456.476 408.361 456.476 401.905V209.04C456.476 202.585 453.001 196.625 447.362 193.398L278.749 96.9595C273.11 93.7317 266.16 93.7317 260.521 96.9595V96.9933Z" fill="url(#paint4_radial_8876_7975)" fill-opacity="0.5"/>
<path d="M260.527 607.579L260.775 607.145L260.775 607.145L260.527 607.579ZM10.1142 464.361L9.86582 464.795L9.86596 464.795L10.1142 464.361ZM10.1142 146.639L9.86596 146.205L9.86582 146.205L10.1142 146.639ZM260.527 3.42083L260.775 3.85486L260.775 3.85478L260.527 3.42083ZM278.755 3.42083L278.507 3.85478L278.507 3.85486L278.755 3.42083ZM529.167 146.639L529.416 146.205L529.416 146.205L529.167 146.639ZM529.167 464.361L529.416 464.795L529.416 464.795L529.167 464.361ZM278.755 607.579L278.507 607.145L278.507 607.145L278.755 607.579ZM55.6851 438.301L55.4368 438.735L55.4369 438.735L55.6851 438.301ZM260.527 555.461L260.775 555.027L260.775 555.027L260.527 555.461ZM278.755 555.461L278.507 555.027L278.507 555.027L278.755 555.461ZM483.596 438.301L483.845 438.735L483.845 438.735L483.596 438.301ZM483.596 172.71L483.845 172.276L483.845 172.276L483.596 172.71ZM278.755 55.5506L278.507 55.9845L278.507 55.9846L278.755 55.5506ZM260.527 55.5506L260.775 55.9846L260.775 55.9845L260.527 55.5506ZM55.6851 172.71L55.4369 172.276L55.4368 172.276L55.6851 172.71ZM260.521 96.9933L260.769 97.4274L261.021 97.2834V96.9933H260.521ZM91.9081 193.432L91.6599 192.998L91.6598 192.998L91.9081 193.432ZM101.022 422.795L101.271 422.361L101.27 422.361L101.022 422.795ZM121.529 434.522L121.281 434.956L121.281 434.956L121.529 434.522ZM137.479 219.502L137.231 219.068L137.231 219.068L137.479 219.502ZM260.521 149.134L260.769 149.568L260.769 149.568L260.521 149.134ZM278.749 149.134L278.501 149.568L278.501 149.568L278.749 149.134ZM401.791 219.502L402.039 219.068L402.039 219.068L401.791 219.502ZM401.791 391.533L402.039 391.967L402.039 391.967L401.791 391.533ZM278.749 461.901L278.501 461.467L278.501 461.467L278.749 461.901ZM260.521 461.901L260.769 461.467L260.769 461.467L260.521 461.901ZM219.507 438.449L219.258 438.883L219.259 438.883L219.507 438.449ZM219.507 266.418L219.259 265.984L219.258 265.984L219.507 266.418ZM260.521 242.966L260.769 243.4L260.769 243.399L260.521 242.966ZM278.749 242.966L278.501 243.399L278.501 243.4L278.749 242.966ZM319.763 266.418L320.011 265.984L320.011 265.984L319.763 266.418ZM319.763 344.618L320.011 345.052L320.011 345.052L319.763 344.618ZM299.256 356.344L299.504 356.778L299.504 356.778L299.256 356.344ZM283.306 287.59L283.555 287.156L283.554 287.156L283.306 287.59ZM274.192 282.376L274.44 281.942L274.44 281.942L274.192 282.376ZM265.078 282.376L264.83 281.942L264.83 281.942L265.078 282.376ZM253.685 288.888L253.933 289.322L253.933 289.322L253.685 288.888ZM256.032 417.818L255.785 418.253L255.786 418.254L256.032 417.818ZM260.43 420.301L260.676 419.866L260.675 419.866L260.43 420.301ZM278.59 420.256L278.341 419.822L278.341 419.822L278.59 420.256ZM365.334 370.643L365.582 371.077L365.582 371.077L365.334 370.643ZM365.334 240.313L365.582 239.879L365.582 239.879L365.334 240.313ZM278.749 190.791L278.501 191.225L278.501 191.225L278.749 190.791ZM260.521 190.791L260.769 191.225L260.769 191.225L260.521 190.791ZM173.936 240.313L173.688 239.879L173.687 239.879L173.936 240.313ZM173.936 464.463L173.687 464.897L173.688 464.897L173.936 464.463ZM260.521 513.986L260.769 513.552L260.769 513.552L260.521 513.986ZM278.749 513.986L278.501 513.552L278.501 513.552L278.749 513.986ZM447.362 417.548L447.61 417.982L447.61 417.982L447.362 417.548ZM447.362 193.398L447.61 192.964L447.61 192.964L447.362 193.398ZM278.749 96.9595L278.501 97.3934L278.501 97.3935L278.749 96.9595ZM260.521 96.9595L260.272 96.5255L260.021 96.6695V96.9595H260.521ZM260.775 607.145L10.3624 463.927L9.86596 464.795L260.278 608.013L260.775 607.145ZM10.3626 463.927C4.87731 460.787 1.5 454.993 1.5 448.718H0.5C0.5 455.355 4.07226 461.479 9.86582 464.795L10.3626 463.927ZM1.5 448.718V162.282H0.5V448.718H1.5ZM1.5 162.282C1.5 156.007 4.8773 150.213 10.3626 147.073L9.86582 146.205C4.07227 149.521 0.5 155.645 0.5 162.282H1.5ZM10.3624 147.073L260.775 3.85486L260.278 2.9868L9.86596 146.205L10.3624 147.073ZM260.775 3.85478C266.26 0.715074 273.021 0.715074 278.507 3.85478L279.003 2.98688C273.21 -0.328961 266.071 -0.328961 260.278 2.98688L260.775 3.85478ZM278.507 3.85486L528.919 147.073L529.416 146.205L279.003 2.9868L278.507 3.85486ZM528.919 147.073C534.404 150.213 537.781 156.007 537.781 162.282H538.781C538.781 155.645 535.209 149.521 529.416 146.205L528.919 147.073ZM537.781 162.282V448.718H538.781V162.282H537.781ZM537.781 448.718C537.781 454.993 534.404 460.787 528.919 463.927L529.416 464.795C535.209 461.479 538.781 455.355 538.781 448.718H537.781ZM528.919 463.927L278.507 607.145L279.003 608.013L529.416 464.795L528.919 463.927ZM278.507 607.145C273.021 610.285 266.26 610.285 260.775 607.145L260.278 608.013C266.071 611.329 273.21 611.329 279.003 608.013L278.507 607.145ZM55.4369 438.735L260.278 555.895L260.775 555.027L55.9334 437.867L55.4369 438.735ZM260.278 555.895C266.071 559.21 273.21 559.21 279.003 555.895L278.507 555.027C273.021 558.166 266.26 558.166 260.775 555.027L260.278 555.895ZM279.003 555.895L483.845 438.735L483.348 437.867L278.507 555.027L279.003 555.895ZM483.845 438.735C489.638 435.419 493.211 429.296 493.211 422.659H492.211C492.211 428.934 488.833 434.728 483.348 437.867L483.845 438.735ZM493.211 422.659V188.352H492.211V422.659H493.211ZM493.211 188.352C493.211 181.715 489.638 175.592 483.845 172.276L483.348 173.144C488.833 176.283 492.211 182.077 492.211 188.352H493.211ZM483.845 172.276L279.003 55.1166L278.507 55.9846L483.348 173.144L483.845 172.276ZM279.003 55.1166C273.21 51.8008 266.071 51.8008 260.278 55.1166L260.775 55.9845C266.26 52.8448 273.021 52.8448 278.507 55.9845L279.003 55.1166ZM260.278 55.1166L55.4369 172.276L55.9334 173.144L260.775 55.9846L260.278 55.1166ZM55.4368 172.276C49.6432 175.592 46.0709 181.715 46.0709 188.352H47.0709C47.0709 182.077 50.4482 176.283 55.9335 173.144L55.4368 172.276ZM46.0709 188.352V422.659H47.0709V188.352H46.0709ZM46.0709 422.659C46.0709 429.296 49.6432 435.419 55.4368 438.735L55.9335 437.867C50.4482 434.728 47.0709 428.934 47.0709 422.659H46.0709ZM260.272 96.5593L91.6599 192.998L92.1564 193.866L260.769 97.4274L260.272 96.5593ZM91.6598 192.998C85.8662 196.314 82.294 202.437 82.294 209.074H83.294C83.294 202.799 86.6713 197.005 92.1565 193.865L91.6598 192.998ZM82.294 209.074V391.522H83.294V209.074H82.294ZM82.294 391.522C82.294 404.603 89.3409 416.697 100.774 423.23L101.27 422.361C90.1462 416.005 83.294 404.241 83.294 391.522H82.294ZM100.774 423.229L121.281 434.956L121.777 434.087L101.271 422.361L100.774 423.229ZM121.281 434.956C124.648 436.88 128.865 434.486 128.865 430.617H127.865C127.865 433.7 124.494 435.64 121.777 434.087L121.281 434.956ZM128.865 430.617V235.144H127.865V430.617H128.865ZM128.865 235.144C128.865 228.87 132.242 223.076 137.727 219.936L137.231 219.068C131.437 222.384 127.865 228.508 127.865 235.144H128.865ZM137.727 219.936L260.769 149.568L260.272 148.7L137.231 219.068L137.727 219.936ZM260.769 149.568C266.255 146.429 273.015 146.429 278.501 149.568L278.997 148.7C273.204 145.384 266.066 145.384 260.272 148.7L260.769 149.568ZM278.501 149.568L401.542 219.936L402.039 219.068L278.997 148.7L278.501 149.568ZM401.542 219.936C407.027 223.076 410.405 228.87 410.405 235.144H411.405C411.405 228.508 407.833 222.384 402.039 219.068L401.542 219.936ZM410.405 235.144V375.891H411.405V235.144H410.405ZM410.405 375.891C410.405 382.166 407.027 387.96 401.542 391.1L402.039 391.967C407.833 388.651 411.405 382.528 411.405 375.891H410.405ZM401.542 391.099L278.501 461.467L278.997 462.335L402.039 391.967L401.542 391.099ZM278.501 461.467C273.015 464.607 266.255 464.607 260.769 461.467L260.272 462.335C266.066 465.651 273.204 465.651 278.997 462.335L278.501 461.467ZM260.769 461.467L219.755 438.015L219.259 438.883L260.272 462.335L260.769 461.467ZM219.755 438.015C214.27 434.876 210.893 429.081 210.893 422.807H209.893C209.893 429.443 213.465 435.567 219.258 438.883L219.755 438.015ZM210.893 422.807V282.06H209.893V422.807H210.893ZM210.893 282.06C210.893 275.785 214.27 269.991 219.755 266.852L219.258 265.984C213.465 269.3 209.893 275.423 209.893 282.06H210.893ZM219.755 266.852L260.769 243.4L260.272 242.531L219.259 265.984L219.755 266.852ZM260.769 243.399C266.255 240.26 273.015 240.26 278.501 243.399L278.997 242.532C273.204 239.216 266.066 239.216 260.272 242.532L260.769 243.399ZM278.501 243.4L319.515 266.852L320.011 265.984L278.997 242.531L278.501 243.4ZM319.515 266.852C325 269.991 328.377 275.785 328.377 282.06H329.377C329.377 275.423 325.805 269.3 320.011 265.984L319.515 266.852ZM328.377 282.06V328.976H329.377V282.06H328.377ZM328.377 328.976C328.377 335.25 325 341.044 319.515 344.184L320.011 345.052C325.805 341.736 329.377 335.612 329.377 328.976H328.377ZM319.515 344.184L299.008 355.91L299.504 356.778L320.011 345.052L319.515 344.184ZM299.008 355.91C296.291 357.462 292.92 355.522 292.92 352.439H291.92C291.92 356.308 296.137 358.702 299.504 356.778L299.008 355.91ZM292.92 303.232C292.92 296.596 289.348 290.472 283.555 287.156L283.058 288.024C288.543 291.164 291.92 296.958 291.92 303.232H292.92ZM283.554 287.156L274.44 281.942L273.944 282.81L283.058 288.024L283.554 287.156ZM274.44 281.942C271.461 280.24 267.809 280.24 264.83 281.942L265.326 282.81C267.997 281.284 271.272 281.284 273.944 282.81L274.44 281.942ZM264.83 281.942L253.437 288.454L253.933 289.322L265.326 282.81L264.83 281.942ZM253.437 288.454C249.056 290.957 246.349 295.603 246.349 300.614H247.349C247.349 295.964 249.861 291.649 253.933 289.322L253.437 288.454ZM246.349 402.142C246.349 408.802 249.957 414.949 255.785 418.253L256.279 417.383C250.76 414.255 247.349 408.438 247.349 402.142H246.349ZM255.786 418.254L260.184 420.737L260.675 419.866L256.278 417.383L255.786 418.254ZM260.183 420.737C265.965 424.006 273.068 423.994 278.838 420.69L278.341 419.822C272.878 422.951 266.15 422.962 260.676 419.866L260.183 420.737ZM278.838 420.69L365.582 371.077L365.086 370.209L278.341 419.822L278.838 420.69ZM365.582 371.077C371.376 367.761 374.948 361.637 374.948 355.001H373.948C373.948 361.276 370.571 367.07 365.085 370.209L365.582 371.077ZM374.948 355.001V255.956H373.948V355.001H374.948ZM374.948 255.956C374.948 249.319 371.376 243.195 365.582 239.879L365.085 240.747C370.571 243.887 373.948 249.681 373.948 255.956H374.948ZM365.582 239.879L278.997 190.357L278.501 191.225L365.086 240.747L365.582 239.879ZM278.997 190.357C273.204 187.041 266.066 187.041 260.272 190.357L260.769 191.225C266.255 188.085 273.015 188.085 278.501 191.225L278.997 190.357ZM260.272 190.357L173.688 239.879L174.184 240.747L260.769 191.225L260.272 190.357ZM173.687 239.879C167.894 243.195 164.322 249.319 164.322 255.956H165.322C165.322 249.681 168.699 243.887 174.184 240.747L173.687 239.879ZM164.322 255.956V448.821H165.322V255.956H164.322ZM164.322 448.821C164.322 455.457 167.894 461.581 173.687 464.897L174.184 464.029C168.699 460.89 165.322 455.095 165.322 448.821H164.322ZM173.688 464.897L260.272 514.42L260.769 513.552L174.184 464.029L173.688 464.897ZM260.272 514.42C266.066 517.736 273.204 517.736 278.997 514.42L278.501 513.552C273.015 516.692 266.255 516.692 260.769 513.552L260.272 514.42ZM278.997 514.42L447.61 417.982L447.113 417.114L278.501 513.552L278.997 514.42ZM447.61 417.982C453.404 414.666 456.976 408.542 456.976 401.905H455.976C455.976 408.18 452.598 413.974 447.113 417.114L447.61 417.982ZM456.976 401.905V209.04H455.976V401.905H456.976ZM456.976 209.04C456.976 202.404 453.404 196.28 447.61 192.964L447.113 193.832C452.598 196.971 455.976 202.766 455.976 209.04H456.976ZM447.61 192.964L278.997 96.5254L278.501 97.3935L447.113 193.832L447.61 192.964ZM278.997 96.5255C273.204 93.2097 266.066 93.2097 260.272 96.5255L260.769 97.3934C266.255 94.2537 273.015 94.2537 278.501 97.3934L278.997 96.5255ZM260.021 96.9595V96.9933H261.021V96.9595H260.021ZM292.92 352.439V303.232H291.92V352.439H292.92ZM246.349 300.614V402.142H247.349V300.614H246.349Z" fill="url(#paint5_linear_8876_7975)"/>
<defs>
<linearGradient id="paint0_linear_8876_7975" x1="679.49" y1="-25.4357" x2="72.0755" y2="513.16" gradientUnits="userSpaceOnUse">
<stop stop-color="#22645C"/>
<stop offset="1" stop-color="#122B33" stop-opacity="0"/>
</linearGradient>
<linearGradient id="paint1_linear_8876_7975" x1="679.49" y1="-25.4357" x2="72.0755" y2="513.16" gradientUnits="userSpaceOnUse">
<stop stop-color="#22645C"/>
<stop offset="1" stop-color="#122B33" stop-opacity="0"/>
</linearGradient>
<radialGradient id="paint2_radial_8876_7975" cx="0" cy="0" r="1" gradientUnits="userSpaceOnUse" gradientTransform="translate(269.641 305.5) rotate(90) scale(304.5 268.641)">
<stop offset="0.33754" stop-color="#6CB6AD"/>
<stop offset="1" stop-color="#041412" stop-opacity="0"/>
</radialGradient>
<radialGradient id="paint3_radial_8876_7975" cx="0" cy="0" r="1" gradientUnits="userSpaceOnUse" gradientTransform="translate(269.641 305.5) rotate(90) scale(304.5 268.641)">
<stop offset="0.192755" stop-color="#8869F5"/>
<stop offset="0.718585" stop-color="#041412"/>
</radialGradient>
<radialGradient id="paint4_radial_8876_7975" cx="0" cy="0" r="1" gradientUnits="userSpaceOnUse" gradientTransform="translate(269.641 305.5) rotate(90) scale(304.5 268.641)">
<stop offset="0.192755" stop-color="#8869F5"/>
<stop offset="0.718585" stop-color="#041412"/>
</radialGradient>
<linearGradient id="paint5_linear_8876_7975" x1="679.49" y1="-25.4357" x2="72.0755" y2="513.16" gradientUnits="userSpaceOnUse">
<stop stop-color="#22645C"/>
<stop offset="1" stop-color="#122B33" stop-opacity="0"/>
</linearGradient>
</defs>
</svg>
