<svg width="236" height="255" viewBox="0 0 236 255" fill="none" xmlns="http://www.w3.org/2000/svg">
<path d="M235.9 83.7898V171.84C235.9 185.76 228.32 198.63 216.01 205.59L138.14 249.62C125.82 256.58 110.65 256.58 98.3401 249.62L20.4701 205.59C8.16008 198.63 0.580078 185.76 0.580078 171.84V83.7898C0.580078 69.8698 8.16008 56.9998 20.4701 50.0398L98.3401 6.0198C110.66 -0.940195 125.83 -0.940195 138.14 6.0198L216.01 50.0398C228.32 56.9998 235.9 69.8698 235.9 83.7898Z" fill="black"/>
<path d="M221.24 88.6499V166.98C221.24 179.36 214.6 190.81 203.83 197L135.66 236.17C124.88 242.36 111.6 242.36 100.82 236.17L32.6502 197C21.8802 190.81 15.2402 179.36 15.2402 166.98V88.6499C15.2402 76.2699 21.8802 64.8199 32.6502 58.6299L100.82 19.4599C111.6 13.2699 124.88 13.2699 135.66 19.4599L203.83 58.6299C214.6 64.8199 221.24 76.2699 221.24 88.6499Z" stroke="#C1F6FF" stroke-width="2" stroke-miterlimit="10"/>
<path d="M206.24 94.89V160.75C206.24 171.16 200.57 180.78 191.36 185.99L133.12 218.92C123.91 224.13 112.56 224.13 103.36 218.92L45.1202 185.99C35.9202 180.78 30.2402 171.16 30.2402 160.75V94.89C30.2402 84.48 35.9102 74.86 45.1202 69.65L103.36 36.72C112.57 31.51 123.92 31.51 133.12 36.72L191.36 69.65C200.57 74.86 206.24 84.48 206.24 94.89Z" stroke="#C1F6FF" stroke-width="2" stroke-miterlimit="10"/>
<path fill-rule="evenodd" clip-rule="evenodd" d="M120.81 14.8203V32.8603C125.05 33.2203 129.23 34.4903 133.04 36.6703L190.98 69.6903C200.14 74.9103 205.78 84.5603 205.78 95.0003V135.75H221.23V88.7503C221.23 76.3303 214.59 64.8603 203.82 58.6503L135.65 19.3803C131.03 16.7203 125.95 15.2003 120.81 14.8203Z" fill="url(#paint0_linear_3761_36672)"/>
<path d="M96.408 124.96C98.904 122.4 100.696 120.16 101.784 118.24C102.872 116.32 103.416 114.368 103.416 112.384C103.416 109.76 102.808 107.488 101.592 105.568C100.44 103.648 98.872 102.176 96.888 101.152C94.968 100.128 92.92 99.616 90.744 99.616C87.16 99.616 84.088 100.672 81.528 102.784C78.968 104.832 77.656 107.52 77.592 110.848H69.72V110.752C69.784 106.976 70.808 103.648 72.792 100.768C74.84 97.888 77.464 95.68 80.664 94.144C83.864 92.544 87.288 91.744 90.936 91.744C94.648 91.744 98.04 92.576 101.112 94.24C104.248 95.904 106.712 98.304 108.504 101.44C110.36 104.512 111.288 108.128 111.288 112.288C111.288 115.424 110.52 118.464 108.984 121.408C107.448 124.352 105.144 127.456 102.072 130.72L79.992 152.128H111.288V160H68.76V152.128L96.408 124.96ZM143.925 160.864C135.925 160.864 129.749 157.888 125.397 151.936C121.109 145.984 118.965 137.504 118.965 126.496C118.965 115.424 121.045 106.88 125.205 100.864C129.365 94.848 135.285 91.84 142.965 91.84C150.709 91.84 156.693 94.848 160.917 100.864C165.141 106.816 167.253 115.296 167.253 126.304C167.253 137.312 165.205 145.824 161.109 151.84C157.077 157.856 151.349 160.864 143.925 160.864ZM126.837 126.784C126.837 135.04 128.309 141.408 131.253 145.888C134.197 150.304 138.421 152.512 143.925 152.512C148.917 152.512 152.725 150.24 155.349 145.696C158.037 141.088 159.381 134.56 159.381 126.112C159.381 117.792 157.941 111.424 155.061 107.008C152.245 102.528 148.181 100.288 142.869 100.288C137.749 100.288 133.781 102.592 130.965 107.2C128.213 111.808 126.837 118.336 126.837 126.784Z" fill="#C1F6FF"/>
<defs>
<linearGradient id="paint0_linear_3761_36672" x1="175.25" y1="77.9803" x2="223.48" y2="109.3" gradientUnits="userSpaceOnUse">
<stop stop-color="#C1F6FF"/>
<stop offset="0.22" stop-color="#C1F6FF" stop-opacity="0.3844"/>
<stop offset="0.43" stop-color="#C1F6FF" stop-opacity="0.0841"/>
<stop offset="0.57" stop-color="#C1F6FF" stop-opacity="0.01"/>
<stop offset="0.64" stop-color="#C1F6FF" stop-opacity="0"/>
</linearGradient>
</defs>
</svg>
