<svg width="237" height="402" viewBox="0 0 237 402" fill="none" xmlns="http://www.w3.org/2000/svg">
<path d="M120.182 156.787H225.844L227.871 157.003C228.183 157.098 228.447 157.182 228.687 157.242C229.886 157.601 230.27 157.709 231.41 158.499C234.025 160.319 235.692 163.611 235.536 166.88C235.476 168.28 235.332 168.652 234.9 169.801C234.804 170.064 234.684 170.376 234.552 170.735L127.187 395.538C127.043 395.778 126.899 396.041 126.767 396.257C126.708 396.364 126.648 396.472 126.6 396.556C126.408 396.891 126.252 397.143 126.084 397.358C123.193 401.129 117.268 402.159 113.297 399.561C111.006 398.064 109.411 395.574 109.015 392.857C108.979 392.581 108.955 392.27 108.955 391.887C108.955 391.779 108.955 391.671 108.955 391.54C108.955 391.276 108.955 390.989 108.955 390.713L118.887 238.199L119.019 236.091H11.162L9.12291 235.888C8.77506 235.78 8.48718 235.684 8.2233 235.613C7.05981 235.265 6.68797 235.146 5.56046 234.355C2.92162 232.5 1.27834 229.171 1.47025 225.867C1.54222 224.478 1.69815 224.107 2.15395 222.958C2.26191 222.694 2.38185 222.383 2.52579 222L109.891 6.35541C110.059 6.09202 110.191 5.86454 110.311 5.64904C110.563 5.21804 110.754 4.89479 111.018 4.54759C112.302 2.94331 114.089 1.782 116.032 1.25522C117.196 0.943936 118.479 0.967881 120.05 1.06366C120.29 1.12352 120.542 1.18338 120.758 1.23127C120.878 1.25522 120.986 1.29113 121.082 1.3031C121.454 1.39888 121.73 1.47072 121.97 1.56649H121.994C124.512 2.54822 126.576 4.66732 127.511 7.22938C127.847 8.15125 127.955 8.65408 128.003 9.121C128.039 9.48017 128.039 9.80342 128.051 10.2584C128.051 10.5457 128.051 10.8929 128.075 11.3478L118.191 154.644L118.047 156.763H120.17L120.182 156.787Z" fill="url(#paint0_linear_9333_3348)" stroke="#4A47D3" stroke-miterlimit="10"/>
<path d="M120.583 159.991L218.362 161.407L220.232 161.635C220.52 161.731 220.772 161.803 220.987 161.875C222.09 162.223 222.45 162.331 223.493 163.074C225.89 164.802 227.389 167.874 227.197 170.91C227.125 172.205 226.993 172.553 226.573 173.609C226.478 173.849 226.37 174.137 226.238 174.473L123.868 381.654C123.736 381.87 123.592 382.11 123.472 382.314C123.412 382.422 123.364 382.506 123.316 382.59C123.136 382.901 122.981 383.129 122.825 383.333C120.104 386.789 114.601 387.665 110.957 385.205C108.86 383.789 107.409 381.45 107.086 378.93C107.05 378.678 107.038 378.39 107.038 378.03C107.038 377.934 107.038 377.826 107.038 377.706C107.038 377.466 107.038 377.19 107.038 376.938L118.282 235.534L118.437 233.578L116.483 233.554L18.6563 232.127L16.7743 231.911C16.4507 231.803 16.1869 231.719 15.9472 231.647C14.8803 231.311 14.5327 231.191 13.4898 230.447C11.0804 228.695 9.59401 225.575 9.80978 222.516C9.90568 221.22 10.0375 220.884 10.4811 219.828C10.5889 219.576 10.6968 219.3 10.8407 218.952L113.079 20.2427C113.235 20.0027 113.355 19.7867 113.475 19.5947C113.714 19.1988 113.894 18.8988 114.146 18.5869C115.357 17.111 117.023 16.0551 118.833 15.5992C119.912 15.3232 121.099 15.3712 122.561 15.4792C122.789 15.5392 123.016 15.5992 123.22 15.6472C123.328 15.6712 123.436 15.6952 123.52 15.7192C123.856 15.8032 124.119 15.8872 124.335 15.9831H124.359C126.673 16.931 128.555 18.9228 129.394 21.3105C129.693 22.1744 129.789 22.6304 129.825 23.0743C129.849 23.4103 129.849 23.6983 129.849 24.1302C129.849 24.3942 129.849 24.7182 129.849 25.1381L118.773 157.987L118.605 159.943L120.571 159.967L120.583 159.991Z" fill="url(#paint1_linear_9333_3348)" stroke="#575AD8" stroke-miterlimit="9.33"/>
<path d="M120.618 163.35L210.848 166.189L212.568 166.428C212.832 166.512 213.06 166.596 213.265 166.656C214.275 166.991 214.599 167.099 215.561 167.806C217.749 169.435 219.072 172.285 218.855 175.052C218.771 176.238 218.639 176.561 218.242 177.531C218.146 177.759 218.038 178.01 217.918 178.322L120.173 367.032C120.041 367.236 119.909 367.452 119.801 367.631C119.741 367.727 119.692 367.811 119.644 367.883C119.476 368.158 119.332 368.374 119.175 368.554C116.603 371.692 111.517 372.41 108.199 370.087C106.287 368.757 104.989 366.589 104.724 364.254C104.7 364.014 104.688 363.751 104.7 363.427C104.7 363.344 104.7 363.236 104.7 363.128C104.7 362.912 104.712 362.661 104.712 362.421L117.312 232.709L117.48 230.913L115.677 230.853L25.3987 228.014L23.6674 227.787C23.3788 227.679 23.1264 227.595 22.91 227.523C21.9361 227.188 21.6115 227.08 20.6617 226.374C18.4616 224.721 17.1511 221.834 17.3916 219.032C17.4998 217.846 17.632 217.535 18.0528 216.576C18.149 216.349 18.2692 216.085 18.4015 215.774L115.881 34.8721C116.026 34.6446 116.146 34.4529 116.254 34.2853C116.482 33.9259 116.651 33.6505 116.891 33.375C118.033 32.0455 119.596 31.0994 121.255 30.7041C122.253 30.4765 123.359 30.5244 124.694 30.6562C124.898 30.7161 125.115 30.776 125.295 30.8239C125.391 30.8478 125.487 30.8718 125.572 30.8957C125.884 30.9796 126.125 31.0634 126.329 31.1473H126.353C128.469 32.0575 130.176 33.914 130.922 36.1177C131.186 36.9082 131.258 37.3394 131.282 37.7466C131.306 38.058 131.294 38.3215 131.282 38.7168C131.282 38.9683 131.282 39.2557 131.282 39.639L118.971 161.494L118.791 163.29L120.606 163.35H120.618Z" fill="url(#paint2_linear_9333_3348)" stroke="#646EDD" stroke-miterlimit="8.67"/>
<path d="M120.626 166.574L202.636 170.837L204.204 171.09C204.443 171.174 204.647 171.246 204.826 171.318C205.748 171.642 206.035 171.75 206.885 172.411C208.847 173.936 209.996 176.578 209.757 179.111C209.661 180.204 209.529 180.493 209.147 181.369C209.063 181.573 208.955 181.801 208.835 182.09L116.449 353.155C116.329 353.335 116.198 353.528 116.09 353.696C116.042 353.78 115.994 353.852 115.946 353.924C115.779 354.176 115.647 354.368 115.516 354.524C113.122 357.346 108.479 357.911 105.499 355.725C103.776 354.464 102.639 352.459 102.447 350.321C102.424 350.105 102.424 349.865 102.447 349.565C102.447 349.481 102.447 349.397 102.459 349.301C102.459 349.096 102.483 348.868 102.483 348.652L116.341 230.053L116.533 228.408L114.893 228.324L32.8465 224.049L31.2788 223.808C31.0156 223.712 30.7882 223.628 30.5967 223.556C29.7111 223.232 29.4239 223.136 28.5743 222.463C26.5997 220.914 25.4628 218.236 25.7381 215.678C25.8577 214.598 25.9774 214.309 26.3843 213.433C26.48 213.229 26.5877 212.988 26.7074 212.7L118.699 48.7798C118.83 48.5756 118.95 48.4075 119.046 48.2514C119.261 47.9271 119.417 47.675 119.644 47.4228C120.697 46.2219 122.145 45.3933 123.665 45.057C124.587 44.8649 125.58 44.9369 126.789 45.069C126.968 45.1291 127.16 45.1891 127.339 45.2372C127.435 45.2612 127.519 45.2852 127.59 45.3092C127.878 45.3933 128.081 45.4653 128.273 45.5494H128.285C130.199 46.414 131.707 48.1553 132.341 50.1848C132.569 50.9173 132.629 51.3136 132.641 51.6859C132.653 51.9741 132.641 52.2143 132.641 52.5746C132.641 52.8027 132.629 53.0669 132.617 53.4272L119.166 164.833L118.962 166.478L120.614 166.562L120.626 166.574Z" fill="url(#paint3_linear_9333_3348)" stroke="#7281E2" stroke-miterlimit="8"/>
<path d="M121.036 169.952L195.147 175.632L196.558 175.883C196.773 175.967 196.952 176.039 197.119 176.099C197.944 176.41 198.207 176.506 198.96 177.129C200.693 178.555 201.685 180.964 201.41 183.253C201.291 184.235 201.171 184.487 200.812 185.278C200.729 185.458 200.633 185.661 200.514 185.913L113.148 338.518C113.028 338.674 112.921 338.854 112.813 338.998C112.765 339.07 112.718 339.142 112.682 339.202C112.526 339.429 112.407 339.597 112.275 339.741C110.052 342.233 105.833 342.653 103.192 340.604C101.662 339.429 100.682 337.584 100.551 335.655C100.539 335.463 100.551 335.235 100.551 334.971C100.551 334.9 100.551 334.816 100.563 334.732C100.575 334.552 100.587 334.336 100.599 334.145L115.753 227.231L115.968 225.757L114.486 225.649L40.339 219.969L38.9167 219.718C38.6777 219.622 38.4745 219.538 38.3072 219.478C37.5184 219.166 37.2555 219.07 36.5025 218.447C34.7576 216.997 33.7776 214.565 34.0883 212.252C34.2198 211.269 34.3393 211.018 34.7217 210.239C34.8054 210.059 34.913 209.843 35.0325 209.592L121.896 63.4214C122.028 63.2416 122.135 63.0858 122.231 62.954C122.434 62.6664 122.578 62.4387 122.793 62.2231C123.773 61.1566 125.099 60.4376 126.486 60.1739C127.322 60.0182 128.219 60.102 129.318 60.2578C129.486 60.3177 129.653 60.3657 129.808 60.4136C129.892 60.4376 129.964 60.4615 130.035 60.4855C130.286 60.5694 130.478 60.6413 130.645 60.7252H130.657C132.366 61.552 133.705 63.1577 134.23 65.0031C134.422 65.6742 134.469 66.0337 134.469 66.3572C134.469 66.6089 134.469 66.8366 134.446 67.1601C134.434 67.3638 134.422 67.6035 134.41 67.927L119.793 168.346L119.578 169.832L121.072 169.952H121.036Z" fill="url(#paint4_linear_9333_3348)" stroke="#7F95E7" stroke-miterlimit="7.33"/>
<path d="M121.096 173.184L187.625 180.3L188.884 180.565C189.076 180.649 189.244 180.709 189.388 180.769C190.119 181.07 190.347 181.166 191.019 181.743C192.542 183.077 193.369 185.265 193.057 187.321C192.925 188.198 192.818 188.427 192.458 189.124C192.374 189.28 192.29 189.473 192.17 189.689L109.428 324.618C109.32 324.762 109.212 324.918 109.116 325.05C109.068 325.11 109.032 325.171 108.984 325.231C108.84 325.423 108.72 325.579 108.6 325.7C106.526 327.887 102.724 328.14 100.398 326.228C99.0549 325.135 98.2155 323.451 98.1436 321.696C98.1436 321.516 98.1436 321.324 98.1676 321.083C98.1676 321.023 98.1796 320.939 98.1915 320.867C98.2035 320.699 98.2275 320.518 98.2395 320.338L114.764 224.563L114.992 223.241L113.661 223.097L47.0952 215.968L45.8241 215.703C45.6082 215.607 45.4403 215.535 45.2844 215.475C44.5769 215.175 44.3491 215.078 43.6895 214.501C42.1546 213.155 41.3392 210.931 41.6869 208.851C41.8308 207.974 41.9508 207.757 42.3105 207.06C42.3945 206.892 42.4904 206.711 42.6103 206.483L124.741 77.349C124.861 77.1927 124.957 77.0604 125.053 76.9282C125.245 76.6758 125.377 76.4834 125.568 76.279C126.48 75.3534 127.691 74.7403 128.95 74.5359C129.706 74.4157 130.509 74.5239 131.492 74.6922C131.636 74.7523 131.792 74.8004 131.924 74.8485C131.996 74.8725 132.068 74.8966 132.128 74.9206C132.356 75.0048 132.524 75.0769 132.668 75.149H132.679C134.202 75.9424 135.354 77.4211 135.773 79.1041C135.929 79.7051 135.953 80.0297 135.953 80.3303C135.953 80.5587 135.929 80.763 135.905 81.0516C135.893 81.2319 135.869 81.4603 135.845 81.7368L119.98 171.693L119.741 173.015L121.084 173.16L121.096 173.184Z" fill="url(#paint5_linear_9333_3348)" stroke="#8CA8EB" stroke-miterlimit="6.67"/>
<path d="M121.499 176.524L180.133 185.048L181.235 185.324C181.403 185.407 181.546 185.467 181.666 185.527C182.301 185.815 182.504 185.911 183.079 186.45C184.385 187.673 185.043 189.64 184.696 191.45C184.552 192.229 184.445 192.421 184.109 193.02C184.037 193.164 183.942 193.32 183.846 193.512L106.122 309.973C106.026 310.093 105.918 310.224 105.835 310.344C105.787 310.404 105.751 310.452 105.715 310.5C105.583 310.668 105.475 310.8 105.356 310.908C103.451 312.766 100.074 312.862 98.0862 311.1C96.9365 310.081 96.2539 308.57 96.2419 307.023C96.2419 306.868 96.2539 306.688 96.2898 306.484C96.2898 306.424 96.3018 306.364 96.3137 306.292C96.3377 306.148 96.3616 305.98 96.3736 305.824L114.194 221.746L114.445 220.583L113.272 220.415L54.6016 211.891L53.4878 211.615C53.3082 211.531 53.1525 211.447 53.0088 211.388C52.398 211.1 52.1944 211.004 51.6316 210.476C50.3142 209.23 49.6795 207.239 50.0388 205.417C50.1945 204.65 50.3022 204.458 50.6495 203.858C50.7334 203.715 50.8292 203.559 50.937 203.355L127.918 92.0015C128.026 91.8696 128.122 91.7498 128.206 91.6419C128.385 91.4261 128.517 91.2582 128.685 91.0904C129.523 90.2991 130.613 89.7956 131.727 89.6637C132.397 89.5798 133.104 89.6997 133.978 89.8795C134.11 89.9274 134.241 89.9874 134.361 90.0353C134.421 90.0593 134.481 90.0833 134.541 90.1073C134.733 90.1912 134.888 90.2511 135.008 90.3231C136.325 91.0784 137.295 92.4211 137.619 93.9198C137.738 94.4593 137.75 94.747 137.738 95.0108C137.738 95.2146 137.703 95.3944 137.679 95.6462C137.655 95.802 137.631 96.0058 137.607 96.2576L120.565 175.217L120.313 176.38L121.487 176.548L121.499 176.524Z" fill="url(#paint6_linear_9333_3348)" stroke="#99BCF0" stroke-miterlimit="6"/>
<path d="M121.537 180.227L172.596 190.168L173.558 190.455C173.703 190.527 173.823 190.599 173.931 190.647C174.473 190.935 174.653 191.019 175.122 191.51C176.217 192.638 176.71 194.376 176.325 195.935C176.169 196.607 176.061 196.774 175.748 197.29C175.676 197.41 175.591 197.542 175.495 197.71L102.348 296.069C102.252 296.165 102.155 296.285 102.083 296.381C102.047 296.429 102.011 296.477 101.975 296.513C101.855 296.657 101.746 296.765 101.65 296.849C99.8936 298.396 96.9341 298.336 95.2618 296.705C94.2993 295.77 93.7579 294.415 93.8181 293.072C93.8181 292.94 93.8421 292.784 93.8782 292.604C93.8782 292.556 93.9023 292.496 93.9143 292.436C93.9384 292.316 93.9624 292.172 93.9865 292.041L113.212 219.389L113.476 218.382L112.454 218.178L61.371 208.226L60.4085 207.938C60.2521 207.854 60.1198 207.782 59.9995 207.722C59.4701 207.446 59.3017 207.35 58.8325 206.859C57.7377 205.719 57.2564 203.957 57.6535 202.374C57.8219 201.715 57.9302 201.547 58.255 201.031C58.3272 200.911 58.4234 200.779 58.5317 200.611L130.813 106.676C130.921 106.568 131.005 106.46 131.077 106.377C131.246 106.185 131.366 106.053 131.523 105.909C132.293 105.249 133.267 104.866 134.254 104.794C134.843 104.758 135.469 104.89 136.215 105.082C136.323 105.13 136.443 105.189 136.539 105.237C136.6 105.261 136.648 105.285 136.684 105.309C136.852 105.393 136.985 105.453 137.093 105.525C138.212 106.233 139.006 107.456 139.222 108.775C139.295 109.254 139.307 109.506 139.283 109.734C139.27 109.914 139.234 110.07 139.198 110.286C139.174 110.429 139.138 110.597 139.102 110.813L120.779 179.016L120.502 180.023L121.525 180.227H121.537Z" fill="black" fill-opacity="0.5" stroke="#A7CFF5" stroke-miterlimit="5.33"/>
<path d="M121.93 183.137L165.074 194.505L165.879 194.805C165.999 194.877 166.095 194.937 166.191 194.997C166.648 195.273 166.792 195.357 167.164 195.8C168.041 196.832 168.353 198.355 167.945 199.662C167.777 200.226 167.669 200.369 167.369 200.789C167.296 200.885 167.224 200.993 167.128 201.137L99.0372 281.389C98.9531 281.473 98.869 281.557 98.7849 281.641C98.7489 281.677 98.7129 281.713 98.6888 281.749C98.5687 281.869 98.4846 281.953 98.3886 282.025C96.8031 283.248 94.2687 283.032 92.9355 281.545C92.1668 280.694 91.7824 279.495 91.9025 278.343C91.9146 278.223 91.9386 278.103 91.9866 277.936C91.9866 277.9 92.0107 277.84 92.0227 277.792C92.0467 277.684 92.0827 277.564 92.1067 277.456L112.622 216.235L112.91 215.384L112.045 215.156L68.8892 203.787L68.0845 203.487C67.9523 203.404 67.8442 203.344 67.7482 203.284C67.3158 203.02 67.1716 202.924 66.7993 202.48C65.9225 201.437 65.6102 199.902 66.0426 198.571C66.2227 198.007 66.3188 197.875 66.6311 197.455C66.7032 197.359 66.7873 197.24 66.8834 197.108L133.99 120.597C134.086 120.501 134.17 120.429 134.23 120.357C134.386 120.201 134.494 120.093 134.638 119.985C135.335 119.47 136.188 119.182 137.04 119.182C137.545 119.182 138.073 119.326 138.698 119.542C138.794 119.59 138.89 119.649 138.974 119.685C139.022 119.709 139.058 119.733 139.094 119.757C139.238 119.829 139.347 119.901 139.431 119.961C140.355 120.633 140.968 121.712 141.076 122.863C141.112 123.271 141.1 123.487 141.076 123.691C141.052 123.847 141.016 123.967 140.968 124.159C140.944 124.278 140.908 124.422 140.86 124.602L121.366 182.057L121.078 182.909L121.942 183.137H121.93Z" fill="black" fill-opacity="0.5" stroke="#B4E3FA" stroke-miterlimit="4.67"/>
<path d="M121.605 186.798L156.78 199.582L157.426 199.894C157.522 199.966 157.594 200.026 157.665 200.074C158.024 200.337 158.132 200.421 158.419 200.829C159.066 201.752 159.221 203.06 158.778 204.127C158.587 204.583 158.503 204.69 158.216 205.026C158.156 205.098 158.072 205.194 157.988 205.302L95.0482 267.445C94.9764 267.505 94.8926 267.577 94.8208 267.637C94.7849 267.661 94.761 267.697 94.7251 267.721C94.6174 267.805 94.5336 267.876 94.4498 267.924C93.0376 268.836 90.9312 268.464 89.9259 267.109C89.3394 266.329 89.1121 265.31 89.3035 264.351C89.3275 264.255 89.3514 264.147 89.3993 264.015C89.3993 263.979 89.4232 263.943 89.4352 263.895C89.4711 263.811 89.507 263.715 89.5309 263.619L111.289 213.852L111.588 213.169L110.882 212.917L75.6838 200.122L75.0256 199.81C74.9179 199.726 74.8341 199.666 74.7623 199.606C74.4152 199.354 74.3075 199.258 74.0322 198.862C73.374 197.927 73.2304 196.608 73.6971 195.529C73.8886 195.073 73.9844 194.965 74.2716 194.641C74.3434 194.569 74.4152 194.473 74.511 194.365L136.35 135.293C136.434 135.221 136.506 135.161 136.578 135.113C136.709 134.993 136.817 134.909 136.949 134.837C137.571 134.453 138.301 134.285 139.019 134.345C139.45 134.381 139.869 134.549 140.383 134.765C140.455 134.813 140.527 134.861 140.599 134.909C140.635 134.933 140.671 134.957 140.695 134.969C140.802 135.041 140.886 135.101 140.958 135.161C141.676 135.796 142.107 136.744 142.107 137.715C142.107 138.063 142.083 138.243 142.035 138.411C141.999 138.53 141.963 138.638 141.915 138.794C141.879 138.89 141.844 139.01 141.796 139.166L121.175 185.863L120.875 186.547L121.582 186.798H121.605Z" fill="url(#paint7_linear_9333_3348)" stroke="#C1F6FF"/>
<defs>
<linearGradient id="paint0_linear_9333_3348" x1="118.501" y1="1" x2="118.501" y2="401" gradientUnits="userSpaceOnUse">
<stop/>
<stop offset="1" stop-color="#08205F" stop-opacity="0.5"/>
</linearGradient>
<linearGradient id="paint1_linear_9333_3348" x1="118.501" y1="15.3939" x2="118.501" y2="386.606" gradientUnits="userSpaceOnUse">
<stop/>
<stop offset="1" stop-color="#08205F" stop-opacity="0.5"/>
</linearGradient>
<linearGradient id="paint2_linear_9333_3348" x1="118.121" y1="30.5454" x2="118.121" y2="371.454" gradientUnits="userSpaceOnUse">
<stop/>
<stop offset="1" stop-color="#08205F" stop-opacity="0.5"/>
</linearGradient>
<linearGradient id="paint3_linear_9333_3348" x1="117.743" y1="44.9395" x2="117.743" y2="357.061" gradientUnits="userSpaceOnUse">
<stop/>
<stop offset="1" stop-color="#08205F" stop-opacity="0.5"/>
</linearGradient>
<linearGradient id="paint4_linear_9333_3348" x1="117.743" y1="60.0909" x2="117.743" y2="341.909" gradientUnits="userSpaceOnUse">
<stop/>
<stop offset="1" stop-color="#08205F" stop-opacity="0.5"/>
</linearGradient>
<linearGradient id="paint5_linear_9333_3348" x1="117.365" y1="74.4849" x2="117.365" y2="327.515" gradientUnits="userSpaceOnUse">
<stop/>
<stop offset="1" stop-color="#08205F" stop-opacity="0.5"/>
</linearGradient>
<linearGradient id="paint6_linear_9333_3348" x1="117.364" y1="89.6364" x2="117.364" y2="312.364" gradientUnits="userSpaceOnUse">
<stop/>
<stop offset="1" stop-color="#08205F" stop-opacity="0.5"/>
</linearGradient>
<linearGradient id="paint7_linear_9333_3348" x1="116.227" y1="134.333" x2="116.227" y2="268.424" gradientUnits="userSpaceOnUse">
<stop/>
<stop offset="1" stop-color="#08205F" stop-opacity="0.5"/>
</linearGradient>
</defs>
</svg>
