<svg xmlns="http://www.w3.org/2000/svg" width="287" height="78" fill="none" viewBox="0 0 287 78"><path fill="#fff" d="M14.0609 63C8.48094 52.65 12.1709 38.16 22.6109 28.98C29.0909 22.77 41.3309 19.17 41.3309 10.44C41.3309 3.06 33.7709 -4.29153e-06 20.9909 -4.29153e-06H0.110938C2.45094 3.06 4.25094 9.18 4.25094 18.63V44.37C4.25094 53.82 2.45094 59.94 0.110938 63H14.0609ZM4.25094 58.68C6.41094 42.21 7.67094 25.47 9.11094 8.81999C9.65094 2.97 12.8009 0.899995 19.2809 0.899995C30.8909 0.899995 34.5809 5.13 34.5809 10.17C34.5809 16.92 26.3909 24.03 21.7109 28.35C16.2209 33.48 10.3709 40.68 4.25094 58.68ZM35.6188 48.51C35.6188 57.6 42.3688 63.72 51.4588 63.72C58.9288 63.63 62.9788 60.57 66.3988 55.17L69.0088 63H77.3788C75.5788 61.56 74.2288 59.04 72.1588 53.82C71.8888 53.1 62.7988 28.17 60.9988 24.12C58.4787 18.27 54.4288 17.28 51.6388 17.28C49.0288 17.28 45.6988 18.18 43.7188 19.71L43.8988 19.8C47.8588 18.63 52.3588 19.17 54.5188 22.95C56.5888 26.46 61.9888 42.3 66.1288 54.45C63.4288 58.5 58.8388 60.21 54.6088 60.12C46.1488 60.03 41.6488 54.18 41.6488 45.36C41.6488 35.46 49.8388 27.99 53.8888 25.11C42.4588 30.33 35.6188 38.52 35.6188 48.51ZM110.937 50.49C110.217 43.65 102.837 40.59 95.3668 36.81C89.0668 33.66 83.4868 31.77 83.1268 26.19C82.7668 21.24 87.8068 18.27 93.1168 18.27C101.037 18.27 104.727 24.48 108.327 33.03H108.507L107.787 20.25C104.727 18.81 101.037 17.28 95.1868 17.28C85.0168 17.28 78.2668 21.33 78.6268 29.07C78.9868 36.27 85.8268 39.33 92.7568 42.84C99.3268 46.17 105.807 48.51 105.897 54C105.987 59.31 101.577 62.55 94.8268 62.73C89.9668 62.82 83.7568 60.21 78.6268 47.07H78.4468L79.1668 61.11C82.8568 62.37 87.4468 63.72 94.1068 63.72C103.557 63.72 111.747 58.59 110.937 50.49ZM146.093 50.49C145.373 43.65 137.993 40.59 130.523 36.81C124.223 33.66 118.643 31.77 118.283 26.19C117.923 21.24 122.963 18.27 128.273 18.27C136.193 18.27 139.883 24.48 143.483 33.03H143.663L142.943 20.25C139.883 18.81 136.193 17.28 130.343 17.28C120.173 17.28 113.423 21.33 113.783 29.07C114.143 36.27 120.983 39.33 127.913 42.84C134.483 46.17 140.963 48.51 141.053 54C141.143 59.31 136.733 62.55 129.983 62.73C125.123 62.82 118.913 60.21 113.783 47.07H113.603L114.323 61.11C118.013 62.37 122.603 63.72 129.263 63.72C138.713 63.72 146.903 58.59 146.093 50.49ZM148.292 22.41C151.082 24.66 152.612 29.16 152.522 35.91L151.982 77.85H162.062C159.632 75.78 157.832 69.39 157.832 64.53V57.96C160.532 60.75 165.572 63.72 171.152 63.72C180.242 63.72 190.412 56.25 190.412 40.32C190.412 26.01 180.962 17.28 171.062 17.28C166.832 17.28 160.982 19.8 157.832 24.93V17.28L148.292 22.05V22.41ZM157.832 26.37C160.262 22.32 164.312 20.61 167.912 20.61C176.552 20.61 184.112 27.9 184.112 40.77C184.112 55.08 174.932 60.66 168.182 60.66C163.502 60.66 159.902 58.41 157.832 56.7V26.37ZM193.035 40.14C193.035 53.1 203.655 63.72 216.165 63.72C228.315 63.72 238.485 53.82 238.485 40.86C238.485 27.81 227.865 17.28 215.355 17.28C203.205 17.28 193.035 27.18 193.035 40.14ZM198.795 36.45C198.795 27.45 203.385 18.72 212.565 18.72C223.725 18.72 232.725 32.67 232.725 44.55C232.725 53.55 228.135 62.28 218.955 62.28C207.885 62.28 198.795 48.6 198.795 36.45ZM240.402 22.41C243.192 24.66 244.722 29.16 244.632 35.91L244.092 63H254.172C251.742 60.93 249.942 55.53 249.942 47.25V37.44C249.942 29.43 257.952 23.58 266.772 23.76L268.212 17.28C258.222 18.63 251.562 23.4 249.942 34.02V17.28L240.402 22.05V22.41ZM279.739 17.37V6.48H279.379C278.389 10.62 273.709 16.11 268.669 17.91V18.27H274.069V43.74C274.069 54.99 276.859 63 286.309 63V62.64C281.899 62.28 279.739 55.89 279.739 42.75V18.27H286.309V17.37H279.739Z"/></svg>