<svg width="128" height="146" viewBox="0 0 128 146" fill="none" xmlns="http://www.w3.org/2000/svg">
<path d="M61.6349 145.42L2.16453 111.085C0.825226 110.311 0 108.882 0 107.335V38.6652C0 37.1176 0.825226 35.689 2.16453 34.9152L61.6349 0.580364C62.9742 -0.193454 64.6246 -0.193454 65.9639 0.580364L125.434 34.9152C126.774 35.689 127.599 37.1176 127.599 38.6652V107.335C127.599 108.882 126.774 110.311 125.434 111.085L65.9639 145.42C64.6246 146.193 62.9742 146.193 61.6349 145.42ZM12.9872 104.837L61.6349 132.925C62.9742 133.699 64.6246 133.699 65.9639 132.925L114.612 104.837C115.951 104.064 116.776 102.635 116.776 101.087V44.9153C116.776 43.3676 115.951 41.939 114.612 41.1652L65.9639 13.0778C64.6246 12.304 62.9742 12.304 61.6349 13.0778L12.9872 41.1652C11.6479 41.939 10.8226 43.3676 10.8226 44.9153V101.087C10.8226 102.635 11.6479 104.064 12.9872 104.837Z" fill="white"/>
<path d="M61.6345 23.0133L21.5908 46.1331C20.2515 46.9069 19.4263 48.3355 19.4263 49.8832V93.6228C19.4263 96.7154 21.0767 99.5753 23.7553 101.12L28.6255 103.931C29.3479 104.348 30.2489 103.829 30.2489 102.995V56.1333C30.2489 54.5856 31.0741 53.157 32.4134 52.3832L61.6345 35.5134C62.9738 34.7396 64.6243 34.7396 65.9636 35.5134L95.1847 52.3832C96.524 53.157 97.3492 54.5856 97.3492 56.1333V89.8755C97.3492 91.4231 96.524 92.8517 95.1847 93.6255L65.9636 110.495C64.6243 111.269 62.9738 111.269 61.6345 110.495L51.8942 104.873C50.5549 104.099 49.7296 102.671 49.7296 101.123V67.3807C49.7296 65.833 50.5549 64.4044 51.8942 63.6306L61.6345 58.0083C62.9738 57.2344 64.6243 57.2344 65.9636 58.0083L75.704 63.6306C77.0433 64.4044 77.8685 65.833 77.8685 67.3807V78.6281C77.8685 80.1757 77.0433 81.6043 75.704 82.3781L70.8338 85.1893C70.1114 85.606 69.2104 85.0865 69.2104 84.2531V77.3348V72.4565C69.2104 70.9088 68.3852 69.4803 67.0459 68.7064L64.8813 67.4564C64.2103 67.0695 63.3878 67.0695 62.7168 67.4564L60.0111 69.0176C59.0073 69.5966 58.3878 70.6707 58.3878 71.8288V73.0003V96.1689C58.3878 97.7219 59.2211 99.1559 60.5685 99.927L61.6129 100.522C62.9495 101.285 64.5918 101.283 65.9257 100.511L86.5266 88.6174C87.8659 87.8436 88.6911 86.415 88.6911 84.8673V61.1225C88.6911 59.5748 87.8659 58.1463 86.5266 57.3724L65.9636 45.5C64.6243 44.7262 62.9738 44.7262 61.6345 45.5L41.0715 57.3724C39.7322 58.1463 38.907 59.5748 38.907 61.1225V107.359C38.907 108.907 39.7322 110.336 41.0715 111.11L61.6345 122.982C62.9738 123.756 64.6243 123.756 65.9636 122.982L106.007 99.8621C107.347 99.0883 108.172 97.6597 108.172 96.112V49.8751C108.172 48.3274 107.347 46.8988 106.007 46.125L65.9636 23.0052C64.6243 22.2314 62.9738 22.2314 61.6345 23.0052V23.0133Z" fill="white"/>
</svg>
