<?xml version="1.0" encoding="UTF-8" standalone="no"?>
<svg
   width="31.101494"
   height="32.0005"
   viewBox="0 0 31.101494 32.0005"
   fill="none"
   version="1.1"
   id="svg32"
   sodipodi:docname="passportLogoWhite.svg"
   inkscape:version="1.1.2 (0a00cf5339, 2022-02-04)"
   xmlns:inkscape="http://www.inkscape.org/namespaces/inkscape"
   xmlns:sodipodi="http://sodipodi.sourceforge.net/DTD/sodipodi-0.dtd"
   xmlns="http://www.w3.org/2000/svg"
   xmlns:svg="http://www.w3.org/2000/svg">
  <defs
     id="defs36" />
  <sodipodi:namedview
     id="namedview34"
     pagecolor="#ffffff"
     bordercolor="#666666"
     borderopacity="1.0"
     inkscape:pageshadow="2"
     inkscape:pageopacity="0.0"
     inkscape:pagecheckerboard="0"
     showgrid="false"
     fit-margin-top="0"
     fit-margin-left="0"
     fit-margin-right="0"
     fit-margin-bottom="0"
     inkscape:zoom="10.535433"
     inkscape:cx="63.452541"
     inkscape:cy="15.993647"
     inkscape:window-width="2998"
     inkscape:window-height="1664"
     inkscape:window-x="74"
     inkscape:window-y="27"
     inkscape:window-maximized="1"
     inkscape:current-layer="svg32" />
  <path
     d="m 8.4832599,22.3883 c -1.21424,-2.1029 -1.20746,-4.5721 -0.2069,-6.5935 l -4.79591,-2.7677 c -0.11871,-0.0678 -0.22725,-0.1458 -0.34257,-0.2205 -0.06105,0.3731 -0.10175,0.7496 -0.10175,1.1397 v 11.074 c 0,3.8564 3.12379,6.9802 6.9801701,6.9802 3.7174,0 6.7496,-2.9102 6.9599,-6.5766 -3.1408,1.1837 -6.7666,-0.0339 -8.4997301,-3.039 z"
     fill="#6f3ff5"
     id="path2" />
  <path
     d="m 10.0243,6.9663804 c 2.4284,0 4.5618,1.24137 5.8134,3.1204196 l 4.7959,-2.7676796 c 0.1187,-0.06783 0.2408,-0.1255 0.3629,-0.18655 -0.2917,-0.23742 -0.6003,-0.46127 -0.9361,-0.658 L 10.4686,0.93587935 C 7.1311099,-0.99062465 2.8609199,0.15238935 0.9344179,3.4898504 -0.9242511,6.7086104 0.0797013,10.7889 3.1492199,12.8035 3.6952899,9.4932204 6.5612999,6.9629904 10.0277,6.9629904 Z"
     fill="#ffcc00"
     id="path4" />
  <path
     d="m 8.2805899,15.794 c 0.59016,-1.1905 1.52289,-2.2284 2.7609101,-2.9406 l 4.7959,-2.7711 C 14.5858,8.2032904 12.449,6.9619104 10.0239,6.9619104 c -3.4663101,0 -6.3357101,2.53024 -6.8783901,5.8405896 0.11193,0.0746 0.22385,0.1526 0.34256,0.2204 l 4.79591,2.7677 z"
     fill="#8c65f7"
     id="path6" />
  <path
     d="m 30.1675,9.8688204 c -1.8587,-3.21875 -5.8948,-4.3889 -9.1746,-2.74052 2.5947,2.12661 3.351,5.8778996 1.6178,8.8795996 -1.2142,2.1028 -3.3544,3.3306 -5.6099,3.4765 v 5.5353 c 0,0.1357 -0.0135,0.2713 -0.0203,0.407 0.3527,-0.1323 0.7021,-0.2883 1.0378,-0.4816 l 9.5919,-5.5387 c 3.3374,-1.9265 4.4838,-6.1967 2.5539,-9.5341796 z"
     fill="#02e2ac"
     id="path8" />
  <path
     d="M 17.004,19.4851 C 15.6778,19.5699 14.3143,19.2782 13.0763,18.566 L 8.2804199,15.7949 c -1.00395,2.0215 -1.00734,4.4941 0.2069,6.5935 1.7331801,3.0017 5.3589801,4.2228 8.4996801,3.039 0.0068,-0.1356 0.0203,-0.2679 0.0203,-0.407 v -5.5353 z"
     fill="#5bf1cd"
     id="path10" />
  <path
     d="m 15.8369,10.0826 c 0.736,1.1057 1.1668,2.4319 1.1668,3.8598 v 5.5387 c 2.2521,-0.1425 4.3957,-1.3737 5.6099,-3.4765 1.7332,-3.0017 0.9768,-6.7495896 -1.6179,-8.8795996 -0.1221,0.06105 -0.2442,0.11531 -0.3629,0.18654 L 15.8369,10.0792 Z"
     fill="#ffdb4c"
     id="path12" />
  <path
     d="m 15.8371,10.084 -4.796,2.771 c -1.2379401,0.7157 -2.1706701,1.7502 -2.7608301,2.9407 l 4.7959301,2.771 c 1.238,0.7157 2.6014,1.004 3.9276,0.9192 v -5.5387 c 0,-1.428 -0.4307,-2.7541 -1.1667,-3.8598 z"
     fill="#ffffff"
     id="path14" />
</svg>
