<svg width="75" height="12" viewBox="0 0 75 12" fill="none" xmlns="http://www.w3.org/2000/svg">
<path d="M2.24269 10.9505V7.04197H3.06555C5.2324 7.04197 6.74098 5.86254 6.74098 3.8054C6.74098 1.47397 5.08155 0.609969 2.66783 0.609969H0.185547V10.9505H2.24269ZM2.24269 2.37911H2.75012C4.02555 2.37911 4.72498 2.81797 4.72498 3.8054C4.72498 4.82025 4.05298 5.28654 2.80498 5.28654H2.24269V2.37911Z" fill="#EBEBEB"/>
<path d="M17.5675 10.9505L13.179 0.609969H11.7253L7.19955 10.9505H9.38012L10.299 8.71511H14.4407L15.3047 10.9505H17.5675ZM11.6155 5.51968C11.8898 4.83397 12.1641 4.14825 12.4247 3.46254C12.6715 4.14825 12.9321 4.83397 13.1927 5.51968L13.7687 7.01454H10.9984L11.6155 5.51968Z" fill="#EBEBEB"/>
<path d="M22.2783 11.1425C24.1983 11.1425 25.652 9.92197 25.652 8.05683C25.652 6.36997 24.8429 5.49225 23.0052 4.72425C21.6063 4.12083 21.1674 3.77797 21.1674 3.21568C21.1674 2.6534 21.6749 2.20083 22.4017 2.20083C23.1697 2.20083 23.7046 2.57111 24.1297 3.20197L25.4463 2.02254C24.788 1.04883 23.7594 0.417969 22.3194 0.417969C20.4406 0.417969 19.0829 1.65225 19.0829 3.28425C19.0829 4.8614 20.084 5.57454 21.7709 6.3014C23.1697 6.90483 23.5537 7.32997 23.5537 8.08425C23.5537 8.83854 23.0463 9.35968 22.1823 9.35968C21.2909 9.35968 20.5366 8.87968 20.0154 7.86483L18.6029 8.92083C19.1926 10.2237 20.468 11.1425 22.2783 11.1425Z" fill="#EBEBEB"/>
<path d="M31.1669 11.1425C33.0869 11.1425 34.5406 9.92197 34.5406 8.05683C34.5406 6.36997 33.7314 5.49225 31.8937 4.72425C30.4949 4.12083 30.056 3.77797 30.056 3.21568C30.056 2.6534 30.5634 2.20083 31.2903 2.20083C32.0583 2.20083 32.5932 2.57111 33.0183 3.20197L34.3349 2.02254C33.6766 1.04883 32.648 0.417969 31.208 0.417969C29.3292 0.417969 27.9714 1.65225 27.9714 3.28425C27.9714 4.8614 28.9726 5.57454 30.6594 6.3014C32.0583 6.90483 32.4423 7.32997 32.4423 8.08425C32.4423 8.83854 31.9349 9.35968 31.0709 9.35968C30.1794 9.35968 29.4252 8.87968 28.904 7.86483L27.4914 8.92083C28.0812 10.2237 29.3566 11.1425 31.1669 11.1425Z" fill="#EBEBEB"/>
<path d="M39.1497 10.9505V7.04197H39.9725C42.1394 7.04197 43.6479 5.86254 43.6479 3.8054C43.6479 1.47397 41.9885 0.609969 39.5748 0.609969H37.0925V10.9505H39.1497ZM39.1497 2.37911H39.6571C40.9325 2.37911 41.6319 2.81797 41.6319 3.8054C41.6319 4.82025 40.9599 5.28654 39.7119 5.28654H39.1497V2.37911Z" fill="#EBEBEB"/>
<path d="M51.1086 11.1425C54.1258 11.1425 56.6355 8.83854 56.6355 5.79397C56.6355 2.7494 54.1395 0.417969 51.1772 0.417969C48.1738 0.417969 45.6778 2.77683 45.6778 5.75283C45.6778 8.90711 48.2012 11.1425 51.1086 11.1425ZM51.1223 9.23626C49.3532 9.23626 47.7623 7.79626 47.7623 5.76654C47.7623 3.84654 49.2846 2.32425 51.1498 2.32425C53.056 2.32425 54.5372 3.81911 54.5372 5.78026C54.5372 7.7414 53.0423 9.23626 51.1223 9.23626Z" fill="#EBEBEB"/>
<path d="M63.6776 6.71283C65.1175 6.1094 65.8307 5.09454 65.8307 3.77797C65.8307 1.54254 64.1438 0.609969 61.785 0.609969H59.3027V10.9505H61.3598V6.93226H61.6615L64.2535 10.9505H66.7221L63.6776 6.71283ZM61.8673 2.39283C63.129 2.39283 63.801 2.83168 63.801 3.81911C63.801 4.84768 63.0604 5.31397 61.8124 5.31397H61.3598V2.39283H61.8673Z" fill="#EBEBEB"/>
<path d="M71.9563 10.9505V2.51626H74.2603V0.609969H67.5677V2.51626H69.8854V10.9505H71.9563Z" fill="#EBEBEB"/>
</svg>
