<svg width="48" height="48" viewBox="0 0 48 48" fill="none" xmlns="http://www.w3.org/2000/svg">
<rect width="48" height="48" rx="4" fill="white"/>
<path fill-rule="evenodd" clip-rule="evenodd" d="M34.663 33.1968C35.2786 34.6501 35.8953 36.103 36.5095 37.5569C37.2077 39.2101 37.8962 40.8676 38.6047 42.5165C38.8489 43.0848 38.8936 43.6299 38.4596 44.1043C38.0373 44.5658 37.5006 44.5852 36.9302 44.3838C35.5695 43.9034 34.201 43.4451 32.8439 42.9545C32.5111 42.8341 32.3743 42.9213 32.2343 43.227C31.6103 44.5897 30.9666 45.9435 30.3201 47.2959C30.0621 47.8356 29.6089 48.0376 29.0234 47.9943C28.5033 47.956 28.1826 47.6638 27.9912 47.2082C26.9823 44.8072 25.9778 42.4044 24.9706 40.0027C24.9242 39.8919 24.8658 39.7861 24.7829 39.6165C24.4365 40.4337 24.1095 41.196 23.7893 41.9614C23.0604 43.7041 22.3375 45.4492 21.6065 47.1909C21.3878 47.7119 21.0078 47.9928 20.4183 47.9986C19.8256 48.0044 19.4656 47.7168 19.2244 47.2037C18.5867 45.8471 17.9332 44.4978 17.2984 43.1399C17.1811 42.8889 17.0613 42.8505 16.7983 42.9438C15.3622 43.4537 13.9189 43.9436 12.4754 44.4322C11.9711 44.6029 11.4883 44.5135 11.1357 44.1208C10.7827 43.7276 10.6804 43.2531 10.9019 42.7276C12.0808 39.9298 13.2496 37.1278 14.4241 34.3282C14.4813 34.1919 14.5599 34.0645 14.6284 33.9331C14.8087 34.0084 14.9775 34.0999 15.0929 34.2659C14.5121 35.6746 13.9351 37.0849 13.3492 38.4914C12.7471 39.9364 12.1345 41.3771 11.5303 42.8212C11.3985 43.1361 11.3537 43.4584 11.6215 43.7279C11.8683 43.9761 12.1533 43.9016 12.4476 43.7986C13.9495 43.2722 15.4585 42.7657 16.9563 42.2282C17.339 42.0909 17.5257 42.1626 17.6984 42.5416C18.3647 44.0039 19.0654 45.4505 19.7515 46.9039C19.8871 47.1911 20.0792 47.4146 20.4191 47.4097C20.7386 47.4051 20.9365 47.1997 21.0538 46.9195C22.1271 44.3554 23.1885 41.7861 24.2797 39.2296C24.4498 38.8309 24.4213 38.5238 24.1836 38.1937C24.0734 38.2596 24.0553 38.3548 24.0196 38.4399C22.9577 40.9652 21.8961 43.4906 20.8323 46.0151C20.7615 46.1829 20.74 46.4208 20.501 46.4257C20.2475 46.431 20.202 46.1846 20.1143 46.01C19.3854 44.5609 18.653 43.1135 17.9403 41.6564C17.8128 41.3957 17.6917 41.3345 17.4166 41.4307C16.6277 41.7066 15.8295 41.9561 15.0338 42.2125C14.2252 42.473 13.4149 42.7279 12.6066 42.9892C12.4717 43.0328 12.3414 43.0716 12.2328 42.9499C12.1393 42.845 12.1673 42.7252 12.2163 42.6073C12.2577 42.5076 12.292 42.405 12.3337 42.3054C13.4241 39.7043 14.5151 37.1034 15.6059 34.5024C16.5171 34.7423 17.4508 34.718 18.3726 34.6607C19.5913 34.5849 20.6318 34.9732 21.6224 35.6362C22.4257 36.1739 23.2526 36.6928 24.2729 36.7141C25.6781 40.0749 27.0854 43.4348 28.4855 46.7978C28.6178 47.1156 28.7722 47.3987 29.1533 47.4089C29.5338 47.4192 29.7155 47.1462 29.8607 46.8369C30.5092 45.4557 31.1534 44.0725 31.8168 42.6986C32.1264 42.0572 31.9739 42.0162 32.8022 42.3018C34.2555 42.8029 35.7099 43.301 37.1601 43.8112C37.479 43.9234 37.7644 43.9464 38.0104 43.6785C38.2597 43.407 38.1886 43.1222 38.0598 42.8163C36.782 39.7823 35.5113 36.7454 34.2387 33.7092C34.3689 33.5291 34.4745 33.3285 34.663 33.1968Z" fill="#FCCDD3"/>
<mask id="mask0_2028_44858" style="mask-type:alpha" maskUnits="userSpaceOnUse" x="6" y="0" width="37" height="37">
<path d="M6 0H42.6791V36.7265H6V0Z" fill="white"/>
</mask>
<g mask="url(#mask0_2028_44858)">
<path fill-rule="evenodd" clip-rule="evenodd" d="M18.3011 2.77121C17.6448 2.77121 17.1979 2.75311 16.753 2.77511C15.9434 2.81522 15.2685 3.11722 14.7859 3.80776C14.4126 4.34194 14.1039 4.91135 13.811 5.48905C13.2851 6.52657 12.5116 7.30138 11.4728 7.82362C11.0148 8.05394 10.574 8.31851 10.1276 8.57164C9.19407 9.10095 8.75584 9.91197 8.76508 10.9779C8.77101 11.6678 8.76517 12.3578 8.77587 13.0475C8.7878 13.8116 8.59261 14.5172 8.20573 15.1715C7.89633 15.6947 7.58765 16.2187 7.26689 16.735C6.60394 17.8021 6.57044 18.8655 7.25715 19.9358C7.41762 20.1857 7.54717 20.4569 7.72021 20.6972C8.5351 21.8292 8.89861 23.0801 8.7792 24.4762C8.74237 24.9061 8.76306 25.3415 8.76679 25.7742C8.77458 26.6969 9.09315 27.4656 9.89579 27.9797C10.2024 28.1761 10.5062 28.3873 10.8367 28.5347C12.3177 29.1946 13.4273 30.2204 14.0879 31.7182C14.2235 32.0258 14.4102 32.3113 14.5788 32.6039C15.1074 33.5206 15.916 33.9432 16.9595 33.9428C17.6759 33.9426 18.3924 33.9409 19.1088 33.9338C19.8731 33.9263 20.573 34.1451 21.2253 34.5293C21.7491 34.8377 22.2721 35.1476 22.788 35.4689C23.8184 36.1105 24.8447 36.1187 25.8772 35.4773C26.2673 35.2351 26.6696 35.012 27.0539 34.761C27.9387 34.1832 28.8903 33.8701 29.9603 33.9293C30.5399 33.9612 31.1224 33.9413 31.7037 33.9431C32.7635 33.9462 33.5833 33.5207 34.1134 32.5841C34.3663 32.1373 34.6315 31.6966 34.8615 31.2381C35.3828 30.1991 36.1469 29.4155 37.1904 28.8961C37.6614 28.6616 38.1177 28.3956 38.5699 28.1259C39.3038 27.6885 39.7962 27.0842 39.8802 26.195C39.9581 25.3707 39.9041 24.5465 39.9018 23.7225C39.8994 22.8868 40.1079 22.1215 40.5395 21.4108C40.855 20.8911 41.1635 20.3672 41.4771 19.8464C42.058 18.8819 42.0871 17.9086 41.5177 16.9302C41.2663 16.4982 41.0132 16.0665 40.742 15.6469C40.161 14.7484 39.8386 13.7858 39.9014 12.6999C39.9358 12.1066 39.922 11.5097 39.9138 10.9147C39.9011 10.0104 39.5879 9.25764 38.8052 8.73758C38.2751 8.38517 37.7178 8.08243 37.153 7.79375C36.157 7.28457 35.4098 6.53582 34.8976 5.54093C34.6442 5.0488 34.3688 4.56738 34.0887 4.0897C33.6528 3.34639 33.0246 2.87318 32.1479 2.79297C31.8124 2.76228 31.4732 2.77365 31.1356 2.76764C30.4065 2.75449 29.6739 2.82796 28.9487 2.729C28.0527 2.60674 27.2845 2.1539 26.5802 1.63384C25.076 0.522938 23.6232 0.507351 22.1188 1.62865C20.9312 2.51386 19.6047 2.99552 18.3011 2.77121ZM15.0925 34.2659C14.9771 34.0999 14.8083 34.0084 14.628 33.9332C13.8521 33.0202 13.3797 31.9191 12.7548 30.9124C12.3628 30.2807 11.7604 29.8969 11.1257 29.5507C10.5097 29.2147 9.87502 28.9097 9.31129 28.4836C8.49226 27.8645 8.07058 27.038 8.03894 26.0164C8.02394 25.53 8.00033 25.039 8.04624 24.5564C8.16882 23.2686 7.81464 22.1314 7.08128 21.0827C6.80375 20.6858 6.56719 20.2555 6.35335 19.8199C5.86961 18.8349 5.89143 17.8411 6.36438 16.8523C6.63347 16.2894 6.9759 15.7699 7.30818 15.2454C7.81366 14.4476 8.10352 13.6012 8.0486 12.6416C8.01542 12.0616 8.04065 11.4786 8.03351 10.897C8.01728 9.58643 8.60024 8.61597 9.70929 7.95076C10.1375 7.69389 10.5704 7.44117 11.0185 7.22198C12.0025 6.74065 12.7261 6.01853 13.2123 5.03321C13.5461 4.35639 13.8928 3.68265 14.3936 3.10276C15.0082 2.3912 15.7942 2.06801 16.7145 2.04154C17.1871 2.02799 17.6646 1.99827 18.1326 2.04674C19.4532 2.18329 20.6065 1.79036 21.6745 1.04316C22.0271 0.796524 22.4128 0.593892 22.7954 0.394263C23.8293 -0.145359 24.8657 -0.118244 25.9046 0.397186C26.4389 0.662248 26.9391 0.98365 27.4379 1.30513C28.2465 1.82625 29.1141 2.09358 30.0811 2.05145C30.6613 2.02612 31.2432 2.04292 31.8243 2.03781C33.1366 2.0262 34.0956 2.6263 34.7518 3.73948C35.0192 4.19313 35.2861 4.64881 35.5197 5.12032C35.9751 6.0398 36.6593 6.71386 37.5742 7.17132C38.1415 7.45497 38.7006 7.75665 39.2247 8.11759C40.1625 8.76348 40.6342 9.65787 40.6462 10.7946C40.6509 11.2409 40.6801 11.6908 40.6371 12.133C40.5104 13.4347 40.8668 14.5872 41.614 15.6436C41.8472 15.9732 42.04 16.3332 42.2326 16.6894C42.8736 17.8754 42.8095 19.0475 42.1375 20.199C41.8037 20.7707 41.464 21.3389 41.1256 21.9078C40.7854 22.4798 40.6298 23.0987 40.6374 23.7632C40.6453 24.4395 40.6373 25.116 40.6488 25.7922C40.6711 27.1039 40.0907 28.0764 38.988 28.7476C38.5153 29.0354 38.0289 29.3022 37.5378 29.5576C36.7385 29.9733 36.0818 30.5289 35.6594 31.3418C35.3358 31.9645 34.9959 32.5789 34.6629 33.1968C34.4741 33.3286 34.3685 33.5291 34.2383 33.7092C34.0668 33.806 33.9361 33.9479 33.8106 34.0957C33.0869 34.5815 32.2793 34.7086 31.4262 34.6791C30.8198 34.6582 30.2122 34.6746 29.605 34.673C29.1827 34.6718 28.7759 34.7499 28.3895 34.9197C27.1887 35.4475 26.1805 36.3483 24.9019 36.7265C24.6931 36.6669 24.4824 36.7133 24.2725 36.7141C23.2522 36.693 22.4253 36.174 21.622 35.6363C20.6313 34.9733 19.5909 34.585 18.3722 34.6607C17.4504 34.7181 16.5167 34.7423 15.6054 34.5025C15.451 34.3874 15.2874 34.2929 15.0925 34.2659Z" fill="#6534FF"/>
</g>
<path fill-rule="evenodd" clip-rule="evenodd" d="M29.5247 22.1776C29.8531 22.1875 30.0743 21.9154 29.9783 21.5788C29.3938 19.5311 28.801 17.4858 28.2098 15.4399C28.1187 15.1247 27.8785 15.061 27.6029 15.1265C27.3777 15.1799 27.3183 15.3925 27.2598 15.5901C26.8808 16.8693 26.5013 18.1485 26.1213 19.4276C25.9139 20.1252 25.697 20.82 25.5013 21.5208C25.4207 21.8096 25.4821 22.0781 25.8164 22.1616C26.1077 22.2343 26.3083 22.1172 26.3867 21.8031C26.4617 21.5028 26.5748 21.2119 26.6504 20.9116C26.7025 20.7045 26.81 20.6304 27.0213 20.6359C27.4934 20.6481 27.9663 20.6479 28.4383 20.6361C28.6609 20.6305 28.7834 20.6896 28.8305 20.9302C28.8874 21.2199 28.9879 21.5016 29.0775 21.7842C29.1465 22.0015 29.2562 22.1825 29.5247 22.1776ZM18.9093 18.6614C18.8773 18.9971 18.9744 19.3143 19.1313 19.6218C19.432 20.2111 19.7317 20.8013 20.0172 21.3982C20.2469 21.8787 20.5945 22.1638 21.1431 22.1826C21.7205 22.2024 22.0742 21.8999 22.3113 21.4089C22.6223 20.7646 22.946 20.1261 23.2491 19.4781C23.5099 18.9206 23.5081 18.3535 23.2371 17.7967C22.9002 17.1046 22.5676 16.4102 22.2143 15.7267C21.7908 14.9077 20.6141 14.8488 20.1545 15.6513C19.7261 16.3996 19.3769 17.1936 19.0043 17.973C18.9046 18.1815 18.8876 18.4159 18.9093 18.6614ZM32.0471 18.5226C32.0471 19.5502 32.051 20.5778 32.0447 21.6053C32.0428 21.94 32.1613 22.1696 32.5195 22.1739C32.9284 22.1787 32.9904 21.8681 32.9972 21.5568C33.0097 20.9756 33.011 20.3938 32.9966 19.8129C32.9904 19.5645 33.0738 19.484 33.321 19.4894C33.9557 19.5035 34.5912 19.5045 35.2259 19.4907C35.9815 19.4744 36.5554 18.9072 36.5785 18.15C36.5958 17.5827 36.5969 17.0139 36.5781 16.4466C36.5526 15.6742 35.9564 15.1117 35.1858 15.1096C34.2671 15.107 33.3481 15.1205 32.4297 15.1023C32.1343 15.0964 32.0332 15.1673 32.0394 15.4806C32.0598 16.4943 32.0471 17.5086 32.0471 18.5226ZM12.3339 18.5352C12.3339 19.5357 12.3334 20.5362 12.3347 21.5368C12.3348 21.6444 12.3201 21.7612 12.3558 21.8578C12.4391 22.0826 12.6089 22.1996 12.8594 22.1765C13.1719 22.1478 13.2682 21.917 13.2769 21.6656C13.2975 21.0714 13.3014 20.4756 13.2817 19.8815C13.2719 19.5865 13.346 19.4747 13.6612 19.4869C14.2817 19.5111 14.9042 19.5053 15.5253 19.4901C16.2601 19.4721 16.8356 18.9127 16.8639 18.1779C16.8862 17.5974 16.8856 17.0147 16.8643 16.4341C16.8361 15.6637 16.2374 15.1112 15.4601 15.1095C14.5414 15.1074 13.6223 15.1229 12.7041 15.1013C12.389 15.0939 12.3224 15.1994 12.3274 15.4931C12.3444 16.5069 12.3339 17.5212 12.3339 18.5352ZM18.3012 2.77129C19.6048 2.9956 20.9313 2.51394 22.1189 1.62865C23.6232 0.507348 25.0762 0.523017 26.5804 1.63392C27.2846 2.1539 28.0528 2.60674 28.9488 2.72908C29.674 2.82796 30.4066 2.75457 31.1357 2.76764C31.4733 2.77373 31.8125 2.76236 32.148 2.79305C33.0247 2.87326 33.6529 3.34647 34.0888 4.08978C34.3689 4.56746 34.6443 5.04879 34.8977 5.54101C35.4099 6.5359 36.1571 7.28465 37.1531 7.79375C37.7179 8.08251 38.2752 8.38524 38.8053 8.73758C39.588 9.25772 39.9012 10.0104 39.9138 10.9147C39.9222 11.5098 39.9359 12.1066 39.9015 12.6999C39.8387 13.7858 40.1612 14.7484 40.7421 15.647C41.0134 16.0665 41.2665 16.4982 41.5179 16.9303C42.0871 17.9087 42.0581 18.8819 41.4772 19.8464C41.1636 20.3672 40.8552 20.8911 40.5396 21.4108C40.108 22.1216 39.8995 22.8869 39.9019 23.7226C39.9042 24.5465 39.9582 25.3708 39.8803 26.1951C39.7963 27.0843 39.3039 27.6885 38.57 28.126C38.1178 28.3956 37.6616 28.6617 37.1906 28.8961C36.147 29.4156 35.383 30.1992 34.8617 31.2382C34.6317 31.6966 34.3664 32.1374 34.1134 32.5841C33.5834 33.5207 32.7636 33.9462 31.7038 33.9431C31.1226 33.9414 30.54 33.9613 29.9604 33.9292C28.8904 33.8701 27.9389 34.1832 27.054 34.761C26.6698 35.012 26.2675 35.2351 25.8773 35.4774C24.8448 36.1187 23.8185 36.1106 22.7881 35.4689C22.2723 35.1476 21.7492 34.8378 21.2254 34.5294C20.5731 34.1452 19.8733 33.9263 19.1088 33.9339C18.3925 33.9409 17.676 33.9426 16.9596 33.9428C15.9161 33.9432 15.1075 33.5206 14.579 32.6039C14.4103 32.3114 14.2236 32.0258 14.088 31.7182C13.4274 30.2205 12.3178 29.1947 10.8369 28.5347C10.5063 28.3874 10.2026 28.1761 9.89591 27.9797C9.09327 27.4656 8.7747 26.6969 8.76691 25.7742C8.76318 25.3415 8.74249 24.9062 8.77932 24.4762C8.89874 23.0801 8.53522 21.8293 7.72033 20.6973C7.54729 20.4569 7.41774 20.1858 7.25727 19.9358C6.57056 18.8656 6.60398 17.8022 7.26701 16.735C7.58777 16.2187 7.89645 15.6948 8.20586 15.1716C8.59274 14.5172 8.78792 13.8116 8.776 13.0476C8.76529 12.3578 8.77113 11.6679 8.76521 10.978C8.75596 9.91205 9.19419 9.10103 10.1278 8.57164C10.5741 8.31859 11.0149 8.05394 11.4729 7.8237C12.5117 7.30145 13.2853 6.52657 13.8111 5.48913C14.104 4.91135 14.4127 4.34202 14.7861 3.80775C15.2687 3.11721 15.9435 2.81521 16.7531 2.77519C17.198 2.75319 17.645 2.77129 18.3012 2.77129Z" fill="#FEFEFE"/>
<path fill-rule="evenodd" clip-rule="evenodd" d="M33.8109 34.0957C34.8094 36.485 35.8078 38.8742 36.8062 41.2635C36.9779 41.6742 37.1545 42.0829 37.3191 42.4963C37.3768 42.6412 37.4776 42.8007 37.3408 42.9519C37.2012 43.1062 37.042 43.0107 36.8906 42.962C35.3253 42.4584 33.757 41.9635 32.1973 41.4432C31.8868 41.3396 31.7595 41.4061 31.6191 41.6944C30.9093 43.1518 30.1754 44.5974 29.4484 46.0465C29.3714 46.1999 29.3214 46.3802 29.0904 46.3788C28.8502 46.3773 28.8196 46.1786 28.7559 46.0272C27.4964 43.0309 26.2415 40.0326 24.9878 37.0338C24.947 36.9364 24.9303 36.829 24.9023 36.7263C26.1808 36.3484 27.189 35.4476 28.3899 34.9197C28.7761 34.75 29.183 34.6719 29.6053 34.6731C30.2125 34.6747 30.8201 34.6583 31.4264 34.6792C32.2796 34.7087 33.0872 34.5815 33.8109 34.0957Z" fill="#FCCDD3"/>
<path fill-rule="evenodd" clip-rule="evenodd" d="M13.2476 17.2872C13.2476 17.6246 13.2539 17.9621 13.2452 18.2992C13.2401 18.4941 13.2865 18.5985 13.5128 18.5944C14.1464 18.5832 14.7803 18.5922 15.414 18.5895C15.7598 18.5879 15.9432 18.3913 15.9548 18.063C15.9724 17.5643 15.9752 17.064 15.9558 16.5656C15.9426 16.2253 15.765 16.0178 15.3898 16.0222C14.7831 16.0294 14.1761 16.0322 13.5695 16.0204C13.319 16.0155 13.2345 16.1159 13.2446 16.3563C13.2575 16.6661 13.2477 16.9768 13.2476 17.2872ZM12.333 18.5351C12.333 17.521 12.3434 16.5068 12.3264 15.4931C12.3214 15.1993 12.3881 15.0937 12.7032 15.1012C13.6213 15.1229 14.5405 15.1073 15.4592 15.1094C16.2364 15.1111 16.8351 15.6636 16.8633 16.4341C16.8846 17.0147 16.8853 17.5973 16.863 18.1779C16.8346 18.9126 16.2592 19.4721 15.5243 19.49C14.9033 19.5052 14.2808 19.511 13.6602 19.4869C13.3451 19.4746 13.271 19.5865 13.2808 19.8814C13.3005 20.4755 13.2966 21.0714 13.276 21.6656C13.2673 21.917 13.171 22.1477 12.8584 22.1764C12.608 22.1994 12.4381 22.0824 12.3549 21.8576C12.3192 21.7612 12.3338 21.6443 12.3336 21.5367C12.3324 20.5361 12.333 19.5356 12.333 18.5351Z" fill="#6534FF"/>
<path fill-rule="evenodd" clip-rule="evenodd" d="M32.9616 17.3036C32.9616 17.641 32.9705 17.9787 32.9585 18.3156C32.9508 18.5296 33.0363 18.597 33.2433 18.5939C33.8634 18.5846 34.4838 18.5895 35.104 18.5906C35.4692 18.5913 35.6597 18.3954 35.6704 18.0464C35.6855 17.5476 35.6908 17.0473 35.6681 16.5491C35.6525 16.205 35.4579 16.015 35.0872 16.0214C34.4941 16.0314 33.9004 16.0337 33.3075 16.0197C33.0421 16.0133 32.9441 16.1095 32.9577 16.3727C32.9737 16.6823 32.9615 16.9933 32.9616 17.3036ZM32.047 18.5224C32.047 17.5084 32.0597 16.4941 32.0393 15.4804C32.0331 15.1672 32.1342 15.0963 32.4295 15.1021C33.348 15.1203 34.267 15.1068 35.1857 15.1094C35.9563 15.1115 36.5525 15.6741 36.578 16.4464C36.5968 17.0137 36.5957 17.5825 36.5784 18.1498C36.5553 18.907 35.9814 19.4742 35.2258 19.4905C34.5911 19.5043 33.9556 19.5033 33.3209 19.4892C33.0737 19.4838 32.9903 19.5643 32.9965 19.8127C33.0109 20.3937 33.0096 20.9755 32.9971 21.5567C32.9903 21.8679 32.9283 22.1785 32.5194 22.1737C32.1612 22.1695 32.0427 21.9398 32.0446 21.6051C32.0509 20.5776 32.047 19.55 32.047 18.5224Z" fill="#6534FF"/>
<path fill-rule="evenodd" clip-rule="evenodd" d="M22.4978 18.6506C22.4715 18.5194 22.4706 18.376 22.4147 18.259C22.0884 17.5773 21.7589 16.8965 21.4098 16.2263C21.2578 15.9344 21.018 15.9373 20.8647 16.2352C20.5312 16.8831 20.2186 17.5419 19.9083 18.2013C19.7481 18.5418 19.7908 18.8867 19.9535 19.2167C20.2461 19.8101 20.5444 20.4006 20.8393 20.9929C20.9069 21.1284 20.9753 21.2729 21.1537 21.2649C21.307 21.2582 21.3759 21.1329 21.4383 21.0079C21.7464 20.3921 22.058 19.778 22.366 19.1623C22.4456 19.0032 22.4921 18.8345 22.4978 18.6506ZM18.9087 18.6613C18.8871 18.4159 18.9041 18.1814 19.0037 17.9729C19.3762 17.1936 19.7256 16.3995 20.1539 15.6514C20.6135 14.8487 21.7902 14.9076 22.2136 15.7266C22.567 16.4102 22.8996 17.1046 23.2365 17.7966C23.5075 18.3534 23.5094 18.9205 23.2485 19.4781C22.9454 20.1261 22.6217 20.7645 22.3107 21.4088C22.0736 21.8998 21.72 22.2023 21.1425 22.1825C20.5938 22.1638 20.2464 21.8786 20.0166 21.3982C19.7312 20.8013 19.4315 20.2111 19.1307 19.6218C18.9738 19.3142 18.8768 18.9971 18.9087 18.6613Z" fill="#6534FF"/>
<path fill-rule="evenodd" clip-rule="evenodd" d="M27.8039 17.4039C27.7691 17.4047 27.7343 17.4054 27.6994 17.4062C27.5752 17.8275 27.4407 18.2461 27.3298 18.6707C27.2393 19.0176 26.8992 19.4828 27.1351 19.6814C27.3654 19.8751 27.8792 19.7285 28.2684 19.737C28.4377 19.7407 28.47 19.6842 28.4204 19.5201C28.2077 18.8169 28.0083 18.1096 27.8039 17.4039ZM29.5241 22.1773C29.2555 22.1824 29.1458 22.0015 29.0767 21.7842C28.9871 21.5016 28.8866 21.2199 28.8298 20.9301C28.7826 20.6896 28.6602 20.6305 28.4377 20.636C27.9655 20.6478 27.4926 20.6481 27.0206 20.6359C26.8093 20.6304 26.7018 20.7045 26.6496 20.9115C26.5741 21.2118 26.461 21.5027 26.3859 21.8031C26.3075 22.1172 26.107 22.2342 25.8156 22.1615C25.4813 22.0781 25.4199 21.8097 25.5006 21.5207C25.6963 20.82 25.9132 20.1251 26.1205 19.4275C26.5006 18.1485 26.88 16.8694 27.2591 15.59C27.3176 15.3926 27.377 15.1799 27.6022 15.1264C27.8777 15.061 28.1179 15.1247 28.209 15.4398C28.8002 17.4857 29.393 19.531 29.9775 21.5788C30.0736 21.9154 29.8524 22.1874 29.5241 22.1773Z" fill="#6534FF"/>
<path fill-rule="evenodd" clip-rule="evenodd" d="M13.248 17.2872C13.2481 16.9769 13.2578 16.6661 13.2449 16.3563C13.2349 16.1159 13.3194 16.0155 13.5699 16.0204C14.1765 16.0322 14.7834 16.0294 15.3902 16.0222C15.7654 16.0178 15.9429 16.2253 15.9562 16.5656C15.9756 17.064 15.9727 17.5643 15.9551 18.063C15.9436 18.3913 15.7603 18.5879 15.4144 18.5895C14.7807 18.5922 14.1467 18.5832 13.5132 18.5944C13.2869 18.5985 13.2405 18.4941 13.2455 18.2992C13.2543 17.9621 13.248 17.6246 13.248 17.2872Z" fill="#FEFEFE"/>
<path fill-rule="evenodd" clip-rule="evenodd" d="M32.9621 17.3038C32.962 16.9934 32.9742 16.6824 32.9583 16.3729C32.9446 16.1097 33.0426 16.0135 33.308 16.0198C33.9009 16.0339 34.4947 16.0316 35.0878 16.0215C35.4583 16.0152 35.653 16.2052 35.6686 16.5492C35.6913 17.0474 35.6861 17.5478 35.6709 18.0466C35.6602 18.3956 35.4697 18.5915 35.1046 18.5908C34.4843 18.5897 33.8639 18.5848 33.2438 18.594C33.0369 18.5971 32.9513 18.5298 32.959 18.3158C32.971 17.9788 32.9622 17.6412 32.9621 17.3038Z" fill="#FEFEFE"/>
<path fill-rule="evenodd" clip-rule="evenodd" d="M22.4988 18.6505C22.493 18.8345 22.4466 19.0032 22.367 19.1622C22.0589 19.778 21.7474 20.3921 21.4393 21.0078C21.3769 21.1329 21.308 21.2581 21.1547 21.2649C20.9763 21.2728 20.9079 21.1284 20.8403 20.9928C20.5453 20.4006 20.247 19.8101 19.9545 19.2167C19.7918 18.8867 19.7491 18.5417 19.9093 18.2013C20.2196 17.5418 20.5322 16.883 20.8657 16.2352C21.019 15.9372 21.2587 15.9344 21.4108 16.2263C21.7599 16.8965 22.0894 17.5772 22.4156 18.259C22.4716 18.376 22.4725 18.5193 22.4988 18.6505Z" fill="#FEFEFE"/>
<path fill-rule="evenodd" clip-rule="evenodd" d="M27.8053 17.4038C28.0097 18.1095 28.2091 18.8168 28.4218 19.52C28.4714 19.6842 28.439 19.7407 28.2698 19.7369C27.8806 19.7285 27.3668 19.875 27.1365 19.6813C26.9006 19.4827 27.2407 19.0176 27.3312 18.6707C27.4421 18.246 27.5766 17.8274 27.7008 17.4062C27.7357 17.4054 27.7705 17.4046 27.8053 17.4038Z" fill="#FEFEFE"/>
</svg>
