<svg version="1.1" id="Layer_1" xmlns="http://www.w3.org/2000/svg" xmlns:xlink="http://www.w3.org/1999/xlink" x="0px" y="0px"
	 width="100%" viewBox="0 0 378 192" enable-background="new 0 0 378 192" xml:space="preserve">
<path fill="#FEFEFE" opacity="1.000000" stroke="none" 
	d="
M279.000000,193.000000 
	C186.000031,193.000000 93.500053,193.000000 1.000062,193.000000 
	C1.000041,129.000046 1.000041,65.000092 1.000021,1.000105 
	C126.999916,1.000070 252.999832,1.000070 378.999817,1.000035 
	C378.999878,64.999901 378.999878,128.999802 378.999939,192.999847 
	C345.833344,193.000000 312.666656,193.000000 279.000000,193.000000 
M327.376373,142.638733 
	C327.698792,144.308655 328.021210,145.978592 328.333618,148.295319 
	C328.559113,151.862701 328.784637,155.430084 328.543518,159.285446 
	C328.719727,159.862305 328.895935,160.439163 329.224854,161.666763 
	C329.167053,162.106903 329.109283,162.547058 328.516357,163.396561 
	C328.683228,164.598999 328.850098,165.801437 329.034088,167.849503 
	C329.387115,170.677292 329.740143,173.505081 330.127106,176.604858 
	C332.391968,176.478638 334.087860,176.384125 335.970459,176.279205 
	C335.725616,173.131912 335.526154,170.567963 336.031036,168.027252 
	C336.992188,170.122330 337.953339,172.217407 338.914459,174.312485 
	C338.514587,174.771774 338.114716,175.231049 337.714813,175.690338 
	C340.080292,175.690338 342.445740,175.690338 345.567413,176.075363 
	C349.209290,176.244919 352.851196,176.414474 356.336609,176.576752 
	C356.336609,173.448212 356.336609,171.239838 356.882629,168.963486 
	C356.925079,168.309906 356.967529,167.656342 356.854248,166.154724 
	C356.899628,164.437454 356.945007,162.720184 357.564606,160.506195 
	C357.086670,157.349335 356.608765,154.192459 356.054840,150.155502 
	C356.040558,148.102432 356.026276,146.049362 356.518280,143.638474 
	C356.307831,141.747345 356.097412,139.856201 355.742737,137.118713 
	C355.591766,133.754669 355.440796,130.390640 355.842346,126.948891 
	C355.615448,126.293907 355.388580,125.638924 354.790497,124.217224 
	C354.867126,122.809448 354.943756,121.401665 355.589203,119.467743 
	C355.168579,116.968040 354.747986,114.468338 353.866058,111.278854 
	C353.689819,108.529686 353.513580,105.780525 353.865723,102.957581 
	C353.707458,102.292854 353.549225,101.628136 353.023621,100.371117 
	C353.058136,99.918434 353.092621,99.465752 353.751129,98.921707 
	C353.640656,97.934380 353.530182,96.947060 353.000427,95.383942 
	C353.078369,94.930130 353.156281,94.476311 353.788361,93.947655 
	C353.595581,93.291595 353.402802,92.635544 352.921967,91.203705 
	C352.971924,86.471794 353.021881,81.739891 353.632965,76.973434 
	C353.564545,76.303375 353.496155,75.633316 353.187103,74.073647 
	C352.783722,69.718109 352.380341,65.362579 352.443970,60.757420 
	C352.346405,60.184818 352.248840,59.612213 352.050781,58.285439 
	C352.015930,57.529171 351.981079,56.772907 352.410767,55.759674 
	C352.104675,55.158592 351.798553,54.557510 351.092621,53.298756 
	C351.061768,52.532494 351.030914,51.766232 351.570007,50.505268 
	C351.164612,48.325745 350.759216,46.146225 350.052307,43.341694 
	C350.168549,42.906536 350.284821,42.471378 351.070007,41.847801 
	C351.501587,39.233166 354.915161,36.758808 351.064240,33.262897 
	C350.682800,29.516520 350.301361,25.770144 349.890228,21.732136 
	C346.286224,21.549517 342.902466,21.378056 338.724976,21.120525 
	C335.992340,23.022818 336.121490,25.001123 339.159149,27.632704 
	C339.072815,28.431940 338.986450,29.231176 338.379822,30.478687 
	C338.780975,31.998547 339.182129,33.518410 339.897064,35.753185 
	C339.230469,38.165112 338.563843,40.577034 337.239868,43.067436 
	C337.464783,44.055344 337.689697,45.043251 338.503021,46.397137 
	C338.912476,47.923130 339.321960,49.449120 339.023407,51.160690 
	C337.352661,53.893822 336.905975,56.354206 340.789307,58.366920 
	C340.741608,58.536480 340.693878,58.706036 340.015320,59.057903 
	C340.105469,60.055386 340.195618,61.052864 340.496277,62.928780 
	C340.459442,72.269630 340.422607,81.610481 339.901001,91.069313 
	C340.100800,91.728172 340.300598,92.387039 340.941345,93.621582 
	C340.825836,94.068665 340.710358,94.515747 340.084076,95.038216 
	C340.211945,95.708031 340.339813,96.377853 340.902740,97.802200 
	C340.905365,99.543701 340.907959,101.285194 340.464050,103.318825 
	C340.625305,104.222061 340.786591,105.125298 341.221802,106.890427 
	C341.356689,108.916077 341.491608,110.941727 341.161407,113.005142 
	C341.055328,113.676262 340.949219,114.347374 341.148926,115.829750 
	C341.384796,117.214951 341.620667,118.600151 341.140594,120.128151 
	C341.099518,122.087135 341.058441,124.046120 341.171082,126.415634 
	C341.171082,126.415634 341.069946,126.842171 340.986420,127.550179 
	C341.332458,128.369141 341.678467,129.188126 342.107788,130.663040 
	C342.096375,131.101120 342.084961,131.539215 341.609100,132.234406 
	C341.912659,132.836777 342.216248,133.439148 342.871887,134.901932 
	C342.924866,140.598297 342.977844,146.294647 342.224731,151.995850 
	C339.939178,152.995605 337.653656,153.995377 335.184875,154.102524 
	C334.884460,141.374695 334.569946,128.647156 334.287689,115.918930 
	C334.020050,103.851151 333.783081,91.782677 333.538513,79.714394 
	C333.361664,70.989479 333.272156,62.261959 333.001251,53.540024 
	C332.724670,44.636024 332.086792,35.739902 331.969208,26.835554 
	C331.897522,21.405172 331.668060,20.958834 325.605591,22.218594 
	C325.605591,25.374353 325.605591,28.651701 325.026581,32.044571 
	C325.172729,33.059010 325.318878,34.073448 325.771729,35.771217 
	C325.853394,36.512756 325.935028,37.254292 325.537292,38.275669 
	C325.719421,38.856689 325.901550,39.437714 326.228638,40.759052 
	C326.156250,41.505081 326.083862,42.251110 325.527527,43.260998 
	C325.688477,43.841454 325.849426,44.421909 326.145874,45.825748 
	C326.275818,47.190048 326.405731,48.554344 325.940582,50.078880 
	C325.959778,50.719143 325.978973,51.359409 326.106598,52.647530 
	C326.127930,53.084633 326.149231,53.521740 325.672180,54.209457 
	C325.763519,55.834236 325.854889,57.459015 326.208801,59.973850 
	C326.309814,64.289688 326.410797,68.605522 325.999817,73.008362 
	C326.184692,73.697708 326.369537,74.387062 326.826477,75.969696 
	C327.013580,81.286781 327.200653,86.603874 326.816132,92.145660 
	C326.946503,93.130730 327.076904,94.115807 327.481659,95.843285 
	C327.336487,98.891609 327.191315,101.939934 326.507202,105.460060 
	C326.802551,107.338081 327.097900,109.216110 327.810211,111.868629 
	C327.620819,113.879738 327.431427,115.890846 326.678711,118.226990 
	C326.907013,120.183456 327.135345,122.139915 327.738678,124.754173 
	C327.840790,125.499001 327.942932,126.243828 327.533844,127.349472 
	C327.698364,128.235016 327.862885,129.120575 328.131622,130.923508 
	C328.079346,134.617691 328.027069,138.311890 327.376373,142.638733 
M322.889740,134.226166 
	C323.009796,133.166290 323.129883,132.106430 323.842041,130.959335 
	C323.763641,129.942520 323.685242,128.925720 323.233826,127.180420 
	C322.951385,123.706169 322.668915,120.231911 322.721313,115.999687 
	C322.501495,115.004395 322.281708,114.009102 322.016296,112.259193 
	C322.565125,110.869675 323.113922,109.480156 324.140503,107.952118 
	C323.902222,107.276527 323.663940,106.600945 323.105347,105.125664 
	C323.107727,103.408134 323.110138,101.690613 323.550903,99.684006 
	C323.359833,99.120964 323.168762,98.557922 323.005371,97.303314 
	C323.083618,96.850060 323.161865,96.396805 323.639343,95.729507 
	C323.405060,95.124306 323.170807,94.519104 322.731689,93.054253 
	C322.615631,91.057693 322.499573,89.061134 323.058807,86.848267 
	C323.942719,84.670349 325.449097,82.375847 321.342133,80.577202 
	C321.336334,79.071312 321.330566,77.565422 321.872192,76.005821 
	C321.933014,75.341148 321.993866,74.676476 321.880798,73.175407 
	C321.773590,70.478378 321.666382,67.781342 322.070923,64.981163 
	C322.069916,64.325600 322.068909,63.670036 321.899231,62.353058 
	C321.933899,61.901821 321.968597,61.450581 322.471497,60.717793 
	C322.074005,60.127155 321.676483,59.536518 320.876923,58.174877 
	C320.921112,56.449196 320.965332,54.723515 321.507568,52.643478 
	C321.053802,49.772820 320.600006,46.902164 320.030029,43.177498 
	C320.185486,41.477970 320.340973,39.778442 321.081970,37.927372 
	C321.027893,36.945435 320.973816,35.963493 320.851562,34.314087 
	C320.914581,33.872730 320.977600,33.431374 321.537201,32.653450 
	C321.179535,31.742533 320.821899,30.831615 320.145355,29.336708 
	C320.239075,28.914667 320.332794,28.492626 321.058746,27.898911 
	C320.962128,25.400433 322.736023,22.195171 317.732452,21.420834 
	C315.024384,21.420834 312.316315,21.420834 309.344543,21.420834 
	C309.133270,23.965487 308.963684,26.008076 308.351959,28.335682 
	C308.784424,28.911125 309.216858,29.486567 309.982269,30.881954 
	C309.952087,32.929771 309.921875,34.977592 309.417542,37.411579 
	C309.640930,38.281265 309.864288,39.150951 310.029968,40.680065 
	C309.906158,41.100159 309.782318,41.520256 309.106964,42.004570 
	C309.093536,42.674793 309.080078,43.345013 309.164673,44.677204 
	C309.111786,45.117558 309.058899,45.557911 308.443024,46.482738 
	C309.049561,49.340828 309.656097,52.198917 310.462524,55.561993 
	C310.376190,55.721134 310.289886,55.880272 309.573242,56.254311 
	C309.597565,57.523441 309.621887,58.792576 309.862610,60.786266 
	C310.036041,62.159462 310.209473,63.532658 309.873444,65.011993 
	C309.907135,65.672859 309.940857,66.333733 310.013458,67.675117 
	C309.832581,68.089516 309.651733,68.503922 308.884796,69.078217 
	C308.959503,70.061066 309.034210,71.043915 309.356628,72.796898 
	C309.483154,74.514534 309.609650,76.232162 309.045258,78.117836 
	C309.277130,80.110931 309.509033,82.104027 310.389343,84.490028 
	C310.560242,87.667694 310.731140,90.845360 310.421936,94.394310 
	C310.621399,95.264435 310.820831,96.134560 311.116058,97.809853 
	C311.055664,98.878410 310.995270,99.946968 310.428284,101.446495 
	C310.715454,102.996765 311.002625,104.547035 311.660126,106.663391 
	C311.654572,107.087463 311.649017,107.511543 311.040131,108.042320 
	C311.025177,109.027901 311.010223,110.013474 311.113434,111.878746 
	C310.948914,114.230789 310.784424,116.582825 310.015869,119.045097 
	C310.232971,120.050781 310.450073,121.056465 310.980774,122.667885 
	C310.948578,123.120850 310.916382,123.573822 310.445221,124.304878 
	C310.619232,124.867554 310.793243,125.430229 310.913055,126.834274 
	C310.900146,128.233139 310.887238,129.632019 310.402100,131.408600 
	C310.620026,132.276596 310.837952,133.144592 311.064758,134.679535 
	C311.030212,135.122833 310.995667,135.566147 310.454315,136.411621 
	C310.578583,137.595535 310.702820,138.779449 310.811005,140.871185 
	C311.142090,144.901596 311.473145,148.932007 311.238922,153.009659 
	C311.429260,153.686127 311.619629,154.362579 312.145508,155.210648 
	C312.145508,155.210648 312.223785,155.579239 312.072968,156.412033 
	C311.655334,158.335342 311.015472,160.245331 310.899109,162.186691 
	C310.823120,163.454422 311.506897,164.767700 312.311859,166.413757 
	C312.462646,166.960983 312.613464,167.508194 312.300751,168.432968 
	C312.530975,169.288010 312.761200,170.143066 313.010284,171.933868 
	C312.883270,173.310593 312.756287,174.687317 312.571106,176.694824 
	C316.707153,176.470718 320.436066,176.268677 324.860260,175.936188 
	C324.907837,174.290985 324.955414,172.645798 324.886658,170.239044 
	C324.989655,169.476868 325.092651,168.714691 325.684174,167.587723 
	C325.437073,166.720779 325.189972,165.853836 324.786835,164.303131 
	C324.899658,163.878082 325.012482,163.453033 325.773376,162.987091 
	C325.599304,161.975159 325.425262,160.963211 324.956268,159.336685 
	C324.992554,158.885834 325.028839,158.434998 325.529694,157.716385 
	C325.140320,157.123215 324.750916,156.530060 324.095459,155.325455 
	C324.057587,154.885193 324.019745,154.444931 324.491516,153.647842 
	C324.319977,152.763504 324.148438,151.879166 323.939056,150.160706 
	C323.962982,148.772949 323.986938,147.385193 324.474518,145.724945 
	C324.319794,145.150665 324.165039,144.576401 323.909515,143.340317 
	C323.934418,142.894928 323.959290,142.449539 324.551147,141.506577 
	C324.122650,139.320648 323.694153,137.134735 322.889740,134.226166 
M79.862839,101.811852 
	C87.590881,103.320045 93.701988,109.663239 101.984711,109.379608 
	C107.856606,109.178551 113.793106,109.037140 119.553520,108.028320 
	C123.617226,107.316635 127.951668,105.911011 131.238785,103.534027 
	C136.071579,100.039330 141.120621,96.854881 143.410568,90.172386 
	C144.863449,85.932556 147.494873,82.592766 145.558578,77.803772 
	C143.848602,73.574509 143.462402,68.598228 141.026505,64.922867 
	C137.177094,59.114746 132.468201,53.825600 124.181801,54.048710 
	C119.665352,54.170311 115.089996,52.574184 110.592056,52.793865 
	C105.020142,53.065998 99.523529,54.611809 93.953857,55.258255 
	C84.636688,56.339661 78.498863,62.440517 73.012047,68.969330 
	C70.536606,71.914879 68.344482,76.668953 68.833031,80.215508 
	C69.926666,88.154564 73.190758,95.644974 79.862839,101.811852 
M229.599869,57.239216 
	C216.638184,59.724701 206.367188,66.599861 198.093216,76.665535 
	C197.547012,77.330017 197.346252,78.436974 197.321899,79.347130 
	C197.104752,87.462334 200.393448,95.097900 205.169052,100.590118 
	C211.012253,107.310104 220.408966,110.024994 229.301514,111.160248 
	C235.333786,111.930359 241.644135,110.378548 247.839828,110.046280 
	C256.895111,109.560654 264.355164,105.219627 270.011536,98.869171 
	C277.552887,90.402473 278.064789,75.128220 269.185760,67.046700 
	C266.039124,64.182693 261.744751,62.599804 258.040436,60.324459 
	C249.309769,54.961727 239.893524,56.227657 229.599869,57.239216 
M30.236349,129.795273 
	C30.236349,145.211685 30.236349,160.628098 30.236349,176.224304 
	C34.569771,176.224304 38.301540,176.224304 42.379868,176.224304 
	C42.502354,174.317230 42.752094,172.708450 42.683266,171.113403 
	C42.352039,163.437546 41.711937,155.768066 41.620693,148.091095 
	C41.551186,142.243057 42.465347,136.378372 42.307384,130.538269 
	C42.218967,127.269302 40.039104,123.997269 40.191498,120.792709 
	C40.630543,111.560387 41.493355,102.432388 40.764153,93.094940 
	C39.765762,80.310448 40.151585,67.420563 39.831654,54.578651 
	C39.739914,50.896088 39.165955,47.227669 38.990322,43.544315 
	C38.870701,41.035599 39.184387,38.506439 39.069187,35.997223 
	C38.981628,34.090122 38.191521,32.183083 38.287193,30.305220 
	C38.756195,21.100021 38.823551,21.092680 29.753195,21.470234 
	C28.969025,21.502876 28.196043,21.804346 27.449766,21.973701 
	C27.449766,35.988934 27.304911,49.784676 27.532169,63.574287 
	C27.606796,68.102570 29.550442,72.719894 29.040956,77.111031 
	C28.189062,84.453316 27.285130,91.614182 29.301426,98.893028 
	C29.768452,100.578987 29.333372,102.506500 29.368912,104.321777 
	C29.529524,112.525131 29.710056,120.728104 30.236349,129.795273 
z"/>
<path fill="#151618" opacity="1.000000" stroke="none" 
	d="
M79.528221,101.653328 
	C73.190758,95.644974 69.926666,88.154564 68.833031,80.215508 
	C68.344482,76.668953 70.536606,71.914879 73.012047,68.969330 
	C78.498863,62.440517 84.636688,56.339661 93.953857,55.258255 
	C99.523529,54.611809 105.020142,53.065998 110.592056,52.793865 
	C115.089996,52.574184 119.665352,54.170311 124.181801,54.048710 
	C132.468201,53.825600 137.177094,59.114746 141.026505,64.922867 
	C143.462402,68.598228 143.848602,73.574509 145.558578,77.803772 
	C147.494873,82.592766 144.863449,85.932556 143.410568,90.172386 
	C141.120621,96.854881 136.071579,100.039330 131.238785,103.534027 
	C127.951668,105.911011 123.617226,107.316635 119.553520,108.028320 
	C113.793106,109.037140 107.856606,109.178551 101.984711,109.379608 
	C93.701988,109.663239 87.590881,103.320045 79.528221,101.653328 
M123.368988,95.006393 
	C117.812408,92.381157 116.028793,87.086021 115.810692,81.858574 
	C115.569450,76.076355 116.982735,70.225113 117.805305,63.312836 
	C114.807281,63.312836 111.711685,63.021935 108.693886,63.382397 
	C104.385773,63.896980 100.155579,65.040024 95.853416,65.634888 
	C91.371979,66.254547 84.297714,71.506485 83.118881,75.424355 
	C81.300789,81.466797 83.670776,88.133415 88.061447,92.066574 
	C95.234344,98.492050 103.849571,99.467957 112.707848,99.008224 
	C116.396881,98.816772 119.993851,96.851372 123.368988,95.006393 
z"/>
<path fill="#161719" opacity="1.000000" stroke="none" 
	d="
M230.039673,57.295158 
	C239.893524,56.227657 249.309769,54.961727 258.040436,60.324459 
	C261.744751,62.599804 266.039124,64.182693 269.185760,67.046700 
	C278.064789,75.128220 277.552887,90.402473 270.011536,98.869171 
	C264.355164,105.219627 256.895111,109.560654 247.839828,110.046280 
	C241.644135,110.378548 235.333786,111.930359 229.301514,111.160248 
	C220.408966,110.024994 211.012253,107.310104 205.169052,100.590118 
	C200.393448,95.097900 197.104752,87.462334 197.321899,79.347130 
	C197.346252,78.436974 197.547012,77.330017 198.093216,76.665535 
	C206.367188,66.599861 216.638184,59.724701 230.039673,57.295158 
M238.213928,102.512688 
	C240.159546,102.285408 242.102783,102.034706 244.051392,101.836914 
	C246.378326,101.600731 248.709869,101.409843 251.498215,101.157875 
	C247.472946,95.115211 241.794052,91.419525 242.972900,84.390892 
	C243.972610,78.430267 245.251770,72.516510 246.486908,66.172943 
	C243.706406,66.046577 239.854645,65.884308 236.004272,65.693993 
	C226.493439,65.223907 218.945267,68.657173 212.541550,75.900162 
	C209.355133,79.504196 208.658463,82.603043 210.848160,86.344711 
	C212.800079,89.680054 214.680145,93.941986 217.762115,95.544601 
	C223.899994,98.736282 230.841507,100.382515 238.213928,102.512688 
z"/>
<path fill="#19191B" opacity="1.000000" stroke="none" 
	d="
M30.059883,129.363251 
	C29.710056,120.728104 29.529524,112.525131 29.368912,104.321777 
	C29.333372,102.506500 29.768452,100.578987 29.301426,98.893028 
	C27.285130,91.614182 28.189062,84.453316 29.040956,77.111031 
	C29.550442,72.719894 27.606796,68.102570 27.532169,63.574287 
	C27.304911,49.784676 27.449766,35.988934 27.449766,21.973701 
	C28.196043,21.804346 28.969025,21.502876 29.753195,21.470234 
	C38.823551,21.092680 38.756195,21.100021 38.287193,30.305220 
	C38.191521,32.183083 38.981628,34.090122 39.069187,35.997223 
	C39.184387,38.506439 38.870701,41.035599 38.990322,43.544315 
	C39.165955,47.227669 39.739914,50.896088 39.831654,54.578651 
	C40.151585,67.420563 39.765762,80.310448 40.764153,93.094940 
	C41.493355,102.432388 40.630543,111.560387 40.191498,120.792709 
	C40.039104,123.997269 42.218967,127.269302 42.307384,130.538269 
	C42.465347,136.378372 41.551186,142.243057 41.620693,148.091095 
	C41.711937,155.768066 42.352039,163.437546 42.683266,171.113403 
	C42.752094,172.708450 42.502354,174.317230 42.379868,176.224304 
	C38.301540,176.224304 34.569771,176.224304 30.236349,176.224304 
	C30.236349,160.628098 30.236349,145.211685 30.059883,129.363251 
z"/>
<path fill="#17181A" opacity="1.000000" stroke="none" 
	d="
M355.020386,119.993889 
	C354.943756,121.401665 354.867126,122.809448 354.903717,124.941422 
	C355.107910,126.119270 355.198883,126.572929 355.289856,127.026596 
	C355.440796,130.390640 355.591766,133.754669 355.543915,137.727081 
	C355.567383,140.222412 355.789673,142.109344 356.011993,143.996292 
	C356.026276,146.049362 356.040558,148.102432 355.837952,150.864532 
	C356.077515,154.716690 356.533936,157.859802 356.990356,161.002914 
	C356.945007,162.720184 356.899628,164.437454 356.730713,166.781769 
	C356.516998,167.949677 356.426788,168.490570 356.336609,169.031448 
	C356.336609,171.239838 356.336609,173.448212 356.336609,176.576752 
	C352.851196,176.414474 349.209290,176.244919 345.229889,175.523010 
	C344.711884,173.548828 344.531403,172.126999 344.649719,170.602020 
	C344.978485,169.661346 345.008484,168.823822 345.028198,167.582489 
	C344.872772,166.131287 344.727661,165.083893 344.649994,163.630737 
	C344.680206,162.138245 344.642944,161.051529 344.751160,159.586243 
	C344.784271,158.150909 344.671936,157.094116 344.667389,155.768265 
	C344.531097,154.994598 344.287018,154.490005 344.082825,153.681641 
	C343.758759,152.915588 343.394775,152.453308 343.030823,151.991013 
	C342.977844,146.294647 342.924866,140.598297 342.798828,134.198730 
	C342.508362,132.989456 342.290955,132.483368 342.073547,131.977295 
	C342.084961,131.539215 342.096375,131.101120 342.322083,130.166306 
	C342.047607,128.727097 341.558777,127.784630 341.069946,126.842163 
	C341.069946,126.842171 341.171082,126.415634 341.333588,125.911232 
	C341.616241,123.599670 341.736389,121.792503 341.856506,119.985344 
	C341.620667,118.600151 341.384796,117.214951 341.279724,115.143860 
	C341.482513,113.961105 341.554504,113.464241 341.626465,112.967377 
	C341.491608,110.941727 341.356689,108.916077 341.396729,106.252922 
	C341.351318,104.752510 341.130951,103.889603 340.910583,103.026688 
	C340.907959,101.285194 340.905365,99.543701 340.744690,97.079651 
	C340.589386,95.892342 340.592133,95.427589 340.594849,94.962837 
	C340.710358,94.515747 340.825836,94.068665 340.762634,92.982315 
	C340.517883,91.879143 340.451813,91.415237 340.385742,90.951332 
	C340.422607,81.610481 340.459442,72.269630 340.560974,62.201874 
	C340.632538,60.608513 340.639374,59.742050 340.646179,58.875591 
	C340.693878,58.706036 340.741608,58.536480 340.619904,57.766434 
	C340.210785,55.102337 339.971100,53.038723 339.731415,50.975109 
	C339.321960,49.449120 338.912476,47.923130 338.201477,45.831291 
	C337.899048,44.506618 337.898132,43.747787 337.897217,42.988960 
	C338.563843,40.577034 339.230469,38.165112 339.780823,35.096664 
	C339.409790,32.970234 339.154938,31.500324 338.900085,30.030415 
	C338.986450,29.231176 339.072815,28.431940 338.894836,26.902962 
	C338.926575,24.517677 339.222626,22.862135 339.518677,21.206594 
	C342.902466,21.378056 346.286224,21.549517 349.890228,21.732136 
	C350.301361,25.770144 350.682800,29.516520 351.158875,34.019455 
	C350.969360,37.196079 350.685211,39.616150 350.401062,42.036221 
	C350.284821,42.471378 350.168549,42.906536 350.155487,44.068832 
	C350.505798,46.863972 350.752930,48.931969 351.000061,50.999969 
	C351.030914,51.766232 351.061768,52.532494 351.201599,53.901260 
	C351.522430,55.008057 351.734344,55.512348 351.946228,56.016640 
	C351.981079,56.772907 352.015930,57.529171 351.893097,58.787582 
	C351.815918,59.862171 351.896454,60.434608 351.976990,61.007050 
	C352.380341,65.362579 352.783722,69.718109 353.181152,74.846558 
	C353.140778,76.082306 353.106323,76.545143 353.071838,77.007980 
	C353.021881,81.739891 352.971924,86.471794 353.002686,91.930054 
	C353.133667,93.111763 353.183929,93.567131 353.234192,94.022491 
	C353.156281,94.476311 353.078369,94.930130 353.210144,96.060440 
	C353.322266,97.495644 353.224701,98.254356 353.127136,99.013069 
	C353.092621,99.465752 353.058136,99.918434 353.156219,101.010384 
	C353.304993,102.110222 353.321167,102.570786 353.337341,103.031357 
	C353.513580,105.780525 353.689819,108.529686 354.043274,112.045883 
	C354.487122,115.206566 354.753754,117.600227 355.020386,119.993889 
z"/>
<path fill="#17181A" opacity="1.000000" stroke="none" 
	d="
M308.794098,28.050661 
	C308.963684,26.008076 309.133270,23.965487 309.344543,21.420834 
	C312.316315,21.420834 315.024384,21.420834 318.364197,21.669313 
	C319.472809,23.968723 319.949646,26.019653 320.426514,28.070583 
	C320.332794,28.492626 320.239075,28.914667 320.255707,29.948994 
	C320.590912,31.370859 320.815735,32.180439 321.040588,32.990013 
	C320.977600,33.431374 320.914581,33.872730 320.645996,34.879917 
	C320.459106,36.323471 320.477783,37.201195 320.496460,38.078918 
	C320.340973,39.778442 320.185486,41.477970 319.859863,43.861641 
	C320.129639,47.363132 320.569580,50.180485 321.009521,52.997833 
	C320.965332,54.723515 320.921112,56.449196 321.042389,58.847454 
	C321.472992,60.013134 321.738129,60.506241 322.003296,60.999344 
	C321.968597,61.450581 321.933899,61.901821 321.788971,62.897171 
	C321.638855,63.988960 321.598999,64.536636 321.559143,65.084312 
	C321.666382,67.781342 321.773590,70.478378 321.757019,73.791252 
	C321.530457,74.957909 321.427643,75.508720 321.324799,76.059532 
	C321.330566,77.565422 321.336334,79.071312 321.755249,81.225815 
	C322.240051,83.604469 322.311768,85.334526 322.383514,87.064575 
	C322.499573,89.061134 322.615631,91.057693 322.647217,93.729065 
	C322.788513,94.917099 323.014282,95.430328 323.240082,95.943542 
	C323.161865,96.396805 323.083618,96.850060 322.777252,97.791611 
	C322.736938,98.844307 322.924744,99.408699 323.112549,99.973083 
	C323.110138,101.690613 323.107727,103.408134 323.238342,105.891541 
	C323.468445,107.135155 323.565613,107.612900 323.662750,108.090637 
	C323.113922,109.480156 322.565125,110.869675 321.806274,112.846924 
	C321.859650,114.542328 322.123047,115.649994 322.386475,116.757660 
	C322.668915,120.231911 322.951385,123.706169 323.307739,127.928589 
	C323.337738,129.466690 323.293854,130.256622 323.249969,131.046555 
	C323.129883,132.106430 323.009796,133.166290 323.069946,135.013092 
	C323.494843,137.868073 323.739532,139.936111 323.984192,142.004150 
	C323.959290,142.449539 323.934418,142.894928 323.777954,143.822388 
	C323.767853,144.868774 323.889374,145.433105 324.010864,145.997437 
	C323.986938,147.385193 323.962982,148.772949 323.754883,150.780884 
	C323.707764,152.268921 323.844818,153.136795 323.981873,154.004669 
	C324.019745,154.444931 324.057587,154.885193 324.134033,155.914459 
	C324.470123,156.997025 324.767609,157.490585 325.065125,157.984146 
	C325.028839,158.434998 324.992554,158.885834 325.069275,160.036346 
	C325.163269,161.500015 325.144287,162.263992 325.125305,163.027985 
	C325.012482,163.453033 324.899658,163.878082 324.642151,164.837555 
	C324.730164,166.232162 324.962921,167.092331 325.195648,167.952515 
	C325.092651,168.714691 324.989655,169.476868 324.742859,170.927917 
	C324.454407,173.100052 324.309723,174.583344 324.165009,176.066620 
	C320.436066,176.268677 316.707153,176.470718 312.571106,176.694824 
	C312.756287,174.687317 312.883270,173.310593 313.251465,171.295258 
	C313.249847,169.789551 313.007050,168.922485 312.764282,168.055405 
	C312.613464,167.508194 312.462646,166.960983 312.070618,165.827332 
	C311.960876,162.020340 312.092346,158.799789 312.223785,155.579239 
	C312.223785,155.579239 312.145508,155.210648 312.042389,154.775879 
	C311.894257,153.881546 311.849243,153.421982 311.804199,152.962418 
	C311.473145,148.932007 311.142090,144.901596 311.090210,140.238037 
	C311.233307,138.406403 311.097229,137.207916 310.961121,136.009445 
	C310.995667,135.566147 311.030212,135.122833 311.313171,134.155457 
	C311.332520,132.764557 311.103424,131.897720 310.874329,131.030884 
	C310.887238,129.632019 310.900146,128.233139 311.168365,126.303741 
	C311.243835,125.191071 311.064026,124.608925 310.884186,124.026787 
	C310.916382,123.573822 310.948578,123.120850 310.839478,121.968063 
	C310.672089,120.490456 310.645996,119.712662 310.619904,118.934868 
	C310.784424,116.582825 310.948914,114.230789 311.236298,111.172516 
	C311.453918,109.622734 311.548676,108.779175 311.643433,107.935616 
	C311.649017,107.511543 311.654572,107.087463 311.604065,106.017776 
	C311.343597,103.919952 311.139221,102.467735 310.934845,101.015526 
	C310.995270,99.946968 311.055664,98.878410 311.297791,97.227089 
	C311.287048,95.770554 311.094574,94.896790 310.902039,94.023026 
	C310.731140,90.845360 310.560242,87.667694 310.049255,83.852615 
	C309.718140,81.460075 309.727142,79.704933 309.736145,77.949799 
	C309.609650,76.232162 309.483154,74.514534 309.518585,72.219330 
	C309.610657,70.733940 309.540741,69.826134 309.470856,68.918320 
	C309.651733,68.503922 309.832581,68.089516 310.171661,67.121735 
	C310.347565,66.014183 310.365234,65.460022 310.382904,64.905853 
	C310.209473,63.532658 310.036041,62.159462 309.857147,60.027466 
	C309.968964,58.192242 310.086273,57.115822 310.203583,56.039406 
	C310.289886,55.880272 310.376190,55.721134 310.491821,54.982651 
	C310.016083,51.601627 309.511078,48.799946 309.006042,45.998260 
	C309.058899,45.557911 309.111786,45.117558 309.338867,44.153595 
	C309.561523,43.066772 309.610016,42.503559 309.658508,41.940350 
	C309.782318,41.520256 309.906158,41.100159 310.321533,40.198166 
	C310.372650,38.819317 310.132141,37.922367 309.891663,37.025414 
	C309.921875,34.977592 309.952087,32.929771 309.892273,30.175114 
	C309.466217,28.995735 309.130157,28.523197 308.794098,28.050661 
z"/>
<path fill="#212223" opacity="1.000000" stroke="none" 
	d="
M326.016663,37.995827 
	C325.935028,37.254292 325.853394,36.512756 325.715363,35.042160 
	C325.641205,33.518421 325.623383,32.723732 325.605591,31.929047 
	C325.605591,28.651701 325.605591,25.374353 325.605591,22.218594 
	C331.668060,20.958834 331.897522,21.405172 331.969208,26.835554 
	C332.086792,35.739902 332.724670,44.636024 333.001251,53.540024 
	C333.272156,62.261959 333.361664,70.989479 333.538513,79.714394 
	C333.783081,91.782677 334.020050,103.851151 334.287689,115.918930 
	C334.569946,128.647156 334.884460,141.374695 335.121033,154.991104 
	C335.147034,159.921127 335.236877,163.962570 335.326691,168.004013 
	C335.526154,170.567963 335.725616,173.131912 335.970459,176.279205 
	C334.087860,176.384125 332.391968,176.478638 330.127106,176.604858 
	C329.740143,173.505081 329.387115,170.677292 329.226471,167.193359 
	C329.296387,165.353867 329.173950,164.170532 329.051514,162.987198 
	C329.109283,162.547058 329.167053,162.106903 329.313599,161.175873 
	C329.271606,160.122482 329.140869,159.559982 329.010132,158.997467 
	C328.784637,155.430084 328.559113,151.862701 328.490753,147.693634 
	C328.423553,145.396667 328.199188,143.701370 327.974823,142.006073 
	C328.027069,138.311890 328.079346,134.617691 328.264587,130.255463 
	C328.280060,128.721146 328.162567,127.854897 328.045074,126.988647 
	C327.942932,126.243828 327.840790,125.499001 327.654510,123.990204 
	C327.460907,121.451477 327.351440,119.676712 327.242004,117.901955 
	C327.431427,115.890846 327.620819,113.879738 327.685699,111.163452 
	C327.389496,108.634941 327.217834,106.811600 327.046143,104.988258 
	C327.191315,101.939934 327.336487,98.891609 327.461731,95.163467 
	C327.423798,93.629417 327.405762,92.775185 327.387756,91.920959 
	C327.200653,86.603874 327.013580,81.286781 326.780640,75.165909 
	C326.660461,73.881866 326.586121,73.401619 326.511780,72.921364 
	C326.410797,68.605522 326.309814,64.289688 326.332642,59.211571 
	C326.361176,56.952473 326.265839,55.455658 326.170532,53.958843 
	C326.149231,53.521740 326.127930,53.084633 326.265137,52.204567 
	C326.460968,51.147282 326.498291,50.532963 326.535645,49.918644 
	C326.405731,48.554344 326.275818,47.190048 326.256378,45.261055 
	C326.248413,44.129951 326.129944,43.563545 326.011475,42.997139 
	C326.083862,42.251110 326.156250,41.505081 326.351959,40.237907 
	C326.322418,39.143120 326.169556,38.569473 326.016663,37.995827 
z"/>
<path fill="#FEFEFE" opacity="1.000000" stroke="none" 
	d="
M335.678864,168.015625 
	C335.236877,163.962570 335.147034,159.921127 335.212646,155.437408 
	C337.653656,153.995377 339.939178,152.995605 342.627777,151.993439 
	C343.394775,152.453308 343.758759,152.915588 343.851929,153.813629 
	C343.907318,154.845367 344.233459,155.441345 344.559601,156.037338 
	C344.671936,157.094116 344.784271,158.150909 344.444031,159.663910 
	C344.188477,161.425583 344.385498,162.731049 344.582520,164.036514 
	C344.727661,165.083893 344.872772,166.131287 344.739410,167.831772 
	C344.424255,169.224976 344.387573,169.965088 344.350922,170.705185 
	C344.531403,172.126999 344.711884,173.548828 344.851807,175.330490 
	C342.445740,175.690338 340.080292,175.690338 337.714813,175.690338 
	C338.114716,175.231049 338.514587,174.771774 338.914459,174.312485 
	C337.953339,172.217407 336.992188,170.122330 335.678864,168.015625 
z"/>
<path fill="#EBECEC" opacity="1.000000" stroke="none" 
	d="
M357.277466,160.754547 
	C356.533936,157.859802 356.077515,154.716690 355.875977,151.304596 
	C356.608765,154.192459 357.086670,157.349335 357.277466,160.754547 
z"/>
<path fill="#DADBDC" opacity="1.000000" stroke="none" 
	d="
M312.148376,155.995636 
	C312.092346,158.799789 311.960876,162.020340 311.839874,165.650726 
	C311.506897,164.767700 310.823120,163.454422 310.899109,162.186691 
	C311.015472,160.245331 311.655334,158.335342 312.148376,155.995636 
z"/>
<path fill="#DADBDC" opacity="1.000000" stroke="none" 
	d="
M308.724548,46.240501 
	C309.511078,48.799946 310.016083,51.601627 310.391846,54.730160 
	C309.656097,52.198917 309.049561,49.340828 308.724548,46.240501 
z"/>
<path fill="#EBECEC" opacity="1.000000" stroke="none" 
	d="
M355.304810,119.730820 
	C354.753754,117.600227 354.487122,115.206566 354.273956,112.390762 
	C354.747986,114.468338 355.168579,116.968040 355.304810,119.730820 
z"/>
<path fill="#DADBDC" opacity="1.000000" stroke="none" 
	d="
M321.258545,52.820656 
	C320.569580,50.180485 320.129639,47.363132 319.917938,44.288643 
	C320.600006,46.902164 321.053802,49.772820 321.258545,52.820656 
z"/>
<path fill="#EBECEC" opacity="1.000000" stroke="none" 
	d="
M350.735535,41.942009 
	C350.685211,39.616150 350.969360,37.196079 351.347290,34.368225 
	C354.915161,36.758808 351.501587,39.233166 350.735535,41.942009 
z"/>
<path fill="#EBECEC" opacity="1.000000" stroke="none" 
	d="
M351.285034,50.752617 
	C350.752930,48.931969 350.505798,46.863972 350.306244,44.381340 
	C350.759216,46.146225 351.164612,48.325745 351.285034,50.752617 
z"/>
<path fill="#DADBDC" opacity="1.000000" stroke="none" 
	d="
M320.742615,27.984747 
	C319.949646,26.019653 319.472809,23.968723 318.770081,21.580923 
	C322.736023,22.195171 320.962128,25.400433 320.742615,27.984747 
z"/>
<path fill="#DADBDC" opacity="1.000000" stroke="none" 
	d="
M324.267670,141.755371 
	C323.739532,139.936111 323.494843,137.868073 323.257904,135.374420 
	C323.694153,137.134735 324.122650,139.320648 324.267670,141.755371 
z"/>
<path fill="#EBECEC" opacity="1.000000" stroke="none" 
	d="
M356.265137,143.817383 
	C355.789673,142.109344 355.567383,140.222412 355.616028,138.150269 
	C356.097412,139.856201 356.307831,141.747345 356.265137,143.817383 
z"/>
<path fill="#DADBDC" opacity="1.000000" stroke="none" 
	d="
M326.960358,118.064468 
	C327.351440,119.676712 327.460907,121.451477 327.467010,123.661301 
	C327.135345,122.139915 326.907013,120.183456 326.960358,118.064468 
z"/>
<path fill="#EBECEC" opacity="1.000000" stroke="none" 
	d="
M341.498566,120.056747 
	C341.736389,121.792503 341.616241,123.599670 341.256714,125.705963 
	C341.058441,124.046120 341.099518,122.087135 341.498566,120.056747 
z"/>
<path fill="#EBECEC" opacity="1.000000" stroke="none" 
	d="
M339.377411,51.067902 
	C339.971100,53.038723 340.210785,55.102337 340.488708,57.537106 
	C336.905975,56.354206 337.352661,53.893822 339.377411,51.067902 
z"/>
<path fill="#EBECEC" opacity="1.000000" stroke="none" 
	d="
M339.121826,21.163559 
	C339.222626,22.862135 338.926575,24.517677 338.599121,26.607098 
	C336.121490,25.001123 335.992340,23.022818 339.121826,21.163559 
z"/>
<path fill="#DADBDC" opacity="1.000000" stroke="none" 
	d="
M322.721161,86.956421 
	C322.311768,85.334526 322.240051,83.604469 322.067352,81.445122 
	C325.449097,82.375847 323.942719,84.670349 322.721161,86.956421 
z"/>
<path fill="#DADBDC" opacity="1.000000" stroke="none" 
	d="
M309.390686,78.033813 
	C309.727142,79.704933 309.718140,81.460075 309.725037,83.656174 
	C309.509033,82.104027 309.277130,80.110931 309.390686,78.033813 
z"/>
<path fill="#DADBDC" opacity="1.000000" stroke="none" 
	d="
M326.776672,105.224159 
	C327.217834,106.811600 327.389496,108.634941 327.477234,110.776207 
	C327.097900,109.216110 326.802551,107.338081 326.776672,105.224159 
z"/>
<path fill="#DADBDC" opacity="1.000000" stroke="none" 
	d="
M310.681580,101.231010 
	C311.139221,102.467735 311.343597,103.919952 311.418884,105.734734 
	C311.002625,104.547035 310.715454,102.996765 310.681580,101.231010 
z"/>
<path fill="#DADBDC" opacity="1.000000" stroke="none" 
	d="
M327.675598,142.322403 
	C328.199188,143.701370 328.423553,145.396667 328.495758,147.370239 
	C328.021210,145.978592 327.698792,144.308655 327.675598,142.322403 
z"/>
<path fill="#DADBDC" opacity="1.000000" stroke="none" 
	d="
M324.512634,176.001404 
	C324.309723,174.583344 324.454407,173.100052 324.801025,171.308685 
	C324.955414,172.645798 324.907837,174.290985 324.512634,176.001404 
z"/>
<path fill="#DADBDC" opacity="1.000000" stroke="none" 
	d="
M325.921326,54.084152 
	C326.265839,55.455658 326.361176,56.952473 326.201385,58.766541 
	C325.854889,57.459015 325.763519,55.834236 325.921326,54.084152 
z"/>
<path fill="#EBECEC" opacity="1.000000" stroke="none" 
	d="
M338.639954,30.254553 
	C339.154938,31.500324 339.409790,32.970234 339.623962,34.739204 
	C339.182129,33.518410 338.780975,31.998547 338.639954,30.254553 
z"/>
<path fill="#DADBDC" opacity="1.000000" stroke="none" 
	d="
M310.707703,136.210541 
	C311.097229,137.207916 311.233307,138.406403 311.098267,139.784119 
	C310.702820,138.779449 310.578583,137.595535 310.707703,136.210541 
z"/>
<path fill="#DADBDC" opacity="1.000000" stroke="none" 
	d="
M328.783936,163.191879 
	C329.173950,164.170532 329.296387,165.353867 329.217926,166.770538 
	C328.850098,165.801437 328.683228,164.598999 328.783936,163.191879 
z"/>
<path fill="#DADBDC" opacity="1.000000" stroke="none" 
	d="
M309.888428,56.146858 
	C310.086273,57.115822 309.968964,58.192242 309.748962,59.665184 
	C309.621887,58.792576 309.597565,57.523441 309.888428,56.146858 
z"/>
<path fill="#DADBDC" opacity="1.000000" stroke="none" 
	d="
M321.288879,32.821732 
	C320.815735,32.180439 320.590912,31.370859 320.415161,30.240990 
	C320.821899,30.831615 321.179535,31.742533 321.288879,32.821732 
z"/>
<path fill="#DADBDC" opacity="1.000000" stroke="none" 
	d="
M327.789459,127.169060 
	C328.162567,127.854897 328.280060,128.721146 328.212463,129.796753 
	C327.862885,129.120575 327.698364,128.235016 327.789459,127.169060 
z"/>
<path fill="#DADBDC" opacity="1.000000" stroke="none" 
	d="
M309.654602,37.218498 
	C310.132141,37.922367 310.372650,38.819317 310.350403,39.868454 
	C309.864288,39.150951 309.640930,38.281265 309.654602,37.218498 
z"/>
<path fill="#EBECEC" opacity="1.000000" stroke="none" 
	d="
M340.687317,103.172760 
	C341.130951,103.889603 341.351318,104.752510 341.259766,105.821976 
	C340.786591,105.125298 340.625305,104.222061 340.687317,103.172760 
z"/>
<path fill="#DADBDC" opacity="1.000000" stroke="none" 
	d="
M311.341797,107.988968 
	C311.548676,108.779175 311.453918,109.622734 311.177216,110.732674 
	C311.010223,110.013474 311.025177,109.027901 311.341797,107.988968 
z"/>
<path fill="#DADBDC" opacity="1.000000" stroke="none" 
	d="
M325.316101,31.986809 
	C325.623383,32.723732 325.641205,33.518421 325.562012,34.700493 
	C325.318878,34.073448 325.172729,33.059010 325.316101,31.986809 
z"/>
<path fill="#EBECEC" opacity="1.000000" stroke="none" 
	d="
M337.568542,43.028198 
	C337.898132,43.747787 337.899048,44.506618 337.907288,45.648300 
	C337.689697,45.043251 337.464783,44.055344 337.568542,43.028198 
z"/>
<path fill="#DADBDC" opacity="1.000000" stroke="none" 
	d="
M322.553894,116.378677 
	C322.123047,115.649994 321.859650,114.542328 321.829071,113.224228 
	C322.281708,114.009102 322.501495,115.004395 322.553894,116.378677 
z"/>
<path fill="#DADBDC" opacity="1.000000" stroke="none" 
	d="
M324.236694,153.826263 
	C323.844818,153.136795 323.707764,152.268921 323.773804,151.197937 
	C324.148438,151.879166 324.319977,152.763504 324.236694,153.826263 
z"/>
<path fill="#DADBDC" opacity="1.000000" stroke="none" 
	d="
M320.789246,38.003143 
	C320.477783,37.201195 320.459106,36.323471 320.680084,35.213654 
	C320.973816,35.963493 321.027893,36.945435 320.789246,38.003143 
z"/>
<path fill="#DADBDC" opacity="1.000000" stroke="none" 
	d="
M310.317871,118.989983 
	C310.645996,119.712662 310.672089,120.490456 310.682678,121.665199 
	C310.450073,121.056465 310.232971,120.050781 310.317871,118.989983 
z"/>
<path fill="#EBECEC" opacity="1.000000" stroke="none" 
	d="
M353.439117,98.967392 
	C353.224701,98.254356 353.322266,97.495644 353.419800,96.348335 
	C353.530182,96.947060 353.640656,97.934380 353.439117,98.967392 
z"/>
<path fill="#DADBDC" opacity="1.000000" stroke="none" 
	d="
M310.661987,94.208664 
	C311.094574,94.896790 311.287048,95.770554 311.249908,96.824509 
	C310.820831,96.134560 310.621399,95.264435 310.661987,94.208664 
z"/>
<path fill="#DADBDC" opacity="1.000000" stroke="none" 
	d="
M325.449341,163.007538 
	C325.144287,162.263992 325.163269,161.500015 325.216736,160.343658 
	C325.425262,160.963211 325.599304,161.975159 325.449341,163.007538 
z"/>
<path fill="#DADBDC" opacity="1.000000" stroke="none" 
	d="
M327.101929,92.033310 
	C327.405762,92.775185 327.423798,93.629417 327.324524,94.792259 
	C327.076904,94.115807 326.946503,93.130730 327.101929,92.033310 
z"/>
<path fill="#DADBDC" opacity="1.000000" stroke="none" 
	d="
M325.439941,167.770111 
	C324.962921,167.092331 324.730164,166.232162 324.720154,165.179443 
	C325.189972,165.853836 325.437073,166.720779 325.439941,167.770111 
z"/>
<path fill="#DADBDC" opacity="1.000000" stroke="none" 
	d="
M323.546021,131.002945 
	C323.293854,130.256622 323.337738,129.466690 323.494263,128.292831 
	C323.685242,128.925720 323.763641,129.942520 323.546021,131.002945 
z"/>
<path fill="#DADBDC" opacity="1.000000" stroke="none" 
	d="
M312.532532,168.244186 
	C313.007050,168.922485 313.249847,169.789551 313.242004,170.827362 
	C312.761200,170.143066 312.530975,169.288010 312.532532,168.244186 
z"/>
<path fill="#DADBDC" opacity="1.000000" stroke="none" 
	d="
M309.177826,68.998268 
	C309.540741,69.826134 309.610657,70.733940 309.394714,71.834259 
	C309.034210,71.043915 308.959503,70.061066 309.177826,68.998268 
z"/>
<path fill="#DADBDC" opacity="1.000000" stroke="none" 
	d="
M310.638245,131.219742 
	C311.103424,131.897720 311.332520,132.764557 311.308716,133.821991 
	C310.837952,133.144592 310.620026,132.276596 310.638245,131.219742 
z"/>
<path fill="#EBECEC" opacity="1.000000" stroke="none" 
	d="
M340.330750,58.966747 
	C340.639374,59.742050 340.632538,60.608513 340.455750,61.762657 
	C340.195618,61.052864 340.105469,60.055386 340.330750,58.966747 
z"/>
<path fill="#EBECEC" opacity="1.000000" stroke="none" 
	d="
M341.028198,127.196167 
	C341.558777,127.784630 342.047607,128.727097 342.280457,129.838333 
	C341.678467,129.188126 341.332458,128.369141 341.028198,127.196167 
z"/>
<path fill="#DADBDC" opacity="1.000000" stroke="none" 
	d="
M311.521545,152.986038 
	C311.849243,153.421982 311.894257,153.881546 311.874634,154.690063 
	C311.619629,154.362579 311.429260,153.686127 311.521545,152.986038 
z"/>
<path fill="#DADBDC" opacity="1.000000" stroke="none" 
	d="
M325.776978,38.135746 
	C326.169556,38.569473 326.322418,39.143120 326.279480,39.867752 
	C325.901550,39.437714 325.719421,38.856689 325.776978,38.135746 
z"/>
<path fill="#DADBDC" opacity="1.000000" stroke="none" 
	d="
M324.242706,145.861191 
	C323.889374,145.433105 323.767853,144.868774 323.828339,144.153290 
	C324.165039,144.576401 324.319794,145.150665 324.242706,145.861191 
z"/>
<path fill="#DADBDC" opacity="1.000000" stroke="none" 
	d="
M308.573029,28.193171 
	C309.130157,28.523197 309.466217,28.995735 309.725769,29.765141 
	C309.216858,29.486567 308.784424,28.911125 308.573029,28.193171 
z"/>
<path fill="#DADBDC" opacity="1.000000" stroke="none" 
	d="
M325.297424,157.850266 
	C324.767609,157.490585 324.470123,156.997025 324.267090,156.220184 
	C324.750916,156.530060 325.140320,157.123215 325.297424,157.850266 
z"/>
<path fill="#DADBDC" opacity="1.000000" stroke="none" 
	d="
M328.776825,159.141449 
	C329.140869,159.559982 329.271606,160.122482 329.237244,160.850525 
	C328.895935,160.439163 328.719727,159.862305 328.776825,159.141449 
z"/>
<path fill="#EBECEC" opacity="1.000000" stroke="none" 
	d="
M356.609619,168.997467 
	C356.426788,168.490570 356.516998,167.949677 356.808594,167.205780 
	C356.967529,167.656342 356.925079,168.309906 356.609619,168.997467 
z"/>
<path fill="#EBECEC" opacity="1.000000" stroke="none" 
	d="
M352.210449,60.882233 
	C351.896454,60.434608 351.815918,59.862171 351.943359,59.164669 
	C352.248840,59.612213 352.346405,60.184818 352.210449,60.882233 
z"/>
<path fill="#DADBDC" opacity="1.000000" stroke="none" 
	d="
M323.331726,99.828545 
	C322.924744,99.408699 322.736938,98.844307 322.763428,98.137390 
	C323.168762,98.557922 323.359833,99.120964 323.331726,99.828545 
z"/>
<path fill="#DADBDC" opacity="1.000000" stroke="none" 
	d="
M321.815033,65.032738 
	C321.598999,64.536636 321.638855,63.988960 321.873291,63.227882 
	C322.068909,63.670036 322.069916,64.325600 321.815033,65.032738 
z"/>
<path fill="#DADBDC" opacity="1.000000" stroke="none" 
	d="
M310.128174,64.958923 
	C310.365234,65.460022 310.347565,66.014183 310.152222,66.781479 
	C309.940857,66.333733 309.907135,65.672859 310.128174,64.958923 
z"/>
<path fill="#DADBDC" opacity="1.000000" stroke="none" 
	d="
M326.255798,72.964859 
	C326.586121,73.401619 326.660461,73.881866 326.644592,74.719269 
	C326.369537,74.387062 326.184692,73.697708 326.255798,72.964859 
z"/>
<path fill="#DADBDC" opacity="1.000000" stroke="none" 
	d="
M321.598511,76.032677 
	C321.427643,75.508720 321.530457,74.957909 321.843994,74.209450 
	C321.993866,74.676476 321.933014,75.341148 321.598511,76.032677 
z"/>
<path fill="#EBECEC" opacity="1.000000" stroke="none" 
	d="
M353.352417,76.990707 
	C353.106323,76.545143 353.140778,76.082306 353.301483,75.291367 
	C353.496155,75.633316 353.564545,76.303375 353.352417,76.990707 
z"/>
<path fill="#DADBDC" opacity="1.000000" stroke="none" 
	d="
M322.237366,60.858566 
	C321.738129,60.506241 321.472992,60.013134 321.243408,59.232956 
	C321.676483,59.536518 322.074005,60.127155 322.237366,60.858566 
z"/>
<path fill="#EBECEC" opacity="1.000000" stroke="none" 
	d="
M340.143372,91.010323 
	C340.451813,91.415237 340.517883,91.879143 340.542175,92.694473 
	C340.300598,92.387039 340.100800,91.728172 340.143372,91.010323 
z"/>
<path fill="#EBECEC" opacity="1.000000" stroke="none" 
	d="
M353.511292,93.985077 
	C353.183929,93.567131 353.133667,93.111763 353.146729,92.317947 
	C353.402802,92.635544 353.595581,93.291595 353.511292,93.985077 
z"/>
<path fill="#DADBDC" opacity="1.000000" stroke="none" 
	d="
M323.439697,95.836533 
	C323.014282,95.430328 322.788513,94.917099 322.749634,94.158890 
	C323.170807,94.519104 323.405060,95.124306 323.439697,95.836533 
z"/>
<path fill="#EBECEC" opacity="1.000000" stroke="none" 
	d="
M340.339478,95.000526 
	C340.592133,95.427589 340.589386,95.892342 340.527161,96.702377 
	C340.339813,96.377853 340.211945,95.708031 340.339478,95.000526 
z"/>
<path fill="#EBECEC" opacity="1.000000" stroke="none" 
	d="
M341.841309,132.105850 
	C342.290955,132.483368 342.508362,132.989456 342.622803,133.768524 
	C342.216248,133.439148 341.912659,132.836777 341.841309,132.105850 
z"/>
<path fill="#EBECEC" opacity="1.000000" stroke="none" 
	d="
M352.178497,55.888157 
	C351.734344,55.512348 351.522430,55.008057 351.401489,54.230095 
	C351.798553,54.557510 352.104675,55.158592 352.178497,55.888157 
z"/>
<path fill="#EBECEC" opacity="1.000000" stroke="none" 
	d="
M353.601532,102.994469 
	C353.321167,102.570786 353.304993,102.110222 353.339905,101.306534 
	C353.549225,101.628136 353.707458,102.292854 353.601532,102.994469 
z"/>
<path fill="#DADBDC" opacity="1.000000" stroke="none" 
	d="
M323.901611,108.021378 
	C323.565613,107.612900 323.468445,107.135155 323.398499,106.291382 
	C323.663940,106.600945 323.902222,107.276527 323.901611,108.021378 
z"/>
<path fill="#DADBDC" opacity="1.000000" stroke="none" 
	d="
M326.238098,49.998764 
	C326.498291,50.532963 326.460968,51.147282 326.210907,51.880638 
	C325.978973,51.359409 325.959778,50.719143 326.238098,49.998764 
z"/>
<path fill="#EBECEC" opacity="1.000000" stroke="none" 
	d="
M341.393921,112.986259 
	C341.554504,113.464241 341.482513,113.961105 341.126831,114.738235 
	C340.949219,114.347374 341.055328,113.676262 341.393921,112.986259 
z"/>
<path fill="#DADBDC" opacity="1.000000" stroke="none" 
	d="
M325.769501,43.129066 
	C326.129944,43.563545 326.248413,44.129951 326.188660,44.849358 
	C325.849426,44.421909 325.688477,43.841454 325.769501,43.129066 
z"/>
<path fill="#DADBDC" opacity="1.000000" stroke="none" 
	d="
M309.382751,41.972458 
	C309.610016,42.503559 309.561523,43.066772 309.289856,43.822609 
	C309.080078,43.345013 309.093536,42.674793 309.382751,41.972458 
z"/>
<path fill="#DADBDC" opacity="1.000000" stroke="none" 
	d="
M310.664703,124.165833 
	C311.064026,124.608925 311.243835,125.191071 311.195435,125.883057 
	C310.793243,125.430229 310.619232,124.867554 310.664703,124.165833 
z"/>
<path fill="#EBECEC" opacity="1.000000" stroke="none" 
	d="
M355.566101,126.987747 
	C355.198883,126.572929 355.107910,126.119270 355.089325,125.324768 
	C355.388580,125.638924 355.615448,126.293907 355.566101,126.987747 
z"/>
<path fill="#F6F6F7" opacity="1.000000" stroke="none" 
	d="
M123.500839,95.349503 
	C119.993851,96.851372 116.396881,98.816772 112.707848,99.008224 
	C103.849571,99.467957 95.234344,98.492050 88.061447,92.066574 
	C83.670776,88.133415 81.300789,81.466797 83.118881,75.424355 
	C84.297714,71.506485 91.371979,66.254547 95.853416,65.634888 
	C100.155579,65.040024 104.385773,63.896980 108.693886,63.382397 
	C111.711685,63.021935 114.807281,63.312836 117.805305,63.312836 
	C116.982735,70.225113 115.569450,76.076355 115.810692,81.858574 
	C116.028793,87.086021 117.812408,92.381157 123.500839,95.349503 
z"/>
<path fill="#F5F6F6" opacity="1.000000" stroke="none" 
	d="
M237.832489,102.589935 
	C230.841507,100.382515 223.899994,98.736282 217.762115,95.544601 
	C214.680145,93.941986 212.800079,89.680054 210.848160,86.344711 
	C208.658463,82.603043 209.355133,79.504196 212.541550,75.900162 
	C218.945267,68.657173 226.493439,65.223907 236.004272,65.693993 
	C239.854645,65.884308 243.706406,66.046577 246.486908,66.172943 
	C245.251770,72.516510 243.972610,78.430267 242.972900,84.390892 
	C241.794052,91.419525 247.472946,95.115211 251.498215,101.157875 
	C248.709869,101.409843 246.378326,101.600731 244.051392,101.836914 
	C242.102783,102.034706 240.159546,102.285408 237.832489,102.589935 
z"/>
<path fill="#EBECEC" opacity="1.000000" stroke="none" 
	d="
M344.649963,163.630737 
	C344.385498,162.731049 344.188477,161.425583 344.298584,160.042465 
	C344.642944,161.051529 344.680206,162.138245 344.649963,163.630737 
z"/>
<path fill="#EBECEC" opacity="1.000000" stroke="none" 
	d="
M344.667389,155.768265 
	C344.233459,155.441345 343.907318,154.845367 343.812073,154.117401 
	C344.287018,154.490005 344.531097,154.994598 344.667389,155.768265 
z"/>
<path fill="#EBECEC" opacity="1.000000" stroke="none" 
	d="
M344.649719,170.602020 
	C344.387573,169.965088 344.424255,169.224976 344.749695,168.235596 
	C345.008484,168.823822 344.978485,169.661346 344.649719,170.602020 
z"/>
</svg>