<svg width="24" height="24" viewBox="0 0 24 24" fill="none" xmlns="http://www.w3.org/2000/svg">
<path d="M17.8168 12.65V8.4C17.8168 7.94913 17.6491 7.51673 17.3506 7.19792C17.0522 6.87911 16.6473 6.7 16.2252 6.7C15.8031 6.7 15.3983 6.87911 15.0998 7.19792C14.8013 7.51673 14.6336 7.94913 14.6336 8.4M14.6336 11.8V6.7C14.6336 6.24913 14.4659 5.81673 14.1674 5.49792C13.869 5.17911 13.4641 5 13.042 5C12.6199 5 12.2151 5.17911 11.9166 5.49792C11.6181 5.81673 11.4504 6.24913 11.4504 6.7V8.4M11.4504 8.4V12.225M11.4504 8.4C11.4504 7.94913 11.2827 7.51673 10.9842 7.19792C10.6858 6.87911 10.2809 6.7 9.85881 6.7C9.43669 6.7 9.03186 6.87911 8.73338 7.19792C8.4349 7.51673 8.26721 7.94913 8.26721 8.4V15.2M17.8168 10.1C17.8168 9.64913 17.9845 9.21673 18.283 8.89792C18.5815 8.57911 18.9863 8.4 19.4084 8.4C19.8305 8.4 20.2353 8.57911 20.5338 8.89792C20.8323 9.21673 21 9.64913 21 10.1V15.2C21 17.0035 20.3293 18.7331 19.1353 20.0083C17.9414 21.2836 16.3221 22 14.6336 22H13.042C10.8138 22 9.46091 21.269 8.27517 20.011L5.41029 16.951C5.13649 16.6271 4.98978 16.2031 5.00055 15.7669C5.01133 15.3307 5.17875 14.9155 5.46816 14.6075C5.75757 14.2995 6.14681 14.1221 6.55527 14.1122C6.96373 14.1022 7.36013 14.2604 7.6624 14.554L9.06301 16.05" stroke="white" stroke-width="2" stroke-linecap="round" stroke-linejoin="round"/>
<path d="M2.49045 11.06C2.87449 11.1163 3.35307 11.06 3.35307 11.4371C3.35307 11.5864 3.41532 11.7296 3.52612 11.8351C3.63692 11.9407 3.7872 12 3.9439 12C4.1006 12 4.25088 11.9407 4.36168 11.8351C4.47249 11.7296 4.53474 11.5864 4.53474 11.4371C4.54064 11.1413 4.97195 11.1163 5.40917 11.0544C5.56587 11.0544 5.71615 10.9951 5.82695 10.8896C5.93775 10.784 6 10.6408 6 10.4916C6 10.3423 5.93775 10.1991 5.82695 10.0936C5.71615 9.98801 5.56587 9.92871 5.40917 9.92871C4.97195 9.87242 4.53474 9.87835 4.54064 9.56285C4.54064 9.41357 4.47839 9.27041 4.36759 9.16486C4.25679 9.0593 4.10651 9 3.94981 9C3.79311 9 3.64283 9.0593 3.53203 9.16486C3.42123 9.27041 3.35898 9.41357 3.35898 9.56285C3.35898 9.92871 2.91585 9.88368 2.51409 9.93433C2.37105 9.95219 2.23981 10.0193 2.14512 10.123C2.05044 10.2267 1.99884 10.3598 2.00006 10.4972C1.99802 10.6313 2.04629 10.7617 2.1362 10.8648C2.2261 10.968 2.35173 11.0373 2.49045 11.06Z" fill="white"/>
<path d="M6.03858 7.36307C6.03858 5.65834 9.36569 5.08385 9.4016 5.08385C9.5603 5.08385 9.71251 5.01806 9.82473 4.90096C9.93695 4.78385 10 4.62502 10 4.45941C10 4.2938 9.93695 4.13497 9.82473 4.01786C9.71251 3.90076 9.5603 3.83497 9.4016 3.83497C9.34774 3.84121 6.03858 3.3479 6.03858 1.62444C6.03858 1.45883 5.97553 1.3 5.86331 1.1829C5.75109 1.06579 5.59888 1 5.44018 1C5.28147 1 5.12927 1.06579 5.01704 1.1829C4.90482 1.3 4.84178 1.45883 4.84178 1.62444C4.84178 3.3479 1.55057 3.85995 1.52065 3.86619C1.37578 3.88601 1.24286 3.96045 1.14696 4.07547C1.05106 4.1905 0.998799 4.33817 1.00004 4.49063C0.998407 4.64123 1.04899 4.78736 1.14246 4.90211C1.23593 5.01686 1.36599 5.09249 1.50868 5.11508C1.54458 5.11508 4.84178 5.67083 4.84178 7.37556C4.84178 7.54117 4.90482 7.7 5.01704 7.8171C5.12927 7.93421 5.28147 8 5.44018 8C5.59888 8 5.75109 7.93421 5.86331 7.8171C5.97553 7.7 6.03858 7.54117 6.03858 7.37556V7.36307ZM3.76465 4.49688C4.40396 4.23974 4.97747 3.8315 5.44018 3.30419C5.90978 3.83024 6.48928 4.23623 7.13366 4.49063C6.48913 4.75658 5.91031 5.17064 5.44018 5.70205C4.97486 5.17488 4.40235 4.76309 3.76465 4.49688Z" fill="white"/>
</svg>
