<svg width="70" height="80" viewBox="0 0 70 80" fill="none" xmlns="http://www.w3.org/2000/svg">
<path d="M33.81 78.785L1.19 60.185C0.46 59.765 0 58.995 0 58.155V20.955C0 20.115 0.45 19.345 1.19 18.925L33.81 0.315C34.54 -0.105 35.45 -0.105 36.18 0.315L68.81 18.915C69.54 19.335 70 20.105 70 20.945V58.145C70 58.985 69.55 59.755 68.81 60.175L36.18 78.775C35.45 79.195 34.54 79.195 33.81 78.775V78.785ZM7.12 56.795L33.81 72.015C34.54 72.435 35.45 72.435 36.18 72.015L62.87 56.795C63.6 56.375 64.06 55.605 64.06 54.765V24.335C64.06 23.495 63.61 22.725 62.87 22.305L36.18 7.085C35.45 6.665 34.54 6.665 33.81 7.085L7.12 22.305C6.39 22.725 5.93 23.495 5.93 24.335V54.765C5.93 55.605 6.38 56.375 7.12 56.795Z" fill="#FF8846"/>
<path d="M33.8104 12.4754L11.8404 24.9954C11.1104 25.4154 10.6504 26.1854 10.6504 27.0254V50.7154C10.6504 52.3954 11.5604 53.9354 13.0204 54.7754L15.6904 56.2954C16.0904 56.5254 16.5804 56.2354 16.5804 55.7854V30.3954C16.5804 29.5554 17.0304 28.7854 17.7704 28.3654L33.8004 19.2254C34.5304 18.8054 35.4404 18.8054 36.1704 19.2254L52.2004 28.3654C52.9304 28.7854 53.3904 29.5554 53.3904 30.3954V48.6754C53.3904 49.5154 52.9404 50.2854 52.2004 50.7054L36.1704 59.8454C35.4404 60.2654 34.5304 60.2654 33.8004 59.8454L28.4604 56.7954C27.7304 56.3754 27.2704 55.6054 27.2704 54.7654V36.4854C27.2704 35.6454 27.7204 34.8754 28.4604 34.4554L33.8004 31.4054C34.5304 30.9854 35.4404 30.9854 36.1704 31.4054L41.5104 34.4554C42.2404 34.8754 42.7004 35.6454 42.7004 36.4854V42.5754C42.7004 43.4154 42.2504 44.1854 41.5104 44.6054L38.8404 46.1254C38.4404 46.3554 37.9504 46.0654 37.9504 45.6154V39.2254C37.9504 38.3854 37.5004 37.6154 36.7604 37.1954L35.5704 36.5154C35.2004 36.3054 34.7504 36.3054 34.3804 36.5154L32.9004 37.3654C32.3504 37.6754 32.0104 38.2654 32.0104 38.8854V52.0754C32.0104 52.9154 32.4704 53.6954 33.2104 54.1154L33.7804 54.4354C34.5104 54.8454 35.4104 54.8454 36.1504 54.4354L47.4504 47.9954C48.1804 47.5754 48.6404 46.8054 48.6404 45.9654V33.1054C48.6404 32.2654 48.1904 31.4954 47.4504 31.0754L36.1704 24.6454C35.4404 24.2254 34.5304 24.2254 33.8004 24.6454L22.5204 31.0754C21.7904 31.4954 21.3304 32.2654 21.3304 33.1054V58.1554C21.3304 58.9954 21.7804 59.7654 22.5204 60.1854L33.8004 66.6154C34.5304 67.0354 35.4404 67.0354 36.1704 66.6154L58.1404 54.0954C58.8704 53.6754 59.3304 52.9054 59.3304 52.0654V27.0154C59.3304 26.1754 58.8804 25.4054 58.1404 24.9854L36.1704 12.4654C35.4404 12.0454 34.5304 12.0454 33.8004 12.4654L33.8104 12.4754Z" fill="#FF8846"/>
</svg>
