<svg width="88" height="100" viewBox="0 0 88 100" fill="none" xmlns="http://www.w3.org/2000/svg">
<path d="M14.8901 31.5977L42.5067 15.7623V15.7567C43.4304 15.2267 44.5686 15.2267 45.4923 15.7567L73.1089 31.5922C74.0326 32.1222 74.6017 33.1007 74.6017 34.1607V65.8299C74.6017 66.8899 74.0326 67.8684 73.1089 68.3984L45.4923 84.2339C44.5686 84.7639 43.4304 84.7639 42.5067 84.2339L28.3252 76.1021C27.4015 75.5721 26.8324 74.5936 26.8324 73.5336V41.8644C26.8324 40.8044 27.4015 39.8259 28.3252 39.2959L42.5067 31.1641C43.4304 30.6341 44.5686 30.6341 45.4923 31.1641L59.6738 39.2959C60.5974 39.8259 61.1666 40.8044 61.1666 41.8644V58.128C61.1666 59.188 60.5974 60.1665 59.6738 60.6965L45.4661 68.8432C44.5462 69.3713 43.4136 69.3732 42.4918 68.8506L41.7715 68.4429C40.8422 67.9147 40.2675 66.9325 40.2675 65.8688V49.1975C40.2675 48.4043 40.6948 47.6686 41.3871 47.272L43.2531 46.2028C43.7158 45.9377 44.2831 45.9377 44.7459 46.2028L46.2387 47.0589C47.1623 47.5889 47.7314 48.5674 47.7314 49.6274V57.7073C47.7314 58.2781 48.3528 58.6339 48.8511 58.3485L52.2098 56.4231C53.1335 55.8931 53.7026 54.9146 53.7026 53.8546V46.1509C53.7026 45.0908 53.1335 44.1124 52.2098 43.5823L45.4923 39.7314C44.5686 39.2014 43.4304 39.2014 42.5067 39.7314L35.7891 43.5823C34.8655 44.1124 34.2963 45.0908 34.2963 46.1509V69.262C34.2963 70.322 34.8655 71.3005 35.7891 71.8305L42.5067 75.6814C43.4304 76.2114 44.5686 76.2114 45.4923 75.6814L65.6449 64.1268C66.5686 63.5968 67.1377 62.6183 67.1377 61.5583V38.4472C67.1377 37.3871 66.5686 36.4086 65.6449 35.8786L45.4923 24.324C44.5686 23.794 43.4304 23.794 42.5067 24.324L22.354 35.8786C21.4303 36.4086 20.8612 37.3871 20.8612 38.4472V70.5444C20.8612 71.1152 20.2399 71.471 19.7416 71.1856L16.3828 69.2601C14.5355 68.2019 13.3973 66.2431 13.3973 64.1249V34.1663C13.3973 33.1062 13.9664 32.1278 14.8901 31.5977Z" fill="#006B56"/>
<path fill-rule="evenodd" clip-rule="evenodd" d="M1.4928 76.0855L42.5072 99.6025C43.4309 100.132 44.5691 100.132 45.4928 99.6025L86.5072 76.0855C87.4309 75.5555 88 74.577 88 73.517V26.483C88 25.423 87.4309 24.4445 86.5072 23.9145L45.4928 0.397509C44.5691 -0.132503 43.4309 -0.132503 42.5072 0.397509L1.4928 23.9145C0.569132 24.4445 0 25.423 0 26.483V73.517C0 74.577 0.569132 75.5555 1.4928 76.0855ZM42.5072 91.0444L8.95675 71.8065C8.03308 71.2764 7.46395 70.298 7.46395 69.2379V30.7639C7.46395 29.7039 8.03308 28.7254 8.95675 28.1954L42.5072 8.95741C43.4309 8.42739 44.5691 8.42739 45.4928 8.95741L79.0433 28.1954C79.9669 28.7254 80.5361 29.7039 80.5361 30.7639V69.2379C80.5361 70.298 79.9669 71.2764 79.0433 71.8065L45.4928 91.0444C44.5691 91.5744 43.4309 91.5744 42.5072 91.0444Z" fill="#006B56"/>
</svg>
