<svg width="700" height="700" viewBox="0 0 700 700" fill="none" xmlns="http://www.w3.org/2000/svg">
<path d="M334 9.23761C343.901 3.52136 356.099 3.52135 366 9.2376L637.109 165.762C647.01 171.479 653.109 182.043 653.109 193.475V506.525C653.109 517.957 647.01 528.521 637.109 534.238L366 690.762C356.099 696.479 343.901 696.479 334 690.762L62.8911 534.238C52.9903 528.521 46.8911 517.957 46.8911 506.525V193.475C46.8911 182.043 52.9903 171.479 62.8911 165.762L334 9.23761Z" fill="#93FBED"/>
<path d="M334 59.2376C343.901 53.5214 356.099 53.5214 366 59.2376L593.808 190.762C603.708 196.479 609.808 207.043 609.808 218.475V481.525C609.808 492.957 603.708 503.521 593.808 509.238L366 640.762C356.099 646.479 343.901 646.479 334 640.762L106.192 509.238C96.2916 503.521 90.1924 492.957 90.1924 481.525V218.475C90.1924 207.043 96.2915 196.479 106.192 190.762L334 59.2376Z" fill="#FFDEB5" stroke="black" stroke-width="5"/>
<rect x="119.97" y="350" width="325.29" height="325.29" rx="162.645" transform="rotate(-45 119.97 350)" stroke="black" stroke-width="5"/>
<path fill-rule="evenodd" clip-rule="evenodd" d="M384.733 260C384.733 253.373 379.36 248 372.733 248H328.267C321.64 248 316.267 253.373 316.267 260V304.267C316.267 310.895 310.894 316.267 304.267 316.267H260C253.373 316.267 248 321.64 248 328.267L248 372.733C248 379.361 253.373 384.733 260 384.733H304.267C310.894 384.733 316.267 390.106 316.267 396.733V441C316.267 447.627 321.64 453 328.267 453H372.733C379.36 453 384.733 447.627 384.733 441V396.733C384.733 390.106 390.106 384.733 396.733 384.733H441C447.627 384.733 453 379.361 453 372.733V328.267C453 321.64 447.627 316.267 441 316.267H396.733C390.106 316.267 384.733 310.895 384.733 304.267V260Z" fill="#FF684B"/>
<path d="M328.267 250.5H372.733V245.5H328.267V250.5ZM318.767 304.267V260H313.767V304.267H318.767ZM260 318.767H304.267V313.767H260V318.767ZM250.5 372.733L250.5 328.267H245.5L245.5 372.733H250.5ZM304.267 382.233H260V387.233H304.267V382.233ZM318.767 441V396.733H313.767V441H318.767ZM372.733 450.5H328.267V455.5H372.733V450.5ZM382.233 396.733V441H387.233V396.733H382.233ZM441 382.233H396.733V387.233H441V382.233ZM450.5 328.267V372.733H455.5V328.267H450.5ZM396.733 318.767H441V313.767H396.733V318.767ZM382.233 260V304.267H387.233V260H382.233ZM396.733 313.767C391.486 313.767 387.233 309.514 387.233 304.267H382.233C382.233 312.275 388.725 318.767 396.733 318.767V313.767ZM455.5 328.267C455.5 320.259 449.008 313.767 441 313.767V318.767C446.247 318.767 450.5 323.021 450.5 328.267H455.5ZM441 387.233C449.008 387.233 455.5 380.741 455.5 372.733H450.5C450.5 377.98 446.247 382.233 441 382.233V387.233ZM387.233 396.733C387.233 391.487 391.486 387.233 396.733 387.233V382.233C388.725 382.233 382.233 388.725 382.233 396.733H387.233ZM372.733 455.5C380.741 455.5 387.233 449.008 387.233 441H382.233C382.233 446.247 377.98 450.5 372.733 450.5V455.5ZM313.767 441C313.767 449.008 320.259 455.5 328.267 455.5V450.5C323.02 450.5 318.767 446.247 318.767 441H313.767ZM304.267 387.233C309.514 387.233 313.767 391.486 313.767 396.733H318.767C318.767 388.725 312.275 382.233 304.267 382.233V387.233ZM245.5 372.733C245.5 380.741 251.992 387.233 260 387.233V382.233C254.753 382.233 250.5 377.98 250.5 372.733H245.5ZM260 313.767C251.992 313.767 245.5 320.259 245.5 328.267H250.5C250.5 323.02 254.753 318.767 260 318.767V313.767ZM313.767 304.267C313.767 309.514 309.514 313.767 304.267 313.767V318.767C312.275 318.767 318.767 312.275 318.767 304.267H313.767ZM372.733 250.5C377.98 250.5 382.233 254.753 382.233 260H387.233C387.233 251.992 380.741 245.5 372.733 245.5V250.5ZM328.267 245.5C320.259 245.5 313.767 251.992 313.767 260H318.767C318.767 254.753 323.02 250.5 328.267 250.5V245.5Z" fill="black"/>
</svg>
