<svg width="700" height="700" viewBox="0 0 700 700" fill="none" xmlns="http://www.w3.org/2000/svg">
<path d="M334 9.23761C343.901 3.52136 356.099 3.52135 366 9.2376L637.109 165.762C647.01 171.479 653.109 182.043 653.109 193.475V506.525C653.109 517.957 647.01 528.521 637.109 534.238L366 690.762C356.099 696.479 343.901 696.479 334 690.762L62.8911 534.238C52.9903 528.521 46.8911 517.957 46.8911 506.525V193.475C46.8911 182.043 52.9903 171.479 62.8911 165.762L334 9.23761Z" fill="#93FBED"/>
<path d="M334 59.2376C343.901 53.5214 356.099 53.5214 366 59.2376L593.808 190.762C603.708 196.479 609.808 207.043 609.808 218.475V481.525C609.808 492.957 603.708 503.521 593.808 509.238L366 640.762C356.099 646.479 343.901 646.479 334 640.762L106.192 509.238C96.2916 503.521 90.1924 492.957 90.1924 481.525V218.475C90.1924 207.043 96.2915 196.479 106.192 190.762L334 59.2376Z" fill="#FFDEB5" stroke="black" stroke-width="5"/>
<path d="M338.165 386.609C341.901 375.862 357.099 375.862 360.835 386.609L382.143 447.91C383.791 452.651 388.215 455.865 393.233 455.967L458.119 457.29C469.494 457.521 474.19 471.976 465.124 478.85L413.408 518.058C409.408 521.09 407.718 526.291 409.172 531.095L427.965 593.214C431.259 604.104 418.964 613.037 409.625 606.538L356.354 569.47C352.234 566.603 346.766 566.603 342.646 569.47L289.375 606.539C280.036 613.037 267.741 604.104 271.035 593.214L289.828 531.095C291.282 526.291 289.592 521.09 285.592 518.058L233.876 478.85C224.81 471.976 229.506 457.521 240.881 457.29L305.767 455.967C310.785 455.865 315.209 452.651 316.857 447.91L338.165 386.609Z" fill="#FF684B" stroke="black" stroke-width="5"/>
<path d="M174.818 293.996L288.328 359.531" stroke="black" stroke-width="5" stroke-miterlimit="10"/>
<path d="M248.912 219.902L314.447 333.412" stroke="black" stroke-width="5" stroke-miterlimit="10"/>
<path d="M350.122 142V323.856" stroke="black" stroke-width="5" stroke-miterlimit="10"/>
<path d="M451.332 219.902L385.797 333.412" stroke="black" stroke-width="5" stroke-miterlimit="10"/>
<path d="M525.41 293.996L411.9 359.531" stroke="black" stroke-width="5" stroke-miterlimit="10"/>
</svg>
