<svg width="353" height="400" viewBox="0 0 353 400" fill="none" xmlns="http://www.w3.org/2000/svg">
  <path
    d="M172.419 150.918C172.419 148.807 174.146 147.08 176.257 147.08C178.368 147.08 180.095 148.807 180.095 150.918C180.095 153.029 178.368 154.756 176.257 154.756C174.146 154.756 172.419 153.029 172.419 150.918ZM127.031 185.366C127.031 183.255 128.759 181.528 130.87 181.528C132.981 181.528 134.708 183.255 134.708 185.366C134.708 187.477 132.981 189.205 130.87 189.205C128.759 189.205 127.031 187.477 127.031 185.366ZM217.806 185.558C217.806 183.447 219.534 181.72 221.645 181.72C223.756 181.72 225.483 183.447 225.483 185.558C225.483 187.669 223.756 189.397 221.645 189.397C219.534 189.397 217.806 187.669 217.806 185.558ZM138.066 190.74C139.794 189.972 140.561 187.957 139.794 186.134L138.066 182.296H144.687V212.33H131.253C129.622 206.477 129.046 200.432 129.718 194.482L138.066 190.74ZM165.798 191.508V182.68H181.631C182.494 182.68 187.388 183.639 187.388 187.285C187.388 190.356 183.55 191.508 180.479 191.508H165.798ZM144.208 239.006C144.208 236.895 145.935 235.168 148.046 235.168C150.157 235.168 151.884 236.895 151.884 239.006C151.884 241.117 150.157 242.844 148.046 242.844C145.935 242.844 144.208 241.117 144.208 239.006ZM200.63 239.198C200.63 237.087 202.357 235.36 204.468 235.36C206.58 235.36 208.307 237.087 208.307 239.198C208.307 241.309 206.58 243.036 204.468 243.036C202.357 243.036 200.63 241.309 200.63 239.198ZM201.782 230.562C199.863 230.178 198.039 231.33 197.656 233.249L195.736 242.173C183.262 247.834 169.06 247.738 156.682 241.981L154.763 233.057C154.379 231.138 152.556 229.986 150.637 230.37L142.768 232.097C141.329 230.562 139.985 229.027 138.738 227.299H177.025C177.505 227.299 177.792 227.204 177.792 226.82V213.29C177.792 212.906 177.505 212.81 177.025 212.81H165.798V204.27H177.888C179.04 204.27 183.838 204.558 185.373 210.699C185.853 212.618 186.908 218.759 187.676 220.678C188.444 222.885 191.322 227.299 194.489 227.299H214.256C212.913 229.027 211.473 230.754 209.938 232.289L201.782 230.562ZM223.084 194.77C223.372 197.457 223.372 200.24 223.18 202.926H218.382C217.902 202.926 217.711 203.214 217.711 203.694V205.901C217.711 211.083 214.736 212.234 212.241 212.522C209.842 212.81 207.059 211.467 206.771 210.027C205.332 201.871 202.933 200.144 199.095 197.169C203.797 194.194 208.691 189.78 208.691 183.831C208.691 177.498 204.277 173.468 201.302 171.453C197.176 168.766 192.474 168.19 191.226 168.19H141.521C148.43 160.514 157.642 155.332 167.717 153.413L173.57 159.554C174.914 160.897 177.121 160.993 178.464 159.65L184.989 153.413C198.519 155.908 210.226 164.256 217.039 176.25L212.625 186.422C211.857 188.149 212.625 190.26 214.352 191.028L223.084 194.77ZM234.311 194.962L234.119 193.427L238.725 189.109C239.685 188.245 239.301 186.422 238.149 186.038L232.2 183.831L231.72 182.296L235.367 177.21C236.134 176.154 235.463 174.523 234.119 174.331L227.882 173.276L227.114 171.836L229.705 166.079C230.281 164.928 229.225 163.392 227.978 163.488L221.645 163.68L220.685 162.433L222.125 156.291C222.412 155.044 221.165 153.797 219.918 154.084L213.776 155.524L212.529 154.564L212.721 148.231C212.817 146.984 211.281 145.928 210.13 146.504L204.373 149.095L202.933 148.327L201.878 142.09C201.686 140.842 200.054 140.171 198.999 140.842L193.913 144.489L192.378 144.009L190.267 138.156C189.787 136.908 188.06 136.62 187.196 137.58L182.878 142.186L181.343 141.994L177.984 136.62C177.313 135.565 175.49 135.565 174.818 136.62L171.459 141.994L169.924 142.186L165.606 137.58C164.742 136.62 162.919 137.004 162.535 138.156L160.328 144.105L158.793 144.585L153.707 140.938C152.652 140.171 151.021 140.842 150.829 142.186L149.773 148.423L148.334 149.191L142.576 146.6C141.425 146.024 139.89 147.08 139.985 148.327L140.177 154.66L138.93 155.62L132.789 154.18C131.541 153.892 130.294 155.14 130.582 156.387L132.021 162.529L131.062 163.776L124.728 163.584C123.481 163.584 122.425 165.023 123.001 166.175L125.592 171.932L124.824 173.372L118.587 174.427C117.34 174.619 116.668 176.25 117.34 177.306L120.986 182.392L120.506 183.927L114.557 186.134C113.309 186.614 113.022 188.341 113.981 189.205L118.587 193.523L118.395 195.058L113.022 198.416C111.966 199.088 111.966 200.911 113.022 201.583L118.395 204.942L118.587 206.477L113.981 210.795C113.022 211.659 113.405 213.386 114.557 213.866L120.506 216.073L120.986 217.608L117.34 222.694C116.572 223.749 117.244 225.38 118.587 225.572L124.824 226.628L125.592 228.067L123.001 233.825C122.425 234.976 123.481 236.511 124.728 236.415L131.062 236.223L132.021 237.471L130.582 243.612C130.294 244.86 131.541 246.107 132.789 245.819L138.93 244.38L140.177 245.339L139.985 251.673C139.89 252.92 141.425 253.975 142.576 253.4L148.334 250.809L149.773 251.577L150.829 257.814C151.021 259.061 152.652 259.733 153.707 259.061L158.793 255.415L160.328 255.895L162.535 261.844C163.015 263.091 164.742 263.379 165.606 262.42L169.924 257.814L171.459 258.006L174.818 263.379C175.49 264.435 177.313 264.435 177.984 263.379L181.343 258.006L182.878 257.814L187.196 262.42C188.06 263.379 189.883 262.995 190.267 261.844L192.474 255.895L194.009 255.415L199.095 259.061C200.15 259.829 201.782 259.157 201.974 257.814L203.029 251.577L204.468 250.809L210.226 253.4C211.377 253.975 212.913 252.92 212.817 251.673L212.625 245.339L213.872 244.38L220.013 245.819C221.261 246.107 222.508 244.86 222.22 243.612L220.781 237.471L221.741 236.223L228.074 236.415C229.321 236.511 230.377 234.976 229.801 233.825L227.21 228.067L227.978 226.628L234.215 225.572C235.463 225.38 236.134 223.749 235.463 222.694L231.816 217.608L232.296 216.073L238.245 213.866C239.493 213.386 239.781 211.659 238.821 210.795L234.215 206.477L234.407 204.942L239.781 201.583C240.836 200.911 240.836 199.088 239.781 198.416L234.311 194.962Z"
    fill="#FFDEB5"
  />
  <path
    fillRule="evenodd"
    clipRule="evenodd"
    d="M165.084 106.596C139.516 109.62 117.09 122.899 102.033 142.205L10.3965 89.3024L165.084 0V106.596ZM250.715 142.531C235.819 123.257 213.606 109.925 188.238 106.698V0L342.905 89.3024L250.715 142.531ZM262.439 237.718C267.499 226.171 270.307 213.414 270.307 200C270.307 186.586 267.499 173.828 262.439 162.281L351.791 110.697V289.302L262.439 237.718ZM188.238 293.302C213.606 290.075 235.819 276.743 250.715 257.469L342.905 310.698L188.238 400V293.302ZM102.033 257.795C117.09 277.101 139.516 290.38 165.084 293.404V400L10.3965 310.698L102.033 257.795ZM90.2221 161.905C85.0576 173.551 82.1883 186.44 82.1883 200C82.1883 213.559 85.0574 226.448 90.2216 238.093L1.53174 289.302V110.697L90.2221 161.905Z"
    fill="#FF684B"
  />
  <path
    d="M124.785 290.936V377.413L49.8989 334.164L124.785 290.936Z"
    fill="#93FBED"
    stroke="black"
    strokeWidth="2"
    strokeLinejoin="round"
  />
  <path
    d="M75.9068 200.225L1 243.474V156.977L75.9068 200.225Z"
    fill="#FFDEB5"
    stroke="black"
    strokeWidth="2"
    strokeLinejoin="round"
  />
  <path
    d="M124.785 109.514L49.8989 66.2656L124.785 23.0376V109.514Z"
    fill="#93FBED"
    stroke="black"
    strokeWidth="2"
    strokeLinejoin="round"
  />
  <path
    d="M227.988 109.514V23.0376L302.895 66.2656L227.988 109.514Z"
    fill="#FFDEB5"
    stroke="black"
    strokeWidth="2"
    strokeLinejoin="round"
  />
  <path
    d="M276.886 200.225L351.793 156.977V243.474L276.886 200.225Z"
    fill="#93FBED"
    stroke="black"
    strokeWidth="2"
    strokeLinejoin="round"
  />
  <path
    d="M227.988 290.936L302.895 334.164L227.988 377.413V290.936Z"
    fill="#FFDEB5"
    stroke="black"
    strokeWidth="2"
    strokeLinejoin="round"
  />
</svg>
