<svg width="34" height="34" viewBox="0 0 34 34" fill="none" xmlns="http://www.w3.org/2000/svg">
<path d="M4.24569 13.2125C2.92695 11.9761 2.02031 10.3689 2.02031 8.47322V8.26717C2.14394 5.05272 4.78144 2.41523 7.99588 2.33281H28.5601C29.0958 2.37402 29.5079 2.74492 29.5079 3.28066V20.7128C29.9613 20.7953 30.2085 20.8777 30.6618 21.0013C31.0327 21.125 31.5273 21.4134 31.5273 21.4134V3.28066C31.4861 1.63222 30.1673 0.313477 28.5189 0.313477H7.99588C3.54511 0.395898 0.000976562 4.02245 0.000976562 8.47322C0.000976562 11.0695 1.19609 13.2949 3.09179 14.8197C3.21542 14.9433 3.33906 15.067 3.70995 15.067C4.32812 15.067 4.74022 14.5724 4.69901 14.0779C4.69901 13.6246 4.53417 13.4597 4.24569 13.2125Z" fill="white"/>
<path d="M28.0248 21.8666H11.9113C10.8398 21.8666 9.9744 22.732 9.9744 23.8447V26.1525C10.0156 27.224 10.9223 28.1306 11.9937 28.1306H13.1888V26.1525H11.9937V23.8859C11.9937 23.8859 12.2822 23.8859 12.6531 23.8859C14.6724 23.8859 16.1972 25.7816 16.1972 27.8009C16.1972 29.6142 14.5488 31.8808 11.8289 31.716C9.39745 31.5511 8.0787 29.4082 8.0787 27.8009V8.14336C8.0787 7.27793 7.33691 6.53613 6.47148 6.53613H4.86426V8.55546H6.05937V27.8421C5.97695 31.7572 8.86171 33.7353 11.8289 33.7353L28.066 33.7765C31.3216 33.7765 34.0003 31.139 34.0003 27.8421C33.9591 24.5041 31.3216 21.8666 28.0248 21.8666ZM31.9398 27.9246C31.8574 30.0263 30.1265 31.716 28.0248 31.716L16.733 31.6747C17.6396 30.6445 18.1754 29.2845 18.1754 27.8009C18.1754 25.4931 16.8154 23.8859 16.8154 23.8859H28.066C30.2089 23.8859 31.981 25.658 31.981 27.8009L31.9398 27.9246Z" fill="white"/>
<path d="M23.6972 8.88554H11.54V6.86621H23.6972C24.233 6.86621 24.6863 7.31953 24.6863 7.85527C24.6863 8.43222 24.2742 8.88554 23.6972 8.88554Z" fill="white"/>
<path d="M23.6972 18.3641H11.54V16.3447H23.6972C24.233 16.3447 24.6863 16.798 24.6863 17.3338C24.6863 17.9107 24.2742 18.3641 23.6972 18.3641Z" fill="white"/>
<path d="M25.8402 13.6238H11.54V11.6045H25.8402C26.3759 11.6045 26.8293 12.0578 26.8293 12.5936C26.8293 13.1705 26.3759 13.6238 25.8402 13.6238Z" fill="white"/>
</svg>
