<?xml version="1.0" encoding="UTF-8"?>
<svg id="Layer_9" data-name="Layer 9" xmlns="http://www.w3.org/2000/svg" version="1.1" viewBox="0 0 221.585 221.585">
  <defs>
    <style>
      .cls-1 {
        fill: #000;
      }

      .cls-1, .cls-2 {
        stroke-width: 0px;
      }

      .cls-2 {
        fill: #fff;
      }
    </style>
  </defs>
  <circle class="cls-1" cx="110.793" cy="110.793" r="110.793"/>
  <g>
    <path class="cls-2" d="M40.344,127.415c-1.836-.107-3.607-.444-5.313-1.011-1.707-.567-3.218-1.342-4.536-2.327-1.318-.984-2.33-2.16-3.036-3.53l7.272-2.824c.282.428.741.883,1.377,1.364.635.482,1.394.883,2.277,1.203.883.321,1.853.482,2.912.482.894,0,1.747-.112,2.559-.337.812-.224,1.471-.572,1.977-1.043.506-.47.759-1.08.759-1.829,0-.791-.3-1.407-.9-1.846-.6-.438-1.353-.77-2.259-.995-.906-.225-1.783-.433-2.63-.626-2.236-.406-4.313-1.037-6.23-1.894-1.918-.855-3.459-1.963-4.624-3.321-1.165-1.358-1.747-3.001-1.747-4.926,0-2.118.618-3.947,1.853-5.488s2.847-2.728,4.836-3.562c1.988-.834,4.136-1.252,6.442-1.252,2.8,0,5.371.529,7.713,1.589,2.342,1.059,4.195,2.551,5.56,4.477l-6.813,3.658c-.33-.513-.789-.989-1.377-1.428-.588-.438-1.259-.802-2.012-1.091-.753-.289-1.542-.454-2.365-.497-1.059-.043-2.024.043-2.895.257-.871.214-1.571.578-2.1,1.091-.529.514-.794,1.198-.794,2.054,0,.813.353,1.417,1.059,1.813.706.396,1.559.701,2.559.915,1,.214,1.959.45,2.877.706,2.071.621,4.018,1.38,5.842,2.279,1.823.899,3.288,2.001,4.395,3.306,1.106,1.305,1.636,2.867,1.589,4.685,0,2.075-.683,3.889-2.048,5.439-1.365,1.552-3.124,2.733-5.277,3.546-2.153.813-4.454,1.134-6.901.963h0Z"/>
    <path class="cls-2" d="M86.652,106.556v20.282h-7.831v-18.228c0-1.262-.31-2.412-.931-3.45s-1.449-1.861-2.487-2.471-2.187-.915-3.45-.915-2.412.305-3.45.915c-1.038.61-1.861,1.433-2.471,2.471-.61,1.038-.915,2.188-.915,3.45v18.228h-7.83l-.032-48.137h7.83l.032,18.902c1.091-1.155,2.396-2.069,3.915-2.744,1.519-.674,3.155-1.011,4.909-1.011,2.332,0,4.461.573,6.386,1.717,1.925,1.145,3.461,2.675,4.605,4.589,1.144,1.915,1.717,4.049,1.717,6.402h0Z"/>
    <path class="cls-2" d="M115.341,94.746h7.83v32.091h-7.83l-.353-3.979c-.878,1.434-2.038,2.594-3.482,3.482-1.444.888-3.15,1.332-5.119,1.332-2.375,0-4.6-.449-6.675-1.348-2.075-.899-3.899-2.139-5.472-3.723-1.572-1.583-2.803-3.412-3.691-5.487-.888-2.075-1.332-4.3-1.332-6.675,0-2.289.422-4.439,1.268-6.45.845-2.011,2.027-3.776,3.546-5.295,1.519-1.519,3.273-2.706,5.263-3.562,1.99-.855,4.129-1.284,6.418-1.284,2.118,0,4.016.471,5.696,1.412,1.679.942,3.108,2.14,4.285,3.594l-.353-4.108h0ZM106.195,120.131c1.669,0,3.145-.417,4.429-1.251s2.289-1.963,3.017-3.385c.727-1.423,1.091-2.99,1.091-4.702,0-1.733-.364-3.311-1.091-4.734-.727-1.422-1.739-2.551-3.033-3.385-1.295-.834-2.765-1.251-4.413-1.251s-3.15.423-4.508,1.268c-1.359.845-2.439,1.974-3.241,3.385s-1.203,2.985-1.203,4.718.406,3.306,1.219,4.717c.813,1.412,1.898,2.535,3.257,3.37,1.358.834,2.85,1.251,4.476,1.251h0Z"/>
    <path class="cls-2" d="M134.21,142.883h-7.83v-48.137h7.83v4.076c1.048-1.455,2.337-2.636,3.867-3.546,1.529-.909,3.321-1.364,5.375-1.364,2.353,0,4.546.439,6.579,1.316,2.032.878,3.824,2.092,5.375,3.642,1.551,1.552,2.76,3.343,3.626,5.375.867,2.033,1.3,4.215,1.3,6.547s-.433,4.525-1.3,6.579c-.867,2.054-2.075,3.856-3.626,5.407-1.552,1.551-3.343,2.765-5.375,3.642-2.033.877-4.226,1.316-6.579,1.316-2.054,0-3.846-.455-5.375-1.364-1.53-.909-2.819-2.091-3.867-3.546v20.057h0ZM143.357,101.454c-1.626,0-3.081.423-4.364,1.268-1.284.845-2.289,1.974-3.017,3.385-.727,1.412-1.091,2.974-1.091,4.685s.363,3.279,1.091,4.702c.727,1.423,1.733,2.557,3.017,3.401,1.284.845,2.739,1.268,4.364,1.268,1.647,0,3.156-.417,4.525-1.251s2.46-1.963,3.273-3.385c.813-1.423,1.22-3.001,1.22-4.734,0-1.711-.407-3.274-1.22-4.685-.813-1.412-1.899-2.54-3.257-3.385-1.359-.845-2.872-1.268-4.541-1.268h0Z"/>
    <path class="cls-2" d="M178.111,127.672c-2.953,0-5.643-.76-8.071-2.278-2.428-1.519-4.364-3.562-5.809-6.13-1.444-2.567-2.166-5.402-2.166-8.504,0-2.332.417-4.519,1.251-6.563.834-2.043,1.984-3.84,3.45-5.392,1.465-1.551,3.172-2.765,5.119-3.642,1.947-.877,4.022-1.316,6.226-1.316,2.503,0,4.797.529,6.883,1.589,2.086,1.059,3.856,2.509,5.311,4.348,1.455,1.84,2.514,3.936,3.177,6.29.663,2.354.813,4.814.45,7.381h-23.459c.299,1.198.791,2.273,1.476,3.225.685.952,1.551,1.712,2.6,2.278,1.048.567,2.235.862,3.562.883,1.369.021,2.616-.305,3.738-.979,1.123-.674,2.059-1.588,2.808-2.744l7.991,1.861c-1.305,2.846-3.252,5.172-5.84,6.98-2.589,1.808-5.487,2.712-8.697,2.712h0ZM170.216,107.583h15.789c-.236-1.284-.733-2.444-1.492-3.482-.76-1.037-1.696-1.866-2.808-2.487-1.113-.62-2.311-.93-3.594-.93s-2.471.305-3.562.915-2.017,1.434-2.776,2.471c-.76,1.038-1.279,2.209-1.557,3.514h0Z"/>
  </g>
</svg>