<svg width="27" height="34" viewBox="0 0 27 34" fill="none" xmlns="http://www.w3.org/2000/svg">
<path fill-rule="evenodd" clip-rule="evenodd" d="M0.819129 5.96883L12.6561 0.142982C13.0426 -0.0476606 13.4925 -0.0476606 13.879 0.142982L25.7175 5.96883C26.2179 6.21501 26.5366 6.7389 26.5366 7.31533V20.4742C26.5366 20.7729 26.4501 21.0656 26.2885 21.3118L21.6478 28.4196C21.5425 28.5802 21.4084 28.7198 21.2512 28.8264L14.055 33.7546C13.5776 34.0818 12.959 34.0818 12.4816 33.7546L5.2854 28.8264C5.12965 28.7198 4.99409 28.5817 4.88881 28.4196L0.248046 21.3118C0.0865277 21.0641 0 20.7729 0 20.4742V7.31533C0 6.7389 0.31871 6.21501 0.819129 5.96883ZM16.7454 13.4956C16.7454 14.7073 16.1524 15.7758 15.2503 16.4076C15.2406 16.4186 15.2353 16.4309 15.2384 16.4482C15.3489 17.0571 15.4473 17.6704 15.5452 18.2844C15.6932 19.2112 15.8507 20.14 16.0083 21.0691C16.1625 21.9787 16.3168 22.8886 16.4623 23.7972V23.8711C16.4306 24.1367 16.2744 24.318 16.0038 24.3271C15.833 24.3327 15.6419 24.3297 15.451 24.3267C15.3385 24.3249 15.2261 24.3232 15.118 24.3232C14.9721 24.3232 14.8253 24.3221 14.6783 24.321L14.6765 24.321C14.5285 24.3199 14.38 24.3188 14.232 24.3188C13.7893 24.3189 13.3491 24.3148 12.9083 24.3107L12.9072 24.3106C12.4685 24.3065 12.0292 24.3024 11.5863 24.3024C11.5066 24.3024 11.424 24.3029 11.3405 24.3034C11.1205 24.3048 10.8945 24.3061 10.7005 24.2985C10.4289 24.2878 10.2709 24.1135 10.2343 23.855V23.7564C10.2476 23.6814 10.2608 23.6014 10.2742 23.5203C10.2865 23.4456 10.2991 23.3697 10.3119 23.296C10.3473 23.0947 10.3836 22.8913 10.4198 22.6879L10.4199 22.6876C10.4648 22.4357 10.5097 22.184 10.5528 21.9365C10.6678 21.2756 10.7838 20.6178 10.8996 19.9609L10.9 19.9588C11.0907 18.8769 11.2811 17.7976 11.4658 16.7111C11.4702 16.6853 11.4764 16.6573 11.4826 16.6296C11.4951 16.5736 11.5074 16.5182 11.5046 16.481C11.5031 16.4618 11.4784 16.4358 11.4496 16.4099C10.5456 15.7785 9.95122 14.7088 9.95122 13.4956C9.95122 11.5549 11.4721 9.98165 13.3483 9.98165C15.2245 9.98165 16.7454 11.5549 16.7454 13.4956Z" fill="#6CB6AD"/>
</svg>
