<svg xmlns="http://www.w3.org/2000/svg" width="460" height="155" fill="none" viewBox="0 0 460 155"><g clip-path="url(#clip0_5348_616)"><rect width="460" height="155" fill="#000"/><mask id="mask0_5348_616" style="mask-type:alpha" width="460" height="155" x="0" y="0" maskUnits="userSpaceOnUse"><path fill="#D9D9D9" d="M0 0H460V155H0V0Z"/></mask><g mask="url(#mask0_5348_616)"><path stroke="url(#paint0_linear_5348_616)" d="M397.125 -99.5692V-138.563M397.35 -21.4952L363.387 -40.9923V-79.9866L397.35 -99.4837M397.296 17.5837V-21.4105M397.523 95.6579L363.56 76.1608V37.1665L397.523 17.6694M397.125 134.47V95.4758M397.35 212.544L363.387 193.047V154.053L397.35 134.555M397.296 251.623V212.629M397.523 329.697L363.56 310.2V271.206L397.523 251.709M226.994 -80.072L193.032 -99.5692V-138.563L226.994 -158.061L260.957 -138.563V-99.5692L226.994 -80.072ZM159.351 -80.072L125.389 -99.5692V-138.563L159.351 -158.061L193.314 -138.563V-99.5692L159.351 -80.072ZM91.7058 -80.072L57.7433 -99.5692L57.7433 -138.563L91.7058 -158.061L125.668 -138.563V-99.5692L91.7058 -80.072ZM24.062 -80.072L-9.90057 -99.5692L-9.90057 -138.563L24.062 -158.061L58.0245 -138.563L58.0245 -99.5692L24.062 -80.072ZM193.258 -21.4952L159.296 -40.9924L159.296 -79.9866L193.258 -99.4837L227.221 -79.9866V-40.9924L193.258 -21.4952ZM125.613 -21.4952L91.6507 -40.9924L91.6507 -79.9866L125.613 -99.4837L159.576 -79.9866L159.576 -40.9924L125.613 -21.4952ZM57.9694 -21.4952L24.0069 -40.9924V-79.9866L57.9694 -99.4837L91.9319 -79.9866L91.9319 -40.9924L57.9694 -21.4952ZM-9.67393 -21.4952L-43.6365 -40.9924L-43.6365 -79.9866L-9.67393 -99.4837L24.2886 -79.9866V-40.9924L-9.67393 -21.4952ZM227.166 37.0808L193.203 17.5837V-21.4106L227.166 -40.9077L261.128 -21.4106V17.5837L227.166 37.0808ZM159.523 37.0808L125.56 17.5837V-21.4106L159.523 -40.9077L193.485 -21.4106V17.5837L159.523 37.0808ZM91.8769 37.0808L57.9143 17.5837V-21.4106L91.8769 -40.9077L125.839 -21.4106V17.5837L91.8769 37.0808ZM24.2335 37.0808L-9.72902 17.5837L-9.72902 -21.4106L24.2335 -40.9077L58.196 -21.4106V17.5837L24.2335 37.0808ZM193.43 95.6579L159.468 76.1607V37.1665L193.43 17.6693L227.393 37.1665V76.1607L193.43 95.6579ZM125.786 95.6579L91.8237 76.1607V37.1665L125.786 17.6693L159.749 37.1665V76.1607L125.786 95.6579ZM58.141 95.6579L24.1784 76.1607L24.1784 37.1665L58.141 17.6693L92.1035 37.1665V76.1607L58.141 95.6579ZM-9.5043 95.6579L-43.4668 76.1607L-43.4668 37.1665L-9.5043 17.6693L24.4582 37.1665L24.4582 76.1607L-9.5043 95.6579ZM226.994 153.967L193.032 134.47L193.032 95.4757L226.994 75.9786L260.957 95.4757V134.47L226.994 153.967ZM159.351 153.967L125.389 134.47L125.389 95.4757L159.351 75.9786L193.314 95.4757L193.314 134.47L159.351 153.967ZM91.7058 153.967L57.7433 134.47V95.4757L91.7058 75.9786L125.668 95.4757L125.668 134.47L91.7058 153.967ZM24.062 153.967L-9.90057 134.47L-9.90057 95.4757L24.062 75.9786L58.0245 95.4757V134.47L24.062 153.967ZM193.258 212.544L159.296 193.047V154.053L193.258 134.555L227.221 154.053V193.047L193.258 212.544ZM125.613 212.544L91.6507 193.047V154.053L125.613 134.555L159.576 154.053V193.047L125.613 212.544ZM57.9694 212.544L24.0069 193.047V154.053L57.9694 134.555L91.9319 154.053V193.047L57.9694 212.544ZM-9.67393 212.544L-43.6365 193.047L-43.6365 154.053L-9.67393 134.555L24.2886 154.053V193.047L-9.67393 212.544ZM227.166 271.12L193.203 251.623V212.629L227.166 193.131L261.128 212.629V251.623L227.166 271.12ZM159.523 271.12L125.56 251.623V212.629L159.523 193.131L193.485 212.629V251.623L159.523 271.12ZM91.8769 271.12L57.9143 251.623L57.9143 212.629L91.8769 193.131L125.839 212.629V251.623L91.8769 271.12ZM24.2335 271.12L-9.72902 251.623L-9.72902 212.629L24.2335 193.131L58.196 212.629L58.196 251.623L24.2335 271.12ZM193.43 329.697L159.468 310.2L159.468 271.206L193.43 251.709L227.393 271.206V310.2L193.43 329.697ZM125.786 329.697L91.8237 310.2L91.8237 271.206L125.786 251.709L159.749 271.206L159.749 310.2L125.786 329.697ZM58.141 329.697L24.1784 310.2V271.206L58.141 251.709L92.1035 271.206L92.1035 310.2L58.141 329.697ZM-9.5043 329.697L-43.4668 310.2L-43.4668 271.206L-9.5043 251.709L24.4582 271.206V310.2L-9.5043 329.697ZM363.442 -80.072L329.48 -99.5692V-138.563L363.442 -158.061L397.405 -138.563V-99.5692L363.442 -80.072ZM295.798 -80.072L261.836 -99.5692V-138.563L295.798 -158.061L329.761 -138.563V-99.5692L295.798 -80.072ZM329.706 -21.4952L295.743 -40.9923V-79.9866L329.706 -99.4837L363.668 -79.9866V-40.9923L329.706 -21.4952ZM262.062 -21.4952L228.1 -40.9923V-79.9866L262.062 -99.4837L296.025 -79.9866V-40.9923L262.062 -21.4952ZM363.613 37.0809L329.651 17.5837V-21.4105L363.613 -40.9077L397.576 -21.4105V17.5837L363.613 37.0809ZM295.97 37.0809L262.007 17.5837V-21.4105L295.97 -40.9077L329.932 -21.4105V17.5837L295.97 37.0809ZM329.877 95.6579L295.915 76.1608V37.1665L329.877 17.6694L363.84 37.1665V76.1608L329.877 95.6579ZM262.232 95.6579L228.269 76.1608V37.1665L262.232 17.6694L296.195 37.1665V76.1608L262.232 95.6579ZM363.442 153.967L329.48 134.47V95.4758L363.442 75.9787L397.405 95.4758V134.47L363.442 153.967ZM295.798 153.967L261.836 134.47V95.4758L295.798 75.9787L329.761 95.4758V134.47L295.798 153.967ZM329.706 212.544L295.743 193.047V154.053L329.706 134.555L363.668 154.053V193.047L329.706 212.544ZM262.062 212.544L228.1 193.047V154.053L262.062 134.555L296.025 154.053V193.047L262.062 212.544ZM363.613 271.12L329.651 251.623V212.629L363.613 193.131L397.576 212.629V251.623L363.613 271.12ZM295.97 271.12L262.007 251.623V212.629L295.97 193.131L329.932 212.629V251.623L295.97 271.12ZM329.877 329.697L295.915 310.2V271.206L329.877 251.709L363.84 271.206V310.2L329.877 329.697ZM262.232 329.697L228.269 310.2V271.206L262.232 251.709L296.195 271.206V310.2L262.232 329.697Z"/></g></g><defs><linearGradient id="paint0_linear_5348_616" x1="176.97" x2="176.97" y1="-158.061" y2="175" gradientUnits="userSpaceOnUse"><stop offset=".135"/><stop offset=".332" stop-color="#4A47D3"/><stop offset="1"/></linearGradient><clipPath id="clip0_5348_616"><rect width="460" height="155" fill="#fff"/></clipPath></defs></svg>