<svg width="360" height="348" viewBox="0 0 360 348" fill="none" xmlns="http://www.w3.org/2000/svg">
<path d="M128.067 3.69374L2.04037 181.294C-0.191063 184.438 0.549187 188.796 3.69377 191.028L222.274 346.135C225.419 348.367 229.777 347.626 232.008 344.482L358.035 166.882C360.267 163.737 359.527 159.379 356.382 157.148L137.802 2.04035C134.657 -0.191087 130.299 0.549162 128.067 3.69374Z" fill="url(#paint0_linear_3761_36672)" stroke="#4A47D3"/>
<path d="M114.839 12.0848L6.79687 196.239C4.88491 199.498 5.97679 203.69 9.23564 205.602L235.895 338.582C239.153 340.493 243.345 339.402 245.257 336.143L353.3 151.989C355.212 148.73 354.12 144.538 350.861 142.626L124.202 9.64605C120.943 7.73409 116.751 8.82597 114.839 12.0848Z" fill="url(#paint1_linear_3761_36672)" stroke="#5B60D9"/>
<path d="M101.585 20.4782L11.5586 211.189C9.96378 214.568 11.4097 218.6 14.7882 220.194L249.51 330.996C252.888 332.591 256.92 331.145 258.515 327.767L348.541 137.056C350.136 133.677 348.69 129.645 345.312 128.051L110.59 17.2486C107.212 15.6538 103.18 17.0997 101.585 20.4782Z" fill="url(#paint2_linear_3761_36672)" stroke="#6C79E0"/>
<path d="M88.3093 28.8142L16.3002 226.122C15.0266 229.611 16.8231 233.473 20.3129 234.747L263.146 323.371C266.636 324.644 270.498 322.848 271.771 319.358L343.78 122.051C345.054 118.561 343.257 114.699 339.768 113.426L96.9341 24.8016C93.4444 23.528 89.5829 25.3245 88.3093 28.8142Z" fill="url(#paint3_linear_3761_36672)" stroke="#7D92E6"/>
<path d="M75.0615 37.2034L21.0509 241.049C20.0941 244.66 22.246 248.364 25.8574 249.32L276.747 315.796C280.358 316.753 284.062 314.601 285.019 310.989L339.029 107.144C339.986 103.532 337.834 99.8291 334.223 98.8722L83.3331 32.3969C79.7217 31.44 76.0184 33.592 75.0615 37.2034Z" fill="url(#paint4_linear_3761_36672)" stroke="#8EABEC"/>
<path d="M61.8194 45.5683L25.813 255.993C25.1758 259.717 27.6782 263.253 31.4024 263.89L290.376 308.204C294.1 308.841 297.636 306.339 298.273 302.614L334.28 92.1897C334.917 88.4655 332.414 84.9298 328.69 84.2926L69.7165 39.9789C65.9923 39.3416 62.4567 41.8441 61.8194 45.5683Z" fill="url(#paint5_linear_3761_36672)" stroke="#9FC4F2"/>
<path d="M48.5554 53.952L30.5642 270.928C30.2456 274.771 33.1024 278.144 36.9451 278.463L303.987 300.605C307.829 300.924 311.203 298.067 311.521 294.224L329.513 77.2483C329.831 73.4056 326.974 70.0322 323.132 69.7136L56.0901 47.5711C52.2474 47.2525 48.874 50.1093 48.5554 53.952Z" fill="url(#paint6_linear_3761_36672)" fill-opacity="0.5" stroke="#B0DDF9"/>
<path d="M317.626 55.1621H42.4826C38.5281 55.1621 35.3223 58.3679 35.3223 62.3225V285.876C35.3223 289.831 38.5281 293.036 42.4826 293.036H317.626C321.581 293.036 324.787 289.831 324.787 285.876V62.3225C324.787 58.3679 321.581 55.1621 317.626 55.1621Z" fill="url(#paint7_linear_3761_36672)" fill-opacity="0.5" stroke="#C1F6FF"/>
<defs>
<linearGradient id="paint0_linear_3761_36672" x1="247.363" y1="79.223" x2="112.723" y2="268.96" gradientUnits="userSpaceOnUse">
<stop/>
<stop offset="1" stop-color="#08205F"/>
</linearGradient>
<linearGradient id="paint1_linear_3761_36672" x1="239.243" y1="76.164" x2="122.836" y2="273.706" gradientUnits="userSpaceOnUse">
<stop/>
<stop offset="1" stop-color="#08205F"/>
</linearGradient>
<linearGradient id="paint2_linear_3761_36672" x1="228.048" y1="71.739" x2="130.971" y2="275.631" gradientUnits="userSpaceOnUse">
<stop/>
<stop offset="1" stop-color="#08205F"/>
</linearGradient>
<linearGradient id="paint3_linear_3761_36672" x1="217.697" y1="67.9109" x2="139.866" y2="278.541" gradientUnits="userSpaceOnUse">
<stop/>
<stop offset="1" stop-color="#08205F"/>
</linearGradient>
<linearGradient id="paint4_linear_3761_36672" x1="208.088" y1="64.5179" x2="149.466" y2="282.235" gradientUnits="userSpaceOnUse">
<stop/>
<stop offset="1" stop-color="#08205F"/>
</linearGradient>
<linearGradient id="paint5_linear_3761_36672" x1="199.157" y1="61.2721" x2="159.86" y2="286.436" gradientUnits="userSpaceOnUse">
<stop/>
<stop offset="1" stop-color="#08205F"/>
</linearGradient>
<linearGradient id="paint6_linear_3761_36672" x1="190.854" y1="57.918" x2="171.085" y2="290.898" gradientUnits="userSpaceOnUse">
<stop/>
<stop offset="1" stop-color="#08205F"/>
</linearGradient>
<linearGradient id="paint7_linear_3761_36672" x1="180.048" y1="54.6899" x2="180.048" y2="293.521" gradientUnits="userSpaceOnUse">
<stop/>
<stop offset="1" stop-color="#08205F"/>
</linearGradient>
</defs>
</svg>
