<svg width="25" height="23" viewBox="0 0 25 23" fill="none" xmlns="http://www.w3.org/2000/svg">
<path d="M11.5489 0.927054C11.8483 0.00574327 13.1517 0.00573969 13.4511 0.92705L15.5309 7.32827C15.6648 7.74029 16.0488 8.01925 16.482 8.01925L23.2126 8.01925C24.1814 8.01925 24.5841 9.25887 23.8004 9.82827L18.3552 13.7844C18.0047 14.0391 17.8581 14.4905 17.9919 14.9025L20.0718 21.3037C20.3712 22.225 19.3167 22.9911 18.533 22.4217L13.0878 18.4656C12.7373 18.2109 12.2627 18.2109 11.9122 18.4656L6.46701 22.4217C5.6833 22.9911 4.62882 22.225 4.92817 21.3037L7.00805 14.9025C7.14193 14.4905 6.99527 14.0391 6.64478 13.7844L1.19958 9.82827C0.415862 9.25887 0.81864 8.01925 1.78736 8.01925L8.51801 8.01925C8.95123 8.01925 9.33519 7.74029 9.46906 7.32827L11.5489 0.927054Z" fill="#6CB6AD"/>
</svg>
