<svg width="164" height="157" viewBox="0 0 164 157" fill="none" xmlns="http://www.w3.org/2000/svg">
<path opacity="0.3" d="M77.2447 3.63526C78.7415 -0.971292 85.2585 -0.971297 86.7553 3.63526L102.655 52.5704C103.325 54.6306 105.244 56.0254 107.411 56.0254H158.864C163.708 56.0254 165.722 62.2234 161.803 65.0704L120.176 95.314C118.424 96.5873 117.691 98.8441 118.36 100.904L134.26 149.839C135.757 154.446 130.484 158.277 126.566 155.43L84.9389 125.186C83.1865 123.913 80.8135 123.913 79.0611 125.186L37.4343 155.43C33.5158 158.277 28.2434 154.446 29.7401 149.839L45.6401 100.904C46.3095 98.8441 45.5762 96.5873 43.8238 95.314L2.19701 65.0704C-1.72156 62.2234 0.292323 56.0254 5.13594 56.0254H56.5894C58.7556 56.0254 60.6753 54.6306 61.3447 52.5704L77.2447 3.63526Z" fill="#6CB6AD"/>
</svg>
