<svg xmlns="http://www.w3.org/2000/svg" xmlns:xlink="http://www.w3.org/1999/xlink" viewBox="0 0 415.27 248.87"><defs><style>.cls-1{fill:#00dcdc;}.cls-2{fill:url(#未命名的渐变_24);}</style><linearGradient id="未命名的渐变_24" x1="95.28" y1="153.59" x2="236.79" y2="12.08" gradientUnits="userSpaceOnUse"><stop offset="0" stop-color="#00aaf0"/><stop offset="1" stop-color="#01dcdc"/></linearGradient></defs><title>资源 1</title><g id="图层_2" data-name="图层 2"><g id="图层_1-2" data-name="图层 1"><circle class="cls-1" cx="374.05" cy="41.23" r="41.23"/><path class="cls-2" d="M236.89,178.58a41.23,41.23,0,1,1-58.58.08h0a76.27,76.27,0,0,0,22.29-54.14,77.43,77.43,0,0,0-22.06-54.07h0a76.86,76.86,0,0,0-108-.22,41.23,41.23,0,1,1-.47-58.46h0a76.39,76.39,0,0,0,54.35,22.5A76.33,76.33,0,0,0,178.55,12h0a41.23,41.23,0,0,1,58.57,58l-.14.13a76.62,76.62,0,0,0-.09,108.4Z"/></g></g></svg>