<svg version="1.1" id="Layer_1" xmlns="http://www.w3.org/2000/svg" xmlns:xlink="http://www.w3.org/1999/xlink" x="0px" y="0px"
	 width="100%" viewBox="0 0 1700 1700" enable-background="new 0 0 1700 1700" xml:space="preserve">
<path fill="#02070B" opacity="1.000000" stroke="none" 
	d="
M909.000000,1701.000000 
	C606.401978,1701.000000 303.803986,1701.000000 1.000000,1701.000000 
	C1.000000,1398.637329 1.000000,1096.274536 1.355128,793.297180 
	C2.133315,791.658691 2.835456,790.661682 2.936444,789.607056 
	C3.996258,778.539551 4.559676,767.409180 6.034506,756.399902 
	C8.988943,734.345703 11.448228,712.155640 15.912537,690.390930 
	C21.556845,662.873291 28.122921,635.471558 35.919567,608.490295 
	C43.024471,583.902893 51.582199,559.665161 60.805866,535.777710 
	C72.743591,504.861420 86.824394,474.826569 103.124191,445.932800 
	C113.991257,426.669373 124.674255,407.204926 137.021729,388.897491 
	C153.744308,364.103210 171.476593,339.940948 189.745728,316.255768 
	C202.202866,300.105621 215.700012,284.640564 229.833557,269.927155 
	C252.878998,245.936279 276.099121,222.003891 302.277802,201.328201 
	C324.832062,183.515076 347.343170,165.566910 370.816010,149.015289 
	C410.353668,121.135735 452.391052,97.328850 496.686279,77.837891 
	C522.554626,66.455200 548.803894,55.792114 575.394043,46.229900 
	C615.392395,31.845936 656.611694,21.659470 698.464294,14.203653 
	C713.673584,11.494201 728.943909,9.005084 744.273682,7.128755 
	C759.421448,5.274685 774.682800,4.355981 789.882263,2.900632 
	C790.972168,2.796275 791.963074,1.657696 793.000000,0.999997 
	C1095.598022,1.000000 1398.196045,1.000000 1701.000000,1.000000 
	C1701.000000,303.362671 1701.000000,605.725403 1700.645020,908.703064 
	C1699.861572,910.674866 1699.174438,912.007385 1699.044067,913.392334 
	C1697.596436,928.760376 1697.210571,944.301147 1694.649780,959.476685 
	C1689.092041,992.412903 1683.359741,1025.373047 1675.989746,1057.936646 
	C1667.051025,1097.430298 1653.765503,1135.664307 1638.428467,1173.172974 
	C1624.605591,1206.978638 1608.994019,1239.963867 1590.517944,1271.404297 
	C1575.361328,1297.196533 1558.739868,1322.173340 1541.887573,1346.912109 
	C1521.275269,1377.170288 1497.775757,1405.258911 1472.528931,1431.716431 
	C1449.567871,1455.778564 1426.344482,1479.716675 1400.105469,1500.338379 
	C1377.508667,1518.097168 1355.052246,1536.108887 1331.600830,1552.689209 
	C1291.956787,1580.717773 1249.773315,1604.598633 1205.323730,1624.169312 
	C1180.064575,1635.290771 1154.420654,1645.651245 1128.507324,1655.146118 
	C1095.181519,1667.356934 1060.875244,1676.489136 1026.054932,1683.377441 
	C1003.889709,1687.762329 981.580627,1691.548340 959.212280,1694.734131 
	C943.787720,1696.930908 928.147888,1697.602905 912.616699,1699.086792 
	C911.361633,1699.206787 910.203308,1700.338501 909.000000,1701.000000 
M714.085632,1052.372681 
	C725.127991,1022.698303 736.186096,993.029785 747.207153,963.347534 
	C754.796570,942.907410 762.334717,922.448364 770.302307,901.391113 
	C796.916260,829.821350 823.530273,758.251587 850.362732,686.094177 
	C858.256958,705.915955 865.877502,725.050537 873.689270,744.923584 
	C874.451904,746.942383 875.186340,748.972351 875.981506,750.978271 
	C883.921204,771.007568 891.870911,791.033020 899.874817,811.812500 
	C900.263062,812.904236 900.618347,814.009094 901.044312,815.085876 
	C909.935608,837.564575 918.835022,860.040039 927.799011,883.236206 
	C928.838257,885.999023 929.836609,888.778015 930.923218,891.522095 
	C938.845337,911.528381 946.785217,931.527588 954.797913,952.238953 
	C963.673340,974.879150 972.548767,997.519348 981.629944,1020.901184 
	C994.333313,1053.300049 1007.036682,1085.698853 1019.895264,1118.839722 
	C1046.028809,1185.767212 1072.162231,1252.694702 1098.682129,1320.611938 
	C1099.645874,1318.097534 1100.315430,1316.635498 1100.775146,1315.110107 
	C1121.876343,1245.101685 1142.942993,1175.082764 1164.048218,1105.075562 
	C1188.610962,1023.600525 1213.233154,942.143372 1237.765259,860.659058 
	C1243.426392,841.855286 1248.825562,822.972595 1254.907104,803.624329 
	C1255.959106,800.194092 1257.036011,796.771240 1258.059326,793.332397 
	C1272.125366,746.060120 1286.089355,698.757141 1300.282227,651.522949 
	C1307.954956,625.987854 1316.104614,600.596313 1323.870361,575.088623 
	C1329.142212,557.772400 1334.120972,540.366882 1339.724121,522.477783 
	C1345.846558,502.166748 1351.969116,481.855713 1358.206421,461.163422 
	C1347.846802,461.163422 1337.921875,461.163422 1327.070679,461.016205 
	C1296.340576,461.016205 1265.610474,461.016205 1234.893555,461.016205 
	C1234.478516,462.329651 1234.213379,463.103760 1233.988403,463.889374 
	C1219.312866,515.127441 1204.617920,566.360046 1189.980835,617.609192 
	C1185.195068,634.365845 1180.560791,651.165771 1175.366211,668.488220 
	C1169.734131,688.147766 1164.061768,707.795959 1158.481323,727.470215 
	C1152.951294,746.967285 1147.514038,766.490723 1141.608521,786.614563 
	C1132.938110,816.595459 1124.267822,846.576294 1115.294189,877.605652 
	C1112.233276,869.481079 1109.505981,862.242188 1106.737427,854.278137 
	C1097.968140,830.471069 1089.198730,806.664062 1080.378662,782.064941 
	C1071.851807,758.377502 1063.325073,734.690125 1054.768433,710.275635 
	C1053.523804,706.856445 1052.284912,703.435120 1051.033325,700.018433 
	C1043.703369,680.007202 1036.370361,659.997070 1029.034424,639.227966 
	C1024.589844,626.802124 1020.275146,614.327820 1015.661377,601.965088 
	C1011.654297,591.228271 1007.308838,580.617737 1003.066772,569.147034 
	C1002.688477,567.382690 1002.491943,565.554749 1001.900208,563.865112 
	C999.319397,556.496033 996.648132,549.158142 993.964966,541.825317 
	C986.665222,521.876282 979.342773,501.935547 972.026245,481.233185 
	C969.597656,474.572876 967.169128,467.912598 964.708313,461.163940 
	C930.734619,461.163940 896.868774,461.163940 862.075134,461.018097 
	C824.462341,461.018097 786.849487,461.018097 748.718689,461.018097 
	C749.433105,463.211578 749.976318,464.923065 750.546936,466.625397 
	C759.631714,493.725983 768.684509,520.837402 777.848145,547.911316 
	C779.128235,551.693542 779.148132,555.024414 777.636292,558.886536 
	C773.227173,570.149719 769.341553,581.617737 764.914978,593.673645 
	C734.289490,676.769226 703.664368,759.864868 673.038147,842.960205 
	C668.897949,854.193542 664.752441,865.424988 660.154541,877.890442 
	C659.147339,874.880920 658.557129,873.199524 658.020325,871.501282 
	C650.276611,847.001038 642.540039,822.498535 634.795898,797.249023 
	C623.824158,762.200317 612.886963,727.140808 601.868591,692.106750 
	C594.396423,668.348267 586.810120,644.625671 579.201782,620.099548 
	C572.100708,597.263672 565.025452,574.419617 557.892090,551.593872 
	C548.486816,521.498779 539.035767,491.418030 529.551880,461.163635 
	C525.269348,461.163635 521.134216,461.163635 516.071655,461.019196 
	C453.021362,461.019196 389.971100,461.019196 326.435791,461.019196 
	C327.096252,463.306091 327.533997,465.050903 328.101959,466.752258 
	C332.731079,480.618866 337.372070,494.481506 342.032776,508.337494 
	C356.477692,551.281067 370.932861,594.221130 385.537018,637.943298 
	C396.558716,670.836792 407.566589,703.734924 418.606903,736.622192 
	C426.148865,759.088501 433.735992,781.539673 441.389008,804.714294 
	C454.480438,843.718994 467.545563,882.732544 480.674713,921.724548 
	C487.020874,940.571716 493.487427,959.378235 499.902679,978.961060 
	C503.612335,990.132568 507.269653,1001.321777 511.042877,1012.471802 
	C518.262573,1033.806274 525.548218,1055.118286 532.840332,1077.173218 
	C543.696899,1109.522583 554.553528,1141.872070 565.570435,1174.992432 
	C571.366638,1191.994995 577.162842,1208.997437 582.954102,1226.779053 
	C593.311890,1257.778687 603.669739,1288.778320 614.391663,1320.867798 
	C615.309082,1318.520264 615.743652,1317.453857 616.144958,1316.375000 
	C640.410950,1251.132202 664.708191,1185.901123 688.918945,1120.637817 
	C697.267395,1098.133545 705.399292,1075.548828 714.085632,1052.372681 
z"/>
<path fill="#000000" opacity="1.000000" stroke="none" 
	d="
M792.531372,0.999997 
	C791.963074,1.657696 790.972168,2.796275 789.882263,2.900632 
	C774.682800,4.355981 759.421448,5.274685 744.273682,7.128755 
	C728.943909,9.005084 713.673584,11.494201 698.464294,14.203653 
	C656.611694,21.659470 615.392395,31.845936 575.394043,46.229900 
	C548.803894,55.792114 522.554626,66.455200 496.686279,77.837891 
	C452.391052,97.328850 410.353668,121.135735 370.816010,149.015289 
	C347.343170,165.566910 324.832062,183.515076 302.277802,201.328201 
	C276.099121,222.003891 252.878998,245.936279 229.833557,269.927155 
	C215.700012,284.640564 202.202866,300.105621 189.745728,316.255768 
	C171.476593,339.940948 153.744308,364.103210 137.021729,388.897491 
	C124.674255,407.204926 113.991257,426.669373 103.124191,445.932800 
	C86.824394,474.826569 72.743591,504.861420 60.805866,535.777710 
	C51.582199,559.665161 43.024471,583.902893 35.919567,608.490295 
	C28.122921,635.471558 21.556845,662.873291 15.912537,690.390930 
	C11.448228,712.155640 8.988943,734.345703 6.034506,756.399902 
	C4.559676,767.409180 3.996258,778.539551 2.936444,789.607056 
	C2.835456,790.661682 2.133315,791.658691 1.355128,792.841248 
	C1.000000,529.072876 1.000000,265.145813 1.000000,1.000000 
	C264.687531,1.000000 528.375122,1.000000 792.531372,0.999997 
z"/>
<path fill="#000000" opacity="1.000000" stroke="none" 
	d="
M909.468689,1701.000000 
	C910.203308,1700.338501 911.361633,1699.206787 912.616699,1699.086792 
	C928.147888,1697.602905 943.787720,1696.930908 959.212280,1694.734131 
	C981.580627,1691.548340 1003.889709,1687.762329 1026.054932,1683.377441 
	C1060.875244,1676.489136 1095.181519,1667.356934 1128.507324,1655.146118 
	C1154.420654,1645.651245 1180.064575,1635.290771 1205.323730,1624.169312 
	C1249.773315,1604.598633 1291.956787,1580.717773 1331.600830,1552.689209 
	C1355.052246,1536.108887 1377.508667,1518.097168 1400.105469,1500.338379 
	C1426.344482,1479.716675 1449.567871,1455.778564 1472.528931,1431.716431 
	C1497.775757,1405.258911 1521.275269,1377.170288 1541.887573,1346.912109 
	C1558.739868,1322.173340 1575.361328,1297.196533 1590.517944,1271.404297 
	C1608.994019,1239.963867 1624.605591,1206.978638 1638.428467,1173.172974 
	C1653.765503,1135.664307 1667.051025,1097.430298 1675.989746,1057.936646 
	C1683.359741,1025.373047 1689.092041,992.412903 1694.649780,959.476685 
	C1697.210571,944.301147 1697.596436,928.760376 1699.044067,913.392334 
	C1699.174438,912.007385 1699.861572,910.674866 1700.645020,909.158997 
	C1701.000000,1172.927124 1701.000000,1436.854126 1701.000000,1701.000000 
	C1437.312500,1701.000000 1173.624878,1701.000000 909.468689,1701.000000 
z"/>
<path fill="#57F0C6" opacity="1.000000" stroke="none" 
	d="
M565.410095,1174.221436 
	C554.553528,1141.872070 543.696899,1109.522583 533.039734,1076.516357 
	C534.571838,1074.608887 536.135986,1073.528687 537.201050,1072.081177 
	C546.545898,1059.380371 555.834045,1046.637329 565.075012,1033.860596 
	C574.808960,1020.402344 584.356201,1006.807678 594.198975,993.430115 
	C604.619690,979.267029 615.374756,965.350342 625.835022,951.215942 
	C640.364868,931.582642 654.783569,911.866943 669.195312,892.146667 
	C676.735901,881.828613 684.147156,871.416016 691.641418,861.063904 
	C697.479309,852.999817 703.261963,844.893311 709.238647,836.932861 
	C716.090698,827.806580 723.311646,818.953735 730.049255,809.745667 
	C743.379944,791.527039 756.437622,773.108826 769.712097,754.848694 
	C775.665710,746.658875 781.970520,738.724609 787.933716,730.541626 
	C795.458130,720.216309 802.640869,709.639893 810.255310,699.382812 
	C819.352844,687.127869 828.920105,675.220825 837.982422,662.940552 
	C854.929077,639.976318 871.634888,616.834534 888.485657,593.799316 
	C901.612915,575.854187 914.830627,557.975281 927.966736,540.036560 
	C940.911499,522.359131 953.770447,504.618561 966.768005,486.980011 
	C968.179260,485.064819 970.259460,483.642487 972.029358,481.991516 
	C979.342773,501.935547 986.665222,521.876282 993.964966,541.825317 
	C996.648132,549.158142 999.319397,556.496033 1001.900208,563.865112 
	C1002.491943,565.554749 1002.688477,567.382690 1002.799805,569.731323 
	C997.666809,577.037720 992.843994,583.791565 987.926636,590.476013 
	C973.740906,609.759338 959.518921,629.016174 945.307556,648.280701 
	C935.939880,660.979309 926.538147,673.653015 917.202515,686.375183 
	C907.695984,699.330383 898.356140,712.409302 888.736328,725.279297 
	C883.893616,731.758240 878.592102,737.894104 873.497986,744.185059 
	C865.877502,725.050537 858.256958,705.915955 850.362732,686.094177 
	C823.530273,758.251587 796.916260,829.821350 769.744019,901.716675 
	C766.907043,903.857239 764.122498,905.292786 762.430847,907.548096 
	C750.378113,923.617126 738.542236,939.848816 726.649902,956.037964 
	C710.916992,977.455322 695.144836,998.844116 679.483948,1020.314026 
	C665.299255,1039.760132 651.278076,1059.325439 637.116760,1078.788574 
	C623.431519,1097.597534 609.646118,1116.333740 595.930786,1135.120850 
	C587.709534,1146.382202 579.607056,1157.731079 571.282410,1168.915039 
	C569.737366,1170.990723 567.388184,1172.468018 565.410095,1174.221436 
z"/>
<path fill="#5FF0C1" opacity="1.000000" stroke="none" 
	d="
M972.027832,481.612335 
	C970.259460,483.642487 968.179260,485.064819 966.768005,486.980011 
	C953.770447,504.618561 940.911499,522.359131 927.966736,540.036560 
	C914.830627,557.975281 901.612915,575.854187 888.485657,593.799316 
	C871.634888,616.834534 854.929077,639.976318 837.982422,662.940552 
	C828.920105,675.220825 819.352844,687.127869 810.255310,699.382812 
	C802.640869,709.639893 795.458130,720.216309 787.933716,730.541626 
	C781.970520,738.724609 775.665710,746.658875 769.712097,754.848694 
	C756.437622,773.108826 743.379944,791.527039 730.049255,809.745667 
	C723.311646,818.953735 716.090698,827.806580 709.238647,836.932861 
	C703.261963,844.893311 697.479309,852.999817 691.641418,861.063904 
	C684.147156,871.416016 676.735901,881.828613 669.195312,892.146667 
	C654.783569,911.866943 640.364868,931.582642 625.835022,951.215942 
	C615.374756,965.350342 604.619690,979.267029 594.198975,993.430115 
	C584.356201,1006.807678 574.808960,1020.402344 565.075012,1033.860596 
	C555.834045,1046.637329 546.545898,1059.380371 537.201050,1072.081177 
	C536.135986,1073.528687 534.571838,1074.608887 533.022827,1076.149658 
	C525.548218,1055.118286 518.262573,1033.806274 511.042877,1012.471802 
	C507.269653,1001.321777 503.612335,990.132568 500.074890,978.279785 
	C505.931000,970.075073 511.692505,962.608826 517.284302,955.017578 
	C534.288330,931.932800 551.253357,908.819275 568.182068,885.679199 
	C581.068848,868.064148 593.861694,850.380310 606.726440,832.749084 
	C612.982483,824.175049 619.159485,815.536133 625.673767,807.161133 
	C628.301147,803.783325 631.734985,801.032654 634.801758,797.996582 
	C642.540039,822.498535 650.276611,847.001038 658.020325,871.501282 
	C658.557129,873.199524 659.147339,874.880920 660.154541,877.890442 
	C664.752441,865.424988 668.897949,854.193542 673.038147,842.960205 
	C703.664368,759.864868 734.289490,676.769226 765.428467,593.313171 
	C767.090576,592.103027 768.523926,591.465759 769.341858,590.369385 
	C774.791199,583.064880 780.063110,575.628357 785.478760,568.298218 
	C798.686951,550.420837 811.968079,532.597412 825.168579,514.714417 
	C833.938599,502.833557 842.713867,490.954468 851.300964,478.941772 
	C855.423584,473.174500 859.115845,467.099548 863.002930,461.163940 
	C896.868774,461.163940 930.734619,461.163940 964.708313,461.163940 
	C967.169128,467.912598 969.597656,474.572876 972.027832,481.612335 
z"/>
<path fill="#33EEDD" opacity="1.000000" stroke="none" 
	d="
M1106.778687,855.003174 
	C1109.505981,862.242188 1112.233276,869.481079 1115.294189,877.605652 
	C1124.267822,846.576294 1132.938110,816.595459 1142.157471,786.236328 
	C1144.154419,784.543701 1145.870117,783.427185 1147.009888,781.885071 
	C1162.302368,761.196655 1177.489746,740.430664 1192.754517,719.721619 
	C1205.367188,702.610352 1218.083862,685.575500 1230.690796,668.459839 
	C1252.177979,639.287903 1273.645630,610.101562 1295.061646,580.877502 
	C1308.416748,562.653442 1321.634399,544.328674 1335.014038,526.122803 
	C1336.003540,524.776489 1337.806274,524.027832 1339.230835,523.001343 
	C1334.120972,540.366882 1329.142212,557.772400 1323.870361,575.088623 
	C1316.104614,600.596313 1307.954956,625.987854 1300.282227,651.522949 
	C1286.089355,698.757141 1272.125366,746.060120 1258.059326,793.332397 
	C1257.036011,796.771240 1255.959106,800.194092 1254.240845,803.867920 
	C1252.357544,804.824646 1250.751709,805.251648 1249.983643,806.295166 
	C1242.225098,816.836670 1234.621704,827.492188 1226.939087,838.089905 
	C1216.230713,852.861572 1205.575684,867.673157 1194.740967,882.351929 
	C1185.083984,895.435242 1175.094116,908.273315 1165.468994,921.379578 
	C1154.478394,936.345276 1143.836792,951.567322 1132.843140,966.530640 
	C1122.335693,980.831970 1111.493042,994.886719 1100.941040,1009.155762 
	C1090.508667,1023.263245 1080.267822,1037.512207 1069.920654,1051.682983 
	C1054.562500,1072.716675 1039.204834,1093.750732 1023.770020,1114.728149 
	C1022.762024,1116.098022 1021.098633,1116.985718 1019.740051,1118.097656 
	C1007.036682,1085.698853 994.333313,1053.300049 981.904053,1020.453125 
	C983.445984,1019.007629 985.015564,1018.231384 985.934082,1016.977966 
	C993.576233,1006.550110 1001.044739,995.995056 1008.668945,985.553833 
	C1020.498108,969.354126 1032.353394,953.172974 1044.301636,937.061096 
	C1054.068970,923.890198 1064.073730,910.895142 1073.816406,897.706299 
	C1083.481812,884.621948 1092.913696,871.365173 1102.561401,858.267517 
	C1103.575439,856.890808 1105.354614,856.077698 1106.778687,855.003174 
z"/>
<path fill="#24EDE7" opacity="1.000000" stroke="none" 
	d="
M1019.817627,1118.468750 
	C1021.098633,1116.985718 1022.762024,1116.098022 1023.770020,1114.728149 
	C1039.204834,1093.750732 1054.562500,1072.716675 1069.920654,1051.682983 
	C1080.267822,1037.512207 1090.508667,1023.263245 1100.941040,1009.155762 
	C1111.493042,994.886719 1122.335693,980.831970 1132.843140,966.530640 
	C1143.836792,951.567322 1154.478394,936.345276 1165.468994,921.379578 
	C1175.094116,908.273315 1185.083984,895.435242 1194.740967,882.351929 
	C1205.575684,867.673157 1216.230713,852.861572 1226.939087,838.089905 
	C1234.621704,827.492188 1242.225098,816.836670 1249.983643,806.295166 
	C1250.751709,805.251648 1252.357544,804.824646 1253.959961,804.118896 
	C1248.825562,822.972595 1243.426392,841.855286 1237.765259,860.659058 
	C1213.233154,942.143372 1188.610962,1023.600525 1164.048218,1105.075562 
	C1142.942993,1175.082764 1121.876343,1245.101685 1100.775146,1315.110107 
	C1100.315430,1316.635498 1099.645874,1318.097534 1098.682129,1320.611938 
	C1072.162231,1252.694702 1046.028809,1185.767212 1019.817627,1118.468750 
z"/>
<path fill="#6EF0B7" opacity="1.000000" stroke="none" 
	d="
M634.798828,797.622803 
	C631.734985,801.032654 628.301147,803.783325 625.673767,807.161133 
	C619.159485,815.536133 612.982483,824.175049 606.726440,832.749084 
	C593.861694,850.380310 581.068848,868.064148 568.182068,885.679199 
	C551.253357,908.819275 534.288330,931.932800 517.284302,955.017578 
	C511.692505,962.608826 505.931000,970.075073 500.073303,977.900879 
	C493.487427,959.378235 487.020874,940.571716 480.674713,921.724548 
	C467.545563,882.732544 454.480438,843.718994 441.689484,804.328979 
	C443.220062,802.944519 444.721649,802.146667 445.635712,800.913391 
	C451.061127,793.593262 456.316437,786.147461 461.692200,778.790161 
	C475.790680,759.494812 489.937653,740.234863 504.033295,720.937439 
	C511.467041,710.760376 518.787292,700.500183 526.241211,690.338013 
	C538.789307,673.230774 551.296753,656.091675 564.044556,639.133850 
	C568.799011,632.809265 574.179688,626.955444 579.274841,620.887024 
	C586.810120,644.625671 594.396423,668.348267 601.868591,692.106750 
	C612.886963,727.140808 623.824158,762.200317 634.798828,797.622803 
z"/>
<path fill="#80F1AB" opacity="1.000000" stroke="none" 
	d="
M579.238281,620.493286 
	C574.179688,626.955444 568.799011,632.809265 564.044556,639.133850 
	C551.296753,656.091675 538.789307,673.230774 526.241211,690.338013 
	C518.787292,700.500183 511.467041,710.760376 504.033295,720.937439 
	C489.937653,740.234863 475.790680,759.494812 461.692200,778.790161 
	C456.316437,786.147461 451.061127,793.593262 445.635712,800.913391 
	C444.721649,802.146667 443.220062,802.944519 441.646423,803.970581 
	C433.735992,781.539673 426.148865,759.088501 418.606903,736.622192 
	C407.566589,703.734924 396.558716,670.836792 385.853790,637.506470 
	C387.926178,635.661499 390.072906,634.545654 391.377197,632.800293 
	C405.403870,614.030273 419.335907,595.189087 433.215912,576.310059 
	C444.524231,560.928955 455.657806,545.419128 466.994873,530.059387 
	C479.239838,513.469727 491.708984,497.045166 503.918884,480.429901 
	C508.512207,474.179230 512.652344,467.595520 516.999084,461.163635 
	C521.134216,461.163635 525.269348,461.163635 529.551880,461.163635 
	C539.035767,491.418030 548.486816,521.498779 557.892090,551.593872 
	C565.025452,574.419617 572.100708,597.263672 579.238281,620.493286 
z"/>
<path fill="#8EF2A2" opacity="1.000000" stroke="none" 
	d="
M516.535400,461.091431 
	C512.652344,467.595520 508.512207,474.179230 503.918884,480.429901 
	C491.708984,497.045166 479.239838,513.469727 466.994873,530.059387 
	C455.657806,545.419128 444.524231,560.928955 433.215912,576.310059 
	C419.335907,595.189087 405.403870,614.030273 391.377197,632.800293 
	C390.072906,634.545654 387.926178,635.661499 385.777313,637.116089 
	C370.932861,594.221130 356.477692,551.281067 342.032776,508.337494 
	C337.372070,494.481506 332.731079,480.618866 328.101959,466.752258 
	C327.533997,465.050903 327.096252,463.306091 326.435791,461.019196 
	C389.971100,461.019196 453.021362,461.019196 516.535400,461.091431 
z"/>
<path fill="#3AEED9" opacity="1.000000" stroke="none" 
	d="
M1339.477539,522.739563 
	C1337.806274,524.027832 1336.003540,524.776489 1335.014038,526.122803 
	C1321.634399,544.328674 1308.416748,562.653442 1295.061646,580.877502 
	C1273.645630,610.101562 1252.177979,639.287903 1230.690796,668.459839 
	C1218.083862,685.575500 1205.367188,702.610352 1192.754517,719.721619 
	C1177.489746,740.430664 1162.302368,761.196655 1147.009888,781.885071 
	C1145.870117,783.427185 1144.154419,784.543701 1142.371094,785.930298 
	C1147.514038,766.490723 1152.951294,746.967285 1158.481323,727.470215 
	C1164.061768,707.795959 1169.734131,688.147766 1175.957520,668.160645 
	C1177.803589,666.574524 1179.248291,665.454224 1180.283081,664.035156 
	C1187.907104,653.580200 1195.404541,643.032837 1203.028198,632.577576 
	C1213.671021,617.981812 1224.373779,603.429565 1235.079956,588.879944 
	C1243.044067,578.056763 1251.021606,567.242981 1259.053833,556.470337 
	C1265.596191,547.696106 1272.295654,539.038635 1278.800903,530.237366 
	C1284.514648,522.506836 1289.967651,514.583313 1295.692505,506.861084 
	C1305.970215,492.997650 1316.393311,479.241974 1326.658447,465.369446 
	C1327.486694,464.250183 1327.568237,462.578430 1327.996826,461.163422 
	C1337.921875,461.163422 1347.846802,461.163422 1358.206421,461.163422 
	C1351.969116,481.855713 1345.846558,502.166748 1339.477539,522.739563 
z"/>
<path fill="#49EFCF" opacity="1.000000" stroke="none" 
	d="
M1029.038330,639.986694 
	C1036.370361,659.997070 1043.703369,680.007202 1051.033325,700.018433 
	C1052.284912,703.435120 1053.523804,706.856445 1054.461060,710.724365 
	C1050.933838,715.119324 1047.542969,718.939758 1044.528687,723.037292 
	C1037.660767,732.373291 1031.101929,741.937744 1024.182129,751.234375 
	C1018.045471,759.479065 1011.396179,767.344727 1005.325928,775.635986 
	C997.481689,786.350220 990.135254,797.428528 982.313477,808.159729 
	C964.203369,833.006042 945.936218,857.737854 927.732788,882.516174 
	C918.835022,860.040039 909.935608,837.564575 901.044312,815.085876 
	C900.618347,814.009094 900.263062,812.904236 900.196655,811.361084 
	C903.067627,807.741150 905.713501,804.645081 908.149414,801.391724 
	C918.490173,787.580505 928.850403,773.782532 939.051147,759.868164 
	C955.632935,737.249634 972.054565,714.513733 988.622070,691.884766 
	C1000.378296,675.827393 1012.224915,659.835632 1024.149658,643.903320 
	C1025.361206,642.284729 1027.389282,641.277588 1029.038330,639.986694 
z"/>
<path fill="#42EFD4" opacity="1.000000" stroke="none" 
	d="
M927.765869,882.876221 
	C945.936218,857.737854 964.203369,833.006042 982.313477,808.159729 
	C990.135254,797.428528 997.481689,786.350220 1005.325928,775.635986 
	C1011.396179,767.344727 1018.045471,759.479065 1024.182129,751.234375 
	C1031.101929,741.937744 1037.660767,732.373291 1044.528687,723.037292 
	C1047.542969,718.939758 1050.933838,715.119324 1054.475952,711.087891 
	C1063.325073,734.690125 1071.851807,758.377502 1080.051270,782.561035 
	C1078.865601,783.810364 1077.831665,784.435547 1077.174805,785.335815 
	C1064.958496,802.078918 1052.775635,818.846375 1040.610474,835.626709 
	C1032.631714,846.632446 1024.794678,857.742493 1016.710693,868.670166 
	C1005.172974,884.266541 993.462463,899.734985 981.835205,915.265137 
	C972.789246,927.347595 963.757507,939.440674 954.719482,951.529053 
	C946.785217,931.527588 938.845337,911.528381 930.923218,891.522095 
	C929.836609,888.778015 928.838257,885.999023 927.765869,882.876221 
z"/>
<path fill="#3AEED9" opacity="1.000000" stroke="none" 
	d="
M954.758667,951.884033 
	C963.757507,939.440674 972.789246,927.347595 981.835205,915.265137 
	C993.462463,899.734985 1005.172974,884.266541 1016.710693,868.670166 
	C1024.794678,857.742493 1032.631714,846.632446 1040.610474,835.626709 
	C1052.775635,818.846375 1064.958496,802.078918 1077.174805,785.335815 
	C1077.831665,784.435547 1078.865601,783.810364 1080.076660,782.957092 
	C1089.198730,806.664062 1097.968140,830.471069 1106.758057,854.640625 
	C1105.354614,856.077698 1103.575439,856.890808 1102.561401,858.267517 
	C1092.913696,871.365173 1083.481812,884.621948 1073.816406,897.706299 
	C1064.073730,910.895142 1054.068970,923.890198 1044.301636,937.061096 
	C1032.353394,953.172974 1020.498108,969.354126 1008.668945,985.553833 
	C1001.044739,995.995056 993.576233,1006.550110 985.934082,1016.977966 
	C985.015564,1018.231384 983.445984,1019.007629 981.801147,1020.082275 
	C972.548767,997.519348 963.673340,974.879150 954.758667,951.884033 
z"/>
<path fill="#50EFCA" opacity="1.000000" stroke="none" 
	d="
M1029.036377,639.607300 
	C1027.389282,641.277588 1025.361206,642.284729 1024.149658,643.903320 
	C1012.224915,659.835632 1000.378296,675.827393 988.622070,691.884766 
	C972.054565,714.513733 955.632935,737.249634 939.051147,759.868164 
	C928.850403,773.782532 918.490173,787.580505 908.149414,801.391724 
	C905.713501,804.645081 903.067627,807.741150 900.168091,810.984558 
	C891.870911,791.033020 883.921204,771.007568 875.981506,750.978271 
	C875.186340,748.972351 874.451904,746.942383 873.593628,744.554321 
	C878.592102,737.894104 883.893616,731.758240 888.736328,725.279297 
	C898.356140,712.409302 907.695984,699.330383 917.202515,686.375183 
	C926.538147,673.653015 935.939880,660.979309 945.307556,648.280701 
	C959.518921,629.016174 973.740906,609.759338 987.926636,590.476013 
	C992.843994,583.791565 997.666809,577.037720 1002.822754,570.133484 
	C1007.308838,580.617737 1011.654297,591.228271 1015.661377,601.965088 
	C1020.275146,614.327820 1024.589844,626.802124 1029.036377,639.607300 
z"/>
<path fill="#50EFCA" opacity="1.000000" stroke="none" 
	d="
M565.490234,1174.606934 
	C567.388184,1172.468018 569.737366,1170.990723 571.282410,1168.915039 
	C579.607056,1157.731079 587.709534,1146.382202 595.930786,1135.120850 
	C609.646118,1116.333740 623.431519,1097.597534 637.116760,1078.788574 
	C651.278076,1059.325439 665.299255,1039.760132 679.483948,1020.314026 
	C695.144836,998.844116 710.916992,977.455322 726.649902,956.037964 
	C738.542236,939.848816 750.378113,923.617126 762.430847,907.548096 
	C764.122498,905.292786 766.907043,903.857239 769.540710,902.020020 
	C762.334717,922.448364 754.796570,942.907410 747.207153,963.347534 
	C736.186096,993.029785 725.127991,1022.698303 713.548706,1052.777222 
	C711.886230,1054.139771 710.530762,1054.926758 709.670715,1056.082275 
	C701.260498,1067.383179 692.879517,1078.706665 684.598877,1090.102783 
	C678.068848,1099.089722 671.784790,1108.255981 665.217651,1117.215210 
	C659.634338,1124.832275 653.733948,1132.216553 648.101990,1139.798828 
	C643.151062,1146.464355 638.462463,1153.324829 633.506836,1159.986694 
	C625.292114,1171.029785 616.834473,1181.893677 608.710999,1193.002563 
	C602.647461,1201.294434 597.107605,1209.970337 591.004639,1218.231567 
	C588.820190,1221.188477 585.669006,1223.431274 582.959045,1226.000000 
	C577.162842,1208.997437 571.366638,1191.994995 565.490234,1174.606934 
z"/>
<path fill="#42EFD4" opacity="1.000000" stroke="none" 
	d="
M1327.533691,461.089813 
	C1327.568237,462.578430 1327.486694,464.250183 1326.658447,465.369446 
	C1316.393311,479.241974 1305.970215,492.997650 1295.692505,506.861084 
	C1289.967651,514.583313 1284.514648,522.506836 1278.800903,530.237366 
	C1272.295654,539.038635 1265.596191,547.696106 1259.053833,556.470337 
	C1251.021606,567.242981 1243.044067,578.056763 1235.079956,588.879944 
	C1224.373779,603.429565 1213.671021,617.981812 1203.028198,632.577576 
	C1195.404541,643.032837 1187.907104,653.580200 1180.283081,664.035156 
	C1179.248291,665.454224 1177.803589,666.574524 1176.203003,667.889526 
	C1180.560791,651.165771 1185.195068,634.365845 1189.980835,617.609192 
	C1204.617920,566.360046 1219.312866,515.127441 1233.988403,463.889374 
	C1234.213379,463.103760 1234.478516,462.329651 1234.893555,461.016205 
	C1265.610474,461.016205 1296.340576,461.016205 1327.533691,461.089813 
z"/>
<path fill="#49EFCF" opacity="1.000000" stroke="none" 
	d="
M582.956543,1226.389526 
	C585.669006,1223.431274 588.820190,1221.188477 591.004639,1218.231567 
	C597.107605,1209.970337 602.647461,1201.294434 608.710999,1193.002563 
	C616.834473,1181.893677 625.292114,1171.029785 633.506836,1159.986694 
	C638.462463,1153.324829 643.151062,1146.464355 648.101990,1139.798828 
	C653.733948,1132.216553 659.634338,1124.832275 665.217651,1117.215210 
	C671.784790,1108.255981 678.068848,1099.089722 684.598877,1090.102783 
	C692.879517,1078.706665 701.260498,1067.383179 709.670715,1056.082275 
	C710.530762,1054.926758 711.886230,1054.139771 713.320984,1053.091309 
	C705.399292,1075.548828 697.267395,1098.133545 688.918945,1120.637817 
	C664.708191,1185.901123 640.410950,1251.132202 616.144958,1316.375000 
	C615.743652,1317.453857 615.309082,1318.520264 614.391663,1320.867798 
	C603.669739,1288.778320 593.311890,1257.778687 582.956543,1226.389526 
z"/>
<path fill="#6EF0B7" opacity="1.000000" stroke="none" 
	d="
M862.539062,461.091003 
	C859.115845,467.099548 855.423584,473.174500 851.300964,478.941772 
	C842.713867,490.954468 833.938599,502.833557 825.168579,514.714417 
	C811.968079,532.597412 798.686951,550.420837 785.478760,568.298218 
	C780.063110,575.628357 774.791199,583.064880 769.341858,590.369385 
	C768.523926,591.465759 767.090576,592.103027 765.596313,592.979004 
	C769.341553,581.617737 773.227173,570.149719 777.636292,558.886536 
	C779.148132,555.024414 779.128235,551.693542 777.848145,547.911316 
	C768.684509,520.837402 759.631714,493.725983 750.546936,466.625397 
	C749.976318,464.923065 749.433105,463.211578 748.718689,461.018097 
	C786.849487,461.018097 824.462341,461.018097 862.539062,461.091003 
z"/>
</svg>