<svg width="24" height="24" viewBox="0 0 24 24" fill="none" xmlns="http://www.w3.org/2000/svg">
<path d="M13.9728 9.13271C14.4192 7.23705 18.8349 2.49303 20.942 4.076C23.3946 5.97654 20.534 9.79228 19.5261 11.2678C19.5261 11.2678 19.3245 9.22553 17.7166 7.37385C16.4351 8.19954 15.2496 9.03011 14.5536 9.52845C14.4913 9.57021 14.4182 9.59233 14.3436 9.59203C14.269 9.59174 14.1962 9.56905 14.1342 9.52681C14.0722 9.48456 14.0238 9.42463 13.9951 9.35453C13.9664 9.28443 13.9587 9.20727 13.9728 9.13271V9.13271ZM15.7727 11.9957C15.7195 12.0209 15.6733 12.059 15.6381 12.1067C15.603 12.1545 15.5799 12.2103 15.5711 12.2693C15.5543 12.3609 15.5716 12.4556 15.6194 12.5351C15.6673 12.6145 15.7425 12.673 15.8303 12.6993C16.6463 12.9436 18.0238 13.3735 19.4541 13.8816C19.0317 16.3147 17.5918 17.7462 17.5918 17.7462C19.3533 17.6289 24.0618 17.5361 23.9994 14.3946C23.9082 11.7319 17.5102 11.17 15.7727 11.9957ZM14.6928 15.2105C14.6252 15.1766 14.549 15.1645 14.4745 15.1759C14.4 15.1873 14.3306 15.2216 14.2758 15.2742C14.2209 15.3268 14.1832 15.3953 14.1677 15.4703C14.1521 15.5454 14.1595 15.6235 14.1888 15.6942C14.5056 16.4955 15.0384 17.8586 15.5375 19.3194C13.4017 20.4969 11.405 20.2379 11.405 20.2379C12.5905 21.5668 15.5951 25.2604 17.9662 23.2573C19.958 21.5277 16.4111 16.0802 14.6928 15.2105ZM11.549 16.3538C11.5369 16.2952 11.5109 16.2405 11.4732 16.1945C11.4356 16.1485 11.3874 16.1126 11.333 16.09C11.2491 16.0515 11.154 16.0467 11.0667 16.0766C10.9795 16.1065 10.9066 16.1689 10.8626 16.2512C10.4451 17.0036 9.72511 18.2739 8.91396 19.5783C6.68211 18.611 5.63578 16.857 5.63578 16.857C5.3526 18.6305 4.38306 23.3257 7.40206 23.9706C9.9699 24.4787 11.9522 18.2592 11.549 16.3538V16.3538ZM8.71718 14.5558C8.75249 14.5093 8.7769 14.4552 8.78855 14.3976C8.80019 14.3401 8.79877 14.2805 8.78437 14.2236C8.76157 14.1325 8.70605 14.0533 8.62876 14.0018C8.55147 13.9502 8.458 13.93 8.3668 13.9451C7.52685 14.0819 6.10135 14.3018 4.59425 14.4679C3.94629 12.0837 4.64224 10.1636 4.64224 10.1636C3.10154 11.0381 -1.10778 13.1927 0.274526 15.9922C1.48405 18.3569 7.49806 16.0606 8.71718 14.5558V14.5558ZM8.3284 11.1798C8.38712 11.1816 8.44537 11.1687 8.49808 11.1423C8.55079 11.1159 8.59635 11.0768 8.63078 11.0284C8.68595 10.9526 8.71157 10.8588 8.70271 10.7649C8.69384 10.6711 8.65112 10.5839 8.58279 10.5202C7.95403 9.93885 6.8981 8.94216 5.83256 7.84288C7.26287 5.84463 9.17315 5.2046 9.17315 5.2046C7.54125 4.5206 3.26473 2.5028 1.97362 5.35605C0.908085 7.78914 6.41333 11.1505 8.3284 11.1798V11.1798ZM10.9922 8.91773C11.0842 8.9144 11.1718 8.87669 11.2382 8.8118C11.3046 8.74691 11.3452 8.65939 11.3522 8.56596C11.405 7.70119 11.5202 6.24037 11.6978 4.70626C14.1264 4.59877 15.8063 5.72248 15.8063 5.72248C15.3167 3.99783 14.2032 -0.663134 11.2082 0.0794931C8.67398 0.748835 9.51873 7.22728 10.685 8.77605C10.7218 8.82248 10.7687 8.85949 10.8221 8.88409C10.8754 8.9087 10.9337 8.92022 10.9922 8.91773V8.91773Z" fill="url(#paint0_linear_13541_51190)"/>
<defs>
<linearGradient id="paint0_linear_13541_51190" x1="12" y1="0" x2="12" y2="24" gradientUnits="userSpaceOnUse">
<stop stop-color="#4940E0"/>
<stop offset="1" stop-color="#7C74FB"/>
</linearGradient>
</defs>
</svg>