<svg width="61" height="60" viewBox="0 0 61 60" fill="none" xmlns="http://www.w3.org/2000/svg">
<path d="M22.4676 3.72682C26.6856 -0.436139 33.5248 -0.435901 37.743 3.72682L57.0037 22.7356C61.2219 26.8987 61.2219 33.6487 57.0037 37.8118L37.741 56.8235C33.5229 60.9864 26.6838 60.9863 22.4656 56.8235L3.20489 37.8147C-1.01327 33.6517 -1.01322 26.9016 3.20489 22.7385L22.4676 3.72682ZM29.534 14.6653C27.257 14.6653 25.1698 15.0887 23.2723 15.9348C21.3748 16.781 19.7302 17.9534 18.3387 19.4514C16.9611 20.9497 15.8927 22.6846 15.1336 24.6546C14.3746 26.6383 13.9949 28.7606 13.9949 31.0217H16.9471C16.9471 29.1629 17.249 27.4221 17.8533 25.7991C18.4578 24.176 19.3151 22.7467 20.4256 21.512C21.536 20.2773 22.8573 19.313 24.3895 18.6194C25.9356 17.9258 27.6505 17.5794 29.534 17.5794C31.4176 17.5794 33.1823 17.9258 34.827 18.6194C36.4714 19.3269 37.9123 20.2979 39.1492 21.5325C40.4003 22.7672 41.3771 24.1965 42.0799 25.8196C42.7827 27.4427 43.1336 29.1767 43.1336 31.0217C43.1336 32.8668 42.7827 34.5942 42.0799 36.2034C41.3771 37.8265 40.4003 39.2558 39.1492 40.4905C37.9123 41.7251 36.4715 42.6894 34.827 43.3831C33.1823 44.0906 31.4176 44.4436 29.534 44.4436C28.522 44.4436 27.4885 44.3193 26.4344 44.0696C25.3946 43.8199 24.5163 43.4315 23.7996 42.9046C23.0968 42.3774 22.7449 41.6969 22.7449 40.8645C22.745 40.2126 22.97 39.6231 23.4197 39.096C23.8695 38.5689 24.4316 38.305 25.1063 38.3049H37.1248L37.4832 35.9534H35.0799C35.9371 35.3985 36.6189 34.6286 37.1248 33.6438C37.6448 32.659 37.905 31.5701 37.9051 30.3772C37.9051 28.8651 37.5254 27.4775 36.7664 26.2151C36.0214 24.9665 35.0159 23.9672 33.7508 23.218C32.4858 22.483 31.08 22.1155 29.534 22.1155C27.9879 22.1155 26.5748 22.4828 25.2957 23.218C24.0307 23.9672 23.0186 24.9666 22.2596 26.2151C21.5147 27.4775 21.1424 28.8652 21.1424 30.3772C21.1424 31.5977 21.4028 32.6725 21.9227 33.6018C22.4568 34.5313 23.167 35.2811 24.0525 35.8499C23.2513 35.9192 22.5273 36.2106 21.8807 36.7239C21.2342 37.2371 20.7211 37.8751 20.3416 38.638C19.9762 39.4147 19.7928 40.2055 19.7928 41.01C19.7928 42.0227 20.0743 42.9177 20.6365 43.6946C21.2128 44.4854 21.9721 45.1516 22.9139 45.6926C23.8696 46.2336 24.9236 46.6427 26.076 46.9202C27.2285 47.2115 28.3814 47.3577 29.534 47.3577C31.8112 47.3577 33.9481 46.9344 35.9441 46.0882C37.9402 45.2558 39.6975 44.0903 41.2156 42.5921C42.7336 41.1078 43.9207 39.3735 44.7781 37.3899C45.6496 35.42 46.0857 33.2969 46.0857 31.0217C46.0857 28.7606 45.657 26.6383 44.7996 24.6546C43.9422 22.6846 42.7542 20.9497 41.2361 19.4514C39.7181 17.9533 37.9541 16.781 35.9441 15.9348C33.9481 15.0886 31.8111 14.6653 29.534 14.6653ZM29.534 24.6331C30.6445 24.6331 31.65 24.8969 32.5496 25.4241C33.4632 25.9651 34.1874 26.6798 34.7215 27.5676C35.2555 28.4692 35.5222 29.468 35.5223 30.5637C35.5223 31.7291 35.2482 32.7076 34.7 33.4983C34.1659 34.289 33.463 34.8784 32.5916 35.2669C31.7201 35.6692 30.7849 35.8704 29.7869 35.8704C28.747 35.8703 27.742 35.6558 26.7723 35.2258C25.8164 34.7958 25.0359 34.1846 24.4315 33.3938C23.8272 32.6031 23.5252 31.6595 23.5252 30.5637C23.5253 29.4959 23.7921 28.5111 24.326 27.6096C24.8601 26.7079 25.5777 25.9856 26.4774 25.4446C27.3908 24.9038 28.4098 24.6331 29.534 24.6331Z" fill="black"/>
</svg>
