<svg width="162" height="160" viewBox="0 0 162 160" fill="none" xmlns="http://www.w3.org/2000/svg">
<path fill-rule="evenodd" clip-rule="evenodd" d="M8.93401 59.8002C-2.35301 70.9397 -2.353 89.0005 8.93401 100.14L60.4712 151.004C71.7582 162.144 90.0581 162.144 101.345 151.004L152.889 100.133C164.176 88.9939 164.176 70.9331 152.889 59.7935L101.352 8.92963C90.0648 -2.20993 71.7649 -2.20995 60.4779 8.92961L8.93401 59.8002ZM40.8517 64.9263C38.8206 70.2346 37.8051 75.9142 37.8051 81.9649L45.7037 81.9649C45.7037 76.9907 46.5124 72.332 48.1297 67.9888C49.7471 63.6457 52.0414 59.8222 55.0128 56.5184C57.9842 53.2146 61.5198 50.6347 65.6195 48.7787C69.7569 46.9226 74.3456 45.9946 79.3857 45.9946C84.4258 45.9946 89.1461 46.9226 93.5468 48.7787C97.9475 50.6718 101.803 53.2703 105.113 56.5741C108.46 59.8779 111.074 63.7013 112.955 68.0445C114.835 72.3877 115.776 77.0278 115.776 81.9649C115.776 86.902 114.835 91.5236 112.955 95.8297C111.074 100.173 108.46 103.996 105.113 107.3C101.803 110.604 97.9475 113.184 93.5468 115.04C89.1461 116.933 84.4258 117.88 79.3857 117.88C76.6776 117.88 73.9131 117.546 71.0921 116.877C68.3088 116.209 65.958 115.17 64.0398 113.759C62.1592 112.349 61.2189 110.53 61.2189 108.302C61.2189 106.558 61.8207 104.98 63.0243 103.569C64.2279 102.159 65.7324 101.454 67.5378 101.454H99.6964L100.656 95.1615H94.2238C96.5182 93.6766 98.3424 91.6164 99.6964 88.9808C101.088 86.3452 101.784 83.4312 101.784 80.2388C101.784 76.1926 100.768 72.4805 98.7373 69.1025C96.7439 65.7616 94.0546 63.0888 90.6694 61.0843C87.2843 59.1169 83.5231 58.1332 79.3857 58.1332C75.2483 58.1332 71.4683 59.1169 68.0455 61.0843C64.6604 63.0888 61.9523 65.7616 59.9212 69.1025C57.9278 72.4805 56.931 76.1926 56.931 80.2388C56.931 83.5054 57.6269 86.3823 59.0185 88.8695C60.4478 91.3566 62.3472 93.3611 64.7168 94.8831C62.5729 95.0687 60.6359 95.8482 58.9057 97.2217C57.1755 98.5952 55.8027 100.303 54.7871 102.344C53.8092 104.423 53.3202 106.539 53.3202 108.692C53.3202 111.402 54.0725 113.796 55.577 115.875C57.1191 117.991 59.1502 119.773 61.6702 121.221C64.2279 122.668 67.0488 123.763 70.133 124.506C73.2172 125.285 76.3015 125.675 79.3857 125.675C85.4789 125.675 91.196 124.543 96.537 122.278C101.878 120.051 106.58 116.933 110.642 112.924C114.704 108.952 117.882 104.312 120.176 99.0035C122.508 93.7323 123.674 88.0528 123.674 81.9649C123.674 75.9142 122.527 70.2346 120.233 64.9263C117.939 59.6551 114.76 55.015 110.698 51.0059C106.636 46.9968 101.916 43.8601 96.537 41.5957C91.196 39.3313 85.4789 38.1991 79.3857 38.1991C73.2925 38.1991 67.707 39.3313 62.6293 41.5957C57.5517 43.8601 53.151 46.9968 49.4274 51.0059C45.7413 55.015 42.8828 59.6551 40.8517 64.9263ZM65.7324 88.3126C64.115 86.1967 63.3064 83.6725 63.3064 80.7399C63.3064 77.8816 64.021 75.246 65.4503 72.8331C66.8795 70.4203 68.7978 68.49 71.205 67.0422C73.6498 65.5945 76.3767 64.8707 79.3857 64.8707C82.3571 64.8707 85.0464 65.576 87.4536 66.9865C89.8984 68.4343 91.8354 70.346 93.2647 72.7218C94.694 75.1346 95.4086 77.8074 95.4086 80.7399C95.4086 83.8581 94.6752 86.4751 93.2083 88.591C91.779 90.7069 89.8984 92.2846 87.5664 93.324C85.2344 94.4005 82.7332 94.9388 80.0627 94.9388C77.2794 94.9388 74.5901 94.3634 71.9948 93.2126C69.4372 92.0619 67.3497 90.4285 65.7324 88.3126Z" fill="white"/>
</svg>
