<svg width="89" height="89" viewBox="0 0 89 89" fill="none" xmlns="http://www.w3.org/2000/svg">
<path fill-rule="evenodd" clip-rule="evenodd" d="M4.68629 32.9471C-1.5621 39.1955 -1.5621 49.3262 4.68629 55.5746L32.9435 83.8317C39.1918 90.0801 49.3225 90.0801 55.5709 83.8317L83.8317 55.5709C90.0801 49.3225 90.0801 39.1918 83.8317 32.9435L55.5746 4.68629C49.3262 -1.5621 39.1955 -1.5621 32.9471 4.68629L4.68629 32.9471ZM22.2037 35.8668C21.0853 38.8284 20.5261 41.9971 20.5261 45.373H24.8754C24.8754 42.5977 25.3207 39.9985 26.2112 37.5754C27.1018 35.1522 28.3651 33.019 30.0013 31.1758C31.6374 29.3325 33.5842 27.8932 35.8417 26.8576C38.1198 25.8221 40.6465 25.3043 43.4218 25.3043C46.197 25.3043 48.7962 25.8221 51.2193 26.8576C53.6425 27.9139 55.7653 29.3636 57.5879 31.2069C59.4311 33.0501 60.8705 35.1833 61.9061 37.6065C62.9416 40.0296 63.4594 42.6184 63.4594 45.373C63.4594 48.1275 62.9416 50.706 61.906 53.1084C60.8705 55.5315 59.4311 57.6647 57.5879 59.508C55.7653 61.3512 53.6425 62.7906 51.2193 63.8262C48.7962 64.8824 46.197 65.4105 43.4218 65.4105C41.9306 65.4105 40.4084 65.2241 38.8551 64.8513C37.3225 64.4785 36.0281 63.8987 34.9718 63.1116C33.9363 62.3246 33.4185 61.3098 33.4185 60.0672C33.4185 59.0938 33.7499 58.2136 34.4126 57.4266C35.0754 56.6396 35.9038 56.2461 36.8979 56.2461H54.6055L55.1337 52.7356H51.5921C52.8555 51.9072 53.86 50.7577 54.6055 49.2873C55.3718 47.8168 55.755 46.191 55.755 44.4099C55.755 42.1524 55.1958 40.0814 54.0774 38.1967C52.9798 36.3328 51.4989 34.8416 49.635 33.7232C47.771 32.6255 45.7 32.0767 43.4218 32.0767C41.1436 32.0767 39.0622 32.6255 37.1775 33.7232C35.3135 34.8416 33.8224 36.3327 32.704 38.1967C31.6063 40.0814 31.0575 42.1524 31.0575 44.4099C31.0575 46.2324 31.4407 47.8375 32.2069 49.2251C32.994 50.6128 34.0398 51.7311 35.3446 52.5803C34.1641 52.6838 33.0975 53.1187 32.1448 53.885C31.1921 54.6513 30.4362 55.604 29.877 56.7431C29.3385 57.9029 29.0693 59.0834 29.0693 60.2846C29.0693 61.7965 29.4835 63.1324 30.3119 64.2922C31.1611 65.4727 32.2794 66.4668 33.667 67.2745C35.0754 68.0822 36.6287 68.6932 38.327 69.1074C40.0252 69.5423 41.7235 69.7598 43.4218 69.7598C46.7769 69.7598 49.9249 69.1281 52.8658 67.8647C55.8068 66.6221 58.3956 64.8824 60.6323 62.6457C62.8691 60.4296 64.6191 57.8408 65.8825 54.8792C67.1666 51.9382 67.8086 48.7695 67.8086 45.373C67.8086 41.9971 67.1769 38.8284 65.9136 35.8668C64.6502 32.9258 62.9002 30.337 60.6634 28.1003C58.4267 25.8635 55.8275 24.1135 52.8658 22.8501C49.9249 21.5868 46.7769 20.9551 43.4218 20.9551C40.0667 20.9551 36.9911 21.5868 34.1952 22.8501C31.3992 24.1135 28.9761 25.8635 26.9257 28.1003C24.8961 30.337 23.3221 32.9258 22.2037 35.8668ZM35.9038 48.9145C35.0132 47.734 34.568 46.3256 34.568 44.6895C34.568 43.0948 34.9615 41.6243 35.7485 40.2781C36.5355 38.9319 37.5917 37.855 38.9172 37.0473C40.2634 36.2396 41.7649 35.8357 43.4218 35.8357C45.0579 35.8357 46.5387 36.2292 47.8642 37.0162C49.2104 37.8239 50.277 38.8905 51.064 40.216C51.851 41.5622 52.2445 43.0534 52.2445 44.6895C52.2445 46.4292 51.8407 47.8893 51.0329 49.0698C50.2459 50.2503 49.2104 51.1305 47.9263 51.7104C46.6423 52.311 45.265 52.6113 43.7946 52.6113C42.262 52.6113 40.7812 52.2903 39.3521 51.6483C37.9438 51.0063 36.7944 50.095 35.9038 48.9145Z" fill="#161819"/>
</svg>
