<svg width="608" height="692" viewBox="0 0 608 692" fill="none" xmlns="http://www.w3.org/2000/svg">
<path d="M288 5.23761C297.901 -0.478638 310.099 -0.478645 320 5.2376L591.109 161.762C601.01 167.479 607.109 178.043 607.109 189.475V502.525C607.109 513.957 601.01 524.521 591.109 530.238L320 686.762C310.099 692.479 297.901 692.479 288 686.762L16.8911 530.238C6.99029 524.521 0.891113 513.957 0.891113 502.525V189.475C0.891113 178.043 6.99028 167.479 16.8911 161.762L288 5.23761Z" fill="#93FBED"/>
<path d="M288 55.2376C297.901 49.5214 310.099 49.5214 320 55.2376L547.808 186.762C557.708 192.479 563.808 203.043 563.808 214.475V477.525C563.808 488.957 557.708 499.521 547.808 505.238L320 636.762C310.099 642.479 297.901 642.479 288 636.762L60.1924 505.238C50.2916 499.521 44.1924 488.957 44.1924 477.525V214.475C44.1924 203.043 50.2915 192.479 60.1924 186.762L288 55.2376Z" fill="#FFDEB5" stroke="black" stroke-width="5"/>
<path d="M295.483 206.309C297.959 204.88 301.008 204.88 303.483 206.309L374.992 247.595C377.467 249.024 378.992 251.665 378.992 254.523V337.093C378.992 339.952 377.467 342.593 374.992 344.022L303.483 385.307C301.008 386.736 297.959 386.736 295.483 385.307L223.975 344.022C221.5 342.593 219.975 339.952 219.975 337.093V254.523C219.975 251.665 221.5 249.024 223.975 247.595L295.483 206.309Z" fill="#FF684B" stroke="black" stroke-width="5"/>
<path d="M222.594 251.052L299.651 292.365L375.225 251.052" stroke="black" stroke-width="5"/>
<path d="M299.483 291.218V385.321" stroke="black" stroke-width="5"/>
<path d="M409.096 265.984C411.571 264.555 414.621 264.555 417.096 265.984L488.604 307.269C491.079 308.699 492.604 311.34 492.604 314.198V396.768C492.604 399.626 491.079 402.267 488.604 403.696L417.096 444.982C414.621 446.411 411.571 446.411 409.096 444.982L337.588 403.696C335.113 402.267 333.588 399.626 333.588 396.768V314.198C333.588 311.34 335.113 308.699 337.588 307.269L409.096 265.984Z" fill="#FF684B" stroke="black" stroke-width="5"/>
<path d="M336.207 310.727L413.842 352.04L489.985 310.727" stroke="black" stroke-width="5"/>
<path d="M413.096 349.745V444.996" stroke="black" stroke-width="5"/>
<path d="M189.904 265.984C192.379 264.555 195.429 264.555 197.904 265.984L269.412 307.269C271.887 308.699 273.412 311.34 273.412 314.198V396.768C273.412 399.626 271.887 402.267 269.412 403.696L197.904 444.982C195.429 446.411 192.379 446.411 189.904 444.982L118.396 403.696C115.921 402.267 114.396 399.626 114.396 396.768V314.198C114.396 311.34 115.921 308.699 118.396 307.269L189.904 265.984Z" fill="#FF684B" stroke="black" stroke-width="5"/>
<path d="M117.015 310.727L194.651 352.04L270.793 310.727" stroke="black" stroke-width="5"/>
<path d="M193.904 349.745V444.996" stroke="black" stroke-width="5"/>
<path d="M295.483 333.693C297.959 332.264 301.008 332.264 303.483 333.693L374.992 374.978C377.467 376.408 378.992 379.049 378.992 381.907V464.477C378.992 467.335 377.467 469.976 374.992 471.405L303.483 512.691C301.008 514.12 297.959 514.12 295.483 512.691L223.975 471.405C221.5 469.976 219.975 467.335 219.975 464.477V381.907C219.975 379.049 221.5 376.408 223.975 374.978L295.483 333.693Z" fill="#FF684B" stroke="black" stroke-width="5"/>
<path d="M222.594 379.583L299.651 419.749L375.225 379.583" stroke="black" stroke-width="5"/>
<path d="M299.483 418.602V513.852" stroke="black" stroke-width="5"/>
<circle cx="299" cy="416" r="16" fill="#FFDEB5" stroke="black" stroke-width="5"/>
<circle cx="299" cy="507" r="16" fill="#FFDEB5" stroke="black" stroke-width="5"/>
<circle cx="299" cy="204" r="16" fill="#FFDEB5" stroke="black" stroke-width="5"/>
<circle cx="490" cy="404" r="16" fill="#FFDEB5" stroke="black" stroke-width="5"/>
<circle cx="490" cy="312" r="16" fill="#FFDEB5" stroke="black" stroke-width="5"/>
<circle cx="117" cy="312" r="16" fill="#FFDEB5" stroke="black" stroke-width="5"/>
<circle cx="117" cy="404" r="16" fill="#FFDEB5" stroke="black" stroke-width="5"/>
</svg>
