<svg width="700" height="700" viewBox="0 0 700 700" fill="none" xmlns="http://www.w3.org/2000/svg">
<path d="M334 9.23761C343.901 3.52136 356.099 3.52135 366 9.2376L637.109 165.762C647.01 171.479 653.109 182.043 653.109 193.475V506.525C653.109 517.957 647.01 528.521 637.109 534.238L366 690.762C356.099 696.479 343.901 696.479 334 690.762L62.8911 534.238C52.9903 528.521 46.8911 517.957 46.8911 506.525V193.475C46.8911 182.043 52.9903 171.479 62.8911 165.762L334 9.23761Z" fill="#93FBED"/>
<path d="M334 59.2376C343.901 53.5214 356.099 53.5214 366 59.2376L593.808 190.762C603.708 196.479 609.808 207.043 609.808 218.475V481.525C609.808 492.957 603.708 503.521 593.808 509.238L366 640.762C356.099 646.479 343.901 646.479 334 640.762L106.192 509.238C96.2916 503.521 90.1924 492.957 90.1924 481.525V218.475C90.1924 207.043 96.2915 196.479 106.192 190.762L334 59.2376Z" fill="#FFDEB5" stroke="black" stroke-width="5"/>
<path d="M345 256.309C347.475 254.88 350.525 254.88 353 256.309L428.138 299.691C430.614 301.12 432.138 303.761 432.138 306.619V393.381C432.138 396.239 430.614 398.88 428.138 400.309L353 443.691C350.525 445.12 347.475 445.12 345 443.691L269.862 400.309C267.386 398.88 265.862 396.239 265.862 393.381V306.619C265.862 303.761 267.386 301.12 269.862 299.691L345 256.309Z" fill="#FF684B" stroke="black" stroke-width="5"/>
<path d="M269 303L349.272 346L428 303" stroke="black" stroke-width="5"/>
<path d="M349 345V444" stroke="black" stroke-width="5"/>
<path d="M460 318.309C462.475 316.88 465.525 316.88 468 318.309L543.138 361.691C545.614 363.12 547.138 365.761 547.138 368.619V455.381C547.138 458.239 545.614 460.88 543.138 462.309L468 505.691C465.525 507.12 462.475 507.12 460 505.691L384.862 462.309C382.386 460.88 380.862 458.239 380.862 455.381V368.619C380.862 365.761 382.386 363.12 384.862 361.691L460 318.309Z" fill="#FF684B" stroke="black" stroke-width="5"/>
<path d="M384 366L464.777 409L544 366" stroke="black" stroke-width="5"/>
<path d="M464 406V506" stroke="black" stroke-width="5"/>
<path d="M231 318.309C233.475 316.88 236.525 316.88 239 318.309L314.138 361.691C316.614 363.12 318.138 365.761 318.138 368.619V455.381C318.138 458.239 316.614 460.88 314.138 462.309L239 505.691C236.525 507.12 233.475 507.12 231 505.691L155.862 462.309C153.386 460.88 151.862 458.239 151.862 455.381V368.619C151.862 365.761 153.386 363.12 155.862 361.691L231 318.309Z" fill="#FF684B" stroke="black" stroke-width="5"/>
<path d="M155 366L235.777 409L315 366" stroke="black" stroke-width="5"/>
<path d="M235 406V506" stroke="black" stroke-width="5"/>
<path d="M346 389.309C348.475 387.88 351.525 387.88 354 389.309L429.138 432.691C431.614 434.12 433.138 436.761 433.138 439.619V526.381C433.138 529.239 431.614 531.88 429.138 533.309L354 576.691C351.525 578.12 348.475 578.12 346 576.691L270.862 533.309C268.386 531.88 266.862 529.239 266.862 526.381V439.619C266.862 436.761 268.386 434.12 270.862 432.691L346 389.309Z" fill="#FF684B" stroke="black" stroke-width="5"/>
<path d="M269 438L349.777 479L432 436" stroke="black" stroke-width="5"/>
<path d="M350 478V578" stroke="black" stroke-width="5"/>
<path d="M346 123.309C348.475 121.88 351.525 121.88 354 123.309L429.138 166.691C431.614 168.12 433.138 170.761 433.138 173.619V260.381C433.138 263.239 431.614 265.88 429.138 267.309L354 310.691C351.525 312.12 348.475 312.12 346 310.691L270.862 267.309C268.386 265.88 266.862 263.239 266.862 260.381V173.619C266.862 170.761 268.386 168.12 270.862 166.691L346 123.309Z" fill="#FF684B" stroke="black" stroke-width="5"/>
<path d="M270 170L350.272 213L429 170" stroke="black" stroke-width="5"/>
<path d="M350 212V310" stroke="black" stroke-width="5"/>
<path d="M460 185.309C462.475 183.88 465.525 183.88 468 185.309L543.138 228.691C545.614 230.12 547.138 232.761 547.138 235.619V322.381C547.138 325.239 545.614 327.88 543.138 329.309L468 372.691C465.525 374.12 462.475 374.12 460 372.691L384.862 329.309C382.386 327.88 380.862 325.239 380.862 322.381V235.619C380.862 232.761 382.386 230.12 384.862 228.691L460 185.309Z" fill="#FF684B" stroke="black" stroke-width="5"/>
<path d="M384 233L464.777 276L544 233" stroke="black" stroke-width="5"/>
<path d="M464 273V373" stroke="black" stroke-width="5"/>
<path d="M231 185.309C233.475 183.88 236.525 183.88 239 185.309L314.138 228.691C316.614 230.12 318.138 232.761 318.138 235.619V322.381C318.138 325.239 316.614 327.88 314.138 329.309L239 372.691C236.525 374.12 233.475 374.12 231 372.691L155.862 329.309C153.386 327.88 151.862 325.239 151.862 322.381V235.619C151.862 232.761 153.386 230.12 155.862 228.691L231 185.309Z" fill="#FF684B" stroke="black" stroke-width="5"/>
<path d="M155 233L235.777 276L315 233" stroke="black" stroke-width="5"/>
<path d="M235 273V373" stroke="black" stroke-width="5"/>
<path d="M343.191 250.039C346.316 244.972 353.684 244.972 356.809 250.039L413.409 341.8C414.998 344.375 414.998 347.625 413.409 350.2L356.809 441.961C353.684 447.028 346.316 447.028 343.191 441.961L286.591 350.2C285.002 347.625 285.002 344.375 286.591 341.8L343.191 250.039Z" fill="#FFDEB5" stroke="black" stroke-width="5"/>
<path d="M413 346L356.879 372.724C352.527 374.797 347.473 374.797 343.121 372.724L287 346" stroke="black" stroke-width="5"/>
</svg>
