<svg width="608" height="692" viewBox="0 0 608 692" fill="none" xmlns="http://www.w3.org/2000/svg">
<path d="M288 5.23761C297.901 -0.478638 310.099 -0.478645 320 5.2376L591.109 161.762C601.01 167.479 607.109 178.043 607.109 189.475V502.525C607.109 513.957 601.01 524.521 591.109 530.238L320 686.762C310.099 692.479 297.901 692.479 288 686.762L16.8911 530.238C6.99029 524.521 0.891113 513.957 0.891113 502.525V189.475C0.891113 178.043 6.99028 167.479 16.8911 161.762L288 5.23761Z" fill="#93FBED"/>
<path d="M288 55.2376C297.901 49.5214 310.099 49.5214 320 55.2376L547.808 186.762C557.708 192.479 563.808 203.043 563.808 214.475V477.525C563.808 488.957 557.708 499.521 547.808 505.238L320 636.762C310.099 642.479 297.901 642.479 288 636.762L60.1924 505.238C50.2916 499.521 44.1924 488.957 44.1924 477.525V214.475C44.1924 203.043 50.2915 192.479 60.1924 186.762L288 55.2376Z" fill="#FFDEB5" stroke="black" stroke-width="5"/>
<path d="M300 199.309C302.475 197.88 305.525 197.88 308 199.309L369.282 234.691C371.757 236.12 373.282 238.761 373.282 241.619V312.381C373.282 315.239 371.757 317.88 369.282 319.309L308 354.691C305.525 356.12 302.475 356.12 300 354.691L238.718 319.309C236.243 317.88 234.718 315.239 234.718 312.381V241.619C234.718 238.761 236.243 236.12 238.718 234.691L300 199.309Z" fill="#FF684B" stroke="black" stroke-width="5"/>
<path d="M237 238L304.146 274L370 238" stroke="black" stroke-width="5"/>
<path d="M304 273V355" stroke="black" stroke-width="5"/>
<path d="M382 337.309C384.475 335.88 387.525 335.88 390 337.309L451.282 372.691C453.757 374.12 455.282 376.761 455.282 379.619V450.381C455.282 453.239 453.757 455.88 451.282 457.309L390 492.691C387.525 494.12 384.475 494.12 382 492.691L320.718 457.309C318.243 455.88 316.718 453.239 316.718 450.381V379.619C316.718 376.761 318.243 374.12 320.718 372.691L382 337.309Z" fill="#FF684B" stroke="black" stroke-width="5"/>
<path d="M319 377L386.146 412L452 377" stroke="black" stroke-width="5"/>
<path d="M386 411V494" stroke="black" stroke-width="5"/>
<path d="M218 337.309C220.475 335.88 223.525 335.88 226 337.309L287.282 372.691C289.757 374.12 291.282 376.761 291.282 379.619V450.381C291.282 453.239 289.757 455.88 287.282 457.309L226 492.691C223.525 494.12 220.475 494.12 218 492.691L156.718 457.309C154.243 455.88 152.718 453.239 152.718 450.381V379.619C152.718 376.761 154.243 374.12 156.718 372.691L218 337.309Z" fill="#FF684B" stroke="black" stroke-width="5"/>
<path d="M155 377L222.146 412L288 377" stroke="black" stroke-width="5"/>
<path d="M222 411V494" stroke="black" stroke-width="5"/>
</svg>
