<svg width="700" height="700" viewBox="0 0 700 700" fill="none" xmlns="http://www.w3.org/2000/svg">
<path d="M334 9.23761C343.901 3.52136 356.099 3.52135 366 9.2376L637.109 165.762C647.01 171.479 653.109 182.043 653.109 193.475V506.525C653.109 517.957 647.01 528.521 637.109 534.238L366 690.762C356.099 696.479 343.901 696.479 334 690.762L62.8911 534.238C52.9903 528.521 46.8911 517.957 46.8911 506.525V193.475C46.8911 182.043 52.9903 171.479 62.8911 165.762L334 9.23761Z" fill="#93FBED"/>
<path d="M334 59.2376C343.901 53.5214 356.099 53.5214 366 59.2376L593.808 190.762C603.708 196.479 609.808 207.043 609.808 218.475V481.525C609.808 492.957 603.708 503.521 593.808 509.238L366 640.762C356.099 646.479 343.901 646.479 334 640.762L106.192 509.238C96.2916 503.521 90.1924 492.957 90.1924 481.525V218.475C90.1924 207.043 96.2915 196.479 106.192 190.762L334 59.2376Z" fill="#FFDEB5" stroke="black" stroke-width="5"/>
<path d="M486 357.712V280.33C486 270.058 480.535 260.576 471.669 255.463L364.696 193.8C355.908 188.733 345.1 188.733 336.312 193.8L229.331 255.471C220.465 260.584 215 270.066 215 280.338V357.719C215 420.677 247.061 479.249 299.973 512.955L347.197 543.036C349.209 544.322 351.784 544.322 353.803 543.036L401.027 512.955C453.939 479.249 486 420.677 486 357.719V357.712Z" fill="#FF684B" stroke="black" stroke-width="5" stroke-miterlimit="10"/>
<path d="M435.784 356.042C442.841 356.879 442.841 367.121 435.784 367.958L370.013 375.762C367.26 376.089 365.089 378.26 364.762 381.013L356.958 446.784C356.121 453.841 345.879 453.841 345.042 446.784L337.238 381.013C336.911 378.26 334.74 376.089 331.987 375.762L266.216 367.958C259.159 367.121 259.159 356.879 266.216 356.042L331.987 348.238C334.74 347.911 336.911 345.74 337.238 342.987L345.042 277.216C345.879 270.159 356.121 270.159 356.958 277.216L364.762 342.987C365.089 345.74 367.26 347.911 370.013 348.238L435.784 356.042Z" fill="#FFEEDA" stroke="black" stroke-width="5"/>
</svg>
