<svg width="700" height="700" viewBox="0 0 700 700" fill="none" xmlns="http://www.w3.org/2000/svg">
<path d="M334 9.23761C343.901 3.52136 356.099 3.52135 366 9.2376L637.109 165.762C647.01 171.479 653.109 182.043 653.109 193.475V506.525C653.109 517.957 647.01 528.521 637.109 534.238L366 690.762C356.099 696.479 343.901 696.479 334 690.762L62.8911 534.238C52.9903 528.521 46.8911 517.957 46.8911 506.525V193.475C46.8911 182.043 52.9903 171.479 62.8911 165.762L334 9.23761Z" fill="#93FBED"/>
<path d="M334 59.2376C343.901 53.5214 356.099 53.5214 366 59.2376L593.808 190.762C603.708 196.479 609.808 207.043 609.808 218.475V481.525C609.808 492.957 603.708 503.521 593.808 509.238L366 640.762C356.099 646.479 343.901 646.479 334 640.762L106.192 509.238C96.2916 503.521 90.1924 492.957 90.1924 481.525V218.475C90.1924 207.043 96.2915 196.479 106.192 190.762L334 59.2376Z" fill="#FFDEB5" stroke="black" stroke-width="5"/>
<path d="M503 356.557V269.558C503 258.009 496.849 247.348 486.872 241.6L366.477 172.272C356.586 166.576 344.423 166.576 334.532 172.272L214.128 241.609C204.151 247.357 198 258.017 198 269.566V356.566C198 427.348 234.083 493.201 293.634 531.097L346.782 564.916C349.047 566.361 351.945 566.361 354.218 564.916L407.366 531.097C466.917 493.201 503 427.348 503 356.566V356.557Z" fill="#FF684B" stroke="black" stroke-width="5" stroke-miterlimit="10"/>
<path d="M467.88 231.716C468.81 230.983 470.017 232.19 469.284 233.12L377.686 349.381C377.4 349.744 377.4 350.256 377.686 350.619L469.284 466.88C470.017 467.81 468.81 469.017 467.88 468.284L351.619 376.686C351.256 376.4 350.744 376.4 350.381 376.686L234.12 468.284C233.19 469.017 231.983 467.81 232.716 466.88L324.314 350.619C324.6 350.256 324.6 349.744 324.314 349.381L232.716 233.12C231.983 232.19 233.19 230.983 234.12 231.716L350.381 323.314C350.744 323.6 351.256 323.6 351.619 323.314L467.88 231.716Z" fill="#FFEEDA" stroke="black" stroke-width="5"/>
<path d="M345.862 89.9731C346.233 85.0402 353.468 85.0402 353.839 89.9731L369.759 301.396C370.922 316.845 382.985 329.241 398.397 330.825L546.277 346.021C551.065 346.513 551.065 353.487 546.277 353.979L478.384 360.956L398.397 369.175C382.985 370.758 370.922 383.155 369.759 398.604L353.839 610.027C353.468 614.96 346.233 614.96 345.862 610.027L329.941 398.588C328.778 383.146 316.725 370.752 301.322 369.16L154.484 353.979C149.699 353.484 149.699 346.516 154.484 346.021L301.322 330.84C316.725 329.248 328.778 316.854 329.941 301.412L345.862 89.9731Z" fill="#FFEEDA" stroke="black" stroke-width="5"/>
</svg>
