<svg width="700" height="700" viewBox="0 0 700 700" fill="none" xmlns="http://www.w3.org/2000/svg">
<path d="M334 9.23761C343.901 3.52136 356.099 3.52135 366 9.2376L637.109 165.762C647.01 171.479 653.109 182.043 653.109 193.475V506.525C653.109 517.957 647.01 528.521 637.109 534.238L366 690.762C356.099 696.479 343.901 696.479 334 690.762L62.8911 534.238C52.9903 528.521 46.8911 517.957 46.8911 506.525V193.475C46.8911 182.043 52.9903 171.479 62.8911 165.762L334 9.23761Z" fill="#93FBED"/>
<path d="M334 59.2376C343.901 53.5214 356.099 53.5214 366 59.2376L593.808 190.762C603.708 196.479 609.808 207.043 609.808 218.475V481.525C609.808 492.957 603.708 503.521 593.808 509.238L366 640.762C356.099 646.479 343.901 646.479 334 640.762L106.192 509.238C96.2916 503.521 90.1924 492.957 90.1924 481.525V218.475C90.1924 207.043 96.2915 196.479 106.192 190.762L334 59.2376Z" fill="#FFDEB5" stroke="black" stroke-width="5"/>
<path d="M483 354.974V279.778C483 269.797 477.656 260.582 468.987 255.614L364.381 195.692C355.788 190.769 345.22 190.769 336.626 195.692L232.013 255.622C223.344 260.59 218 269.804 218 279.786V354.982C218 416.16 249.351 473.079 301.092 505.832L347.27 535.063C349.237 536.312 351.755 536.312 353.73 535.063L399.908 505.832C451.649 473.079 483 416.16 483 354.982V354.974Z" fill="#FF684B" stroke="black" stroke-width="5" stroke-miterlimit="10"/>
<path d="M426.88 286.716C427.81 285.983 429.017 287.19 428.284 288.12L368.988 363.381C368.702 363.744 368.702 364.256 368.988 364.619L428.284 439.88C429.017 440.81 427.81 442.017 426.88 441.284L351.619 381.988C351.256 381.702 350.744 381.702 350.381 381.988L275.12 441.284C274.19 442.017 272.983 440.81 273.716 439.88L333.012 364.619C333.298 364.256 333.298 363.744 333.012 363.381L273.716 288.12C272.983 287.19 274.19 285.983 275.12 286.716L350.381 346.012C350.744 346.298 351.256 346.298 351.619 346.012L426.88 286.716Z" fill="#FFEEDA" stroke="black" stroke-width="5"/>
<path d="M346.053 195.997C346.424 191.064 353.659 191.064 354.03 195.997L363.501 321.836C364.664 337.285 376.727 349.682 392.139 351.267L477.295 360.021C482.083 360.513 482.083 367.487 477.295 367.979L440.755 371.735L392.139 376.733C376.727 378.318 364.664 390.715 363.501 406.164L354.03 532.003C353.659 536.936 346.424 536.936 346.053 532.003L336.58 406.147C335.418 390.705 323.366 378.312 307.963 376.718L223.467 367.979C218.682 367.484 218.682 360.516 223.467 360.021L307.963 351.282C323.366 349.688 335.418 337.295 336.58 321.853L346.053 195.997Z" fill="#FFEEDA" stroke="black" stroke-width="5"/>
</svg>
