<svg width="700" height="700" viewBox="0 0 700 700" fill="none" xmlns="http://www.w3.org/2000/svg">
<path d="M334 9.23761C343.901 3.52136 356.099 3.52135 366 9.2376L637.109 165.762C647.01 171.479 653.109 182.043 653.109 193.475V506.525C653.109 517.957 647.01 528.521 637.109 534.238L366 690.762C356.099 696.479 343.901 696.479 334 690.762L62.8911 534.238C52.9903 528.521 46.8911 517.957 46.8911 506.525V193.475C46.8911 182.043 52.9903 171.479 62.8911 165.762L334 9.23761Z" fill="#93FBED"/>
<path d="M334 59.2376C343.901 53.5214 356.099 53.5214 366 59.2376L593.808 190.762C603.708 196.479 609.808 207.043 609.808 218.475V481.525C609.808 492.957 603.708 503.521 593.808 509.238L366 640.762C356.099 646.479 343.901 646.479 334 640.762L106.192 509.238C96.2916 503.521 90.1924 492.957 90.1924 481.525V218.475C90.1924 207.043 96.2915 196.479 106.192 190.762L334 59.2376Z" fill="#FFDEB5" stroke="black" stroke-width="5"/>
<path d="M349.676 572.893V352.521" stroke="black" stroke-width="5" stroke-miterlimit="10"/>
<path d="M281.805 512.992L348.31 352.435" stroke="black" stroke-width="5" stroke-miterlimit="10"/>
<path d="M186.04 417.235L346.605 350.729" stroke="black" stroke-width="5" stroke-miterlimit="10"/>
<path d="M127.5 349.569H290.102" stroke="black" stroke-width="5" stroke-miterlimit="10"/>
<path d="M186.04 281.805L346.605 348.31" stroke="black" stroke-width="5" stroke-miterlimit="10"/>
<path d="M281.805 186.04L348.31 346.605" stroke="black" stroke-width="5" stroke-miterlimit="10"/>
<path d="M349.676 126.606V346.616" stroke="black" stroke-width="5" stroke-miterlimit="10"/>
<path d="M417.235 186.04L350.729 346.605" stroke="black" stroke-width="5" stroke-miterlimit="10"/>
<path d="M513 281.805L352.436 348.31" stroke="black" stroke-width="5" stroke-miterlimit="10"/>
<path d="M573 349.569H352.628" stroke="black" stroke-width="5" stroke-miterlimit="10"/>
<path d="M512.993 417.235L352.436 350.729" stroke="black" stroke-width="5" stroke-miterlimit="10"/>
<path d="M417.235 512.999L350.729 352.435" stroke="black" stroke-width="5" stroke-miterlimit="10"/>
<path d="M338.165 268.609C341.901 257.862 357.099 257.862 360.835 268.609L373.444 304.883C375.092 309.624 379.516 312.839 384.534 312.941L422.93 313.723C434.305 313.955 439.001 328.41 429.935 335.283L399.332 358.485C395.333 361.517 393.643 366.718 395.096 371.522L406.217 408.28C409.511 419.17 397.216 428.103 387.877 421.605L356.354 399.67C352.234 396.803 346.766 396.803 342.646 399.67L311.123 421.605C301.784 428.103 289.489 419.17 292.783 408.28L303.904 371.522C305.357 366.718 303.667 361.517 299.668 358.485L269.065 335.283C259.999 328.41 264.695 313.955 276.07 313.723L314.466 312.941C319.484 312.839 323.908 309.624 325.556 304.883L338.165 268.609Z" fill="#FF684B" stroke="black" stroke-width="5"/>
</svg>
