<svg width="342" height="322" viewBox="0 0 342 322" fill="none" xmlns="http://www.w3.org/2000/svg">
<path d="M96.3297 130.647C96.5278 129.559 95.8344 128.373 95.5373 127.879L95.3392 127.583L95.5373 127.286C95.4383 127.088 93.2593 122.64 87.8119 119.675L87.4157 119.478L87.5148 119.082C87.7128 118.291 87.5148 117.501 87.0195 116.908L86.8214 116.611L87.1186 115.919C87.3167 115.623 87.4157 115.227 87.6138 114.733L87.8119 114.338H88.2081C88.4061 114.338 88.5052 114.338 88.6042 114.239C88.9014 114.14 89.0995 113.942 89.2975 113.646L90.288 111.669C90.4861 111.175 90.387 110.582 89.9909 110.285L89.7928 110.088V109.791C89.8918 108.111 89.1985 107.024 87.7128 106.332C86.5243 105.838 85.4348 105.739 84.5434 106.134C83.553 106.529 82.9587 107.32 82.5626 107.913L82.3645 108.309L81.9683 108.21C81.5721 108.111 81.1759 108.309 81.0769 108.605L80.4826 109.989C80.3836 110.285 80.3836 110.681 80.6807 110.878L81.1759 111.175L80.6807 112.361H80.2845C79.4922 112.361 78.8979 112.46 78.4027 112.756L78.2046 112.855L75.6295 112.361C75.1343 112.262 74.54 112.361 74.1438 112.658C74.1438 112.658 73.9457 112.855 73.6486 113.349L73.4505 113.745L72.9553 113.646C70.8754 113.053 67.805 112.559 64.7346 113.547C64.5365 113.646 62.7538 114.041 61.5652 114.832V115.03L59.9805 115.919V116.018L59.4853 116.216C58.1977 116.611 57.2073 117.105 56.9102 117.501C56.9102 117.6 57.0092 119.082 58.4949 120.466C59.1882 119.873 60.2777 119.181 60.7729 118.786L61.169 118.489L61.5652 118.885L63.0509 118.291L63.1499 118.39C63.1499 118.39 65.527 116.512 68.5974 116.809C69.3897 116.908 70.083 117.007 70.7763 117.303L71.3706 117.501L69.4887 121.454C68.4983 123.53 69.5878 124.815 69.984 125.111L70.2811 125.408L69.8849 126.495L69.4887 126.594C69.3897 126.693 69.1916 126.792 69.1916 126.891L68.4983 128.274C68.3993 128.472 68.3993 128.571 68.4983 128.67L68.5974 128.867L68.4983 129.065C66.6165 132.92 65.7251 135.885 65.626 136.28L65.527 136.478L60.8719 139.938L60.971 140.036L57.8016 143.397C57.8016 143.397 57.3063 143.792 57.4054 144.385C57.4054 144.583 57.5044 144.88 57.6035 145.077C57.6035 145.176 57.7025 145.176 57.7025 145.275C57.9006 145.571 58.1977 145.868 58.4949 146.066C58.891 146.362 59.1882 146.56 59.4853 146.659C59.5843 146.659 59.6834 146.758 59.6834 146.758C60.4757 146.955 61.07 146.758 61.2681 146.659C61.3671 146.659 61.3671 146.56 61.4662 146.56L63.8432 142.112L69.4887 140.333C70.182 139.74 70.8754 138.85 71.2715 137.862C71.6677 136.972 71.8658 136.28 72.1629 135.786L72.8562 134.205L74.639 141.124L74.4409 141.321C72.8562 143.397 70.5782 144.583 69.8849 144.88L68.5974 146.56C68.6964 146.758 69.0926 148.833 69.6868 150.415C70.083 151.601 71.2715 151.996 71.9648 152.095C72.361 152.194 72.7572 151.996 72.9553 151.798C73.0543 151.7 73.1534 151.502 73.2524 151.304C73.3515 150.909 73.4505 150.415 73.3515 150.118L72.4601 146.659L72.9553 146.461C73.1534 146.362 73.4505 146.263 73.7476 146.165C75.7285 145.473 79.2941 144.089 79.7893 142.507C80.2845 140.926 80.1855 138.158 79.7893 136.083V135.984L80.1855 134.403L80.4826 134.304C80.5817 134.304 80.7798 134.205 80.7798 134.007L81.4731 132.623C81.5721 132.525 81.5721 132.327 81.4731 132.228L81.275 131.833L81.4731 131.536C83.1568 128.472 84.4444 125.705 85.1377 123.53L85.3358 122.937L85.93 123.234C87.4157 123.925 91.1794 125.902 93.0612 129.263H93.2593L93.4574 129.46C94.0517 130.054 94.4478 131.437 94.6459 132.129C95.6364 131.833 96.3297 130.647 96.3297 130.647Z" fill="white"/>
<path d="M339.188 153.775C337.504 157.234 333.74 157.729 331.066 158.42C330.274 158.618 329.085 158.717 327.798 158.816C325.024 158.915 321.657 158.915 320.666 158.915C320.567 158.915 320.468 158.915 320.369 158.915C301.056 142.408 257.179 118.884 204.191 97.9301C152.192 77.2724 105.047 64.6208 79.1969 63.0394C78.7017 63.0394 77.8103 63.1382 77.4141 62.8417C67.5097 54.4402 66.8164 49.597 67.0145 47.8179C67.0145 47.8179 67.0145 47.8179 67.0145 47.7191C67.1135 47.3237 67.2125 46.9283 67.4106 46.533C73.2542 33.5849 138.128 46.9283 212.708 76.4817C287.487 106.233 344.14 140.629 339.188 153.775Z" fill="#E9E1FF" stroke="#6F3FF5" stroke-miterlimit="10"/>
<path d="M260.552 236.802C259.364 239.273 256.689 239.669 254.709 240.064C254.114 240.163 253.322 240.262 252.431 240.361C250.351 240.459 248.073 240.459 247.379 240.459C247.28 240.459 247.28 240.459 247.181 240.459C233.414 228.599 202.017 211.894 164.083 196.871C126.942 182.242 93.1678 173.149 74.7456 171.963C74.3494 171.963 73.7551 172.062 73.458 171.765C66.4259 165.736 65.9306 162.277 66.0297 161.09C66.0297 160.794 66.1287 160.497 66.3268 160.3C70.4867 151.009 116.839 160.596 170.125 181.649C223.609 202.801 264.019 227.412 260.552 236.802Z" fill="#E9E1FF" stroke="#6F3FF5" stroke-miterlimit="10"/>
<path d="M153.878 267.146C153.482 268.035 152.987 268.332 152.69 268.628C152.591 268.727 152.393 268.826 152.293 268.826C151.897 269.024 151.501 269.123 151.402 269.221C149.916 266.454 145.856 263.291 140.507 261.215C135.258 259.14 130.306 258.646 127.235 259.535C127.136 259.535 127.037 259.634 127.037 259.535C126.245 258.151 126.443 257.064 126.542 256.669C126.542 256.57 126.641 256.471 126.641 256.372C128.028 253.11 135.06 252.913 142.587 255.977C150.115 258.942 155.166 263.983 153.878 267.146Z" fill="#E9E1FF" stroke="#6F3FF5"/>
<path d="M123.57 305.496C122.085 315.677 110.596 323.189 100.691 320.421C92.7676 318.247 86.924 310.932 79.0005 308.659C71.6712 306.583 63.9458 309.252 56.7155 311.427C48.2968 313.996 39.5809 316.171 30.865 315.776C22.0501 315.38 13.1361 312.118 7.39159 305.397C1.84512 298.775 0.0623301 289.484 1.44895 280.885C2.83556 272.286 6.99542 264.477 12.1457 257.46C19.0788 247.971 27.7947 239.767 35.0249 230.476C42.2551 221.185 48.1977 210.214 48.2968 198.452C48.3958 186.69 41.1656 174.335 29.6765 171.567C26.5071 170.777 23.0406 170.777 20.2673 169.096C15.5132 166.329 14.1266 160.003 14.6218 154.567C15.7113 142.805 24.2291 132.426 35.0249 127.781C40.9675 125.211 47.8016 125.508 53.7442 127.979C57.3098 129.461 63.1534 130.054 70.5817 124.816" stroke="#6F3FF5" stroke-miterlimit="10"/>
<path d="M169.919 241.546C169.424 242.732 168.829 243.127 168.334 243.522C168.235 243.621 168.037 243.72 167.839 243.819C167.344 244.017 166.849 244.214 166.651 244.313C164.67 240.557 159.222 236.406 152.091 233.539C145.059 230.772 138.324 230.08 134.263 231.266C134.164 231.266 134.065 231.365 133.966 231.365C132.877 229.487 133.174 228.004 133.273 227.51C133.273 227.411 133.372 227.214 133.372 227.115C135.155 222.766 144.762 222.568 154.765 226.522C164.769 230.574 171.603 237.197 169.919 241.546Z" fill="#E9E1FF" stroke="#6F3FF5"/>
<path d="M149.022 294.227C148.527 295.413 147.932 295.809 147.437 296.204C147.338 296.303 147.14 296.402 146.843 296.501C146.348 296.698 145.853 296.896 145.654 296.995C143.674 293.239 138.226 289.088 131.095 286.221C124.063 283.454 117.328 282.762 113.267 283.948C113.168 283.948 113.069 284.047 112.97 284.047C111.88 282.169 112.178 280.686 112.277 280.192C112.277 280.093 112.376 279.896 112.376 279.797C114.158 275.448 123.766 275.25 133.769 279.204C143.872 283.256 150.706 289.878 149.022 294.227Z" fill="#E9E1FF" stroke="#6F3FF5"/>
<path d="M113.074 284.146C113.173 284.146 113.272 284.047 113.371 284.047C117.432 282.762 124.167 283.553 131.199 286.321C138.33 289.088 143.877 293.338 145.759 297.094" stroke="#6F3FF5" stroke-miterlimit="10"/>
<path d="M129.907 288.593C132.879 289.779 135.256 291.361 136.345 292.942C137.138 293.832 137.435 295.117 136.94 296.303L135.454 300.059C133.572 304.902 128.026 307.274 123.172 305.396C118.319 303.518 115.942 297.983 117.824 293.14L119.31 289.384C119.805 288.198 120.993 287.407 122.182 287.407C124.163 287.012 126.936 287.407 129.907 288.593Z" fill="white" stroke="#6F3FF5" stroke-miterlimit="10"/>
<path d="M128.228 293.24C125.554 292.152 124.267 288.99 125.356 286.321L149.127 225.929C150.117 223.261 153.287 222.074 155.961 223.063C158.734 224.15 160.022 227.214 159.031 229.784L135.261 290.176C134.171 292.844 131.2 294.327 128.526 293.339H128.426C128.327 293.24 128.228 293.24 128.228 293.24Z" fill="white" stroke="#6F3FF5" stroke-miterlimit="10"/>
<path d="M168.837 245.103C168.045 246.981 166.956 248.958 166.956 248.958C164.876 252.912 155.565 253.11 145.76 249.156C136.153 245.301 129.517 239.074 130.408 234.725C130.507 234.231 130.606 233.638 130.804 233.045C131.003 232.254 131.3 231.562 131.498 230.969C131.696 230.376 132.092 229.586 132.488 228.696C132.785 228.103 133.082 227.609 133.38 227.115C131.696 231.463 138.431 238.185 148.533 242.138C158.636 246.092 168.243 245.894 169.927 241.545C170.026 241.446 170.026 241.249 170.026 241.051C169.828 242.039 169.432 243.423 168.837 245.103Z" fill="#FFE48D" stroke="#6F3FF5" stroke-miterlimit="10"/>
<path d="M147.935 297.787C147.143 299.665 146.053 301.641 146.053 301.641C143.973 305.595 134.663 305.793 124.858 301.839C115.25 297.984 108.615 291.757 109.506 287.408C109.605 286.914 109.704 286.321 109.902 285.728C110.1 284.937 110.397 284.245 110.595 283.652C110.793 283.059 111.19 282.269 111.586 281.379C111.883 280.786 112.18 280.292 112.477 279.798C110.793 284.147 117.528 290.868 127.631 294.821C137.733 298.775 147.341 298.577 149.024 294.228C149.124 294.129 149.124 293.932 149.124 293.734C148.925 294.723 148.628 296.106 147.935 297.787Z" fill="#FFE48D" stroke="#6F3FF5" stroke-miterlimit="10"/>
<path d="M153.085 269.814C152.491 271.198 151.699 272.68 151.699 272.68C150.114 275.645 143.181 275.744 135.951 272.878C128.82 270.012 123.867 265.366 124.561 262.104C124.66 261.709 124.759 261.314 124.858 260.819C125.056 260.226 125.254 259.732 125.353 259.238C125.551 258.744 125.749 258.25 126.046 257.558C126.245 257.063 126.542 256.668 126.641 256.372C125.353 259.534 130.404 264.575 137.932 267.541C145.459 270.506 152.59 270.308 153.878 267.145C153.878 267.046 153.977 266.948 153.977 266.849C153.878 267.541 153.581 268.529 153.085 269.814Z" fill="#5BF1CD" stroke="#6F3FF5" stroke-miterlimit="10"/>
<path d="M185.565 313.303C184.773 313.402 183.98 313.402 183.287 313.303C182.792 313.205 182.198 313.106 181.702 312.908C180.811 312.611 180.118 312.117 179.424 311.524C178.533 310.635 177.84 309.646 177.444 308.46C176.948 306.879 176.948 305.1 177.642 303.518L240.832 144.385C241.525 142.803 255.292 147.548 254.302 149.92L191.112 309.053C190.121 311.228 188.041 312.908 185.565 313.303Z" fill="#E9E1FF" stroke="#6F3FF5"/>
<path d="M82.0683 269.714C80.5826 273.47 76.3238 275.249 72.5601 273.767C68.7964 272.284 67.0136 268.034 68.4993 264.278L127.331 115.721C128.817 111.965 133.076 110.186 136.84 111.668C140.603 113.151 142.386 117.401 140.9 121.157L82.0683 269.714Z" fill="#E9E1FF" stroke="#6F3FF5"/>
<path d="M249.553 149.328L184.58 313.304C183.788 313.403 182.896 313.502 182.203 313.304C181.609 313.206 181.014 313.008 180.519 312.81C179.628 312.415 178.835 311.921 178.142 311.328C177.152 310.438 176.458 309.351 176.062 308.066C175.468 306.386 175.567 304.508 176.26 302.827C176.26 302.827 236.479 151.107 236.479 151.008C237.073 149.328 249.157 148.636 249.553 149.328Z" fill="white" stroke="#6F3FF5" stroke-miterlimit="10"/>
<path d="M230.242 137.071L257.38 68.5744C259.757 62.4462 245.692 51.1784 225.983 43.37C206.174 35.5616 188.247 34.1778 185.771 40.3059L158.633 109C169.627 113.942 181.116 118.884 193.298 123.727C205.976 128.669 218.257 133.117 230.242 137.071Z" fill="white" stroke="#6F3FF5" stroke-miterlimit="10"/>
<path d="M231.127 195.882C226.769 196.277 223.005 194.301 221.223 189.161" stroke="#6F3FF5" stroke-miterlimit="10"/>
<path d="M210.832 215.156C212.615 220.394 216.379 222.272 220.736 221.877" stroke="#6F3FF5" stroke-miterlimit="10"/>
<path d="M192.309 262.204C194.091 267.442 197.855 269.32 202.213 268.925" stroke="#6F3FF5" stroke-miterlimit="10"/>
<path d="M181.809 287.705C183.591 292.943 187.355 294.821 191.713 294.426" stroke="#6F3FF5" stroke-miterlimit="10"/>
<path d="M133.768 109.594L69.7852 271.594C70.2804 272.286 70.8746 272.879 71.568 273.274C72.0632 273.571 72.6574 273.867 73.1527 274.164C74.0441 274.559 75.0345 274.757 76.0249 274.757C77.4115 274.757 78.6991 274.46 79.8876 273.867C81.4723 273.077 82.7599 271.693 83.4532 269.914L142.483 120.368C142.583 120.17 142.583 120.072 142.682 119.874C143.276 118.194 143.276 116.414 142.682 114.833C142.583 114.635 142.483 114.339 142.384 114.141C141.889 113.153 141.295 112.263 140.503 111.472C139.809 110.879 139.017 110.286 138.026 109.891C137.432 109.693 136.838 109.496 136.244 109.397C135.451 109.397 134.56 109.397 133.768 109.594Z" fill="white" stroke="#6F3FF5" stroke-miterlimit="10"/>
<path d="M153.186 213.969C153.186 213.87 139.716 159.014 139.716 158.915C139.518 157.927 139.518 157.037 139.815 156.246C142.192 150.118 160.218 151.502 179.928 159.212C199.638 167.02 213.702 178.288 211.325 184.416C211.028 185.207 210.335 185.899 209.542 186.492C209.443 186.59 209.443 186.59 209.344 186.59C209.245 186.689 209.245 186.689 209.146 186.689C209.047 186.788 209.047 186.788 208.948 186.788C208.948 186.788 208.948 186.788 208.849 186.887C208.849 186.887 163.982 218.121 163.883 218.121" fill="#FFE48D"/>
<path d="M153.186 213.969C153.186 213.87 139.716 159.014 139.716 158.915C139.518 157.927 139.518 157.037 139.815 156.246C142.192 150.118 160.218 151.502 179.928 159.212C199.638 167.02 213.702 178.288 211.325 184.416C211.028 185.207 210.335 185.899 209.542 186.492C209.443 186.59 209.443 186.59 209.344 186.59C209.245 186.689 209.245 186.689 209.146 186.689C209.047 186.788 209.047 186.788 208.948 186.788C208.948 186.788 208.948 186.788 208.849 186.887C208.849 186.887 163.982 218.121 163.883 218.121" stroke="#6F3FF5" stroke-miterlimit="10"/>
<path d="M130.005 152.391C125.053 154.961 120.893 153.775 117.922 150.513" stroke="#6F3FF5" stroke-miterlimit="10"/>
<path d="M107.422 176.41C110.393 179.672 114.553 180.957 119.505 178.288" stroke="#6F3FF5" stroke-miterlimit="10"/>
<path d="M87.3203 227.313C90.2916 230.575 94.4515 231.86 99.4037 229.191" stroke="#6F3FF5" stroke-miterlimit="10"/>
<path d="M77.7188 251.035C80.6901 254.297 84.8499 255.582 89.8021 252.913" stroke="#6F3FF5" stroke-miterlimit="10"/>
<path d="M140.012 155.555C137.635 161.683 151.699 172.951 171.409 180.759C191.119 188.568 209.244 189.952 211.621 183.823L221.129 158.916C209.046 154.468 196.665 149.822 184.087 144.781C172.399 140.037 160.91 135.293 149.916 130.548C146.648 138.851 143.379 147.154 140.012 155.555Z" fill="white" stroke="#6F3FF5" stroke-miterlimit="10"/>
<path d="M192.906 51.179L148.336 167.811" stroke="#6F3FF5" stroke-miterlimit="10"/>
<path d="M337.013 164.846C334.834 170.678 330.179 176.114 330.179 176.114C321.859 187.382 258.471 173.94 185.476 145.177C113.669 116.81 58.7983 83.8959 58.6992 69.6629C58.6992 68.0814 58.7983 66.2034 59.0954 64.1278C59.3925 61.6568 60.0858 59.3834 60.6801 57.6043C61.3734 55.7263 62.3638 53.453 64.0476 50.982C65.2361 49.2029 66.4247 47.7203 67.5141 46.5342C62.3638 59.5811 118.918 94.2742 193.993 123.827C269.069 153.381 334.042 166.823 339.291 153.776C339.489 153.282 339.588 152.887 339.588 152.294C339.39 155.358 338.895 159.805 337.013 164.846Z" fill="white" stroke="#6F3FF5" stroke-miterlimit="10"/>
<path d="M330.179 176.211C321.859 187.479 258.471 174.037 185.476 145.274C113.669 116.907 58.7983 83.993 58.6992 69.76" stroke="#6F3FF5" stroke-miterlimit="10"/>
<path d="M339.484 152.393C339.385 155.358 338.989 159.806 337.008 164.847C334.829 170.678 331.56 174.632 329.48 177.004" stroke="#6F3FF5" stroke-miterlimit="10"/>
<path d="M67.4152 46.6321C65.4343 48.7077 62.364 52.5625 60.3831 58.1964C58.6993 63.1385 58.5012 67.4874 58.6993 70.1561" stroke="#6F3FF5" stroke-miterlimit="10"/>
<path d="M323.437 158.914C323.338 161.879 322.941 165.536 320.961 170.577C319.277 174.827 317.098 178.089 315.414 180.263" stroke="#6F3FF5" stroke-miterlimit="10"/>
<path d="M280.754 175.421C282.339 173.345 284.32 170.182 285.904 166.229C287.885 161.188 288.281 156.74 288.38 153.775" stroke="#6F3FF5" stroke-miterlimit="10"/>
<path d="M248.27 166.624C250.052 164.45 252.429 160.991 254.113 156.444C255.995 151.403 256.49 148.24 256.49 145.275" stroke="#6F3FF5" stroke-miterlimit="10"/>
<path d="M206.965 153.875C208.847 151.701 211.521 148.044 213.403 143.003C215.384 137.962 215.681 135.689 215.78 132.723" stroke="#6F3FF5" stroke-miterlimit="10"/>
<path d="M74.3458 60.4702C72.563 62.6447 69.6907 66.6972 68.106 72.4299C66.7194 77.4708 66.5213 79.1511 66.8184 81.8198" stroke="#6F3FF5" stroke-miterlimit="10"/>
<path d="M101.389 79.5459C99.4085 81.6215 97.6257 83.9937 95.6448 89.7265C93.961 94.6685 93.763 99.0175 93.9611 101.686" stroke="#6F3FF5" stroke-miterlimit="10"/>
<path d="M133.473 97.1396C131.492 99.2153 129.115 102.181 127.233 107.913C125.55 112.855 125.352 116.018 125.451 118.687" stroke="#6F3FF5" stroke-miterlimit="10"/>
<path d="M260.75 235.911C260.75 238.086 260.354 241.249 258.967 244.807C257.382 248.958 255.104 251.825 253.52 253.505" stroke="#6F3FF5" stroke-miterlimit="10"/>
<path d="M66.3193 160.2C64.9327 161.682 62.6547 164.351 61.268 168.502C60.0795 172.061 59.9805 175.125 59.9805 177.003" stroke="#6F3FF5" stroke-miterlimit="10"/>
<path d="M291.053 128.472L286.993 138.85C284.318 145.472 241.729 134.896 191.712 115.128C141.695 95.3601 103.266 74.0106 105.94 67.3883L110.001 57.01L118.618 60.3706C119.707 66.8941 153.58 84.9819 196.863 102.081C240.145 119.181 277.286 129.065 282.536 125.012L291.053 128.472Z" fill="white" stroke="#6F3FF5" stroke-miterlimit="10"/>
<path d="M245.793 98.2277L245.298 99.4138C269.168 110.879 284.421 120.664 282.935 124.42C282.836 124.717 282.638 124.915 282.341 125.112C277.091 129.066 239.95 119.281 196.668 102.181C153.385 85.0819 119.512 66.994 118.423 60.4706C118.324 60.174 118.423 59.8775 118.522 59.581C120.206 55.3308 143.085 60.0752 173.887 70.5523C173.986 70.1569 174.086 69.7616 174.284 69.3662C138.727 57.2088 111.985 51.7726 109.905 57.0111C107.231 63.6335 145.66 84.983 195.677 104.751C245.694 124.519 288.382 135.095 290.958 128.473C292.938 123.827 274.417 111.868 245.793 98.2277Z" fill="white" stroke="#6F3FF5" stroke-miterlimit="10"/>
<path d="M86.7283 116.611C87.8177 117.501 87.9168 120.269 85.7378 121.059C84.0541 121.553 81.677 120.565 80.4885 119.873C76.9229 118.094 75.5363 112.065 80.4885 112.559" stroke="#6F3FF5" stroke-miterlimit="10"/>
<path d="M80.9804 111.472L79.5938 114.437C81.0794 114.931 80.7823 117.007 80.6832 117.007V117.106C86.1307 119.676 85.3383 119.577 87.7154 114.437" stroke="#6F3FF5" stroke-miterlimit="10"/>
<path d="M80.2858 110.186C80.1868 110.483 80.1868 110.878 80.4839 111.076L80.9791 111.372C81.1772 111.471 81.3753 111.471 81.5734 111.372C81.7715 111.175 82.0686 110.779 82.3657 110.186C82.7619 109.396 82.6629 109 82.6629 108.901C82.6629 108.803 82.5638 108.803 82.5638 108.803L81.9696 108.506C81.5734 108.308 81.0782 108.506 80.9791 108.901L80.2858 110.186Z" stroke="#6F3FF5" stroke-miterlimit="10"/>
<path d="M89.7018 110.286C89.8008 108.903 89.5037 107.321 87.6218 106.531C83.7591 104.85 82.2734 108.606 82.2734 108.606" stroke="#6F3FF5" stroke-miterlimit="10"/>
<path d="M89.2008 113.945L90.2902 111.671C90.4883 111.177 90.2902 110.584 89.795 110.386L85.7342 108.409C85.239 108.212 84.6447 108.409 84.4466 108.904L83.3572 111.177C83.1591 111.671 83.3572 112.264 83.8524 112.462L87.9132 114.439C88.3094 114.636 88.9036 114.439 89.2008 113.945Z" fill="#5BF1CD" stroke="#6F3FF5" stroke-miterlimit="10"/>
<path d="M79.997 134.6L79.6009 136.28C79.6009 136.28 80.2942 140.53 79.6009 142.804C78.9076 144.879 72.9649 146.56 72.5687 146.955C72.2716 146.955 70.885 146.757 69.8945 145.176C70.4888 144.879 72.9649 143.693 74.5496 141.42V141.321L72.8659 134.699" stroke="#6F3FF5" stroke-miterlimit="10"/>
<path d="M74.0518 134.203C74.0518 134.203 73.3585 134.104 72.9623 134.5C72.8632 134.599 72.8632 134.697 72.6652 134.895C72.368 135.488 71.8728 136.575 71.2785 138.157C70.8824 139.145 70.189 140.035 69.3967 140.727L63.8502 142.506C63.5531 142.506 61.7703 142.209 60.8789 140.331L65.534 136.872C65.534 136.872 65.534 136.674 65.633 136.674C65.8311 135.884 66.8216 132.918 68.6043 129.261" stroke="#6F3FF5" stroke-miterlimit="10"/>
<path d="M72.269 146.955L73.1604 150.415C73.2594 150.81 73.1604 151.205 73.0613 151.601C72.9623 151.798 72.9623 151.897 72.7642 152.095C72.5661 152.391 72.1699 152.49 71.7738 152.391C71.0804 152.293 69.8919 151.897 69.4957 150.711C69.0005 149.13 68.5053 147.153 68.4062 146.856L69.5948 145.176" stroke="#6F3FF5" stroke-miterlimit="10"/>
<path d="M69.8936 138.75C69.8936 138.75 69.3983 137.663 68.0117 137.366" stroke="#6F3FF5" stroke-miterlimit="10"/>
<path d="M79.0018 142.902C79.0018 142.902 78.3085 141.914 76.9219 141.815" stroke="#6F3FF5" stroke-miterlimit="10"/>
<path d="M63.7504 142.507L61.4723 146.658L61.3733 146.856C61.3733 146.856 61.2743 146.954 61.1752 147.053C60.8781 147.251 60.3829 147.449 59.5905 147.251C59.4915 147.251 59.4915 147.251 59.3924 147.152C59.0953 147.053 58.6991 146.856 58.402 146.559C58.1049 146.263 57.8077 145.966 57.6096 145.768C57.6096 145.669 57.5106 145.669 57.5106 145.571C57.4115 145.373 57.3125 145.076 57.3125 144.879C57.3125 144.286 57.7087 143.89 57.7087 143.89L60.779 140.629L60.8781 140.53" stroke="#6F3FF5" stroke-miterlimit="10"/>
<path d="M68.6901 129.165C72.2557 131.735 75.7222 133.415 79.9811 134.601C80.2782 134.7 80.5754 134.503 80.6744 134.305C80.8725 133.811 81.0706 133.415 81.3677 132.921C81.5658 132.625 81.3677 132.229 80.9716 132.13C76.9107 131.043 73.5432 129.363 70.0767 126.892C69.7796 126.694 69.3834 126.793 69.1853 127.09C68.9872 127.584 68.7891 127.979 68.492 128.473C68.3929 128.77 68.492 129.066 68.6901 129.165Z" stroke="#6F3FF5" stroke-miterlimit="10"/>
<path d="M78.008 113.151L75.4329 112.657C74.9377 112.558 74.3434 112.657 73.9472 112.953C73.6501 113.151 73.2539 114.04 73.2539 114.04" stroke="#6F3FF5" stroke-miterlimit="10"/>
<path d="M85.539 121.158C85.539 121.158 85.539 124.123 81.082 132.13" stroke="#6F3FF5" stroke-miterlimit="10"/>
<path d="M71.5744 122.147L69.8906 126.792" stroke="#6F3FF5" stroke-miterlimit="10"/>
<path d="M74.8393 114.536C74.8393 114.536 69.689 112.065 64.6378 113.745C64.6378 113.745 62.7559 114.24 61.5674 115.03C61.5674 115.03 61.4684 116.711 63.2511 118.687C63.2511 118.687 65.6282 116.809 68.6986 117.106C71.7689 117.304 73.0565 118.984 73.0565 118.984" stroke="#6F3FF5" stroke-miterlimit="10"/>
<path d="M70.2871 125.607C70.2871 125.607 68.2072 124.322 69.4948 121.653C70.7823 118.984 71.3766 117.798 71.3766 117.798" stroke="#6F3FF5" stroke-miterlimit="10"/>
<path d="M78.3068 127.188C79.6196 127.188 80.6838 126.126 80.6838 124.816C80.6838 123.506 79.6196 122.444 78.3068 122.444C76.9939 122.444 75.9297 123.506 75.9297 124.816C75.9297 126.126 76.9939 127.188 78.3068 127.188Z" fill="#5BF1CD" stroke="#6F3FF5" stroke-miterlimit="10"/>
<path d="M63.0561 118.489L61.5705 119.082C61.5705 119.082 60.0848 117.599 59.8867 116.018L61.3724 115.227" stroke="#6F3FF5" stroke-miterlimit="10"/>
<path d="M59.8829 116.216C59.8829 116.216 57.4068 116.809 56.8125 117.698C56.8125 117.698 56.8125 119.28 58.3972 120.664C58.3972 120.664 60.8733 118.786 61.1704 118.786" stroke="#6F3FF5" stroke-miterlimit="10"/>
<path d="M85.2383 123.234C85.2383 123.234 90.5867 125.309 92.8647 129.461C92.8647 129.461 94.4494 129.461 95.4398 127.385C95.4398 127.385 93.1618 122.542 87.4173 119.577" stroke="#6F3FF5" stroke-miterlimit="10"/>
<path d="M94.6482 125.901C94.6482 125.901 93.8559 127.582 91.875 127.878" stroke="#6F3FF5" stroke-miterlimit="10"/>
<path d="M95.2468 127.681C95.2468 127.681 96.5343 129.263 96.2372 130.745C96.2372 130.745 95.6429 131.932 94.2563 132.327C94.2563 132.327 93.8601 130.152 92.9688 129.559" stroke="#6F3FF5" stroke-miterlimit="10"/>
<path d="M258.96 244.809C257.375 248.96 254.008 252.914 254.008 252.914C248.065 261.019 202.703 251.332 150.606 230.773C99.301 210.511 60.0795 186.987 59.9805 176.806C59.9805 175.62 59.9805 174.335 60.2776 172.853C60.5747 171.074 60.9709 169.492 61.3671 168.207C61.8623 166.824 62.6547 165.242 63.7441 163.463C64.6355 162.178 65.4279 161.19 66.2202 160.3C62.5556 169.69 102.966 194.4 156.647 215.552C210.329 236.704 256.781 246.291 260.446 236.901C260.545 236.605 260.644 236.21 260.644 235.913C260.743 237.989 260.347 241.152 258.96 244.809Z" fill="white" stroke="#6F3FF5" stroke-miterlimit="10"/>
<path d="M230.734 254.493C231.923 253.011 233.31 250.737 234.399 247.871C235.786 244.313 236.182 241.051 236.182 238.975" stroke="#6F3FF5" stroke-miterlimit="10"/>
<path d="M178.84 241.347C180.226 239.766 182.108 237.196 183.495 233.539C184.882 229.981 185.08 228.301 185.179 226.225" stroke="#6F3FF5" stroke-miterlimit="10"/>
<path d="M86.3302 180.857C84.9436 182.34 83.557 184.02 82.1704 188.072C80.9819 191.631 80.8828 194.695 80.8828 196.573" stroke="#6F3FF5" stroke-miterlimit="10"/>
<path d="M131.392 204.876C130.005 206.359 128.618 208.632 127.232 212.685C126.043 216.243 125.845 218.516 125.944 220.493" stroke="#6F3FF5" stroke-miterlimit="10"/>
<path d="M124.661 306.187C124.661 306.187 122.878 340.386 189.733 300.158C247.277 265.564 226.181 294.92 236.383 300.554C249.06 307.472 259.856 245.104 271.147 257.163C285.112 272.186 282.636 235.813 292.045 236.505" stroke="#6F3FF5" stroke-miterlimit="10"/>
<path d="M341.067 235.12V234.923C340.869 233.341 338.393 231.167 337.7 230.475L337.502 230.277L337.601 230.08L335.719 227.51L335.818 227.213L335.719 227.114C334.332 224.841 331.856 222.666 331.856 222.666C327.597 218.713 322.249 217.131 318.485 216.538H318.287V216.341C318.287 215.451 318.188 214.759 317.99 214.463C317.495 213.672 316.702 213.079 315.712 212.782L311.453 211.794L311.354 211.695C310.76 210.707 309.769 209.817 308.284 209.224L308.086 209.125V207.247L309.076 207.149C309.67 206.951 310.166 206.358 310.166 205.666L310.265 203.096C310.265 202.503 309.967 202.009 309.472 201.712L309.373 201.613V201.416C307.788 201.02 308.878 199.142 306.6 196.671C305.312 195.288 304.322 194.793 302.143 194.793C299.469 194.793 297.389 196.078 296.002 197.561C294.219 199.439 294.021 198.253 294.021 198.945V199.044L293.922 199.142C293.328 199.637 292.932 200.329 292.932 201.119V204.579C292.932 205.666 293.625 206.555 294.616 206.951L294.814 207.05V207.247C294.814 208.236 294.715 209.026 294.715 209.817V211.003L294.517 211.102C293.328 211.596 292.239 212.98 291.842 214.463C291.842 214.562 291.842 214.66 291.842 214.66L291.743 214.957H291.545C280.551 215.451 273.618 220.986 273.321 221.184L273.222 221.283V221.382C273.222 221.48 273.222 221.48 273.222 221.579V221.876L273.024 221.975C272.133 222.469 269.954 223.853 269.359 225.928C269.359 225.928 269.458 228.399 271.34 229.981L271.538 230.178L271.637 230.08L273.915 230.771L274.51 229.783L275.797 226.719L275.995 226.818L276.094 226.719C281.641 222.666 287.98 222.271 289.762 222.271H290.06V222.568C289.861 224.05 289.861 225.731 289.961 227.411C290.06 229.19 290.456 230.475 291.05 230.969C291.149 231.068 291.347 231.167 291.446 231.167L291.644 231.266V231.463C291.644 233.737 291.743 236.306 291.842 238.975V239.173L291.644 239.272C291.545 239.371 291.446 239.371 291.347 239.469C291.05 239.667 290.852 240.062 290.852 240.458V243.126C290.852 243.522 291.05 243.917 291.347 244.115L291.446 244.214L290.753 246.882C290.06 247.97 286.395 253.406 285.9 257.063C285.504 260.127 290.159 264.97 292.635 267.54C293.427 268.331 293.823 268.726 293.922 268.924L294.021 269.122L293.922 269.319C292.932 270.505 290.357 273.471 290.258 273.569C289.663 274.162 289.564 274.953 289.465 275.645V275.843L289.366 277.622C289.366 278.314 289.663 278.907 290.258 279.203C290.852 279.5 291.743 279.796 292.932 279.895H293.031C294.418 279.895 295.507 279.5 296.398 278.61C298.874 276.337 300.459 273.668 300.756 273.174V273.075L300.657 271.494H300.459L299.766 268.133L299.865 268.034L299.667 267.837C298.875 266.848 296.101 263.191 295.309 258.743V258.644L302.638 249.946V250.737C302.638 251.923 302.539 253.604 302.44 255.976C302.341 257.854 302.638 259.732 303.431 261.412L310.76 268.331V268.43L311.156 276.93L311.75 279.006C311.849 279.203 312.642 280.488 315.019 280.488C315.514 280.488 316.009 280.389 316.603 280.291C320.466 279.599 320.169 277.325 320.07 277.226L319.872 275.349C319.872 274.953 319.773 274.657 319.773 274.657L317.396 267.145L317.594 266.947L312.84 257.953V257.656C312.939 257.063 313.731 251.627 313.731 244.115V244.016L313.83 243.917C314.127 243.621 314.325 243.324 314.325 242.929V240.26C314.325 239.865 314.127 239.469 313.83 239.272C313.731 239.173 313.731 239.173 313.632 239.173L313.434 239.074L313.632 237.295L313.83 237.196C315.019 236.9 317.792 235.615 317.792 231.463V224.248H318.089C319.476 224.248 320.961 224.643 322.348 225.138C327.003 227.015 329.281 231.364 329.38 231.562L329.479 231.76L329.776 231.661L331.757 233.737L332.45 237.789L335.323 238.283V238.382L335.521 238.283C339.78 237.69 340.968 235.219 341.067 235.12Z" fill="white"/>
<path d="M307.999 209.421C316.021 212.386 309.385 220.689 302.551 220.788C300.174 220.985 295.618 220.788 293.439 218.712C290.567 215.945 292.746 211.694 295.123 211.003" stroke="#6F3FF5" stroke-miterlimit="10"/>
<path d="M295.225 206.854C295.027 216.54 293.739 216.145 304.139 216.145V216.046C304.04 216.046 305.129 212.587 307.803 212.883L307.902 207.249" stroke="#6F3FF5" stroke-miterlimit="10"/>
<path d="M310.077 203.195C310.077 202.503 309.483 201.811 308.789 201.811H307.7C307.7 201.811 307.601 201.811 307.403 201.91C307.205 202.107 306.908 202.602 306.809 204.183C306.809 205.468 307.007 206.259 307.205 206.654C307.403 207.049 307.7 207.247 308.096 207.148L309.087 207.049C309.582 206.852 309.978 206.357 309.978 205.764L310.077 203.195Z" stroke="#6F3FF5" stroke-miterlimit="10"/>
<path d="M309.088 201.811C309.187 200.23 309.583 192.026 301.957 191.927C293.637 191.828 294.331 199.241 294.331 199.241" stroke="#6F3FF5" stroke-miterlimit="10"/>
<path d="M308.097 201.91C308.097 201.91 308.493 194.991 301.263 194.695C297.895 194.596 296.113 196.672 295.32 198.945" stroke="#6F3FF5" stroke-miterlimit="10"/>
<path d="M300.564 211.301C300.366 210.411 298.979 209.917 298.088 210.115C297.593 210.214 297.098 210.51 297.098 211.004C297.098 211.301 297.197 211.696 297.494 211.894C297.791 212.092 298.088 212.19 298.385 212.19C298.88 212.289 299.277 212.19 299.772 212.092C299.97 212.092 300.168 211.993 300.267 211.894C300.366 211.795 300.564 211.499 300.564 211.301Z" stroke="#6F3FF5" stroke-miterlimit="10"/>
<path d="M304.524 204.777V200.923C304.524 199.835 303.633 198.946 302.543 198.946H295.313C294.223 198.946 293.332 199.835 293.332 200.923V204.777C293.332 205.865 294.223 206.754 295.313 206.754H302.543C303.633 206.754 304.524 205.865 304.524 204.777Z" fill="#5BF1CD" stroke="#6F3FF5" stroke-miterlimit="10"/>
<path d="M301.652 206.654V202.8C301.652 202.8 301.553 201.91 300.266 201.91" stroke="#6F3FF5" stroke-miterlimit="10"/>
<path d="M311.462 214.86L307.797 212.883" stroke="#6F3FF5" stroke-miterlimit="10"/>
<path d="M309.481 213.871C309.481 213.871 304.727 216.144 305.421 220.098" stroke="#6F3FF5" stroke-miterlimit="10"/>
<path d="M292.143 244.115L291.449 246.981C291.449 247.08 287.19 253.208 286.596 257.161C286.101 261.016 294.124 268.034 294.52 268.825C294.916 268.923 297.392 269.714 300.066 268.133C299.373 267.243 296.402 263.487 295.609 258.842V258.743V258.644L295.807 258.446L303.434 249.452" stroke="#6F3FF5" stroke-miterlimit="10"/>
<path d="M301.855 247.87C301.955 247.87 303.044 248.167 303.44 249.056C303.44 249.155 303.539 249.452 303.539 249.946C303.539 249.946 303.539 249.946 303.539 250.045C303.539 251.132 303.44 253.208 303.341 256.173C303.242 258.051 303.539 259.929 304.332 261.609L311.661 268.429C312.156 268.627 315.127 269.516 317.901 267.144L313.147 258.249C313.147 258.249 313.146 257.952 313.246 257.853C313.444 256.47 314.137 251.033 314.137 244.016" stroke="#6F3FF5" stroke-miterlimit="10"/>
<path d="M294.819 269.122L290.758 273.866C290.263 274.36 290.164 275.151 290.064 275.843C289.965 276.139 290.064 276.436 290.164 276.831C290.362 277.424 290.857 277.919 291.451 278.017C292.64 278.314 294.72 278.61 296.205 277.029C298.186 274.953 300.464 272.186 300.761 271.79L300.068 268.331" stroke="#6F3FF5" stroke-miterlimit="10"/>
<path d="M300.853 271.396L300.952 273.175C300.952 273.175 299.368 276.041 296.594 278.512C295.604 279.402 294.316 279.698 293.227 279.698C292.137 279.6 291.246 279.303 290.652 279.006C290.156 278.809 289.859 278.315 289.859 277.722L289.958 275.646" stroke="#6F3FF5" stroke-miterlimit="10"/>
<path d="M311.953 276.929L312.25 278.115L312.448 279.004C312.448 279.004 313.439 280.882 317.103 280.19C320.669 279.498 320.372 277.522 320.372 277.423L320.273 276.533L320.174 275.446" stroke="#6F3FF5" stroke-miterlimit="10"/>
<path d="M295.512 258.643L293.828 257.852" stroke="#6F3FF5" stroke-miterlimit="10"/>
<path d="M313.047 258.051L311.66 257.062" stroke="#6F3FF5" stroke-miterlimit="10"/>
<path d="M304.82 257.952C304.919 257.853 306.405 256.667 308.782 257.161" stroke="#6F3FF5" stroke-miterlimit="10"/>
<path d="M287.48 257.655C287.58 257.655 289.164 256.667 291.541 257.457" stroke="#6F3FF5" stroke-miterlimit="10"/>
<path d="M318.682 277.92L317.592 275.844C317.394 275.35 316.899 275.152 316.404 275.251L316.007 275.35C315.512 275.449 315.116 275.943 315.017 276.437L314.918 278.809" stroke="#6F3FF5" stroke-miterlimit="10"/>
<path d="M291.139 277.719C291.337 277.225 291.535 276.73 291.833 276.335C291.932 276.236 291.932 276.137 292.031 276.039L292.13 275.94L292.229 275.841C292.229 275.841 292.229 275.742 292.328 275.742C292.328 275.742 292.328 275.643 292.427 275.643C292.526 275.544 292.526 275.544 292.625 275.446C292.724 275.347 292.724 275.347 292.823 275.347C292.823 275.347 292.823 275.347 292.922 275.248C293.021 275.248 292.823 275.347 292.922 275.248C293.021 275.149 293.12 275.149 293.219 275.05C293.219 275.05 293.318 275.05 293.219 275.05C293.12 275.05 293.219 275.05 293.219 275.05H293.318H293.417C293.516 275.05 293.318 275.05 293.318 275.05C293.318 275.05 293.318 275.05 293.417 275.05C293.516 275.05 293.516 275.05 293.615 275.05C293.714 275.05 293.417 275.05 293.615 275.05H293.714H293.813C293.813 275.05 293.813 275.05 293.912 275.05C294.012 275.05 293.813 275.05 293.912 275.05L294.012 275.149C294.012 275.149 293.912 275.05 294.012 275.149C294.012 275.149 293.912 275.05 294.012 275.149V275.248C294.012 275.347 294.012 275.149 294.012 275.248V275.347C294.012 275.446 294.012 275.347 294.012 275.347V275.446C294.012 275.544 294.012 275.544 294.012 275.643V275.742C294.012 275.841 294.012 275.643 294.012 275.742C294.012 275.94 293.912 276.039 293.912 276.236C293.714 276.928 293.516 277.818 294.012 278.411C294.21 278.608 294.507 278.608 294.705 278.411C294.903 278.213 294.903 277.917 294.705 277.719C294.705 277.818 294.804 277.818 294.705 277.719C294.705 277.62 294.705 277.818 294.705 277.719V277.62C294.705 277.521 294.705 277.719 294.705 277.62C294.705 277.521 294.705 277.521 294.705 277.422V277.323C294.705 277.225 294.705 277.422 294.705 277.323C294.804 277.027 294.804 276.632 294.903 276.335C295.002 275.643 295.2 274.754 294.507 274.358C294.21 274.161 293.813 274.062 293.516 274.062C293.021 274.062 292.526 274.259 292.13 274.655C291.337 275.347 290.842 276.335 290.446 277.225C290.347 277.422 290.347 277.719 290.644 277.917C290.743 278.015 291.04 277.917 291.139 277.719Z" fill="#6F3FF5"/>
<path d="M317.697 267.342V267.539L319.975 274.953C319.975 274.953 320.272 275.842 319.777 276.831C319.579 277.226 319.282 277.522 318.984 277.72C318.885 277.819 318.786 277.819 318.687 277.918C318.192 278.214 317.598 278.412 316.805 278.61C316.013 278.807 315.32 278.906 314.725 278.807C314.626 278.807 314.428 278.807 314.329 278.807C312.943 278.61 312.249 277.918 312.051 277.424C311.952 277.226 311.853 277.028 311.853 277.028V276.732L311.457 268.528" stroke="#6F3FF5" stroke-miterlimit="10"/>
<path d="M313.833 244.116C306.405 245.5 299.67 245.5 292.242 244.116C291.746 244.017 291.449 243.622 291.449 243.128C291.449 242.139 291.449 241.348 291.449 240.459C291.449 239.866 292.043 239.372 292.638 239.47C299.769 240.755 306.306 240.755 313.536 239.47C314.13 239.372 314.725 239.866 314.725 240.459C314.725 241.348 314.725 242.139 314.725 243.128C314.626 243.622 314.328 244.017 313.833 244.116Z" stroke="#6F3FF5" stroke-miterlimit="10"/>
<path d="M294.718 239.668L294.52 244.313" stroke="#6F3FF5" stroke-miterlimit="10"/>
<path d="M299.277 240.359V245.103" stroke="#6F3FF5" stroke-miterlimit="10"/>
<path d="M304.324 240.359V245.103" stroke="#6F3FF5" stroke-miterlimit="10"/>
<path d="M310.176 239.668L310.473 244.313" stroke="#6F3FF5" stroke-miterlimit="10"/>
<path d="M311.363 212.09L315.721 213.177C316.613 213.375 317.405 213.869 317.801 214.66C318.098 215.154 318.098 216.834 318.098 216.834" stroke="#6F3FF5" stroke-miterlimit="10"/>
<path d="M293.533 218.911C293.533 218.911 291.354 223.655 292.245 239.371" stroke="#6F3FF5" stroke-miterlimit="10"/>
<path d="M292.445 224.347C292.445 224.347 299.973 226.818 310.57 225.533" stroke="#6F3FF5" stroke-miterlimit="10"/>
<path d="M292.445 226.918C292.445 226.918 300.765 229.389 311.264 228.104" stroke="#6F3FF5" stroke-miterlimit="10"/>
<path d="M311.457 214.857L312.943 215.45" stroke="#6F3FF5" stroke-miterlimit="10"/>
<path d="M313.637 215.154C313.439 215.154 313.241 215.252 313.042 215.45C312.547 216.043 311.458 217.625 310.863 219.799C309.675 223.753 309.774 229.288 315.618 231.265V228.892C315.618 228.892 311.656 227.212 312.745 221.974C313.439 218.415 314.528 217.13 315.122 216.735C315.42 216.537 315.519 216.142 315.321 215.845C315.023 215.549 314.528 215.154 313.637 215.154Z" stroke="#6F3FF5" stroke-miterlimit="10"/>
<path d="M314.824 224.247V228.299" stroke="#6F3FF5" stroke-miterlimit="10"/>
<path d="M314.628 230.968L313.836 239.369" stroke="#6F3FF5" stroke-miterlimit="10"/>
<path d="M315.22 216.637C315.22 216.637 325.125 216.736 331.761 222.963C331.761 222.963 334.336 225.137 335.623 227.312C335.623 227.312 334.534 229.98 330.275 231.661C330.275 231.661 327.997 227.015 323.045 225.137C318.093 223.16 314.824 224.841 314.824 224.841" stroke="#6F3FF5" stroke-miterlimit="10"/>
<path d="M313.941 237.195C313.941 237.195 318.101 236.602 318.101 231.66C318.101 226.718 318.101 224.247 318.101 224.247" stroke="#6F3FF5" stroke-miterlimit="10"/>
<path d="M292.146 216.934C292.146 216.934 289.868 220.097 290.363 227.51C290.462 231.463 292.047 230.969 292.047 230.969" stroke="#6F3FF5" stroke-miterlimit="10"/>
<path d="M299.574 231.067C301.871 231.067 303.734 229.209 303.734 226.916C303.734 224.623 301.871 222.765 299.574 222.765C297.276 222.765 295.414 224.623 295.414 226.916C295.414 229.209 297.276 231.067 299.574 231.067Z" fill="#5BF1CD" stroke="#6F3FF5" stroke-miterlimit="10"/>
<path d="M330.68 231.662L332.562 233.638C332.562 233.638 335.929 232.452 337.514 230.08L335.731 227.708" stroke="#6F3FF5" stroke-miterlimit="10"/>
<path d="M337.308 230.375C337.308 230.375 340.676 233.143 340.973 234.922C340.973 234.922 339.784 237.294 336.318 238.283C336.318 238.283 333.841 233.44 333.445 233.341" stroke="#6F3FF5" stroke-miterlimit="10"/>
<path d="M336.224 238.383L333.451 237.889L332.758 233.836" stroke="#6F3FF5" stroke-miterlimit="10"/>
<path d="M290.361 222.073C290.361 222.073 282.735 221.777 276 226.62C276 226.62 273.523 225.533 273.523 221.382C273.523 221.382 280.754 215.649 291.946 215.253" stroke="#6F3FF5" stroke-miterlimit="10"/>
<path d="M275.902 219.504C275.902 219.504 276.001 222.766 278.676 224.644" stroke="#6F3FF5" stroke-miterlimit="10"/>
<path d="M273.527 221.975C273.527 221.975 270.357 223.457 269.664 225.928C269.664 225.928 269.763 228.3 271.546 229.783C271.546 229.783 273.824 226.719 275.607 226.422" stroke="#6F3FF5" stroke-miterlimit="10"/>
<path d="M271.641 229.784L273.82 230.475L274.216 229.784L275.602 226.818" stroke="#6F3FF5" stroke-miterlimit="10"/>
<path d="M302.542 78.4596C302.542 78.4596 302.542 78.3608 302.641 78.3608C302.741 78.2619 302.741 78.0642 302.741 77.9654C302.741 77.6689 302.542 77.4712 302.443 77.4712L300.165 75.5932V75.4944L296.996 73.7152L296.897 73.5176C296.798 73.3199 296.006 71.6396 294.619 69.5639L294.52 69.2674L294.223 68.3778C294.223 68.279 294.124 68.1802 294.025 68.1802L293.827 68.0813L293.728 67.4883L294.025 67.1918C294.421 66.8952 294.916 66.2034 294.619 65.0173L293.827 62.5463L294.916 62.9416C296.699 63.6335 297.491 65.3138 297.59 65.4126L297.986 65.3138L298.284 65.7092C298.482 66.1045 298.878 66.7964 299.274 67.4883C300.463 67.1918 300.958 66.401 300.958 66.3022C300.958 65.9068 300.463 65.3138 299.769 64.7207L299.373 64.4242L299.67 63.93C299.274 63.2381 298.581 62.5463 298.383 62.3486C296.798 60.866 294.916 60.2729 293.529 60.0752L293.232 59.9764L293.133 59.6799C293.034 59.3834 292.935 59.2845 292.935 59.1857C292.737 58.988 292.44 58.8891 292.044 58.8891C292.044 58.8891 289.766 58.4938 289.37 58.4938L288.973 58.3949L288.28 55.8251C288.28 55.8251 287.983 54.7378 287.092 54.2436C286.497 53.9471 285.903 53.8483 285.111 54.046C283.922 54.3425 283.625 55.3309 283.526 56.0228V56.3193L283.328 56.4181C283.13 56.517 283.031 56.7147 282.932 56.8135C282.833 57.11 282.734 57.4065 282.833 57.7031L283.031 58.1973C283.13 58.5926 283.526 58.988 284.021 58.988H284.417L284.715 60.1741L284.516 60.5694C284.318 60.7671 284.219 61.0636 284.12 61.459L283.427 62.1509C280.654 64.5231 279.861 67.3894 279.861 67.4883L280.059 67.686L279.861 67.9825C279.762 68.279 279.366 69.1686 279.663 69.8605L279.762 69.9593C279.762 69.9593 280.258 70.5523 281.05 70.6512C281.05 70.6512 281.05 69.8605 281.248 69.3663L280.654 68.7732L281.743 68.5755C282.337 66.7964 283.427 65.5115 284.219 64.7207L285.012 64.0289L285.21 65.1161C285.507 66.4999 286.002 68.279 286.695 70.2558L286.794 70.5523L286.695 70.75C286.695 70.8489 286.596 70.9477 286.695 71.0465L286.993 71.9361C286.993 71.9361 286.993 72.035 287.092 72.035L287.488 72.5292L287.389 72.628L288.28 73.8141L288.577 74.8025C288.577 75.3955 288.577 77.57 289.172 78.7561C289.667 79.7445 292.044 80.2387 293.232 80.5352H293.628L293.529 81.0294C293.43 81.6225 293.331 82.6109 293.331 82.7097C293.232 83.0063 293.43 83.3028 293.529 83.5005C293.529 83.5993 293.628 83.6981 293.728 83.797C293.926 83.8958 294.124 83.9947 294.322 83.8958C294.817 83.6981 295.411 83.4016 295.51 82.6109C295.708 81.6225 295.807 80.4364 295.807 80.1399L294.916 79.2503C294.421 79.0526 293.034 78.5584 291.846 77.4712L291.648 77.2735L292.143 72.8257L293.43 75.0002C293.728 75.5932 294.223 75.9886 294.718 76.3839L298.383 77.0758L300.264 79.6457C300.264 79.6457 300.264 79.6457 300.363 79.6457C300.562 79.7445 300.958 79.8434 301.354 79.6457C301.354 79.6457 301.453 79.6457 301.453 79.5468C301.651 79.448 301.849 79.2503 302.047 79.0526C302.344 78.855 302.443 78.6573 302.542 78.4596Z" fill="white"/>
<path d="M257.581 68.3776C255.006 74.8022 236.881 73.5173 217.171 65.5112C197.462 57.5051 183.496 45.8419 186.072 39.5161" stroke="#6F3FF5" stroke-miterlimit="10"/>
<path d="M261.244 57.3074C261.541 58.197 261.442 59.1854 261.145 59.8773C258.867 65.7089 240.94 64.1274 221.23 56.4179C201.52 48.6094 187.357 37.5393 189.635 31.7077C189.932 30.917 190.526 30.3239 191.319 29.7309C191.418 29.6321 191.418 29.6321 191.517 29.6321C191.616 29.6321 191.616 29.5332 191.715 29.5332C191.814 29.5332 191.814 29.4344 191.913 29.4344C191.913 29.4344 191.913 29.4344 192.012 29.3355L233.214 2.94509L235.69 1.36364C236.582 0.67176 239.454 1.06712 242.525 2.25321C245.694 3.53814 248.071 5.21843 248.17 6.30567C248.17 6.40451 249.26 10.6547 249.26 10.6547C249.359 10.6547 261.244 57.2086 261.244 57.3074Z" fill="#5BF1CD" stroke="#6F3FF5" stroke-miterlimit="10"/>
<path d="M240.94 6.0089C244.406 7.39267 247.576 7.68919 247.972 6.60195C248.368 5.5147 245.892 3.53789 242.425 2.25296C238.959 0.869194 235.789 0.572673 235.393 1.65992C234.898 2.64832 237.473 4.62514 240.94 6.0089Z" fill="#5BF1CD" stroke="#6F3FF5" stroke-miterlimit="10"/>
</svg>
