<svg width="59" height="11" viewBox="0 0 59 11" fill="none" xmlns="http://www.w3.org/2000/svg">
<path d="M5.35198 4.93601H10.02C10.02 5.41601 9.99998 5.85201 9.95998 6.24401C9.91998 6.63601 9.83998 7.00001 9.71998 7.33601C9.55198 7.80801 9.32398 8.22801 9.03598 8.59601C8.74798 8.95601 8.40798 9.26001 8.01598 9.50801C7.63198 9.74801 7.20798 9.93201 6.74398 10.06C6.27998 10.188 5.79198 10.252 5.27998 10.252C4.57598 10.252 3.93198 10.136 3.34798 9.90401C2.77198 9.67201 2.27598 9.34801 1.85998 8.93201C1.44398 8.50801 1.11998 8.00401 0.887978 7.42001C0.655978 6.82801 0.539978 6.17601 0.539978 5.46401C0.539978 4.76001 0.651978 4.11601 0.875978 3.53201C1.10798 2.94001 1.43198 2.43601 1.84798 2.02001C2.27198 1.60401 2.77998 1.28001 3.37198 1.04801C3.96398 0.816012 4.62398 0.700012 5.35198 0.700012C6.29598 0.700012 7.12398 0.904012 7.83598 1.31201C8.54798 1.72001 9.11198 2.35201 9.52798 3.20801L7.29598 4.13201C7.08798 3.63601 6.81598 3.28001 6.47998 3.06401C6.15198 2.84801 5.77598 2.74001 5.35198 2.74001C4.99998 2.74001 4.67998 2.80801 4.39198 2.94401C4.10398 3.07201 3.85598 3.26001 3.64798 3.50801C3.44798 3.74801 3.28798 4.04001 3.16798 4.38401C3.05598 4.72801 2.99998 5.11201 2.99998 5.53601C2.99998 5.92001 3.04798 6.27601 3.14398 6.60401C3.24798 6.93201 3.39998 7.21601 3.59998 7.45601C3.79998 7.69601 4.04798 7.88401 4.34398 8.02001C4.63998 8.14801 4.98398 8.21201 5.37598 8.21201C5.60798 8.21201 5.83198 8.18801 6.04798 8.14001C6.26398 8.08401 6.45598 8.00001 6.62398 7.88801C6.79998 7.76801 6.94398 7.61601 7.05598 7.43201C7.16798 7.24801 7.24398 7.02401 7.28398 6.76001H5.35198V4.93601Z" fill="#A7A2B6"/>
<path d="M14.5786 0.952013V10H12.2266V0.952013H14.5786Z" fill="#A7A2B6"/>
<path d="M20.6208 2.94401V10H18.2688V2.94401H16.3368V0.952013H22.5528V2.94401H20.6208Z" fill="#A7A2B6"/>
<path d="M30.7529 3.97601C30.2089 3.31201 29.5369 2.98001 28.7369 2.98001C28.3849 2.98001 28.0569 3.04401 27.7529 3.17201C27.4569 3.30001 27.2009 3.47601 26.9849 3.70001C26.7689 3.91601 26.5969 4.17601 26.4689 4.48001C26.3489 4.78401 26.2889 5.11201 26.2889 5.46401C26.2889 5.82401 26.3489 6.15601 26.4689 6.46001C26.5969 6.76401 26.7689 7.02801 26.9849 7.25201C27.2089 7.47601 27.4689 7.65201 27.7649 7.78001C28.0609 7.90801 28.3809 7.97201 28.7249 7.97201C29.4769 7.97201 30.1529 7.65201 30.7529 7.01201V9.79601L30.5129 9.88001C30.1529 10.008 29.8169 10.1 29.5049 10.156C29.1929 10.22 28.8849 10.252 28.5809 10.252C27.9569 10.252 27.3569 10.136 26.7809 9.90401C26.2129 9.66401 25.7089 9.33201 25.2689 8.90801C24.8369 8.47601 24.4889 7.96801 24.2249 7.38401C23.9609 6.79201 23.8289 6.14801 23.8289 5.45201C23.8289 4.75601 23.9569 4.12001 24.2129 3.54401C24.4769 2.96001 24.8249 2.46001 25.2569 2.04401C25.6969 1.62001 26.2049 1.29201 26.7809 1.06001C27.3569 0.820012 27.9609 0.700012 28.5929 0.700012C28.9529 0.700012 29.3049 0.740012 29.6489 0.820012C30.0009 0.892012 30.3689 1.00801 30.7529 1.16801V3.97601Z" fill="#A7A2B6"/>
<path d="M35.1417 5.47601C35.1417 5.83601 35.2097 6.16801 35.3457 6.47201C35.4817 6.77601 35.6657 7.04001 35.8977 7.26401C36.1297 7.48801 36.3977 7.66401 36.7017 7.79201C37.0137 7.91201 37.3417 7.97201 37.6857 7.97201C38.0297 7.97201 38.3537 7.91201 38.6577 7.79201C38.9697 7.66401 39.2417 7.48801 39.4737 7.26401C39.7137 7.04001 39.9017 6.77601 40.0377 6.47201C40.1737 6.16801 40.2417 5.83601 40.2417 5.47601C40.2417 5.11601 40.1737 4.78401 40.0377 4.48001C39.9017 4.17601 39.7137 3.91201 39.4737 3.68801C39.2417 3.46401 38.9697 3.29201 38.6577 3.17201C38.3537 3.04401 38.0297 2.98001 37.6857 2.98001C37.3417 2.98001 37.0137 3.04401 36.7017 3.17201C36.3977 3.29201 36.1297 3.46401 35.8977 3.68801C35.6657 3.91201 35.4817 4.17601 35.3457 4.48001C35.2097 4.78401 35.1417 5.11601 35.1417 5.47601ZM32.6817 5.47601C32.6817 4.80401 32.8057 4.18001 33.0537 3.60401C33.3017 3.02001 33.6457 2.51201 34.0857 2.08001C34.5257 1.64801 35.0497 1.31201 35.6577 1.07201C36.2737 0.824012 36.9497 0.700012 37.6857 0.700012C38.4137 0.700012 39.0857 0.824012 39.7017 1.07201C40.3177 1.31201 40.8457 1.64801 41.2857 2.08001C41.7337 2.51201 42.0817 3.02001 42.3297 3.60401C42.5777 4.18001 42.7017 4.80401 42.7017 5.47601C42.7017 6.14801 42.5777 6.77601 42.3297 7.36001C42.0817 7.93601 41.7337 8.44001 41.2857 8.87201C40.8457 9.30401 40.3177 9.64401 39.7017 9.89201C39.0857 10.132 38.4137 10.252 37.6857 10.252C36.9497 10.252 36.2737 10.132 35.6577 9.89201C35.0497 9.64401 34.5257 9.30401 34.0857 8.87201C33.6457 8.44001 33.3017 7.93601 33.0537 7.36001C32.8057 6.77601 32.6817 6.14801 32.6817 5.47601Z" fill="#A7A2B6"/>
<path d="M47.2593 0.952013V10H44.9074V0.952013H47.2593Z" fill="#A7A2B6"/>
<path d="M49.8695 10V0.952013H52.2215L56.5655 6.48401V0.952013H58.9055V10H56.5655L52.2215 4.46801V10H49.8695Z" fill="#A7A2B6"/>
</svg>
