<svg width="104" height="32" viewBox="0 0 104 32" fill="none" xmlns="http://www.w3.org/2000/svg">
<g clip-path="url(#clip0_2655_46893)">
<path d="M99.3104 0.551727H4.4138C2.28083 0.551727 0.551727 2.28083 0.551727 4.4138V27.5862C0.551727 29.7192 2.28083 31.4483 4.4138 31.4483H99.3104C101.443 31.4483 103.172 29.7192 103.172 27.5862V4.4138C103.172 2.28083 101.443 0.551727 99.3104 0.551727Z" fill="white"/>
<path d="M27.4019 20.8099C27.4019 20.1346 27.5575 19.5288 27.8687 18.9926C28.1865 18.4563 28.6135 18.0392 29.1498 17.7413C29.6927 17.4367 30.2852 17.2844 30.9274 17.2844C31.6623 17.2844 32.3145 17.4665 32.8839 17.8306C33.4599 18.1881 33.877 18.6979 34.1352 19.36H32.7746C32.5959 18.9959 32.3476 18.7244 32.0298 18.5457C31.712 18.3669 31.3446 18.2775 30.9274 18.2775C30.4706 18.2775 30.0634 18.3801 29.7059 18.5854C29.3484 18.7906 29.067 19.0853 28.8618 19.4693C28.6632 19.8533 28.5639 20.3001 28.5639 20.8099C28.5639 21.3197 28.6632 21.7666 28.8618 22.1506C29.067 22.5346 29.3484 22.8326 29.7059 23.0444C30.0634 23.2497 30.4706 23.3523 30.9274 23.3523C31.3446 23.3523 31.712 23.2629 32.0298 23.0841C32.3476 22.9054 32.5959 22.6339 32.7746 22.2698H34.1352C33.877 22.9319 33.4599 23.4417 32.8839 23.7992C32.3145 24.1567 31.6623 24.3355 30.9274 24.3355C30.2786 24.3355 29.6861 24.1865 29.1498 23.8886C28.6135 23.584 28.1865 23.1636 27.8687 22.6273C27.5575 22.091 27.4019 21.4853 27.4019 20.8099ZM39.6513 24.3454C39.009 24.3454 38.4165 24.1964 37.8736 23.8985C37.3373 23.5939 36.9103 23.1735 36.5925 22.6373C36.2813 22.0944 36.1257 21.4853 36.1257 20.8099C36.1257 20.1346 36.2813 19.5288 36.5925 18.9926C36.9103 18.4563 37.3373 18.0392 37.8736 17.7413C38.4165 17.4367 39.009 17.2844 39.6513 17.2844C40.3001 17.2844 40.8926 17.4367 41.4289 17.7413C41.9718 18.0392 42.3988 18.4563 42.71 18.9926C43.0212 19.5288 43.1768 20.1346 43.1768 20.8099C43.1768 21.4853 43.0212 22.0944 42.71 22.6373C42.3988 23.1735 41.9718 23.5939 41.4289 23.8985C40.8926 24.1964 40.3001 24.3454 39.6513 24.3454ZM39.6513 23.3622C40.1081 23.3622 40.5153 23.2596 40.8728 23.0544C41.2303 22.8425 41.5084 22.5446 41.707 22.1606C41.9122 21.7699 42.0148 21.3197 42.0148 20.8099C42.0148 20.3001 41.9122 19.8533 41.707 19.4693C41.5084 19.0853 41.2303 18.7906 40.8728 18.5854C40.5153 18.3801 40.1081 18.2775 39.6513 18.2775C39.1944 18.2775 38.7873 18.3801 38.4297 18.5854C38.0722 18.7906 37.7908 19.0853 37.5856 19.4693C37.387 19.8533 37.2877 20.3001 37.2877 20.8099C37.2877 21.3197 37.387 21.7699 37.5856 22.1606C37.7908 22.5446 38.0722 22.8425 38.4297 23.0544C38.7873 23.2596 39.1944 23.3622 39.6513 23.3622ZM52.6031 17.3738V24.2759H51.471V19.5487L49.3656 24.2759H48.581L46.4657 19.5487V24.2759H45.3336V17.3738H46.5551L48.9783 22.7862L51.3915 17.3738H52.6031ZM62.4033 17.3738V24.2759H61.2712V19.5487L59.1658 24.2759H58.3812L56.2659 19.5487V24.2759H55.1339V17.3738H56.3553L58.7785 22.7862L61.1917 17.3738H62.4033ZM66.0563 17.3738V21.7733C66.0563 22.2963 66.192 22.6902 66.4634 22.955C66.7415 23.2199 67.1255 23.3523 67.6154 23.3523C68.112 23.3523 68.496 23.2199 68.7674 22.955C69.0455 22.6902 69.1846 22.2963 69.1846 21.7733V17.3738H70.3167V21.7534C70.3167 22.3162 70.1942 22.7928 69.9492 23.1835C69.7043 23.5741 69.3766 23.8654 68.9661 24.0574C68.5556 24.2494 68.1021 24.3454 67.6055 24.3454C67.109 24.3454 66.6554 24.2494 66.245 24.0574C65.8411 23.8654 65.52 23.5741 65.2817 23.1835C65.0433 22.7928 64.9241 22.3162 64.9241 21.7534V17.3738H66.0563ZM78.5043 24.2759H77.3721L73.9658 19.1217V24.2759H72.8337V17.3639H73.9658L77.3721 22.5082V17.3639H78.5043V24.2759ZM82.1661 17.3738V24.2759H81.0339V17.3738H82.1661ZM89.1542 17.3738V18.2974H87.317V24.2759H86.1848V18.2974H84.3377V17.3738H89.1542ZM96.4579 17.3738L94.1738 21.7733V24.2759H93.0417V21.7733L90.7476 17.3738H92.0088L93.6077 20.7603L95.2066 17.3738H96.4579Z" fill="#757087"/>
<path d="M29.8549 10.8645C30.0226 10.891 30.1749 10.9594 30.3117 11.0698C30.453 11.1801 30.5633 11.317 30.6428 11.4803C30.7266 11.6436 30.7686 11.8179 30.7686 12.0033C30.7686 12.2372 30.709 12.4491 30.5898 12.6389C30.4706 12.8243 30.2963 12.9721 30.0668 13.0825C29.8417 13.1884 29.5746 13.2414 29.2657 13.2414H27.5443V8.62676H29.1995C29.5128 8.62676 29.7799 8.67972 30.0006 8.78565C30.2212 8.88717 30.3868 9.0262 30.4971 9.20276C30.6075 9.37931 30.6626 9.57793 30.6626 9.79862C30.6626 10.0723 30.5876 10.2996 30.4375 10.4805C30.2919 10.6571 30.0977 10.7851 29.8549 10.8645ZM28.1468 10.6196H29.1597C29.4422 10.6196 29.6607 10.5534 29.8152 10.421C29.9697 10.2885 30.0469 10.1054 30.0469 9.87145C30.0469 9.63751 29.9697 9.45434 29.8152 9.32193C29.6607 9.18951 29.4378 9.12331 29.1465 9.12331H28.1468V10.6196ZM29.2127 12.7448C29.5128 12.7448 29.7468 12.6742 29.9145 12.533C30.0822 12.3917 30.1661 12.1953 30.1661 11.9437C30.1661 11.6877 30.0778 11.4869 29.9012 11.3412C29.7247 11.1912 29.4886 11.1161 29.1928 11.1161H28.1468V12.7448H29.2127ZM32.227 8.62676V11.5465C32.227 11.957 32.3263 12.2615 32.5249 12.4601C32.728 12.6588 33.0082 12.7581 33.3657 12.7581C33.7188 12.7581 33.9947 12.6588 34.1933 12.4601C34.3964 12.2615 34.4979 11.957 34.4979 11.5465V8.62676H35.1004V11.5399C35.1004 11.9239 35.0231 12.2483 34.8686 12.5131C34.7142 12.7735 34.5045 12.9677 34.2397 13.0957C33.9793 13.2237 33.6857 13.2877 33.3591 13.2877C33.0325 13.2877 32.7368 13.2237 32.472 13.0957C32.2115 12.9677 32.0041 12.7735 31.8496 12.5131C31.6995 12.2483 31.6245 11.9239 31.6245 11.5399V8.62676H32.227ZM36.741 8.62676V13.2414H36.1385V8.62676H36.741ZM38.602 12.7514H40.2175V13.2414H37.9996V8.62676H38.602V12.7514ZM43.9293 8.62676V9.11669H42.6713V13.2414H42.0689V9.11669H40.8043V8.62676H43.9293ZM48.8129 10.8645C48.9806 10.891 49.1329 10.9594 49.2697 11.0698C49.4109 11.1801 49.5213 11.317 49.6007 11.4803C49.6846 11.6436 49.7265 11.8179 49.7265 12.0033C49.7265 12.2372 49.6669 12.4491 49.5478 12.6389C49.4286 12.8243 49.2542 12.9721 49.0247 13.0825C48.7996 13.1884 48.5326 13.2414 48.2236 13.2414H46.5022V8.62676H48.1574C48.4708 8.62676 48.7378 8.67972 48.9585 8.78565C49.1792 8.88717 49.3447 9.0262 49.4551 9.20276C49.5654 9.37931 49.6206 9.57793 49.6206 9.79862C49.6206 10.0723 49.5455 10.2996 49.3955 10.4805C49.2498 10.6571 49.0556 10.7851 48.8129 10.8645ZM47.1047 10.6196H48.1177C48.4002 10.6196 48.6187 10.5534 48.7731 10.421C48.9276 10.2885 49.0049 10.1054 49.0049 9.87145C49.0049 9.63751 48.9276 9.45434 48.7731 9.32193C48.6187 9.18951 48.3958 9.12331 48.1044 9.12331H47.1047V10.6196ZM48.1707 12.7448C48.4708 12.7448 48.7047 12.6742 48.8724 12.533C49.0402 12.3917 49.124 12.1953 49.124 11.9437C49.124 11.6877 49.0358 11.4869 48.8592 11.3412C48.6827 11.1912 48.4465 11.1161 48.1508 11.1161H47.1047V12.7448H48.1707ZM53.7603 8.62676L52.2574 11.5001V13.2414H51.655V11.5001L50.1454 8.62676H50.8141L51.9529 10.9639L53.0916 8.62676H53.7603ZM58.8028 8.62676V9.11669H57.5448V13.2414H56.9424V9.11669H55.6778V8.62676H58.8028ZM63.0665 8.62676V13.2414H62.464V11.1492H60.1137V13.2414H59.5112V8.62676H60.1137V10.6527H62.464V8.62676H63.0665ZM64.6643 9.11669V10.6593H66.3459V11.1559H64.6643V12.7448H66.5446V13.2414H64.0618V8.62013H66.5446V9.11669H64.6643ZM72.5186 9.96413C72.3906 9.69489 72.2053 9.48744 71.9625 9.34179C71.7197 9.19172 71.4372 9.11669 71.115 9.11669C70.7928 9.11669 70.5015 9.19172 70.2411 9.34179C69.9851 9.48744 69.7821 9.69931 69.632 9.97738C69.4863 10.251 69.4135 10.5688 69.4135 10.9308C69.4135 11.2927 69.4863 11.6105 69.632 11.8841C69.7821 12.1578 69.9851 12.3697 70.2411 12.5197C70.5015 12.6654 70.7928 12.7382 71.115 12.7382C71.5652 12.7382 71.936 12.6036 72.2273 12.3343C72.5186 12.0651 72.6886 11.701 72.7371 11.2419H70.8966V10.752H73.3793V11.2154C73.344 11.595 73.2248 11.9437 73.0218 12.2615C72.8188 12.5749 72.5517 12.8243 72.2207 13.0097C71.8897 13.1906 71.5211 13.2811 71.115 13.2811C70.6869 13.2811 70.2963 13.1818 69.9432 12.9832C69.5901 12.7801 69.3098 12.4999 69.1024 12.1423C68.8993 11.7848 68.7978 11.381 68.7978 10.9308C68.7978 10.4805 68.8993 10.0767 69.1024 9.71917C69.3098 9.35724 69.5901 9.07696 69.9432 8.87834C70.2963 8.67531 70.6869 8.57379 71.115 8.57379C71.605 8.57379 72.0375 8.69517 72.4127 8.93793C72.7923 9.18069 73.0681 9.52276 73.2403 9.96413H72.5186ZM75.0764 8.62676V13.2414H74.4739V8.62676H75.0764ZM79.2414 8.62676V9.11669H77.9835V13.2414H77.381V9.11669H76.1164V8.62676H79.2414ZM79.7909 10.9308C79.7909 10.4805 79.8924 10.0767 80.0955 9.71917C80.2985 9.35724 80.5744 9.07476 80.923 8.87172C81.2761 8.66869 81.6668 8.56717 82.0949 8.56717C82.5981 8.56717 83.0372 8.68855 83.4124 8.93131C83.7876 9.17407 84.0613 9.51834 84.2334 9.96413H83.5117C83.3837 9.68607 83.1983 9.472 82.9556 9.32193C82.7172 9.17186 82.4304 9.09682 82.0949 9.09682C81.7727 9.09682 81.4836 9.17186 81.2276 9.32193C80.9716 9.472 80.7708 9.68607 80.6251 9.96413C80.4795 10.2378 80.4066 10.56 80.4066 10.9308C80.4066 11.2971 80.4795 11.6193 80.6251 11.8974C80.7708 12.171 80.9716 12.3829 81.2276 12.533C81.4836 12.683 81.7727 12.7581 82.0949 12.7581C82.4304 12.7581 82.7172 12.6852 82.9556 12.5396C83.1983 12.3895 83.3837 12.1754 83.5117 11.8974H84.2334C84.0613 12.3388 83.7876 12.6808 83.4124 12.9236C83.0372 13.1619 82.5981 13.2811 82.0949 13.2811C81.6668 13.2811 81.2761 13.1818 80.923 12.9832C80.5744 12.7801 80.2985 12.4999 80.0955 12.1423C79.8924 11.7848 79.7909 11.381 79.7909 10.9308ZM87.2557 13.2877C86.8276 13.2877 86.437 13.1884 86.0839 12.9898C85.7308 12.7868 85.4505 12.5065 85.243 12.149C85.04 11.787 84.9385 11.381 84.9385 10.9308C84.9385 10.4805 85.04 10.0767 85.243 9.71917C85.4505 9.35724 85.7308 9.07696 86.0839 8.87834C86.437 8.67531 86.8276 8.57379 87.2557 8.57379C87.6883 8.57379 88.0811 8.67531 88.4342 8.87834C88.7873 9.07696 89.0654 9.35503 89.2684 9.71255C89.4715 10.0701 89.573 10.4761 89.573 10.9308C89.573 11.3854 89.4715 11.7914 89.2684 12.149C89.0654 12.5065 88.7873 12.7868 88.4342 12.9898C88.0811 13.1884 87.6883 13.2877 87.2557 13.2877ZM87.2557 12.7647C87.5779 12.7647 87.867 12.6897 88.123 12.5396C88.3835 12.3895 88.5865 12.1754 88.7321 11.8974C88.8822 11.6193 88.9572 11.2971 88.9572 10.9308C88.9572 10.56 88.8822 10.2378 88.7321 9.96413C88.5865 9.68607 88.3857 9.472 88.1297 9.32193C87.8737 9.17186 87.5824 9.09682 87.2557 9.09682C86.9291 9.09682 86.6378 9.17186 86.3818 9.32193C86.1258 9.472 85.9228 9.68607 85.7727 9.96413C85.627 10.2378 85.5542 10.56 85.5542 10.9308C85.5542 11.2971 85.627 11.6193 85.7727 11.8974C85.9228 12.1754 86.1258 12.3895 86.3818 12.5396C86.6422 12.6897 86.9335 12.7647 87.2557 12.7647ZM91.2022 8.62676V13.2414H90.5997V8.62676H91.2022ZM96.0888 13.2414H95.4864L93.0632 9.56689V13.2414H92.4607V8.62013H93.0632L95.4864 12.288V8.62013H96.0888V13.2414Z" fill="#757087"/>
<path fill-rule="evenodd" clip-rule="evenodd" d="M20.091 19.9051C20.4725 20.2095 20.7992 20.4716 21.0004 20.6361C21.07 20.6931 21.1258 20.7645 21.1641 20.8453C21.2024 20.9261 21.2221 21.0143 21.2218 21.1036L21.2156 23.8519C21.1976 23.9577 21.1423 24.0537 21.0595 24.123C20.9767 24.1923 20.8718 24.2303 20.7633 24.2303H14.816C10.3609 24.2303 6.64827 20.6256 6.68341 16.2202C6.70631 13.3851 8.231 10.9042 10.5097 9.51613V6.82576C10.5097 6.72215 10.5312 6.61963 10.573 6.52457C10.6147 6.42951 10.6756 6.34394 10.7522 6.2731C10.8287 6.20231 10.9191 6.1478 11.0178 6.11299C11.1165 6.07817 11.2213 6.06372 11.3258 6.07061C11.7326 6.09671 12.0401 6.4486 12.0401 6.85158V8.79277C12.6581 8.5766 13.3006 8.43646 13.9532 8.3755V6.82576C13.9532 6.72215 13.9747 6.61958 14.0164 6.52457C14.0581 6.42951 14.1191 6.34388 14.1956 6.2731C14.2722 6.20231 14.3626 6.1478 14.4612 6.11299C14.5599 6.07817 14.6648 6.06377 14.7694 6.07061C15.1761 6.09671 15.4836 6.4486 15.4836 6.85158V8.37478C17.4202 8.55586 19.1571 9.41632 20.4464 10.7129C20.6878 10.9556 20.9134 11.2133 21.1216 11.4845C21.2815 11.6927 21.2455 11.8533 21.0255 11.9983L20.1343 12.7138C20.8435 13.7726 21.222 15.0146 21.2224 16.2849C21.225 17.5776 20.8302 18.8401 20.091 19.9051ZM18.9144 18.9696C19.4354 18.1694 19.7128 17.2374 19.7128 16.2849C19.7128 15.3107 19.4144 14.3858 18.9219 13.6208L17.0658 15.0092C17.2794 15.3937 17.3931 15.8247 17.3966 16.2634C17.4 16.7022 17.2932 17.1349 17.0857 17.5228L17.1453 17.5698C17.4057 17.7755 18.14 18.3555 18.9144 18.9696ZM19.692 22.7168L19.7001 21.606L15.9252 18.6487C15.5511 18.8361 15.1375 18.9336 14.7181 18.9333C13.2389 18.9333 12.0398 17.7476 12.0398 16.2848C12.0398 14.822 13.2389 13.6362 14.7181 13.6362C15.131 13.6358 15.5385 13.7302 15.9082 13.9121L19.0323 11.482C17.8709 10.4139 16.4292 9.85257 14.7181 9.85257C13.7943 9.85191 12.8812 10.0466 12.0398 10.4235V12.8795C12.0398 12.9831 12.0182 13.0856 11.9765 13.1807C11.9348 13.2757 11.8738 13.3613 11.7973 13.4321C11.7208 13.5029 11.6304 13.5574 11.5317 13.5922C11.433 13.6271 11.3282 13.6415 11.2237 13.6346C10.8169 13.6085 10.5094 13.2567 10.5094 12.8536V11.3825C9.1131 12.5558 8.22339 14.3008 8.21379 16.2525C8.19608 19.8077 11.203 22.7168 14.7984 22.7168H19.692ZM15.6725 16.9154C15.7986 16.7288 15.866 16.5093 15.866 16.2848C15.866 15.9837 15.745 15.695 15.5298 15.4821C15.3145 15.2692 15.0225 15.1496 14.7181 15.1496C14.491 15.1496 14.2691 15.2162 14.0803 15.3409C13.8915 15.4656 13.7444 15.643 13.6575 15.8504C13.5706 16.0578 13.5479 16.2861 13.5922 16.5063C13.6365 16.7264 13.7458 16.9287 13.9063 17.0874C14.0669 17.2462 14.2714 17.3543 14.4941 17.3981C14.7167 17.4419 14.9476 17.4195 15.1573 17.3335C15.3671 17.2476 15.5464 17.1021 15.6725 16.9154Z" fill="#757087"/>
<path d="M4.4138 1.05173H99.3104C101.167 1.05173 102.672 2.55698 102.672 4.4138V27.5862C102.672 29.443 101.167 30.9483 99.3104 30.9483H4.4138C2.55698 30.9483 1.05173 29.443 1.05173 27.5862V4.4138C1.05173 2.55698 2.55698 1.05173 4.4138 1.05173Z" stroke="#757087"/>
</g>
<defs>
<clipPath id="clip0_2655_46893">
<rect width="103.724" height="32" fill="white"/>
</clipPath>
</defs>
</svg>
