<svg width="320" height="197" viewBox="0 0 320 197" fill="none" xmlns="http://www.w3.org/2000/svg">
<path opacity="0.4" d="M296.192 1L189.348 112.2" stroke="#5932C4" stroke-width="2" stroke-miterlimit="10" stroke-linecap="round"/>
<path d="M232.084 189.579L250.937 169.96" stroke="#02E2AC" stroke-width="2" stroke-linecap="round" stroke-linejoin="round"/>
<path d="M47.1086 54.431L23.8125 78.5861" stroke="#F3587D" stroke-width="2" stroke-linecap="round" stroke-linejoin="round"/>
<path d="M107.142 112.547C108.083 113.526 109.2 114.303 110.43 114.833C111.659 115.363 112.977 115.636 114.308 115.636C115.639 115.636 116.957 115.363 118.187 114.833C119.416 114.303 120.533 113.526 121.475 112.547C122.416 111.567 123.162 110.404 123.672 109.125C124.181 107.845 124.443 106.473 124.443 105.088C124.443 103.703 124.181 102.332 123.672 101.052C123.162 99.7722 122.416 98.6095 121.475 97.63" stroke="#02E2AC" stroke-width="2" stroke-linecap="round" stroke-linejoin="round"/>
<path d="M123.721 109.015C127.513 112.32 129.698 115.487 128.84 116.804C127.741 118.496 122.034 116.479 116.09 112.296C110.147 108.113 106.222 103.348 107.322 101.656" stroke="#02E2AC" stroke-width="2" stroke-linecap="round" stroke-linejoin="round"/>
<path d="M100.347 19.3498L96.46 23.3956L100.347 27.4413L104.235 23.3955L100.347 19.3498Z" fill="#02E2AC"/>
<path d="M94.2667 27.732L92.3853 29.69L94.2667 31.648L96.1481 29.69L94.2667 27.732Z" fill="#02E2AC"/>
<path d="M212.118 147.195L210.237 149.153L212.118 151.111L214 149.153L212.118 147.195Z" fill="#02E2AC"/>
<path d="M179.628 39.6857L176.21 43.2419L179.628 46.7981L183.045 43.2419L179.628 39.6857Z" fill="#F3587D"/>
<path d="M282.422 185.391C282.972 185.391 283.417 184.928 283.417 184.356C283.417 183.784 282.972 183.32 282.422 183.32C281.873 183.32 281.427 183.784 281.427 184.356C281.427 184.928 281.873 185.391 282.422 185.391Z" fill="#F3587D"/>
<path d="M319.143 89.1914C319.692 89.1914 320.138 88.7278 320.138 88.156C320.138 87.5841 319.692 87.1205 319.143 87.1205C318.593 87.1205 318.148 87.5841 318.148 88.156C318.148 88.7278 318.593 89.1914 319.143 89.1914Z" fill="#F3587D"/>
<path d="M231.249 142.691C231.798 142.691 232.244 142.227 232.244 141.655C232.244 141.084 231.798 140.62 231.249 140.62C230.699 140.62 230.254 141.084 230.254 141.655C230.254 142.227 230.699 142.691 231.249 142.691Z" fill="#F3587D"/>
<path d="M274.373 101.481H220.647C219.689 101.482 218.74 101.286 217.854 100.905C216.968 100.523 216.164 99.9644 215.486 99.2594C214.808 98.5544 214.27 97.7173 213.903 96.7959C213.536 95.8746 213.347 94.8869 213.347 93.8896C213.347 91.8747 214.116 89.9423 215.485 88.5176C216.854 87.0928 218.711 86.2924 220.647 86.2924H299.235C301.171 86.2924 303.028 85.492 304.397 84.0673C305.766 82.6426 306.535 80.7102 306.535 78.6953V78.6953C306.529 76.6845 305.757 74.7583 304.389 73.3386C303.02 71.919 301.167 71.1219 299.235 71.1219H257.414" stroke="#02E2AC" stroke-width="2" stroke-linecap="round" stroke-linejoin="round"/>
<path d="M35.3685 76.0519L16.2471 95.952" stroke="#F3587D" stroke-width="2" stroke-linecap="round" stroke-linejoin="round"/>
<path d="M108.679 184.427C109.229 184.427 109.674 183.963 109.674 183.391C109.674 182.82 109.229 182.356 108.679 182.356C108.13 182.356 107.685 182.82 107.685 183.391C107.685 183.963 108.13 184.427 108.679 184.427Z" fill="#02E2AC"/>
<path d="M0.138184 191.034C0.138184 189.364 0.775808 187.761 1.91081 186.58C3.04581 185.399 4.58519 184.735 6.19033 184.735L7.30257 184.836C7.46562 183.234 8.21235 181.757 9.38922 180.711C10.5661 179.664 12.0836 179.127 13.6297 179.209C15.1757 179.291 16.6327 179.986 17.701 181.152C18.7694 182.318 19.3678 183.866 19.3732 185.477L20.3361 184.139C21.1875 183.267 22.2679 182.676 23.4413 182.441C24.6148 182.207 25.8286 182.339 26.93 182.821C28.0313 183.304 28.9709 184.114 29.6302 185.151C30.2895 186.188 30.6391 187.405 30.6349 188.649" stroke="#F3587D" stroke-width="2" stroke-linejoin="round"/>
<path d="M294.435 196L307.878 182.009" stroke="#F3587D" stroke-width="2" stroke-linejoin="round"/>
</svg>
