<svg width="127" height="32" viewBox="0 0 127 32" fill="none" xmlns="http://www.w3.org/2000/svg">
<path d="M8.48324 22.3883C7.269 20.2854 7.27579 17.8162 8.27635 15.7947L3.48045 13.0271C3.36174 12.9593 3.2532 12.8813 3.13788 12.8066C3.07683 13.1797 3.03613 13.5562 3.03613 13.9463V25.0202C3.03613 28.8766 6.15991 32.0004 10.0163 32.0004C13.7336 32.0004 16.7658 29.0903 16.9761 25.4239C13.8354 26.6076 10.2096 25.3899 8.47646 22.3849L8.48324 22.3883Z" fill="#6F3FF5"/>
<path d="M10.0242 6.96636C12.4527 6.96636 14.5861 8.20773 15.8377 10.0867L20.6335 7.31911C20.7523 7.25127 20.8744 7.19361 20.9965 7.13255C20.7048 6.89513 20.3961 6.67128 20.0603 6.47456L10.4686 0.935877C7.13109 -0.990622 2.86091 0.152388 0.934416 3.48985C-0.924249 6.70859 0.0797012 10.7888 3.14921 12.8035C3.69528 9.49319 6.56129 6.96297 10.0276 6.96297L10.0242 6.96636Z" fill="#FFCC00"/>
<path d="M8.28058 15.794C8.87074 14.6035 9.80346 13.5656 11.0414 12.8533L15.8373 10.0823C14.5858 8.20329 12.449 6.96191 10.0239 6.96191C6.55758 6.96191 3.68818 9.49214 3.14551 12.8025C3.25743 12.8771 3.36936 12.9551 3.48807 13.0229L8.28397 15.7906L8.28058 15.794Z" fill="#8C65F7"/>
<path d="M30.1675 9.86882C28.3088 6.65007 24.2727 5.47992 20.9929 7.1283C23.5875 9.25491 24.3439 13.0062 22.6107 16.0078C21.3965 18.1107 19.2563 19.3385 17.0008 19.4844V25.0196C17.0008 25.1553 16.9873 25.291 16.9805 25.4267C17.3332 25.2944 17.6826 25.1384 18.0183 24.945L27.6101 19.4063C30.9476 17.4798 32.094 13.2097 30.1641 9.87221L30.1675 9.86882Z" fill="#02E2AC"/>
<path d="M17.0039 19.4851C15.6778 19.5699 14.3143 19.2782 13.0763 18.566L8.28042 15.7949C7.27647 17.8164 7.27308 20.289 8.48731 22.3884C10.2205 25.3901 13.8462 26.6111 16.987 25.4274C16.9938 25.2917 17.0073 25.1595 17.0073 25.0204V19.4851H17.0039Z" fill="#5BF1CD"/>
<path d="M15.8369 10.0826C16.5729 11.1883 17.0037 12.5145 17.0037 13.9424V19.481C19.2558 19.3386 21.3993 18.1074 22.6136 16.0045C24.3467 13.0029 23.5904 9.255 20.9957 7.125C20.8736 7.18605 20.7515 7.24031 20.6328 7.31154L15.8369 10.0792V10.0826Z" fill="#FFDB4C"/>
<path d="M15.837 10.084L11.0411 12.855C9.80316 13.5707 8.87043 14.6052 8.28027 15.7956L13.0762 18.5667C14.3142 19.2823 15.6776 19.5706 17.0038 19.4858V13.9472C17.0038 12.5192 16.573 11.1931 15.837 10.0874V10.084Z" fill="white"/>
<path d="M41.9214 21.5953H39.0015V10.3376H43.643C44.3068 10.3376 44.8526 10.4107 45.2801 10.557C45.7077 10.692 46.1015 10.9339 46.4616 11.2827C47.193 11.9804 47.5587 12.9087 47.5587 14.0676C47.5587 14.6302 47.4799 15.1478 47.3224 15.6204C47.1649 16.0818 46.9398 16.4756 46.6473 16.8019C46.0284 17.4995 45.0607 17.8483 43.7442 17.8483H41.9214V21.5953ZM42.8834 15.5023C43.446 15.5023 43.8567 15.3898 44.1155 15.1647C44.3743 14.9397 44.5037 14.5852 44.5037 14.1014C44.5037 13.1562 43.9693 12.6836 42.9003 12.6836H41.9214V15.5023H42.8834Z" fill="#0E0333"/>
<path d="M52.1576 19.6374L51.3812 21.5953H48.2925L52.6133 10.3376H55.8033L60.0397 21.5953H56.9172L56.1915 19.6374H52.1576ZM54.1999 13.8145L52.9677 17.4095H55.3982L54.1999 13.8145Z" fill="#0E0333"/>
<path d="M68.4259 13.2575C67.7845 12.7511 67.1432 12.498 66.5018 12.498C66.1417 12.498 65.8435 12.5936 65.6072 12.7849C65.371 12.9649 65.2528 13.1956 65.2528 13.4769C65.2528 13.7019 65.3428 13.8876 65.5229 14.0339C65.6016 14.1014 65.6748 14.1577 65.7423 14.2027C65.8098 14.2477 65.8998 14.2983 66.0123 14.3546C66.1361 14.3996 66.2936 14.4502 66.4849 14.5065C66.6874 14.5627 66.9519 14.6415 67.2782 14.7428C68.2684 15.0353 68.9773 15.4235 69.4048 15.9074C69.8324 16.3912 70.0462 17.0551 70.0462 17.899C70.0462 19.1817 69.6636 20.155 68.8985 20.8189C68.4934 21.1677 68.0096 21.4321 67.447 21.6122C66.8956 21.7922 66.2936 21.8822 65.641 21.8822C64.9659 21.8822 64.2964 21.7753 63.6325 21.5615C62.9799 21.3478 62.3498 21.0327 61.7421 20.6164L62.9911 18.2534C63.4525 18.6472 63.8913 18.9398 64.3076 19.1311C64.724 19.3111 65.1459 19.4011 65.5735 19.4011C66.0011 19.4011 66.3443 19.2999 66.6031 19.0973C66.8619 18.8948 66.9913 18.6304 66.9913 18.3041C66.9913 18.0002 66.8675 17.7583 66.6199 17.5783C66.3836 17.3983 65.9223 17.207 65.2359 17.0044C64.6171 16.8132 64.1557 16.6556 63.8519 16.5318C63.5481 16.4081 63.2949 16.2618 63.0924 16.093C62.496 15.5979 62.1979 14.8553 62.1979 13.8651C62.1979 13.3025 62.2879 12.7905 62.4679 12.3292C62.6592 11.8566 62.9236 11.4571 63.2612 11.1308C63.5987 10.7933 63.9982 10.5345 64.4595 10.3544C64.9321 10.1632 65.4553 10.0675 66.0292 10.0675C66.6256 10.0675 67.2219 10.1463 67.8183 10.3038C68.4259 10.4613 69.0166 10.6864 69.5905 10.9789L68.4259 13.2575Z" fill="#0E0333"/>
<path d="M78.8297 13.2575C78.1883 12.7511 77.547 12.498 76.9056 12.498C76.5455 12.498 76.2473 12.5936 76.011 12.7849C75.7747 12.9649 75.6566 13.1956 75.6566 13.4769C75.6566 13.7019 75.7466 13.8876 75.9267 14.0339C76.0054 14.1014 76.0786 14.1577 76.1461 14.2027C76.2136 14.2477 76.3036 14.2983 76.4161 14.3546C76.5399 14.3996 76.6974 14.4502 76.8887 14.5065C77.0913 14.5627 77.3557 14.6415 77.682 14.7428C78.6722 15.0353 79.3811 15.4235 79.8086 15.9074C80.2362 16.3912 80.45 17.0551 80.45 17.899C80.45 19.1817 80.0674 20.155 79.3023 20.8189C78.8972 21.1677 78.4134 21.4321 77.8508 21.6122C77.2994 21.7922 76.6974 21.8822 76.0448 21.8822C75.3697 21.8822 74.7002 21.7753 74.0363 21.5615C73.3837 21.3478 72.7536 21.0327 72.146 20.6164L73.3949 18.2534C73.8563 18.6472 74.2951 18.9398 74.7114 19.1311C75.1278 19.3111 75.5497 19.4011 75.9773 19.4011C76.4049 19.4011 76.7481 19.2999 77.0069 19.0973C77.2657 18.8948 77.3951 18.6304 77.3951 18.3041C77.3951 18.0002 77.2713 17.7583 77.0237 17.5783C76.7874 17.3983 76.3261 17.207 75.6397 17.0044C75.0209 16.8132 74.5595 16.6556 74.2557 16.5318C73.9519 16.4081 73.6987 16.2618 73.4962 16.093C72.8998 15.5979 72.6017 14.8553 72.6017 13.8651C72.6017 13.3025 72.6917 12.7905 72.8717 12.3292C73.063 11.8566 73.3274 11.4571 73.665 11.1308C74.0025 10.7933 74.402 10.5345 74.8633 10.3544C75.3359 10.1632 75.8591 10.0675 76.433 10.0675C77.0294 10.0675 77.6257 10.1463 78.2221 10.3038C78.8297 10.4613 79.4204 10.6864 79.9943 10.9789L78.8297 13.2575Z" fill="#0E0333"/>
<path d="M86.0584 21.5953H83.1385V10.3376H87.78C88.4439 10.3376 88.9896 10.4107 89.4172 10.557C89.8448 10.692 90.2386 10.9339 90.5987 11.2827C91.33 11.9804 91.6957 12.9087 91.6957 14.0676C91.6957 14.6302 91.617 15.1478 91.4594 15.6204C91.3019 16.0818 91.0769 16.4756 90.7843 16.8019C90.1655 17.4995 89.1978 17.8483 87.8813 17.8483H86.0584V21.5953ZM87.0205 15.5023C87.5831 15.5023 87.9938 15.3898 88.2526 15.1647C88.5114 14.9397 88.6408 14.5852 88.6408 14.1014C88.6408 13.1562 88.1063 12.6836 87.0374 12.6836H86.0584V15.5023H87.0205Z" fill="#0E0333"/>
<path d="M99.8904 10C101.769 10 103.305 10.6301 104.498 11.8904C105.027 12.4417 105.426 13.0718 105.696 13.7807C105.978 14.4783 106.118 15.2154 106.118 15.9917C106.118 16.8919 105.933 17.7415 105.561 18.5404C105.201 19.328 104.684 20.0087 104.009 20.5826C102.883 21.5278 101.494 22.0004 99.8397 22.0004C98.9508 22.0004 98.1294 21.8485 97.3755 21.5447C96.6216 21.2296 95.969 20.802 95.4176 20.2619C94.8663 19.7218 94.4331 19.0805 94.118 18.3378C93.8142 17.5839 93.6623 16.7681 93.6623 15.8905C93.6623 15.0466 93.8423 14.2364 94.2024 13.46C94.5737 12.6724 95.097 11.9916 95.7721 11.4178C96.3122 10.9564 96.9367 10.6076 97.6456 10.3713C98.3544 10.1238 99.1027 10 99.8904 10ZM99.8904 12.8355C99.4515 12.8355 99.0408 12.9199 98.6582 13.0887C98.2757 13.2462 97.9381 13.4713 97.6456 13.7638C97.3643 14.0451 97.1392 14.3771 96.9704 14.7596C96.8016 15.131 96.7173 15.5304 96.7173 15.958C96.7173 16.4081 96.796 16.83 96.9536 17.2239C97.1223 17.6064 97.3474 17.944 97.6287 18.2365C97.9212 18.5178 98.2588 18.7429 98.6414 18.9117C99.0352 19.0805 99.4515 19.1648 99.8904 19.1648C100.329 19.1648 100.74 19.0805 101.122 18.9117C101.516 18.7429 101.854 18.5178 102.135 18.2365C102.428 17.944 102.653 17.6064 102.81 17.2239C102.979 16.8413 103.063 16.4306 103.063 15.9917C103.063 15.5529 102.979 15.1422 102.81 14.7596C102.653 14.3771 102.428 14.0451 102.135 13.7638C101.854 13.4713 101.516 13.2462 101.122 13.0887C100.74 12.9199 100.329 12.8355 99.8904 12.8355Z" fill="#0E0333"/>
<path d="M118.175 21.5953H114.53L111.745 17.2745V21.5953H108.825V10.3376H113.365C114.007 10.3376 114.547 10.4163 114.985 10.5739C115.424 10.7314 115.807 10.9846 116.133 11.3334C116.437 11.6597 116.673 12.0366 116.842 12.4642C117.011 12.8918 117.095 13.3419 117.095 13.8145C117.095 14.3208 117.005 14.7934 116.825 15.2322C116.645 15.6711 116.392 16.0311 116.066 16.3124C115.874 16.4812 115.672 16.6162 115.458 16.7175C115.244 16.8075 114.969 16.8975 114.631 16.9876L118.175 21.5953ZM112.285 15.3841C112.848 15.3841 113.264 15.2829 113.534 15.0803C113.691 14.9678 113.821 14.8103 113.922 14.6077C114.035 14.3939 114.091 14.1858 114.091 13.9832C114.091 13.7807 114.035 13.5782 113.922 13.3756C113.821 13.1731 113.691 13.0099 113.534 12.8862C113.241 12.6836 112.825 12.5824 112.285 12.5824H111.745V15.3841H112.285Z" fill="#0E0333"/>
<path d="M124.487 21.5953H121.567V12.8187H119.187V10.3376H126.918V12.8187H124.487V21.5953Z" fill="#0E0333"/>
</svg>
