<svg width="15" height="16" viewBox="0 0 15 16" fill="none" xmlns="http://www.w3.org/2000/svg">
<path fill-rule="evenodd" clip-rule="evenodd" d="M0.450278 3.499C3.15772 3.46227 5.62454 2.42929 7.50078 0.75C9.37703 2.42929 11.8438 3.46227 14.5513 3.499C14.6496 4.0847 14.7008 4.68638 14.7008 5.30002C14.7008 10.0024 11.6955 14.0028 7.50078 15.4854C3.30609 14.0028 0.300781 10.0024 0.300781 5.30002C0.300781 4.68638 0.351959 4.0847 0.450278 3.499ZM10.8372 6.83638C11.1887 6.48491 11.1887 5.91506 10.8372 5.56359C10.4857 5.21212 9.91586 5.21212 9.56439 5.56359L6.60078 8.5272L5.43718 7.36359C5.08571 7.01212 4.51586 7.01212 4.16439 7.36359C3.81291 7.71506 3.81291 8.28491 4.16439 8.63638L5.96439 10.4364C6.31586 10.7879 6.88571 10.7879 7.23718 10.4364L10.8372 6.83638Z" fill="#02E2AC"/>
</svg>
