<svg width="58" height="78" viewBox="0 0 58 78" fill="none" xmlns="http://www.w3.org/2000/svg">
<path d="M29.0001 77.4001C13.3401 77.4001 0.600098 64.6601 0.600098 49.0001V15.9651L29.0001 0.475098L57.4001 15.9651V49.0001C57.4001 64.6601 44.6601 77.4001 29.0001 77.4001ZM2.4001 17.0351V49.0001C2.4001 63.6676 14.3326 75.6001 29.0001 75.6001C43.6676 75.6001 55.6001 63.6701 55.6001 49.0001V17.0351L29.0001 2.5251L2.4001 17.0351ZM39.0001 30.2726L33.3626 24.6351L34.6376 23.3626L39.0001 27.7276L48.3626 18.3651L49.6376 19.6376L39.0001 30.2726ZM9.9001 37.1276C9.9001 32.8926 12.7776 29.2526 16.8976 28.2751C17.2726 28.1876 17.5501 27.8676 17.5851 27.4851C17.6201 27.1001 17.4076 26.7351 17.0551 26.5776C15.3226 25.8076 14.2026 24.0851 14.2026 22.1951C14.2026 19.5501 16.3551 17.4001 18.9976 17.4001C21.6476 17.4001 23.8026 19.5501 23.8026 22.1951C23.8026 24.0876 22.6826 25.8076 20.9476 26.5776C20.5951 26.7351 20.3826 27.1001 20.4176 27.4851C20.4526 27.8676 20.7301 28.1876 21.1051 28.2751C23.3101 28.7976 25.2326 30.1226 26.5176 32.0051L28.0051 30.9901C26.8376 29.2801 25.2276 27.9551 23.3651 27.1401C24.7626 25.9051 25.6001 24.1151 25.6001 22.1926C25.6001 18.5551 22.6376 15.5976 18.9951 15.5976C15.3576 15.5976 12.4001 18.5551 12.4001 22.1926C12.4001 24.1126 13.2376 25.9026 14.6326 27.1376C10.7051 28.8401 8.0976 32.7126 8.0976 37.1276V51.5001H9.8976V37.1276H9.9001ZM44.0001 42.4001H24.0001C23.5026 42.4001 23.1001 41.9976 23.1001 41.5001V36.5001C23.1001 36.0026 23.5026 35.6001 24.0001 35.6001H44.0001C44.4976 35.6001 44.9001 36.0026 44.9001 36.5001V41.5001C44.9001 41.9976 44.4976 42.4001 44.0001 42.4001ZM24.9001 40.6001H43.1001V37.4001H24.9001V40.6001ZM44.0001 52.4001H24.0001C23.5026 52.4001 23.1001 51.9976 23.1001 51.5001V46.5001C23.1001 46.0026 23.5026 45.6001 24.0001 45.6001H44.0001C44.4976 45.6001 44.9001 46.0026 44.9001 46.5001V51.5001C44.9001 51.9976 44.4976 52.4001 44.0001 52.4001ZM24.9001 50.6001H43.1001V47.4001H24.9001V50.6001ZM44.0001 62.4001H24.0001C23.5026 62.4001 23.1001 61.9976 23.1001 61.5001V56.5001C23.1001 56.0026 23.5026 55.6001 24.0001 55.6001H44.0001C44.4976 55.6001 44.9001 56.0026 44.9001 56.5001V61.5001C44.9001 61.9976 44.4976 62.4001 44.0001 62.4001ZM24.9001 60.6001H43.1001V57.4001H24.9001V60.6001Z" fill="black"/>
</svg>
