<svg width="560" height="380" viewBox="0 0 560 380" fill="none" xmlns="http://www.w3.org/2000/svg">
<g filter="url(#filter0_dd_2066_44657)">
<rect x="199" y="181" width="158.981" height="158.309" rx="4" fill="white"/>
</g>
<path fill-rule="evenodd" clip-rule="evenodd" d="M286.885 267.664C287.399 268.875 287.912 270.086 288.424 271.298C289.006 272.675 289.58 274.056 290.17 275.43C290.374 275.904 290.411 276.358 290.049 276.754C289.697 277.138 289.25 277.154 288.775 276.987C287.641 276.586 286.5 276.204 285.37 275.795C285.092 275.695 284.978 275.768 284.862 276.023C284.342 277.158 283.805 278.286 283.266 279.413C283.051 279.863 282.674 280.031 282.186 279.995C281.752 279.963 281.485 279.72 281.326 279.34C280.485 277.339 279.648 275.337 278.808 273.336C278.77 273.243 278.721 273.155 278.652 273.014C278.363 273.695 278.091 274.33 277.824 274.968C277.217 276.42 276.614 277.874 276.005 279.326C275.823 279.76 275.506 279.994 275.015 279.999C274.521 280.004 274.221 279.764 274.02 279.337C273.489 278.206 272.944 277.082 272.415 275.95C272.317 275.741 272.217 275.709 271.998 275.787C270.801 276.211 269.599 276.62 268.396 277.027C267.976 277.169 267.573 277.095 267.279 276.767C266.985 276.44 266.9 276.044 267.085 275.606C268.067 273.275 269.041 270.94 270.02 268.607C270.067 268.493 270.133 268.387 270.19 268.278C270.34 268.34 270.481 268.417 270.577 268.555C270.093 269.729 269.612 270.904 269.124 272.076C268.622 273.28 268.112 274.481 267.608 275.684C267.498 275.947 267.461 276.215 267.684 276.44C267.89 276.647 268.127 276.585 268.373 276.499C269.624 276.06 270.882 275.638 272.13 275.19C272.449 275.076 272.604 275.136 272.748 275.451C273.304 276.67 273.888 277.876 274.459 279.087C274.572 279.326 274.732 279.512 275.016 279.508C275.282 279.504 275.447 279.333 275.544 279.1C276.439 276.963 277.323 274.822 278.233 272.691C278.374 272.359 278.351 272.103 278.153 271.828C278.061 271.883 278.046 271.962 278.016 272.033C277.131 274.138 276.246 276.242 275.36 278.346C275.301 278.486 275.283 278.684 275.084 278.688C274.873 278.693 274.835 278.487 274.762 278.342C274.154 277.134 273.544 275.928 272.95 274.714C272.844 274.496 272.743 274.446 272.514 274.526C271.856 274.756 271.191 274.963 270.528 275.177C269.854 275.394 269.179 275.607 268.505 275.824C268.393 275.861 268.284 275.893 268.194 275.792C268.116 275.704 268.139 275.604 268.18 275.506C268.214 275.423 268.243 275.338 268.278 275.255C269.186 273.087 270.096 270.92 271.005 268.752C271.764 268.952 272.542 268.932 273.31 268.884C274.326 268.821 275.193 269.144 276.018 269.697C276.688 270.145 277.377 270.577 278.227 270.595C279.398 273.396 280.571 276.196 281.738 278.998C281.848 279.263 281.977 279.499 282.294 279.507C282.611 279.516 282.763 279.289 282.884 279.031C283.424 277.88 283.961 276.727 284.514 275.582C284.772 275.048 284.645 275.014 285.335 275.252C286.546 275.669 287.758 276.084 288.966 276.509C289.232 276.603 289.47 276.622 289.675 276.399C289.883 276.173 289.824 275.935 289.716 275.68C288.651 273.152 287.592 270.621 286.532 268.091C286.64 267.941 286.728 267.774 286.885 267.664Z" fill="#FCCDD3"/>
<mask id="mask0_2066_44657" style="mask-type:alpha" maskUnits="userSpaceOnUse" x="263" y="240" width="31" height="31">
<path d="M263 240H293.566V270.605H263V240Z" fill="white"/>
</mask>
<g mask="url(#mask0_2066_44657)">
<path fill-rule="evenodd" clip-rule="evenodd" d="M273.251 242.309C272.704 242.309 272.332 242.294 271.961 242.313C271.286 242.346 270.724 242.598 270.322 243.173C270.011 243.618 269.753 244.093 269.509 244.574C269.071 245.439 268.426 246.084 267.561 246.52C267.179 246.712 266.812 246.932 266.44 247.143C265.662 247.584 265.297 248.26 265.304 249.148C265.309 249.723 265.304 250.298 265.313 250.873C265.323 251.51 265.161 252.098 264.838 252.643C264.58 253.079 264.323 253.516 264.056 253.946C263.503 254.835 263.475 255.721 264.048 256.613C264.181 256.821 264.289 257.047 264.434 257.248C265.113 258.191 265.416 259.233 265.316 260.397C265.285 260.755 265.303 261.118 265.306 261.478C265.312 262.247 265.578 262.888 266.246 263.316C266.502 263.48 266.755 263.656 267.031 263.779C268.265 264.329 269.189 265.184 269.74 266.432C269.853 266.688 270.008 266.926 270.149 267.17C270.589 267.934 271.263 268.286 272.133 268.286C272.73 268.285 273.327 268.284 273.924 268.278C274.561 268.272 275.144 268.454 275.688 268.774C276.124 269.031 276.56 269.29 276.99 269.557C277.849 270.092 278.704 270.099 279.564 269.564C279.889 269.363 280.225 269.177 280.545 268.967C281.282 268.486 282.075 268.225 282.967 268.274C283.45 268.301 283.935 268.284 284.42 268.286C285.303 268.289 285.986 267.934 286.428 267.153C286.639 266.781 286.86 266.414 287.051 266.032C287.486 265.166 288.122 264.513 288.992 264.08C289.385 263.885 289.765 263.663 290.142 263.438C290.753 263.074 291.164 262.57 291.233 261.829C291.298 261.142 291.253 260.455 291.251 259.769C291.25 259.072 291.423 258.435 291.783 257.842C292.046 257.409 292.303 256.973 292.564 256.539C293.048 255.735 293.073 254.924 292.598 254.109C292.389 253.748 292.178 253.389 291.952 253.039C291.468 252.29 291.199 251.488 291.251 250.583C291.28 250.089 291.268 249.591 291.261 249.096C291.251 248.342 290.99 247.715 290.338 247.281C289.896 246.988 289.432 246.735 288.961 246.495C288.131 246.07 287.508 245.447 287.081 244.617C286.87 244.207 286.641 243.806 286.407 243.408C286.044 242.789 285.52 242.394 284.79 242.327C284.51 242.302 284.228 242.311 283.946 242.306C283.339 242.295 282.728 242.357 282.124 242.274C281.377 242.172 280.737 241.795 280.15 241.362C278.897 240.436 277.686 240.423 276.432 241.357C275.443 242.095 274.337 242.496 273.251 242.309ZM270.577 268.555C270.481 268.417 270.34 268.34 270.19 268.278C269.543 267.517 269.15 266.599 268.629 265.76C268.302 265.234 267.8 264.914 267.271 264.626C266.758 264.346 266.229 264.091 265.759 263.736C265.077 263.22 264.725 262.532 264.699 261.68C264.687 261.275 264.667 260.866 264.705 260.464C264.807 259.39 264.512 258.443 263.901 257.569C263.67 257.238 263.473 256.88 263.294 256.517C262.891 255.696 262.91 254.868 263.304 254.044C263.528 253.575 263.813 253.142 264.09 252.704C264.511 252.04 264.753 251.334 264.707 250.535C264.68 250.051 264.701 249.565 264.695 249.081C264.681 247.989 265.167 247.18 266.091 246.626C266.448 246.412 266.809 246.201 267.182 246.018C268.002 245.617 268.605 245.015 269.01 244.194C269.288 243.63 269.577 243.069 269.995 242.586C270.507 241.993 271.162 241.723 271.929 241.701C272.323 241.69 272.721 241.665 273.111 241.706C274.211 241.819 275.172 241.492 276.062 240.869C276.356 240.664 276.677 240.495 276.996 240.329C277.858 239.879 278.721 239.901 279.587 240.331C280.032 240.552 280.449 240.82 280.865 241.088C281.539 241.522 282.262 241.745 283.068 241.71C283.551 241.688 284.036 241.702 284.52 241.698C285.614 241.688 286.413 242.189 286.96 243.116C287.183 243.494 287.405 243.874 287.6 244.267C287.979 245.033 288.549 245.595 289.312 245.976C289.785 246.212 290.25 246.464 290.687 246.765C291.469 247.303 291.862 248.048 291.872 248.995C291.876 249.367 291.9 249.742 291.864 250.111C291.759 251.196 292.056 252.156 292.678 253.036C292.873 253.311 293.033 253.611 293.194 253.908C293.728 254.896 293.675 255.873 293.115 256.832C292.836 257.309 292.553 257.782 292.271 258.256C291.988 258.733 291.858 259.249 291.864 259.803C291.871 260.366 291.864 260.93 291.874 261.494C291.893 262.587 291.409 263.397 290.49 263.956C290.096 264.196 289.691 264.418 289.282 264.631C288.615 264.978 288.068 265.441 287.716 266.118C287.446 266.637 287.163 267.149 286.886 267.664C286.728 267.774 286.64 267.941 286.532 268.091C286.389 268.172 286.28 268.29 286.175 268.413C285.572 268.818 284.899 268.924 284.188 268.899C283.683 268.882 283.177 268.895 282.671 268.894C282.319 268.893 281.98 268.958 281.658 269.1C280.657 269.54 279.817 270.29 278.752 270.605C278.578 270.556 278.402 270.594 278.227 270.595C277.377 270.577 276.688 270.145 276.018 269.697C275.193 269.144 274.326 268.821 273.31 268.884C272.542 268.932 271.764 268.952 271.004 268.752C270.876 268.656 270.739 268.577 270.577 268.555Z" fill="#6534FF"/>
</g>
<path fill-rule="evenodd" clip-rule="evenodd" d="M282.604 258.481C282.878 258.49 283.062 258.263 282.982 257.982C282.495 256.276 282.001 254.572 281.508 252.867C281.432 252.604 281.232 252.551 281.002 252.605C280.815 252.65 280.765 252.827 280.717 252.992C280.401 254.058 280.084 255.124 279.768 256.19C279.595 256.771 279.414 257.35 279.251 257.934C279.184 258.175 279.235 258.398 279.514 258.468C279.756 258.529 279.924 258.431 279.989 258.169C280.051 257.919 280.146 257.677 280.209 257.426C280.252 257.254 280.342 257.192 280.518 257.197C280.911 257.207 281.305 257.207 281.699 257.197C281.884 257.192 281.986 257.241 282.025 257.442C282.073 257.683 282.157 257.918 282.231 258.154C282.289 258.335 282.38 258.485 282.604 258.481ZM273.758 255.551C273.731 255.831 273.812 256.095 273.943 256.352C274.193 256.843 274.443 257.334 274.681 257.832C274.872 258.232 275.162 258.47 275.619 258.486C276.1 258.502 276.395 258.25 276.593 257.841C276.852 257.304 277.122 256.772 277.374 256.232C277.592 255.767 277.59 255.295 277.364 254.831C277.084 254.254 276.806 253.675 276.512 253.106C276.159 252.423 275.178 252.374 274.795 253.043C274.438 253.666 274.147 254.328 273.837 254.978C273.754 255.151 273.74 255.347 273.758 255.551ZM284.706 255.436C284.706 256.292 284.709 257.148 284.704 258.004C284.702 258.283 284.801 258.475 285.1 258.478C285.44 258.482 285.492 258.223 285.498 257.964C285.508 257.48 285.509 256.995 285.497 256.511C285.492 256.304 285.562 256.237 285.768 256.241C286.296 256.253 286.826 256.254 287.355 256.242C287.985 256.229 288.463 255.756 288.482 255.125C288.496 254.652 288.497 254.178 288.482 253.706C288.46 253.062 287.964 252.593 287.322 252.591C286.556 252.589 285.79 252.6 285.025 252.585C284.779 252.58 284.694 252.639 284.7 252.901C284.716 253.745 284.706 254.591 284.706 255.436ZM268.278 255.446C268.278 256.28 268.278 257.114 268.279 257.947C268.279 258.037 268.267 258.134 268.297 258.215C268.366 258.402 268.507 258.5 268.716 258.48C268.977 258.457 269.057 258.264 269.064 258.055C269.081 257.56 269.085 257.063 269.068 256.568C269.06 256.322 269.122 256.229 269.384 256.239C269.901 256.259 270.42 256.254 270.938 256.242C271.55 256.227 272.03 255.761 272.053 255.148C272.072 254.665 272.071 254.179 272.054 253.695C272.03 253.053 271.531 252.593 270.883 252.591C270.118 252.59 269.352 252.602 268.587 252.584C268.324 252.578 268.269 252.666 268.273 252.911C268.287 253.756 268.278 254.601 268.278 255.446ZM273.251 242.309C274.337 242.496 275.443 242.095 276.432 241.357C277.686 240.423 278.897 240.436 280.15 241.362C280.737 241.795 281.377 242.172 282.124 242.274C282.728 242.357 283.339 242.296 283.946 242.306C284.228 242.311 284.51 242.302 284.79 242.328C285.521 242.394 286.044 242.789 286.407 243.408C286.641 243.806 286.87 244.207 287.081 244.618C287.508 245.447 288.131 246.071 288.961 246.495C289.432 246.735 289.896 246.988 290.338 247.281C290.99 247.715 291.251 248.342 291.262 249.096C291.268 249.592 291.28 250.089 291.251 250.583C291.199 251.488 291.468 252.29 291.952 253.039C292.178 253.389 292.389 253.749 292.598 254.109C293.073 254.924 293.048 255.735 292.564 256.539C292.303 256.973 292.046 257.409 291.783 257.842C291.423 258.435 291.25 259.072 291.252 259.769C291.254 260.455 291.298 261.142 291.234 261.829C291.164 262.57 290.753 263.074 290.142 263.438C289.765 263.663 289.385 263.885 288.992 264.08C288.122 264.513 287.486 265.166 287.051 266.032C286.86 266.414 286.639 266.781 286.428 267.153C285.986 267.934 285.303 268.289 284.42 268.286C283.935 268.285 283.45 268.301 282.967 268.274C282.075 268.225 281.282 268.486 280.545 268.968C280.225 269.177 279.89 269.363 279.564 269.565C278.704 270.099 277.849 270.092 276.99 269.557C276.56 269.29 276.124 269.032 275.688 268.774C275.144 268.454 274.561 268.272 273.924 268.278C273.327 268.284 272.73 268.286 272.133 268.286C271.263 268.286 270.59 267.934 270.149 267.17C270.009 266.926 269.853 266.688 269.74 266.432C269.19 265.184 268.265 264.329 267.031 263.779C266.755 263.656 266.502 263.48 266.247 263.316C265.578 262.888 265.312 262.247 265.306 261.479C265.303 261.118 265.285 260.755 265.316 260.397C265.416 259.233 265.113 258.191 264.434 257.248C264.289 257.047 264.181 256.822 264.048 256.613C263.475 255.721 263.503 254.835 264.056 253.946C264.323 253.516 264.58 253.079 264.838 252.643C265.161 252.098 265.323 251.51 265.313 250.873C265.304 250.298 265.309 249.723 265.304 249.148C265.297 248.26 265.662 247.584 266.44 247.143C266.812 246.932 267.179 246.712 267.561 246.52C268.426 246.085 269.071 245.439 269.509 244.574C269.753 244.093 270.011 243.618 270.322 243.173C270.724 242.598 271.286 242.346 271.961 242.313C272.332 242.294 272.704 242.309 273.251 242.309Z" fill="#FEFEFE"/>
<path fill-rule="evenodd" clip-rule="evenodd" d="M286.176 268.413C287.008 270.404 287.84 272.395 288.672 274.386C288.815 274.728 288.962 275.069 289.099 275.414C289.147 275.534 289.231 275.667 289.117 275.793C289.001 275.922 288.868 275.842 288.742 275.802C287.438 275.382 286.131 274.97 284.831 274.536C284.572 274.45 284.466 274.505 284.349 274.745C283.758 275.96 283.146 277.165 282.54 278.372C282.476 278.5 282.435 278.65 282.242 278.649C282.042 278.648 282.016 278.482 281.963 278.356C280.914 275.859 279.868 273.36 278.823 270.861C278.789 270.78 278.775 270.691 278.752 270.605C279.817 270.29 280.657 269.54 281.658 269.1C281.98 268.958 282.319 268.893 282.671 268.894C283.177 268.896 283.683 268.882 284.189 268.899C284.9 268.924 285.573 268.818 286.176 268.413Z" fill="#FCCDD3"/>
<path fill-rule="evenodd" clip-rule="evenodd" d="M269.04 254.406C269.04 254.687 269.046 254.968 269.038 255.249C269.034 255.412 269.073 255.499 269.261 255.495C269.789 255.486 270.318 255.493 270.846 255.491C271.134 255.49 271.287 255.326 271.296 255.052C271.311 254.637 271.313 254.22 271.297 253.805C271.286 253.521 271.138 253.348 270.826 253.352C270.32 253.358 269.814 253.36 269.309 253.35C269.1 253.346 269.029 253.43 269.038 253.63C269.049 253.888 269.04 254.147 269.04 254.406ZM268.278 255.446C268.278 254.601 268.287 253.756 268.273 252.911C268.268 252.666 268.324 252.578 268.587 252.584C269.352 252.602 270.118 252.589 270.883 252.591C271.531 252.593 272.03 253.053 272.053 253.695C272.071 254.179 272.072 254.664 272.053 255.148C272.03 255.76 271.55 256.227 270.938 256.242C270.42 256.254 269.901 256.259 269.384 256.239C269.122 256.229 269.06 256.322 269.068 256.568C269.084 257.063 269.081 257.559 269.064 258.055C269.057 258.264 268.976 258.456 268.716 258.48C268.507 258.499 268.366 258.402 268.296 258.215C268.267 258.134 268.279 258.037 268.279 257.947C268.278 257.113 268.278 256.28 268.278 255.446Z" fill="#6534FF"/>
<path fill-rule="evenodd" clip-rule="evenodd" d="M285.468 254.42C285.468 254.701 285.475 254.982 285.465 255.263C285.459 255.441 285.53 255.498 285.703 255.495C286.22 255.487 286.736 255.491 287.253 255.492C287.558 255.493 287.716 255.33 287.725 255.039C287.738 254.623 287.742 254.206 287.723 253.791C287.71 253.504 287.548 253.346 287.239 253.351C286.745 253.36 286.25 253.362 285.756 253.35C285.535 253.345 285.453 253.425 285.465 253.644C285.478 253.902 285.468 254.161 285.468 254.42ZM284.706 255.435C284.706 254.59 284.716 253.745 284.699 252.9C284.694 252.639 284.778 252.58 285.025 252.585C285.79 252.6 286.556 252.589 287.321 252.591C287.964 252.593 288.46 253.062 288.482 253.705C288.497 254.178 288.496 254.652 288.482 255.125C288.463 255.756 287.984 256.229 287.355 256.242C286.826 256.254 286.296 256.253 285.767 256.241C285.561 256.237 285.492 256.304 285.497 256.511C285.509 256.995 285.508 257.48 285.498 257.964C285.492 258.223 285.44 258.482 285.1 258.478C284.801 258.475 284.702 258.283 284.704 258.004C284.709 257.148 284.706 256.292 284.706 255.435Z" fill="#6534FF"/>
<path fill-rule="evenodd" clip-rule="evenodd" d="M276.749 255.542C276.727 255.433 276.726 255.313 276.68 255.216C276.408 254.648 276.133 254.08 275.842 253.522C275.715 253.279 275.516 253.281 275.388 253.529C275.11 254.069 274.85 254.618 274.591 255.168C274.457 255.451 274.493 255.739 274.629 256.014C274.872 256.508 275.121 257 275.367 257.494C275.423 257.607 275.48 257.727 275.629 257.721C275.756 257.715 275.814 257.611 275.866 257.506C276.123 256.993 276.382 256.482 276.639 255.968C276.705 255.836 276.744 255.695 276.749 255.542ZM273.758 255.551C273.74 255.346 273.754 255.151 273.837 254.977C274.148 254.328 274.439 253.666 274.796 253.043C275.179 252.374 276.159 252.423 276.512 253.105C276.806 253.675 277.084 254.254 277.364 254.83C277.59 255.294 277.592 255.767 277.374 256.232C277.122 256.772 276.852 257.304 276.593 257.841C276.395 258.25 276.101 258.502 275.619 258.485C275.162 258.47 274.873 258.232 274.681 257.832C274.443 257.334 274.194 256.842 273.943 256.351C273.812 256.095 273.731 255.831 273.758 255.551Z" fill="#6534FF"/>
<path fill-rule="evenodd" clip-rule="evenodd" d="M281.171 254.503C281.142 254.504 281.113 254.504 281.084 254.505C280.98 254.856 280.868 255.205 280.776 255.559C280.7 255.848 280.417 256.236 280.613 256.401C280.805 256.562 281.233 256.44 281.558 256.447C281.699 256.45 281.726 256.403 281.684 256.267C281.507 255.681 281.341 255.091 281.171 254.503ZM282.604 258.481C282.38 258.485 282.289 258.334 282.231 258.153C282.157 257.918 282.073 257.683 282.025 257.442C281.986 257.241 281.884 257.192 281.699 257.197C281.305 257.206 280.911 257.207 280.518 257.196C280.342 257.192 280.252 257.254 280.209 257.426C280.146 257.676 280.051 257.919 279.989 258.169C279.924 258.431 279.756 258.528 279.514 258.468C279.235 258.398 279.184 258.175 279.251 257.934C279.414 257.35 279.595 256.771 279.768 256.189C280.084 255.124 280.401 254.058 280.717 252.992C280.765 252.827 280.815 252.65 281.002 252.605C281.232 252.551 281.432 252.604 281.508 252.866C282.001 254.571 282.495 256.276 282.982 257.982C283.062 258.263 282.878 258.489 282.604 258.481Z" fill="#6534FF"/>
<path fill-rule="evenodd" clip-rule="evenodd" d="M269.04 254.406C269.04 254.147 269.049 253.889 269.038 253.63C269.029 253.43 269.1 253.346 269.309 253.35C269.814 253.36 270.32 253.358 270.825 253.352C271.138 253.348 271.286 253.521 271.297 253.805C271.313 254.22 271.311 254.637 271.296 255.053C271.287 255.326 271.134 255.49 270.846 255.491C270.318 255.494 269.789 255.486 269.261 255.495C269.073 255.499 269.034 255.412 269.038 255.249C269.046 254.969 269.04 254.687 269.04 254.406Z" fill="#FEFEFE"/>
<path fill-rule="evenodd" clip-rule="evenodd" d="M285.468 254.42C285.468 254.161 285.478 253.902 285.465 253.644C285.454 253.425 285.535 253.345 285.756 253.35C286.25 253.362 286.745 253.36 287.239 253.351C287.548 253.346 287.711 253.504 287.724 253.791C287.742 254.206 287.738 254.623 287.725 255.039C287.716 255.33 287.558 255.493 287.253 255.492C286.737 255.491 286.22 255.487 285.703 255.495C285.53 255.498 285.459 255.441 285.466 255.263C285.476 254.982 285.468 254.701 285.468 254.42Z" fill="#FEFEFE"/>
<path fill-rule="evenodd" clip-rule="evenodd" d="M276.749 255.542C276.744 255.695 276.705 255.836 276.639 255.969C276.382 256.482 276.123 256.993 275.866 257.507C275.814 257.611 275.756 257.715 275.629 257.721C275.48 257.727 275.423 257.607 275.367 257.494C275.121 257.001 274.872 256.508 274.628 256.014C274.493 255.739 274.457 255.451 274.591 255.168C274.849 254.618 275.11 254.069 275.388 253.529C275.516 253.281 275.715 253.279 275.842 253.522C276.133 254.08 276.407 254.648 276.679 255.216C276.726 255.313 276.727 255.433 276.749 255.542Z" fill="#FEFEFE"/>
<path fill-rule="evenodd" clip-rule="evenodd" d="M281.17 254.503C281.341 255.091 281.507 255.681 281.684 256.267C281.726 256.403 281.699 256.451 281.558 256.447C281.233 256.44 280.805 256.563 280.613 256.401C280.417 256.236 280.7 255.848 280.775 255.559C280.868 255.205 280.98 254.856 281.083 254.505C281.112 254.504 281.141 254.504 281.17 254.503Z" fill="#FEFEFE"/>
<g filter="url(#filter1_dd_2066_44657)">
<rect x="20" y="181" width="158.206" height="158.443" rx="4" fill="white"/>
</g>
<path d="M113.925 266.899C114.263 267.49 114.212 268.056 113.605 268.904C113.463 269.104 113.426 269.282 113.459 269.554L113.462 269.579C113.473 269.66 113.486 269.729 113.513 269.853L113.575 270.136L113.595 270.229C113.636 270.426 113.658 270.564 113.67 270.722L113.673 270.765C113.694 271.092 113.658 271.402 113.548 271.71C113.31 272.378 112.744 272.981 111.775 273.583L111.699 273.63C111.228 273.916 110.726 274.13 110.182 274.286L110.098 274.31C109.493 274.478 109.019 274.549 108.008 274.648L107.645 274.684C106.564 274.793 106.108 274.899 105.744 275.159L105.73 275.17C105.294 275.49 105.057 276.091 105.047 277.197L105.046 277.302C105.037 278.285 104.586 279.046 103.736 279.499C102.964 279.91 101.878 280.06 100.467 279.979C97.7822 279.823 93.8136 278.813 88.5363 276.95L87.9034 276.727L88.1727 276.112C89.5848 272.889 88.9799 269.081 86.2977 264.643L85.5201 263.354C84.7456 262.066 84.4333 261.527 84.0501 260.817L83.9174 260.57L83.8447 260.433C83.1737 259.159 82.7096 258.067 82.4078 257.003C81.4126 253.495 82.1957 250.137 85.234 245.48C88.9761 239.746 95.8406 238.531 105.663 241.744C110.822 243.483 113.426 247.533 113.426 253.749V253.891L113.364 254.02C112.689 255.414 112.689 256.555 113.323 257.52C113.536 257.843 113.791 258.188 114.156 258.654L114.291 258.825L114.822 259.494C115.375 260.194 115.598 260.495 115.838 260.875L115.902 260.977L115.938 261.037C116.382 261.774 116.55 262.368 116.333 262.918C116.187 263.288 115.898 263.564 115.499 263.784C115.223 263.936 114.911 264.055 114.486 264.185L114.391 264.214C114.255 264.255 114.047 264.316 113.933 264.349L113.836 264.379L113.782 264.395C113.679 264.428 113.593 264.457 113.524 264.484L113.552 264.525C113.58 264.564 113.612 264.61 113.652 264.664L113.716 264.753L113.757 264.81C113.964 265.099 114.073 265.291 114.146 265.547C114.266 265.964 114.201 266.384 113.934 266.772L113.919 266.795C113.913 266.803 113.907 266.811 113.903 266.818L113.889 266.838L113.925 266.899ZM112.177 253.442C112.095 247.916 109.807 244.457 105.27 242.928C95.9318 239.873 89.6576 240.983 86.2783 246.162C83.4217 250.54 82.7218 253.541 83.6074 256.663C83.8878 257.651 84.3307 258.687 84.9838 259.92L85.1066 260.149C85.5281 260.932 85.8453 261.478 86.7813 263.031L87.3648 263.998C90.0766 268.485 90.8266 272.494 89.5639 275.989C94.4334 277.678 98.0994 278.592 100.539 278.734L100.635 278.739C101.789 278.797 102.63 278.675 103.15 278.398C103.59 278.164 103.793 277.825 103.8 277.297L103.8 277.225C103.808 275.718 104.2 274.729 105.02 274.144C105.376 273.891 105.793 273.726 106.301 273.615L106.348 273.605C106.658 273.54 106.956 273.5 107.46 273.449L107.921 273.404C108.837 273.313 109.259 273.25 109.773 273.106L109.838 273.088C110.279 272.961 110.679 272.791 111.051 272.564L111.117 272.524C111.865 272.059 112.243 271.657 112.374 271.291C112.462 271.044 112.452 270.835 112.344 270.344L112.3 270.145L112.289 270.093C112.258 269.95 112.242 269.86 112.227 269.746L112.223 269.715C112.153 269.159 112.245 268.675 112.572 268.205L112.61 268.153C112.714 268.004 112.787 267.879 112.833 267.776C112.865 267.705 112.879 267.655 112.883 267.62L112.884 267.613C112.885 267.598 112.885 267.592 112.859 267.547L112.806 267.456L112.786 267.42C112.546 266.995 112.554 266.576 112.886 266.095L112.907 266.066L112.915 266.053C112.994 265.931 112.963 265.839 112.715 265.497L112.579 265.31L112.535 265.249C112.49 265.185 112.464 265.145 112.432 265.093L112.394 265.031C112.287 264.847 112.217 264.671 112.19 264.478C112.183 264.426 112.179 264.373 112.179 264.32C112.179 263.924 112.409 263.656 112.756 263.465C112.933 263.368 113.137 263.29 113.433 263.198L113.543 263.165C113.641 263.135 113.846 263.075 113.99 263.032L114.12 262.993L114.18 262.975C114.801 262.779 115.118 262.601 115.173 262.46C115.175 262.456 115.177 262.443 115.176 262.418C115.175 262.375 115.164 262.317 115.142 262.246C115.092 262.084 114.992 261.88 114.842 261.635L114.796 261.561C114.586 261.227 114.383 260.951 113.88 260.313L113.313 259.599L113.202 259.458L113.107 259.337C112.776 258.913 112.53 258.579 112.318 258.26L112.281 258.204C111.419 256.891 111.389 255.353 112.155 253.661L112.178 253.61L112.177 253.442Z" fill="#FF6800"/>
<path fill-rule="evenodd" clip-rule="evenodd" d="M86.8308 264.321C82.6632 257.425 80.4146 254.006 85.7557 245.821C89.3164 240.365 95.8857 239.202 105.464 242.335C110.356 243.984 112.802 247.788 112.802 253.749C112.038 255.328 112.038 256.7 112.802 257.862C113.947 259.607 116.146 261.691 115.753 262.689C115.359 263.687 112.802 263.687 112.802 264.321C112.802 264.954 114.018 265.578 113.41 266.434C112.802 267.29 114.135 267.091 113.098 268.542C112.06 269.992 114.539 271.172 111.375 273.097C108.21 275.022 104.423 272.645 104.423 277.271C104.423 280.354 99.1963 280.052 88.7433 276.362C90.2467 272.931 89.6092 268.917 86.8308 264.321Z" fill="#FFFCF0"/>
<path fill-rule="evenodd" clip-rule="evenodd" d="M111.223 252.951C110.495 248.203 109.044 245.486 106.868 244.799C103.604 243.767 94.2575 239.881 89.1825 244.196C85.7993 247.072 83.991 250.783 83.7578 255.329C84.1832 257.068 85.2384 259.116 86.9234 261.47C89.4509 265.003 90.1846 264.251 90.1846 262.794C90.1846 261.337 94.8247 265.178 96.1668 259.938C97.0616 256.446 98.7852 255.187 101.338 256.163C105.748 256.623 108.5 256.344 109.594 255.329C110.688 254.313 111.231 253.521 111.223 252.951Z" fill="url(#paint0_linear_2066_44657)"/>
<path d="M97.4431 259.269C100.464 259.269 102.913 256.82 102.913 253.799C102.913 250.779 100.464 248.33 97.4431 248.33C94.4224 248.33 91.9736 250.779 91.9736 253.799C91.9736 256.82 94.4224 259.269 97.4431 259.269ZM97.4431 258.759C94.7041 258.759 92.4838 256.538 92.4838 253.799C92.4838 251.06 94.7041 248.84 97.4431 248.84C100.182 248.84 102.402 251.06 102.402 253.799C102.402 256.538 100.182 258.759 97.4431 258.759Z" fill="white"/>
<path d="M97.4447 258.759C100.184 258.759 102.404 256.538 102.404 253.799C102.404 251.06 100.184 248.84 97.4447 248.84C94.7057 248.84 92.4854 251.06 92.4854 253.799C92.4854 256.538 94.7057 258.759 97.4447 258.759Z" fill="#FF6800"/>
<path d="M99.1712 253.863L97.4431 254.944L95.7139 253.863L97.4431 250.824L99.1712 253.863ZM97.4425 255.293L95.7139 254.224L97.4425 256.775L99.1712 254.224L97.4425 255.293Z" fill="white"/>
<path d="M86.258 254.688C86.9735 253.117 87.6192 252.943 88.3852 254.074L88.4085 254.108C89.3656 255.55 90.472 255.505 91.5797 253.997L91.6296 253.929L91.4095 253.462L91.2685 253.653C90.3312 254.93 89.5416 254.977 88.7562 253.818L88.7324 253.783C87.7583 252.316 86.7472 252.563 85.8954 254.433L85.8604 254.51L86.1597 254.904L86.258 254.688ZM86.1372 254.406L86.1533 254.55L86.171 254.512L86.1887 254.474L86.1372 254.406ZM88.4716 253.903L88.4963 253.94C89.4043 255.307 90.439 255.262 91.4969 253.821L91.2545 253.798L91.3011 253.897C90.3355 255.174 89.4902 255.199 88.6694 253.989L88.6445 253.952C87.7288 252.572 86.8056 252.802 86.0001 254.571L86.2419 254.544L86.1887 254.474C86.9373 252.873 87.6594 252.705 88.4716 253.903ZM91.3373 253.973L91.3513 253.829L91.3262 253.863L91.3011 253.897L91.3373 253.973Z" fill="white"/>
<path d="M88.3547 249.247C89.0702 247.676 89.7158 247.501 90.4819 248.632L90.5051 248.667C91.4623 250.108 92.5687 250.064 93.6764 248.556L93.7263 248.488L93.5062 248.02L93.3652 248.212C92.4279 249.488 91.6382 249.535 90.8529 248.377L90.829 248.342C89.855 246.875 88.8439 247.121 87.9921 248.991L87.957 249.068L88.2564 249.463L88.3547 249.247ZM88.2339 248.964L88.25 249.109L88.2677 249.07L88.2854 249.032L88.2339 248.964ZM90.5683 248.462L90.5929 248.498C91.5009 249.866 92.5357 249.82 93.5936 248.38L93.3512 248.356L93.3978 248.455C92.4322 249.732 91.5869 249.758 90.7661 248.547L90.7412 248.51C89.8255 247.131 88.9023 247.361 88.0968 249.129L88.3386 249.102L88.2854 249.032C89.0339 247.432 89.7561 247.263 90.5683 248.462ZM93.4339 248.532L93.4479 248.388L93.4229 248.422L93.3978 248.455L93.4339 248.532Z" fill="white"/>
<path d="M92.2242 245.552L92.3226 245.336L92.3795 245.214L92.4376 245.094C93.1057 243.755 93.7208 243.652 94.4424 244.711L94.473 244.756C95.4182 246.18 96.5091 246.154 97.6031 244.7L97.6941 244.577L97.474 244.109L97.3331 244.301C96.3999 245.572 95.6132 245.624 94.8313 244.482L94.7968 244.431C93.8339 242.98 92.8346 243.205 91.9891 245.017L91.9248 245.157L92.2242 245.552ZM92.2017 245.054L92.2178 245.198L92.2532 245.121L92.2017 245.054ZM94.5291 244.54L94.5607 244.587C95.4687 245.955 96.5035 245.909 97.5614 244.469L97.3191 244.445L97.3656 244.544L97.2835 244.65C96.3563 245.816 95.539 245.812 94.7451 244.653L94.7091 244.599C93.7933 243.22 92.8701 243.45 92.0646 245.218L92.3064 245.191L92.2532 245.121C92.9996 243.526 93.7198 243.353 94.5291 244.54ZM97.4018 244.621L97.4158 244.477L97.3656 244.544L97.4018 244.621Z" fill="white"/>
<path d="M99.4612 247.377C100.177 245.806 100.822 245.631 101.588 246.762L101.612 246.797C102.569 248.238 103.675 248.194 104.783 246.685L104.833 246.617L104.613 246.15L104.472 246.342C103.534 247.618 102.745 247.665 101.959 246.507L101.935 246.471C100.961 245.004 99.9504 245.251 99.0986 247.121L99.0635 247.198L99.3629 247.592L99.4612 247.377ZM99.3404 247.094L99.3565 247.239L99.3742 247.2L99.3919 247.162L99.3404 247.094ZM101.675 246.591L101.699 246.628C102.607 247.996 103.642 247.95 104.7 246.51L104.458 246.486L104.504 246.585C103.539 247.862 102.693 247.887 101.873 246.677L101.848 246.64C100.932 245.261 100.009 245.491 99.2033 247.259L99.4451 247.232L99.3919 247.162C100.14 245.562 100.863 245.393 101.675 246.591ZM104.54 246.662L104.554 246.518L104.529 246.552L104.504 246.585L104.54 246.662Z" fill="white"/>
<path d="M87.7033 260.018C88.4188 258.448 89.0645 258.273 89.8305 259.404L89.8538 259.438C90.8109 260.88 91.9173 260.835 93.025 259.327L93.0749 259.259L92.8548 258.792L92.7138 258.984C91.7765 260.26 90.9868 260.307 90.2015 259.149L90.1777 259.113C89.2036 257.646 88.1925 257.893 87.3407 259.763L87.3057 259.84L87.605 260.234L87.7033 260.018ZM87.5825 259.736L87.5986 259.88L87.6163 259.842L87.634 259.804L87.5825 259.736ZM89.9169 259.233L89.9416 259.27C90.8496 260.637 91.8843 260.592 92.9422 259.151L92.6998 259.128L92.7464 259.227C91.7808 260.504 90.9355 260.529 90.1147 259.319L90.0899 259.282C89.1741 257.902 88.2509 258.133 87.4454 259.901L87.6872 259.874L87.634 259.804C88.3826 258.204 89.1047 258.035 89.9169 259.233ZM92.7827 259.304L92.7966 259.159L92.7715 259.193L92.7464 259.227L92.7827 259.304Z" fill="white"/>
<path d="M103.218 251.649C103.933 250.079 104.579 249.904 105.345 251.035L105.368 251.069C106.326 252.511 107.432 252.466 108.54 250.958L108.59 250.89L108.369 250.423L108.228 250.615C107.291 251.891 106.501 251.938 105.716 250.78L105.692 250.744C104.718 249.277 103.707 249.524 102.855 251.394L102.82 251.471L103.12 251.865L103.218 251.649ZM103.097 251.367L103.113 251.511L103.131 251.473L103.149 251.435L103.097 251.367ZM105.432 250.864L105.456 250.901C106.364 252.268 107.399 252.223 108.457 250.782L108.214 250.759L108.261 250.858C107.295 252.135 106.45 252.16 105.629 250.95L105.604 250.913C104.689 249.534 103.766 249.764 102.96 251.532L103.202 251.505L103.149 251.435C103.897 249.835 104.619 249.666 105.432 250.864ZM108.297 250.935L108.311 250.79L108.286 250.824L108.261 250.858L108.297 250.935Z" fill="white"/>
<g filter="url(#filter2_dd_2066_44657)">
<rect x="381" width="158.206" height="158.443" rx="4" fill="white"/>
</g>
<path d="M446.613 75.1934C447.01 76.0393 447.994 77.7139 447.994 77.7139L459.301 59.0173L448.253 66.7169C447.597 67.1485 447.062 67.7528 446.682 68.4433C445.663 70.5668 445.646 73.0355 446.613 75.1934Z" fill="url(#paint1_linear_2066_44657)"/>
<path d="M442.124 81.3392C442.383 84.9645 444.178 88.2964 447.061 90.4889L459.267 98.9999C459.267 98.9999 451.636 87.9857 445.18 77.0405C444.524 75.8838 444.092 74.6236 443.885 73.3115C443.799 72.7246 443.799 72.1203 443.885 71.5161C443.712 71.8269 443.384 72.4656 443.384 72.4656C442.728 73.7949 442.279 75.2278 442.072 76.6952C441.969 78.2317 441.969 79.8027 442.124 81.3392Z" fill="#A0A8D4"/>
<path d="M473.268 82.824C472.871 81.978 471.887 80.3035 471.887 80.3035L460.579 99.0001L471.611 91.3004C472.267 90.8689 472.802 90.2646 473.182 89.5741C474.217 87.4334 474.235 84.9647 473.268 82.824Z" fill="url(#paint2_linear_2066_44657)"/>
<path d="M477.756 76.6608C477.497 73.0354 475.702 69.7035 472.819 67.511L460.613 59C460.613 59 468.244 70.0142 474.7 80.9594C475.356 82.1161 475.788 83.3763 475.995 84.6884C476.082 85.2754 476.082 85.8796 475.995 86.4838C476.168 86.1731 476.496 85.5343 476.496 85.5343C477.152 84.205 477.601 82.7721 477.808 81.3047C477.912 79.7682 477.912 78.2145 477.756 76.6608Z" fill="#A0A8D4"/>
<path d="M446.682 68.4433C447.061 67.7528 447.597 67.1485 448.253 66.7169L459.284 59.0173L447.976 77.7139C447.976 77.7139 446.992 76.0393 446.595 75.1934C445.629 73.0355 445.663 70.5668 446.682 68.4433ZM442.124 81.3393C442.383 84.9647 444.178 88.2966 447.061 90.4891L459.267 99.0001C459.267 99.0001 451.636 87.9858 445.18 77.0406C444.524 75.884 444.092 74.6237 443.885 73.3117C443.799 72.7247 443.799 72.1205 443.885 71.5163C443.712 71.827 443.384 72.4658 443.384 72.4658C442.728 73.7951 442.279 75.228 442.072 76.6954C441.969 78.2318 441.969 79.8028 442.124 81.3393ZM473.25 82.824C472.853 81.9781 471.869 80.3035 471.869 80.3035L460.579 99.0001L471.61 91.3005C472.266 90.8689 472.802 90.2646 473.181 89.5741C474.2 87.4507 474.234 84.9819 473.25 82.824V82.824ZM477.739 76.6781C477.48 73.0527 475.685 69.7208 472.802 67.5283L460.613 59.0173C460.613 59.0173 468.244 70.0316 474.701 80.9768C475.357 82.1334 475.788 83.3937 475.995 84.7057C476.082 85.2927 476.082 85.8969 475.995 86.5012C476.168 86.1904 476.496 85.5516 476.496 85.5516C477.152 84.2223 477.601 82.7895 477.808 81.322C477.929 79.7683 477.929 78.2146 477.774 76.6608L477.739 76.6781Z" fill="url(#paint3_linear_2066_44657)"/>
<g filter="url(#filter3_dd_2066_44657)">
<rect x="20" width="158.206" height="158.443" rx="4" fill="white"/>
</g>
<g clip-path="url(#clip0_2066_44657)">
<path d="M118.206 79.4592C118.206 78.0997 118.096 76.7328 117.861 75.3953H98.9961V83.0969H109.799C109.351 85.5808 107.91 87.7781 105.801 89.1744V94.1717H112.246C116.031 90.6883 118.206 85.5441 118.206 79.4592Z" fill="#4285F4"/>
<path d="M98.9965 99.0001C104.391 99.0001 108.94 97.229 112.254 94.1719L105.809 89.1746C104.016 90.3945 101.701 91.0853 99.0039 91.0853C93.7862 91.0853 89.3621 87.5652 87.7748 82.8325H81.124V87.9841C84.5192 94.7377 91.4345 99.0001 98.9965 99.0001V99.0001Z" fill="#34A853"/>
<path d="M87.767 82.8326C86.9292 80.3486 86.9292 77.6589 87.767 75.175V70.0234H81.1236C78.2869 75.6747 78.2869 82.3328 81.1236 87.9841L87.767 82.8326V82.8326Z" fill="#FBBC04"/>
<path d="M98.9965 66.9146C101.848 66.8705 104.604 67.9435 106.669 69.913L112.379 64.2029C108.763 60.8077 103.964 58.9411 98.9965 58.9999C91.4345 58.9999 84.5192 63.2622 81.124 70.0232L87.7674 75.1748C89.3474 70.4348 93.7788 66.9146 98.9965 66.9146V66.9146Z" fill="#EA4335"/>
</g>
<g filter="url(#filter4_dd_2066_44657)">
<rect x="381" y="181" width="158.206" height="158.443" rx="4" fill="white"/>
</g>
<g clip-path="url(#clip1_2066_44657)">
<path d="M475.798 252.273C475.822 252.623 475.822 252.973 475.822 253.326C475.822 264.089 467.629 276.502 452.647 276.502V276.495C448.221 276.502 443.887 275.234 440.161 272.843C440.805 272.921 441.451 272.96 442.1 272.961C445.768 272.964 449.33 271.734 452.216 269.468C448.73 269.402 445.674 267.129 444.606 263.811C445.827 264.047 447.085 263.998 448.284 263.671C444.484 262.903 441.75 259.564 441.75 255.687C441.75 255.652 441.75 255.618 441.75 255.584C442.882 256.214 444.15 256.564 445.447 256.603C441.868 254.211 440.764 249.45 442.926 245.727C447.061 250.816 453.163 253.91 459.713 254.237C459.056 251.408 459.953 248.443 462.069 246.455C465.35 243.371 470.51 243.529 473.593 246.808C475.418 246.448 477.166 245.779 478.766 244.831C478.158 246.716 476.885 248.318 475.185 249.335C476.8 249.145 478.377 248.713 479.863 248.053C478.769 249.692 477.392 251.119 475.798 252.273Z" fill="#1D9BF0"/>
</g>
<g filter="url(#filter5_dd_2066_44657)">
<rect x="200" width="158.206" height="158.443" rx="4" fill="white"/>
</g>
<path fill-rule="evenodd" clip-rule="evenodd" d="M299 79C299 67.9552 290.045 59 279 59C267.955 59 259 67.9552 259 79C259 88.9817 266.313 97.2562 275.875 98.7582V84.7826H270.796V79H275.875V74.5927C275.875 69.5807 278.862 66.8103 283.43 66.8103C285.618 66.8103 287.907 67.2013 287.907 67.2013V72.1233H285.384C282.901 72.1233 282.125 73.6646 282.125 75.248V78.9998H287.671L286.785 84.7825H282.125V98.7581C291.687 97.2588 299 88.9843 299 78.9998L299 79Z" fill="#1977F3"/>
<path fill-rule="evenodd" clip-rule="evenodd" d="M286.785 84.7824L287.671 78.9998H282.125V75.248C282.125 73.6673 282.898 72.1233 285.385 72.1233H287.907V67.2012C287.907 67.2012 285.618 66.8103 283.43 66.8103C278.862 66.8103 275.875 69.5779 275.875 74.5927V79H270.796V84.7826H275.875V98.7582C276.893 98.9183 277.937 99 279 99C280.063 99 281.107 98.9155 282.125 98.7582V84.7826H286.785L286.785 84.7824Z" fill="#FEFEFE"/>
<defs>
<filter id="filter0_dd_2066_44657" x="179" y="181" width="198.981" height="198.309" filterUnits="userSpaceOnUse" color-interpolation-filters="sRGB">
<feFlood flood-opacity="0" result="BackgroundImageFix"/>
<feColorMatrix in="SourceAlpha" type="matrix" values="0 0 0 0 0 0 0 0 0 0 0 0 0 0 0 0 0 0 127 0" result="hardAlpha"/>
<feMorphology radius="5" operator="erode" in="SourceAlpha" result="effect1_dropShadow_2066_44657"/>
<feOffset dy="10"/>
<feGaussianBlur stdDeviation="5"/>
<feColorMatrix type="matrix" values="0 0 0 0 0 0 0 0 0 0 0 0 0 0 0 0 0 0 0.04 0"/>
<feBlend mode="normal" in2="BackgroundImageFix" result="effect1_dropShadow_2066_44657"/>
<feColorMatrix in="SourceAlpha" type="matrix" values="0 0 0 0 0 0 0 0 0 0 0 0 0 0 0 0 0 0 127 0" result="hardAlpha"/>
<feMorphology radius="5" operator="erode" in="SourceAlpha" result="effect2_dropShadow_2066_44657"/>
<feOffset dy="20"/>
<feGaussianBlur stdDeviation="12.5"/>
<feColorMatrix type="matrix" values="0 0 0 0 0 0 0 0 0 0 0 0 0 0 0 0 0 0 0.1 0"/>
<feBlend mode="normal" in2="effect1_dropShadow_2066_44657" result="effect2_dropShadow_2066_44657"/>
<feBlend mode="normal" in="SourceGraphic" in2="effect2_dropShadow_2066_44657" result="shape"/>
</filter>
<filter id="filter1_dd_2066_44657" x="0" y="181" width="198.206" height="198.443" filterUnits="userSpaceOnUse" color-interpolation-filters="sRGB">
<feFlood flood-opacity="0" result="BackgroundImageFix"/>
<feColorMatrix in="SourceAlpha" type="matrix" values="0 0 0 0 0 0 0 0 0 0 0 0 0 0 0 0 0 0 127 0" result="hardAlpha"/>
<feMorphology radius="5" operator="erode" in="SourceAlpha" result="effect1_dropShadow_2066_44657"/>
<feOffset dy="10"/>
<feGaussianBlur stdDeviation="5"/>
<feColorMatrix type="matrix" values="0 0 0 0 0 0 0 0 0 0 0 0 0 0 0 0 0 0 0.04 0"/>
<feBlend mode="normal" in2="BackgroundImageFix" result="effect1_dropShadow_2066_44657"/>
<feColorMatrix in="SourceAlpha" type="matrix" values="0 0 0 0 0 0 0 0 0 0 0 0 0 0 0 0 0 0 127 0" result="hardAlpha"/>
<feMorphology radius="5" operator="erode" in="SourceAlpha" result="effect2_dropShadow_2066_44657"/>
<feOffset dy="20"/>
<feGaussianBlur stdDeviation="12.5"/>
<feColorMatrix type="matrix" values="0 0 0 0 0 0 0 0 0 0 0 0 0 0 0 0 0 0 0.1 0"/>
<feBlend mode="normal" in2="effect1_dropShadow_2066_44657" result="effect2_dropShadow_2066_44657"/>
<feBlend mode="normal" in="SourceGraphic" in2="effect2_dropShadow_2066_44657" result="shape"/>
</filter>
<filter id="filter2_dd_2066_44657" x="361" y="0" width="198.206" height="198.443" filterUnits="userSpaceOnUse" color-interpolation-filters="sRGB">
<feFlood flood-opacity="0" result="BackgroundImageFix"/>
<feColorMatrix in="SourceAlpha" type="matrix" values="0 0 0 0 0 0 0 0 0 0 0 0 0 0 0 0 0 0 127 0" result="hardAlpha"/>
<feMorphology radius="5" operator="erode" in="SourceAlpha" result="effect1_dropShadow_2066_44657"/>
<feOffset dy="10"/>
<feGaussianBlur stdDeviation="5"/>
<feColorMatrix type="matrix" values="0 0 0 0 0 0 0 0 0 0 0 0 0 0 0 0 0 0 0.04 0"/>
<feBlend mode="normal" in2="BackgroundImageFix" result="effect1_dropShadow_2066_44657"/>
<feColorMatrix in="SourceAlpha" type="matrix" values="0 0 0 0 0 0 0 0 0 0 0 0 0 0 0 0 0 0 127 0" result="hardAlpha"/>
<feMorphology radius="5" operator="erode" in="SourceAlpha" result="effect2_dropShadow_2066_44657"/>
<feOffset dy="20"/>
<feGaussianBlur stdDeviation="12.5"/>
<feColorMatrix type="matrix" values="0 0 0 0 0 0 0 0 0 0 0 0 0 0 0 0 0 0 0.1 0"/>
<feBlend mode="normal" in2="effect1_dropShadow_2066_44657" result="effect2_dropShadow_2066_44657"/>
<feBlend mode="normal" in="SourceGraphic" in2="effect2_dropShadow_2066_44657" result="shape"/>
</filter>
<filter id="filter3_dd_2066_44657" x="0" y="0" width="198.206" height="198.443" filterUnits="userSpaceOnUse" color-interpolation-filters="sRGB">
<feFlood flood-opacity="0" result="BackgroundImageFix"/>
<feColorMatrix in="SourceAlpha" type="matrix" values="0 0 0 0 0 0 0 0 0 0 0 0 0 0 0 0 0 0 127 0" result="hardAlpha"/>
<feMorphology radius="5" operator="erode" in="SourceAlpha" result="effect1_dropShadow_2066_44657"/>
<feOffset dy="10"/>
<feGaussianBlur stdDeviation="5"/>
<feColorMatrix type="matrix" values="0 0 0 0 0 0 0 0 0 0 0 0 0 0 0 0 0 0 0.04 0"/>
<feBlend mode="normal" in2="BackgroundImageFix" result="effect1_dropShadow_2066_44657"/>
<feColorMatrix in="SourceAlpha" type="matrix" values="0 0 0 0 0 0 0 0 0 0 0 0 0 0 0 0 0 0 127 0" result="hardAlpha"/>
<feMorphology radius="5" operator="erode" in="SourceAlpha" result="effect2_dropShadow_2066_44657"/>
<feOffset dy="20"/>
<feGaussianBlur stdDeviation="12.5"/>
<feColorMatrix type="matrix" values="0 0 0 0 0 0 0 0 0 0 0 0 0 0 0 0 0 0 0.1 0"/>
<feBlend mode="normal" in2="effect1_dropShadow_2066_44657" result="effect2_dropShadow_2066_44657"/>
<feBlend mode="normal" in="SourceGraphic" in2="effect2_dropShadow_2066_44657" result="shape"/>
</filter>
<filter id="filter4_dd_2066_44657" x="361" y="181" width="198.206" height="198.443" filterUnits="userSpaceOnUse" color-interpolation-filters="sRGB">
<feFlood flood-opacity="0" result="BackgroundImageFix"/>
<feColorMatrix in="SourceAlpha" type="matrix" values="0 0 0 0 0 0 0 0 0 0 0 0 0 0 0 0 0 0 127 0" result="hardAlpha"/>
<feMorphology radius="5" operator="erode" in="SourceAlpha" result="effect1_dropShadow_2066_44657"/>
<feOffset dy="10"/>
<feGaussianBlur stdDeviation="5"/>
<feColorMatrix type="matrix" values="0 0 0 0 0 0 0 0 0 0 0 0 0 0 0 0 0 0 0.04 0"/>
<feBlend mode="normal" in2="BackgroundImageFix" result="effect1_dropShadow_2066_44657"/>
<feColorMatrix in="SourceAlpha" type="matrix" values="0 0 0 0 0 0 0 0 0 0 0 0 0 0 0 0 0 0 127 0" result="hardAlpha"/>
<feMorphology radius="5" operator="erode" in="SourceAlpha" result="effect2_dropShadow_2066_44657"/>
<feOffset dy="20"/>
<feGaussianBlur stdDeviation="12.5"/>
<feColorMatrix type="matrix" values="0 0 0 0 0 0 0 0 0 0 0 0 0 0 0 0 0 0 0.1 0"/>
<feBlend mode="normal" in2="effect1_dropShadow_2066_44657" result="effect2_dropShadow_2066_44657"/>
<feBlend mode="normal" in="SourceGraphic" in2="effect2_dropShadow_2066_44657" result="shape"/>
</filter>
<filter id="filter5_dd_2066_44657" x="180" y="0" width="198.206" height="198.443" filterUnits="userSpaceOnUse" color-interpolation-filters="sRGB">
<feFlood flood-opacity="0" result="BackgroundImageFix"/>
<feColorMatrix in="SourceAlpha" type="matrix" values="0 0 0 0 0 0 0 0 0 0 0 0 0 0 0 0 0 0 127 0" result="hardAlpha"/>
<feMorphology radius="5" operator="erode" in="SourceAlpha" result="effect1_dropShadow_2066_44657"/>
<feOffset dy="10"/>
<feGaussianBlur stdDeviation="5"/>
<feColorMatrix type="matrix" values="0 0 0 0 0 0 0 0 0 0 0 0 0 0 0 0 0 0 0.04 0"/>
<feBlend mode="normal" in2="BackgroundImageFix" result="effect1_dropShadow_2066_44657"/>
<feColorMatrix in="SourceAlpha" type="matrix" values="0 0 0 0 0 0 0 0 0 0 0 0 0 0 0 0 0 0 127 0" result="hardAlpha"/>
<feMorphology radius="5" operator="erode" in="SourceAlpha" result="effect2_dropShadow_2066_44657"/>
<feOffset dy="20"/>
<feGaussianBlur stdDeviation="12.5"/>
<feColorMatrix type="matrix" values="0 0 0 0 0 0 0 0 0 0 0 0 0 0 0 0 0 0 0.1 0"/>
<feBlend mode="normal" in2="effect1_dropShadow_2066_44657" result="effect2_dropShadow_2066_44657"/>
<feBlend mode="normal" in="SourceGraphic" in2="effect2_dropShadow_2066_44657" result="shape"/>
</filter>
<linearGradient id="paint0_linear_2066_44657" x1="88.3488" y1="253.107" x2="104.052" y2="248.097" gradientUnits="userSpaceOnUse">
<stop stop-color="#FF9900"/>
<stop offset="1" stop-color="#FFC700"/>
</linearGradient>
<linearGradient id="paint1_linear_2066_44657" x1="459.783" y1="59.463" x2="445.267" y2="75.1989" gradientUnits="userSpaceOnUse">
<stop offset="0.58" stop-color="#A0A8D4"/>
<stop offset="0.73" stop-color="#8791C7"/>
<stop offset="0.91" stop-color="#6470B4"/>
</linearGradient>
<linearGradient id="paint2_linear_2066_44657" x1="460.095" y1="98.5447" x2="474.613" y2="82.8118" gradientUnits="userSpaceOnUse">
<stop offset="0.58" stop-color="#A0A8D4"/>
<stop offset="0.73" stop-color="#8791C7"/>
<stop offset="0.91" stop-color="#6470B4"/>
</linearGradient>
<linearGradient id="paint3_linear_2066_44657" x1="459.938" y1="58.8107" x2="459.938" y2="99.124" gradientUnits="userSpaceOnUse">
<stop stop-color="#513EFF"/>
<stop offset="0.18" stop-color="#5157FF"/>
<stop offset="0.57" stop-color="#5298FF"/>
<stop offset="1" stop-color="#52E5FF"/>
</linearGradient>
<clipPath id="clip0_2066_44657">
<rect width="39.2063" height="40" fill="white" transform="translate(79 59)"/>
</clipPath>
<clipPath id="clip1_2066_44657">
<rect width="40" height="32.9032" fill="white" transform="translate(440 244)"/>
</clipPath>
</defs>
</svg>
